<svg width="2295" height="3148" xmlns="http://www.w3.org/2000/svg" xmlns:xlink="http://www.w3.org/1999/xlink" xml:space="preserve" overflow="hidden"><defs><clipPath id="clip0"><rect x="2844" y="302" width="2295" height="3148"/></clipPath></defs><g clip-path="url(#clip0)" transform="translate(-2844 -302)"><path d="M4129.5 1282.84C4129.5 1193.18 4202.18 1120.5 4291.84 1120.5L4941.16 1120.5C5030.82 1120.5 5103.5 1193.18 5103.5 1282.84L5103.5 3056.16C5103.5 3145.82 5030.82 3218.5 4941.16 3218.5L4291.84 3218.5C4202.18 3218.5 4129.5 3145.82 4129.5 3056.16Z" stroke="#41719C" stroke-width="4.58333" stroke-miterlimit="8" fill="#EDEDED" fill-rule="evenodd"/><path d="M2941.5 934.504C2941.5 847.793 3011.79 777.5 3098.5 777.5L3726.5 777.5C3813.21 777.5 3883.5 847.793 3883.5 934.504L3883.5 3078.5C3883.5 3165.21 3813.21 3235.5 3726.5 3235.5L3098.5 3235.5C3011.79 3235.5 2941.5 3165.21 2941.5 3078.5Z" stroke="#41719C" stroke-width="4.58333" stroke-miterlimit="8" fill="#DEEBF7" fill-rule="evenodd"/><text font-family="Times New Roman,Times New Roman_MSFontService,sans-serif" font-weight="700" font-size="83" transform="matrix(1 0 0 1 3261.82 407)">Glutamate</text><text font-family="Times New Roman,Times New Roman_MSFontService,sans-serif" font-weight="700" font-size="83" transform="matrix(1 0 0 1 3073.9 946)">N</text><text font-family="Times New Roman,Times New Roman_MSFontService,sans-serif" font-weight="700" font-size="83" transform="matrix(1 0 0 1 3133.48 946)">-</text><text font-family="Times New Roman,Times New Roman_MSFontService,sans-serif" font-weight="700" font-size="83" transform="matrix(1 0 0 1 3160.98 946)">Acetylglutamate</text><text font-family="Times New Roman,Times New Roman_MSFontService,sans-serif" font-weight="700" font-size="83" transform="matrix(1 0 0 1 3084.44 1260)">N</text><text font-family="Times New Roman,Times New Roman_MSFontService,sans-serif" font-weight="700" font-size="83" transform="matrix(1 0 0 1 3144.03 1260)">-</text><text font-family="Times New Roman,Times New Roman_MSFontService,sans-serif" font-weight="700" font-size="83" transform="matrix(1 0 0 1 3171.53 1260)">Acetylglutamyl</text><text font-family="Times New Roman,Times New Roman_MSFontService,sans-serif" font-weight="700" font-size="83" transform="matrix(1 0 0 1 3232.25 1359)">phosophate</text><text font-family="Times New Roman,Times New Roman_MSFontService,sans-serif" font-weight="700" font-size="83" transform="matrix(1 0 0 1 3065.42 1636)">N</text><text font-family="Times New Roman,Times New Roman_MSFontService,sans-serif" font-weight="700" font-size="83" transform="matrix(1 0 0 1 3125 1636)">-</text><text font-family="Times New Roman,Times New Roman_MSFontService,sans-serif" font-weight="700" font-size="83" transform="matrix(1 0 0 1 3152.5 1636)">Acetylglutamate</text><text font-family="Times New Roman,Times New Roman_MSFontService,sans-serif" font-weight="700" font-size="83" transform="matrix(1 0 0 1 3213.81 1735)">semialdehyde</text><text font-family="Times New Roman,Times New Roman_MSFontService,sans-serif" font-weight="700" font-size="83" transform="matrix(1 0 0 1 3263.65 2270)">Ornithine</text><text font-family="Times New Roman,Times New Roman_MSFontService,sans-serif" font-weight="700" font-size="83" transform="matrix(1 0 0 1 3263.65 2563)">Citrulline</text><text font-family="Times New Roman,Times New Roman_MSFontService,sans-serif" font-weight="700" font-size="83" transform="matrix(1 0 0 1 3098.65 2856)">L</text><text font-family="Times New Roman,Times New Roman_MSFontService,sans-serif" font-weight="700" font-size="83" transform="matrix(1 0 0 1 3153.65 2856)">-</text><text font-family="Times New Roman,Times New Roman_MSFontService,sans-serif" font-weight="700" font-size="83" transform="matrix(1 0 0 1 3181.15 2856)">Argininosuccinate</text><text font-family="Times New Roman,Times New Roman_MSFontService,sans-serif" font-weight="700" font-size="83" transform="matrix(1 0 0 1 3263.65 3150)">Arginine</text><text fill="#00B050" font-family="Times New Roman,Times New Roman_MSFontService,sans-serif" font-style="italic" font-weight="400" font-size="73" transform="matrix(1 0 0 1 3510.23 1096)">argB</text><text fill="#FFC000" font-family="Times New Roman,Times New Roman_MSFontService,sans-serif" font-style="italic" font-weight="400" font-size="73" transform="matrix(1 0 0 1 3510.23 1505)">argC</text><text fill="#00B050" font-family="Times New Roman,Times New Roman_MSFontService,sans-serif" font-style="italic" font-weight="400" font-size="73" transform="matrix(1 0 0 1 3510.23 1860)">argD</text><text fill="#00B050" font-family="Times New Roman,Times New Roman_MSFontService,sans-serif" font-style="italic" font-weight="400" font-size="73" transform="matrix(1 0 0 1 3510.23 2394)">argF</text><text fill="#00B050" font-family="Times New Roman,Times New Roman_MSFontService,sans-serif" font-style="italic" font-weight="400" font-size="73" transform="matrix(1 0 0 1 3496.48 2674)">argG</text><text fill="#00B050" font-family="Times New Roman,Times New Roman_MSFontService,sans-serif" font-style="italic" font-weight="400" font-size="73" transform="matrix(1 0 0 1 3485.03 735)">argJ</text><text font-family="Times New Roman,Times New Roman_MSFontService,sans-serif" font-weight="700" font-size="83" transform="matrix(1 0 0 1 3098.65 2010)">N</text><text font-family="Times New Roman,Times New Roman_MSFontService,sans-serif" font-weight="700" font-size="83" transform="matrix(1 0 0 1 3158.23 2010)">-</text><text font-family="Times New Roman,Times New Roman_MSFontService,sans-serif" font-weight="700" font-size="83" transform="matrix(1 0 0 1 3185.73 2010)">Acetylornithine</text><text fill="#00B050" font-family="Times New Roman,Times New Roman_MSFontService,sans-serif" font-style="italic" font-weight="400" font-size="73" transform="matrix(1 0 0 1 3496.48 2980)">argH</text><text fill="#00B050" font-family="Times New Roman,Times New Roman_MSFontService,sans-serif" font-style="italic" font-weight="400" font-size="73" transform="matrix(1 0 0 1 3510.23 2140)">argJ</text><path d="M3439.08 974.5 3439.08 1140.88 3429.92 1140.88 3429.92 974.5ZM3448.25 1136.29 3434.5 1163.79 3420.75 1136.29Z" fill="#00B050"/><path d="M3438.08 1372.5 3438.08 1538.88 3428.92 1538.88 3428.92 1372.5ZM3447.25 1534.29 3433.5 1561.79 3419.75 1534.29Z" fill="#FFC000"/><path d="M3438.08 1756.5 3438.08 1922.88 3428.92 1922.88 3428.92 1756.5ZM3447.25 1918.29 3433.5 1945.79 3419.75 1918.29Z" fill="#00B050"/><path d="M3439.08 2028.5 3439.08 2194.88 3429.92 2194.88 3429.92 2028.5ZM3448.25 2190.29 3434.5 2217.79 3420.75 2190.29Z" fill="#00B050"/><path d="M3439.08 2298.5 3439.08 2464.88 3429.92 2464.88 3429.92 2298.5ZM3448.25 2460.29 3434.5 2487.79 3420.75 2460.29Z" fill="#00B050"/><path d="M3439.08 2598.5 3439.08 2764.88 3429.92 2764.88 3429.92 2598.5ZM3448.25 2760.29 3434.5 2787.79 3420.75 2760.29Z" fill="#00B050"/><path d="M3439.08 2886.5 3439.08 3052.88 3429.92 3052.88 3429.92 2886.5ZM3448.25 3048.29 3434.5 3075.79 3420.75 3048.29Z" fill="#00B050"/><text font-family="Times New Roman,Times New Roman_MSFontService,sans-serif" font-weight="700" font-size="83" transform="matrix(1 0 0 1 4367.32 1515)">Carbamonyl</text><text font-family="Times New Roman,Times New Roman_MSFontService,sans-serif" font-weight="700" font-size="83" transform="matrix(1 0 0 1 4811.9 1515)">-</text><text font-family="Times New Roman,Times New Roman_MSFontService,sans-serif" font-weight="700" font-size="83" transform="matrix(1 0 0 1 4839.4 1515)">P</text><text font-family="Times New Roman,Times New Roman_MSFontService,sans-serif" font-weight="700" font-size="83" transform="matrix(1 0 0 1 4391.84 1250)">L</text><text font-family="Times New Roman,Times New Roman_MSFontService,sans-serif" font-weight="700" font-size="83" transform="matrix(1 0 0 1 4446.84 1250)">-</text><text font-family="Times New Roman,Times New Roman_MSFontService,sans-serif" font-weight="700" font-size="83" transform="matrix(1 0 0 1 4474.34 1250)">Glutamate</text><path d="M4645.08 1276.5 4645.08 1429.12 4635.92 1429.12 4635.92 1276.5ZM4654.25 1424.54 4640.5 1452.04 4626.75 1424.54Z" fill="#00B050"/><text font-family="Times New Roman,Times New Roman_MSFontService,sans-serif" font-weight="700" font-size="83" transform="matrix(1 0 0 1 4328.7 1759)">N</text><text font-family="Times New Roman,Times New Roman_MSFontService,sans-serif" font-weight="700" font-size="83" transform="matrix(1 0 0 1 4388.29 1759)">-</text><text font-family="Times New Roman,Times New Roman_MSFontService,sans-serif" font-weight="700" font-size="83" transform="matrix(1 0 0 1 4415.79 1759)">Carbomoyl</text><text font-family="Times New Roman,Times New Roman_MSFontService,sans-serif" font-weight="700" font-size="83" transform="matrix(1 0 0 1 4814.54 1759)">-</text><text font-family="Times New Roman,Times New Roman_MSFontService,sans-serif" font-weight="700" font-size="83" transform="matrix(1 0 0 1 4842.04 1759)">L</text><text font-family="Times New Roman,Times New Roman_MSFontService,sans-serif" font-weight="700" font-size="83" transform="matrix(1 0 0 1 4897.04 1759)">-</text><text font-family="Times New Roman,Times New Roman_MSFontService,sans-serif" font-weight="700" font-size="83" transform="matrix(1 0 0 1 4461.62 1858)">aspartate</text><text font-family="Times New Roman,Times New Roman_MSFontService,sans-serif" font-weight="700" font-size="83" transform="matrix(1 0 0 1 4324.81 2095)">Dihydro</text><text font-family="Times New Roman,Times New Roman_MSFontService,sans-serif" font-weight="700" font-size="83" transform="matrix(1 0 0 1 4618.14 2095)">-</text><text font-family="Times New Roman,Times New Roman_MSFontService,sans-serif" font-weight="700" font-size="83" transform="matrix(1 0 0 1 4645.64 2095)">orotate</text><text font-family="Times New Roman,Times New Roman_MSFontService,sans-serif" font-weight="700" font-size="83" transform="matrix(1 0 0 1 4485.22 2379)">Orotate</text><text font-family="Times New Roman,Times New Roman_MSFontService,sans-serif" font-weight="700" font-size="83" transform="matrix(1 0 0 1 4391.26 2634)">Orotidine</text><text font-family="Times New Roman,Times New Roman_MSFontService,sans-serif" font-weight="700" font-size="83" transform="matrix(1 0 0 1 4735.01 2634)">-</text><text font-family="Times New Roman,Times New Roman_MSFontService,sans-serif" font-weight="700" font-size="83" transform="matrix(1 0 0 1 4762.51 2634)">5P</text><text font-family="Times New Roman,Times New Roman_MSFontService,sans-serif" font-weight="700" font-size="83" transform="matrix(1 0 0 1 4528.88 2895)">UMP</text><text font-family="Times New Roman,Times New Roman_MSFontService,sans-serif" font-weight="700" font-size="83" transform="matrix(1 0 0 1 4512.84 3150)">Uracil</text><text fill="#00B050" font-family="Times New Roman,Times New Roman_MSFontService,sans-serif" font-style="italic" font-weight="400" font-size="73" transform="matrix(1 0 0 1 4693.88 1333)">carA</text><text fill="#FFC000" font-family="Times New Roman,Times New Roman_MSFontService,sans-serif" font-style="italic" font-weight="400" font-size="73" transform="matrix(1 0 0 1 4693.88 1421)">carB</text><path d="M4645.08 1534.5 4645.08 1662.38 4635.92 1662.38 4635.92 1534.5ZM4654.25 1657.79 4640.5 1685.29 4626.75 1657.79Z" fill="#2E75B6"/><text fill="#2E75B6" font-family="Times New Roman,Times New Roman_MSFontService,sans-serif" font-style="italic" font-weight="400" font-size="73" transform="matrix(1 0 0 1 4704.65 1612)">pyrB</text><path d="M4.58243-0.0908104 7.10755 127.33-2.05732 127.512-4.58243 0.0908104ZM16.1816 122.566 2.97917 150.333-11.313 123.111Z" fill="#2E75B6" transform="matrix(-1 0 0 1 4640.48 1886.5)"/><path d="M4637.08 2140.5 4637.08 2269.52 4627.92 2269.52 4627.92 2140.5ZM4646.25 2264.94 4632.5 2292.44 4618.75 2264.94Z"/><text font-family="Times New Roman,Times New Roman_MSFontService,sans-serif" font-style="italic" font-weight="400" font-size="73" transform="matrix(1 0 0 1 4674.4 2225)">pyrD</text><path d="M4637.08 2406.5 4637.08 2534.83 4627.92 2534.83 4627.92 2406.5ZM4646.25 2530.25 4632.5 2557.75 4618.75 2530.25Z"/><text font-family="Times New Roman,Times New Roman_MSFontService,sans-serif" font-style="italic" font-weight="400" font-size="73" transform="matrix(1 0 0 1 4671.42 2492)">pyrE</text><path d="M4.58321-0.0338494 5.55979 132.196-3.60662 132.264-4.58321 0.0338494ZM14.6924 127.545 1.14583 155.146-12.8069 127.748Z" fill="#FFC000" transform="matrix(-1 0 0 1 4631.65 2660.5)"/><text fill="#FFC000" font-family="Times New Roman,Times New Roman_MSFontService,sans-serif" font-style="italic" font-weight="400" font-size="73" transform="matrix(1 0 0 1 4693.88 2735)">pyrF</text><path d="M4.58321-0.0336012 5.56104 133.342-3.60538 133.409-4.58321 0.0336012ZM14.6939 128.692 1.14583 156.292-12.8054 128.893Z" transform="matrix(-1 0 0 1 4631.65 2932.5)"/><text font-family="Times New Roman,Times New Roman_MSFontService,sans-serif" font-style="italic" font-weight="400" font-size="73" transform="matrix(1 0 0 1 4694.11 2998)">pyrR</text><text fill="#2E75B6" font-family="Times New Roman,Times New Roman_MSFontService,sans-serif" font-style="italic" font-weight="400" font-size="73" transform="matrix(1 0 0 1 4685.86 1979)">pyrC</text><text fill="#5B9BD5" font-family="Times New Roman,Times New Roman_MSFontService,sans-serif" font-weight="400" font-size="110" transform="matrix(1 0 0 1 2910.5 3358)">Arginine biosynthesis</text><text fill="#A5A5A5" font-family="Times New Roman,Times New Roman_MSFontService,sans-serif" font-weight="400" font-size="110" transform="matrix(1 0 0 1 4179.86 3358)">Uracil </text><text fill="#A5A5A5" font-family="Times New Roman,Times New Roman_MSFontService,sans-serif" font-weight="400" font-size="110" transform="matrix(1 0 0 1 4481.79 3358)">biosynthesis</text><path d="M4.58259-0.0823823 10.8974 351.183 1.73218 351.347-4.58259 0.0823823ZM19.9802 346.435 6.72667 374.178-7.5154 346.929Z" fill="#00B050" transform="matrix(-1 0 0 1 3464.23 456.5)"/><path d="M3696.5 372.917 4020.31 372.917 4020.31 1485.06 4015.73 1480.48 4312.04 1480.48 4312.04 1489.65 4011.15 1489.65 4011.15 377.5 4015.73 382.083 3696.5 382.083ZM4307.46 1471.31 4334.96 1485.06 4307.46 1498.81Z"/><rect x="4090.5" y="352.5" width="1046" height="654" stroke="#AFABAB" stroke-width="4.58333" stroke-miterlimit="8" fill="none"/><text font-family="Times New Roman,Times New Roman_MSFontService,sans-serif" font-weight="400" font-size="73" transform="matrix(1 0 0 1 4403.98 439)">In regulon as well as </text><text font-family="Times New Roman,Times New Roman_MSFontService,sans-serif" font-weight="400" font-size="73" transform="matrix(1 0 0 1 4403.98 527)">in iModulon (ArgR)</text><text font-family="Times New Roman,Times New Roman_MSFontService,sans-serif" font-weight="400" font-size="73" transform="matrix(1 0 0 1 4398.29 641)">In iModulon</text><rect x="4142" y="423" width="218" height="88.9997" fill="#00B050"/><rect x="4143" y="571" width="218" height="88" fill="#2E75B6"/><rect x="4143" y="718" width="218" height="89" fill="#FFC000"/><rect x="4147" y="866" width="218" height="89"/><text font-family="Times New Roman,Times New Roman_MSFontService,sans-serif" font-weight="400" font-size="73" transform="matrix(1 0 0 1 4398.29 777)">In regulon</text><text font-family="Times New Roman,Times New Roman_MSFontService,sans-serif" font-weight="400" font-size="73" transform="matrix(1 0 0 1 4398.29 887)">Not in iModulon</text><text font-family="Times New Roman,Times New Roman_MSFontService,sans-serif" font-weight="400" font-size="73" transform="matrix(1 0 0 1 4398.29 975)">and regulon</text></g></svg>