<svg width="2295" height="3131" xmlns="http://www.w3.org/2000/svg" xmlns:xlink="http://www.w3.org/1999/xlink" xml:space="preserve" overflow="hidden"><defs><clipPath id="clip0"><rect x="1037" y="-511" width="2295" height="3131"/></clipPath></defs><g clip-path="url(#clip0)" transform="translate(-1037 511)"><path d="M2322.5 452.836C2322.5 363.18 2395.18 290.5 2484.84 290.5L3134.16 290.5C3223.82 290.5 3296.5 363.18 3296.5 452.836L3296.5 2226.16C3296.5 2315.82 3223.82 2388.5 3134.16 2388.5L2484.84 2388.5C2395.18 2388.5 2322.5 2315.82 2322.5 2226.16Z" stroke="#41719C" stroke-width="4.58333" stroke-miterlimit="8" fill="#EDEDED" fill-rule="evenodd"/><path d="M1134.5 104.504C1134.5 17.793 1204.79-52.5001 1291.5-52.5001L1919.5-52.5001C2006.21-52.5001 2076.5 17.793 2076.5 104.504L2076.5 2248.5C2076.5 2335.21 2006.21 2405.5 1919.5 2405.5L1291.5 2405.5C1204.79 2405.5 1134.5 2335.21 1134.5 2248.5Z" stroke="#41719C" stroke-width="4.58333" stroke-miterlimit="8" fill="#DEEBF7" fill-rule="evenodd"/><text font-family="Times New Roman,Times New Roman_MSFontService,sans-serif" font-weight="700" font-size="83" transform="matrix(1 0 0 1 1455.17 -405)">Glutamate</text><text font-family="Times New Roman,Times New Roman_MSFontService,sans-serif" font-weight="700" font-size="83" transform="matrix(1 0 0 1 1267.26 116)">N</text><text font-family="Times New Roman,Times New Roman_MSFontService,sans-serif" font-weight="700" font-size="83" transform="matrix(1 0 0 1 1326.84 116)">-</text><text font-family="Times New Roman,Times New Roman_MSFontService,sans-serif" font-weight="700" font-size="83" transform="matrix(1 0 0 1 1354.34 116)">Acetylglutamate</text><text font-family="Times New Roman,Times New Roman_MSFontService,sans-serif" font-weight="700" font-size="83" transform="matrix(1 0 0 1 1277.8 430)">N</text><text font-family="Times New Roman,Times New Roman_MSFontService,sans-serif" font-weight="700" font-size="83" transform="matrix(1 0 0 1 1337.38 430)">-</text><text font-family="Times New Roman,Times New Roman_MSFontService,sans-serif" font-weight="700" font-size="83" transform="matrix(1 0 0 1 1364.88 430)">Acetylglutamyl</text><text font-family="Times New Roman,Times New Roman_MSFontService,sans-serif" font-weight="700" font-size="83" transform="matrix(1 0 0 1 1425.61 529)">phosophate</text><text font-family="Times New Roman,Times New Roman_MSFontService,sans-serif" font-weight="700" font-size="83" transform="matrix(1 0 0 1 1258.78 806)">N</text><text font-family="Times New Roman,Times New Roman_MSFontService,sans-serif" font-weight="700" font-size="83" transform="matrix(1 0 0 1 1318.36 806)">-</text><text font-family="Times New Roman,Times New Roman_MSFontService,sans-serif" font-weight="700" font-size="83" transform="matrix(1 0 0 1 1345.86 806)">Acetylglutamate</text><text font-family="Times New Roman,Times New Roman_MSFontService,sans-serif" font-weight="700" font-size="83" transform="matrix(1 0 0 1 1407.16 905)">semialdehyde</text><text font-family="Times New Roman,Times New Roman_MSFontService,sans-serif" font-weight="700" font-size="83" transform="matrix(1 0 0 1 1457.01 1440)">Ornithine</text><text font-family="Times New Roman,Times New Roman_MSFontService,sans-serif" font-weight="700" font-size="83" transform="matrix(1 0 0 1 1457.01 1733)">Citrulline</text><text font-family="Times New Roman,Times New Roman_MSFontService,sans-serif" font-weight="700" font-size="83" transform="matrix(1 0 0 1 1292.01 2026)">L</text><text font-family="Times New Roman,Times New Roman_MSFontService,sans-serif" font-weight="700" font-size="83" transform="matrix(1 0 0 1 1347.01 2026)">-</text><text font-family="Times New Roman,Times New Roman_MSFontService,sans-serif" font-weight="700" font-size="83" transform="matrix(1 0 0 1 1374.51 2026)">Argininosuccinate</text><text font-family="Times New Roman,Times New Roman_MSFontService,sans-serif" font-weight="700" font-size="83" transform="matrix(1 0 0 1 1457.01 2320)">Arginine</text><text fill="#00B050" font-family="Times New Roman,Times New Roman_MSFontService,sans-serif" font-style="italic" font-weight="400" font-size="73" transform="matrix(1 0 0 1 1703.59 265)">argB</text><text fill="#FFC000" font-family="Times New Roman,Times New Roman_MSFontService,sans-serif" font-style="italic" font-weight="400" font-size="73" transform="matrix(1 0 0 1 1703.59 675)">argC</text><text fill="#00B050" font-family="Times New Roman,Times New Roman_MSFontService,sans-serif" font-style="italic" font-weight="400" font-size="73" transform="matrix(1 0 0 1 1703.59 1030)">argD</text><text fill="#00B050" font-family="Times New Roman,Times New Roman_MSFontService,sans-serif" font-style="italic" font-weight="400" font-size="73" transform="matrix(1 0 0 1 1703.59 1564)">argF</text><text fill="#00B050" font-family="Times New Roman,Times New Roman_MSFontService,sans-serif" font-style="italic" font-weight="400" font-size="73" transform="matrix(1 0 0 1 1689.84 1844)">argG</text><text fill="#00B050" font-family="Times New Roman,Times New Roman_MSFontService,sans-serif" font-style="italic" font-weight="400" font-size="73" transform="matrix(1 0 0 1 1678.38 -95)">argJ</text><text font-family="Times New Roman,Times New Roman_MSFontService,sans-serif" font-weight="700" font-size="83" transform="matrix(1 0 0 1 1292.01 1180)">N</text><text font-family="Times New Roman,Times New Roman_MSFontService,sans-serif" font-weight="700" font-size="83" transform="matrix(1 0 0 1 1351.59 1180)">-</text><text font-family="Times New Roman,Times New Roman_MSFontService,sans-serif" font-weight="700" font-size="83" transform="matrix(1 0 0 1 1379.09 1180)">Acetylornithine</text><text fill="#00B050" font-family="Times New Roman,Times New Roman_MSFontService,sans-serif" font-style="italic" font-weight="400" font-size="73" transform="matrix(1 0 0 1 1689.84 2150)">argH</text><text fill="#00B050" font-family="Times New Roman,Times New Roman_MSFontService,sans-serif" font-style="italic" font-weight="400" font-size="73" transform="matrix(1 0 0 1 1703.59 1309)">argJ</text><path d="M1632.08 144.5 1632.08 310.875 1622.92 310.875 1622.92 144.5ZM1641.25 306.292 1627.5 333.792 1613.75 306.292Z" fill="#00B050"/><path d="M1632.08 542.5 1632.08 708.875 1622.92 708.875 1622.92 542.5ZM1641.25 704.292 1627.5 731.792 1613.75 704.292Z" fill="#FFC000"/><path d="M1632.08 926.5 1632.08 1092.87 1622.92 1092.87 1622.92 926.5ZM1641.25 1088.29 1627.5 1115.79 1613.75 1088.29Z" fill="#00B050"/><path d="M1632.08 1198.5 1632.08 1364.88 1622.92 1364.88 1622.92 1198.5ZM1641.25 1360.29 1627.5 1387.79 1613.75 1360.29Z" fill="#00B050"/><path d="M1632.08 1468.5 1632.08 1634.88 1622.92 1634.88 1622.92 1468.5ZM1641.25 1630.29 1627.5 1657.79 1613.75 1630.29Z" fill="#00B050"/><path d="M1632.08 1768.5 1632.08 1934.88 1622.92 1934.88 1622.92 1768.5ZM1641.25 1930.29 1627.5 1957.79 1613.75 1930.29Z" fill="#00B050"/><path d="M1632.08 2056.5 1632.08 2222.88 1622.92 2222.88 1622.92 2056.5ZM1641.25 2218.29 1627.5 2245.79 1613.75 2218.29Z" fill="#00B050"/><text font-family="Times New Roman,Times New Roman_MSFontService,sans-serif" font-weight="700" font-size="83" transform="matrix(1 0 0 1 2560.67 685)">Carbamonyl</text><text font-family="Times New Roman,Times New Roman_MSFontService,sans-serif" font-weight="700" font-size="83" transform="matrix(1 0 0 1 3005.26 685)">-</text><text font-family="Times New Roman,Times New Roman_MSFontService,sans-serif" font-weight="700" font-size="83" transform="matrix(1 0 0 1 3032.76 685)">P</text><text font-family="Times New Roman,Times New Roman_MSFontService,sans-serif" font-weight="700" font-size="83" transform="matrix(1 0 0 1 2585.19 420)">L</text><text font-family="Times New Roman,Times New Roman_MSFontService,sans-serif" font-weight="700" font-size="83" transform="matrix(1 0 0 1 2640.19 420)">-</text><text font-family="Times New Roman,Times New Roman_MSFontService,sans-serif" font-weight="700" font-size="83" transform="matrix(1 0 0 1 2667.69 420)">Glutamate</text><path d="M2838.08 446.5 2838.08 599.125 2828.92 599.125 2828.92 446.5ZM2847.25 594.542 2833.5 622.042 2819.75 594.542Z" fill="#00B050"/><text font-family="Times New Roman,Times New Roman_MSFontService,sans-serif" font-weight="700" font-size="83" transform="matrix(1 0 0 1 2522.06 929)">N</text><text font-family="Times New Roman,Times New Roman_MSFontService,sans-serif" font-weight="700" font-size="83" transform="matrix(1 0 0 1 2581.64 929)">-</text><text font-family="Times New Roman,Times New Roman_MSFontService,sans-serif" font-weight="700" font-size="83" transform="matrix(1 0 0 1 2609.14 929)">Carbomoyl</text><text font-family="Times New Roman,Times New Roman_MSFontService,sans-serif" font-weight="700" font-size="83" transform="matrix(1 0 0 1 3007.89 929)">-</text><text font-family="Times New Roman,Times New Roman_MSFontService,sans-serif" font-weight="700" font-size="83" transform="matrix(1 0 0 1 3035.39 929)">L</text><text font-family="Times New Roman,Times New Roman_MSFontService,sans-serif" font-weight="700" font-size="83" transform="matrix(1 0 0 1 3090.39 929)">-</text><text font-family="Times New Roman,Times New Roman_MSFontService,sans-serif" font-weight="700" font-size="83" transform="matrix(1 0 0 1 2654.98 1028)">aspartate</text><text font-family="Times New Roman,Times New Roman_MSFontService,sans-serif" font-weight="700" font-size="83" transform="matrix(1 0 0 1 2518.16 1265)">Dihydro</text><text font-family="Times New Roman,Times New Roman_MSFontService,sans-serif" font-weight="700" font-size="83" transform="matrix(1 0 0 1 2811.5 1265)">-</text><text font-family="Times New Roman,Times New Roman_MSFontService,sans-serif" font-weight="700" font-size="83" transform="matrix(1 0 0 1 2839 1265)">orotate</text><text font-family="Times New Roman,Times New Roman_MSFontService,sans-serif" font-weight="700" font-size="83" transform="matrix(1 0 0 1 2678.58 1549)">Orotate</text><text font-family="Times New Roman,Times New Roman_MSFontService,sans-serif" font-weight="700" font-size="83" transform="matrix(1 0 0 1 2584.62 1804)">Orotidine</text><text font-family="Times New Roman,Times New Roman_MSFontService,sans-serif" font-weight="700" font-size="83" transform="matrix(1 0 0 1 2928.37 1804)">-</text><text font-family="Times New Roman,Times New Roman_MSFontService,sans-serif" font-weight="700" font-size="83" transform="matrix(1 0 0 1 2955.87 1804)">5P</text><text font-family="Times New Roman,Times New Roman_MSFontService,sans-serif" font-weight="700" font-size="83" transform="matrix(1 0 0 1 2722.24 2065)">UMP</text><text font-family="Times New Roman,Times New Roman_MSFontService,sans-serif" font-weight="700" font-size="83" transform="matrix(1 0 0 1 2706.19 2320)">Uracil</text><text fill="#00B050" font-family="Times New Roman,Times New Roman_MSFontService,sans-serif" font-style="italic" font-weight="400" font-size="73" transform="matrix(1 0 0 1 2887.24 503)">carA</text><text fill="#FFC000" font-family="Times New Roman,Times New Roman_MSFontService,sans-serif" font-style="italic" font-weight="400" font-size="73" transform="matrix(1 0 0 1 2887.24 591)">carB</text><path d="M2838.08 704.5 2838.08 832.375 2828.92 832.375 2828.92 704.5ZM2847.25 827.791 2833.5 855.292 2819.75 827.792Z" fill="#2E75B6"/><text fill="#2E75B6" font-family="Times New Roman,Times New Roman_MSFontService,sans-serif" font-style="italic" font-weight="400" font-size="73" transform="matrix(1 0 0 1 2898.01 781)">pyrB</text><path d="M4.58243-0.0908104 7.10755 127.33-2.05732 127.512-4.58243 0.0908104ZM16.1816 122.566 2.97917 150.333-11.313 123.111Z" fill="#2E75B6" transform="matrix(-1 0 0 1 2833.48 1056.5)"/><path d="M2830.08 1310.5 2830.08 1439.52 2820.92 1439.52 2820.92 1310.5ZM2839.25 1434.94 2825.5 1462.44 2811.75 1434.94Z"/><text font-family="Times New Roman,Times New Roman_MSFontService,sans-serif" font-style="italic" font-weight="400" font-size="73" transform="matrix(1 0 0 1 2867.76 1395)">pyrD</text><path d="M2830.08 1576.5 2830.08 1704.83 2820.92 1704.83 2820.92 1576.5ZM2839.25 1700.25 2825.5 1727.75 2811.75 1700.25Z"/><text font-family="Times New Roman,Times New Roman_MSFontService,sans-serif" font-style="italic" font-weight="400" font-size="73" transform="matrix(1 0 0 1 2864.78 1661)">pyrE</text><path d="M4.58321-0.0338494 5.55979 132.196-3.60662 132.264-4.58321 0.0338494ZM14.6924 127.545 1.14583 155.146-12.8069 127.748Z" fill="#FFC000" transform="matrix(-1 0 0 1 2825.65 1830.5)"/><text fill="#FFC000" font-family="Times New Roman,Times New Roman_MSFontService,sans-serif" font-style="italic" font-weight="400" font-size="73" transform="matrix(1 0 0 1 2887.24 1905)">pyrF</text><path d="M4.58321-0.0336012 5.56104 133.342-3.60538 133.409-4.58321 0.0336012ZM14.6939 128.692 1.14583 156.292-12.8054 128.893Z" transform="matrix(-1 0 0 1 2825.65 2102.5)"/><text font-family="Times New Roman,Times New Roman_MSFontService,sans-serif" font-style="italic" font-weight="400" font-size="73" transform="matrix(1 0 0 1 2887.47 2168)">pyrR</text><text fill="#2E75B6" font-family="Times New Roman,Times New Roman_MSFontService,sans-serif" font-style="italic" font-weight="400" font-size="73" transform="matrix(1 0 0 1 2879.22 1149)">pyrC</text><text fill="#5B9BD5" font-family="Times New Roman,Times New Roman_MSFontService,sans-serif" font-weight="400" font-size="110" transform="matrix(1 0 0 1 1103.86 2528)">Arginine biosynthesis</text><text fill="#A5A5A5" font-family="Times New Roman,Times New Roman_MSFontService,sans-serif" font-weight="400" font-size="110" transform="matrix(1 0 0 1 2373.22 2528)">Uracil </text><text fill="#A5A5A5" font-family="Times New Roman,Times New Roman_MSFontService,sans-serif" font-weight="400" font-size="110" transform="matrix(1 0 0 1 2675.14 2528)">biosynthesis</text><path d="M1632.08-363.515 1633.24-18.843 1624.08-18.8122 1622.92-363.484ZM1642.39-23.4572 1628.74 4.0889 1614.89-23.3647Z" fill="#00B050"/><path d="M1889.5-439.083 2213.29-439.083 2213.29 655.417 2208.71 650.833 2505 650.833 2505 660 2204.13 660 2204.13-434.5 2208.71-429.917 1889.5-429.917ZM2500.42 641.667 2527.92 655.417 2500.42 669.167Z"/><rect x="2284.5" y="-477.5" width="1045" height="654" stroke="#EDEDED" stroke-width="4.58333" stroke-miterlimit="8" fill="none"/><text font-family="Times New Roman,Times New Roman_MSFontService,sans-serif" font-weight="400" font-size="73" transform="matrix(1 0 0 1 2597.34 -391)">In regulon as well as </text><text font-family="Times New Roman,Times New Roman_MSFontService,sans-serif" font-weight="400" font-size="73" transform="matrix(1 0 0 1 2597.34 -303)">in iModulon (ArgR)</text><text font-family="Times New Roman,Times New Roman_MSFontService,sans-serif" font-weight="400" font-size="73" transform="matrix(1 0 0 1 2591.65 -189)">In iModulon</text><rect x="2335" y="-407" width="219" height="88" fill="#00B050"/><rect x="2336" y="-260" width="219" height="89" fill="#2E75B6"/><rect x="2336" y="-112" width="219" height="89" fill="#FFC000"/><rect x="2340" y="36.0001" width="219" height="89"/><text font-family="Times New Roman,Times New Roman_MSFontService,sans-serif" font-weight="400" font-size="73" transform="matrix(1 0 0 1 2591.65 -54)">In regulon</text><text font-family="Times New Roman,Times New Roman_MSFontService,sans-serif" font-weight="400" font-size="73" transform="matrix(1 0 0 1 2591.65 57)">Not in iModulon</text><text font-family="Times New Roman,Times New Roman_MSFontService,sans-serif" font-weight="400" font-size="73" transform="matrix(1 0 0 1 2591.65 145)">and regulon</text></g></svg>