<?xml version="1.0" encoding="utf-8" standalone="no"?>
<!DOCTYPE svg PUBLIC "-//W3C//DTD SVG 1.1//EN"
  "http://www.w3.org/Graphics/SVG/1.1/DTD/svg11.dtd">
<!-- Created with matplotlib (https://matplotlib.org/) -->
<svg height="271.024844pt" version="1.1" viewBox="0 0 381.824219 271.024844" width="381.824219pt" xmlns="http://www.w3.org/2000/svg" xmlns:xlink="http://www.w3.org/1999/xlink">
 <metadata>
  <rdf:RDF xmlns:cc="http://creativecommons.org/ns#" xmlns:dc="http://purl.org/dc/elements/1.1/" xmlns:rdf="http://www.w3.org/1999/02/22-rdf-syntax-ns#">
   <cc:Work>
    <dc:type rdf:resource="http://purl.org/dc/dcmitype/StillImage"/>
    <dc:date>2023-04-18T13:20:44.212537</dc:date>
    <dc:format>image/svg+xml</dc:format>
    <dc:creator>
     <cc:Agent>
      <dc:title>Matplotlib v3.3.4, https://matplotlib.org/</dc:title>
     </cc:Agent>
    </dc:creator>
   </cc:Work>
  </rdf:RDF>
 </metadata>
 <defs>
  <style type="text/css">*{stroke-linecap:butt;stroke-linejoin:round;}</style>
 </defs>
 <g id="figure_1">
  <g id="patch_1">
   <path d="M 0 271.024844 
L 381.824219 271.024844 
L 381.824219 0 
L 0 0 
z
" style="fill:none;"/>
  </g>
  <g id="axes_1">
   <g id="patch_2">
    <path d="M 39.824219 224.64 
L 374.624219 224.64 
L 374.624219 7.2 
L 39.824219 7.2 
z
" style="fill:none;"/>
   </g>
   <g id="PathCollection_1">
    <defs>
     <path d="M 0 3 
C 0.795609 3 1.55874 2.683901 2.12132 2.12132 
C 2.683901 1.55874 3 0.795609 3 0 
C 3 -0.795609 2.683901 -1.55874 2.12132 -2.12132 
C 1.55874 -2.683901 0.795609 -3 0 -3 
C -0.795609 -3 -1.55874 -2.683901 -2.12132 -2.12132 
C -2.683901 -1.55874 -3 -0.795609 -3 0 
C -3 0.795609 -2.683901 1.55874 -2.12132 2.12132 
C -1.55874 2.683901 -0.795609 3 0 3 
z
" id="mb8a3d8252d" style="stroke:#1f77b4;"/>
    </defs>
    <g clip-path="url(#pef88ebcbf3)">
     <use style="fill:#1f77b4;stroke:#1f77b4;" x="197.751755" xlink:href="#mb8a3d8252d" y="178.564015"/>
     <use style="fill:#1f77b4;stroke:#1f77b4;" x="196.28029" xlink:href="#mb8a3d8252d" y="180.155713"/>
     <use style="fill:#1f77b4;stroke:#1f77b4;" x="203.148995" xlink:href="#mb8a3d8252d" y="180.274823"/>
     <use style="fill:#1f77b4;stroke:#1f77b4;" x="174.100583" xlink:href="#mb8a3d8252d" y="175.275507"/>
     <use style="fill:#1f77b4;stroke:#1f77b4;" x="185.996699" xlink:href="#mb8a3d8252d" y="169.645002"/>
     <use style="fill:#1f77b4;stroke:#1f77b4;" x="346.724219" xlink:href="#mb8a3d8252d" y="37.637479"/>
     <use style="fill:#1f77b4;stroke:#1f77b4;" x="342.345071" xlink:href="#mb8a3d8252d" y="52.594905"/>
     <use style="fill:#1f77b4;stroke:#1f77b4;" x="337.102182" xlink:href="#mb8a3d8252d" y="64.765084"/>
     <use style="fill:#1f77b4;stroke:#1f77b4;" x="316.653765" xlink:href="#mb8a3d8252d" y="95.056322"/>
     <use style="fill:#1f77b4;stroke:#1f77b4;" x="188.631314" xlink:href="#mb8a3d8252d" y="189.520108"/>
     <use style="fill:#1f77b4;stroke:#1f77b4;" x="198.543539" xlink:href="#mb8a3d8252d" y="194.262628"/>
     <use style="fill:#1f77b4;stroke:#1f77b4;" x="188.266796" xlink:href="#mb8a3d8252d" y="199.028079"/>
     <use style="fill:#1f77b4;stroke:#1f77b4;" x="199.979144" xlink:href="#mb8a3d8252d" y="199.069867"/>
     <use style="fill:#1f77b4;stroke:#1f77b4;" x="184.759404" xlink:href="#mb8a3d8252d" y="189.371777"/>
     <use style="fill:#1f77b4;stroke:#1f77b4;" x="149.04406" xlink:href="#mb8a3d8252d" y="194.561658"/>
     <use style="fill:#1f77b4;stroke:#1f77b4;" x="154.381838" xlink:href="#mb8a3d8252d" y="194.810596"/>
     <use style="fill:#1f77b4;stroke:#1f77b4;" x="144.319673" xlink:href="#mb8a3d8252d" y="187.442491"/>
     <use style="fill:#1f77b4;stroke:#1f77b4;" x="150.902349" xlink:href="#mb8a3d8252d" y="184.989652"/>
     <use style="fill:#1f77b4;stroke:#1f77b4;" x="166.497061" xlink:href="#mb8a3d8252d" y="191.155027"/>
     <use style="fill:#1f77b4;stroke:#1f77b4;" x="175.228105" xlink:href="#mb8a3d8252d" y="191.421703"/>
     <use style="fill:#1f77b4;stroke:#1f77b4;" x="290.565987" xlink:href="#mb8a3d8252d" y="118.091204"/>
     <use style="fill:#1f77b4;stroke:#1f77b4;" x="300.578374" xlink:href="#mb8a3d8252d" y="115.509274"/>
     <use style="fill:#1f77b4;stroke:#1f77b4;" x="216.561047" xlink:href="#mb8a3d8252d" y="163.28758"/>
     <use style="fill:#1f77b4;stroke:#1f77b4;" x="223.308526" xlink:href="#mb8a3d8252d" y="160.010925"/>
     <use style="fill:#1f77b4;stroke:#1f77b4;" x="215.895428" xlink:href="#mb8a3d8252d" y="156.798169"/>
     <use style="fill:#1f77b4;stroke:#1f77b4;" x="217.642716" xlink:href="#mb8a3d8252d" y="147.225727"/>
     <use style="fill:#1f77b4;stroke:#1f77b4;" x="295.008498" xlink:href="#mb8a3d8252d" y="69.373803"/>
     <use style="fill:#1f77b4;stroke:#1f77b4;" x="305.261442" xlink:href="#mb8a3d8252d" y="64.578519"/>
     <use style="fill:#1f77b4;stroke:#1f77b4;" x="278.921182" xlink:href="#mb8a3d8252d" y="116.035052"/>
     <use style="fill:#1f77b4;stroke:#1f77b4;" x="289.681989" xlink:href="#mb8a3d8252d" y="108.895949"/>
     <use style="fill:#1f77b4;stroke:#1f77b4;" x="256.753816" xlink:href="#mb8a3d8252d" y="166.827048"/>
     <use style="fill:#1f77b4;stroke:#1f77b4;" x="266.610215" xlink:href="#mb8a3d8252d" y="165.812128"/>
     <use style="fill:#1f77b4;stroke:#1f77b4;" x="166.636001" xlink:href="#mb8a3d8252d" y="181.22025"/>
     <use style="fill:#1f77b4;stroke:#1f77b4;" x="172.79656" xlink:href="#mb8a3d8252d" y="164.74579"/>
     <use style="fill:#1f77b4;stroke:#1f77b4;" x="195.214747" xlink:href="#mb8a3d8252d" y="175.487054"/>
     <use style="fill:#1f77b4;stroke:#1f77b4;" x="204.357484" xlink:href="#mb8a3d8252d" y="155.295584"/>
     <use style="fill:#1f77b4;stroke:#1f77b4;" x="238.567697" xlink:href="#mb8a3d8252d" y="141.50412"/>
     <use style="fill:#1f77b4;stroke:#1f77b4;" x="248.94906" xlink:href="#mb8a3d8252d" y="137.486331"/>
     <use style="fill:#1f77b4;stroke:#1f77b4;" x="268.406922" xlink:href="#mb8a3d8252d" y="112.124363"/>
     <use style="fill:#1f77b4;stroke:#1f77b4;" x="279.983627" xlink:href="#mb8a3d8252d" y="107.92315"/>
     <use style="fill:#1f77b4;stroke:#1f77b4;" x="200.323251" xlink:href="#mb8a3d8252d" y="153.26321"/>
     <use style="fill:#1f77b4;stroke:#1f77b4;" x="205.350005" xlink:href="#mb8a3d8252d" y="141.456163"/>
     <use style="fill:#1f77b4;stroke:#1f77b4;" x="204.526742" xlink:href="#mb8a3d8252d" y="149.894571"/>
     <use style="fill:#1f77b4;stroke:#1f77b4;" x="209.37453" xlink:href="#mb8a3d8252d" y="142.891311"/>
     <use style="fill:#1f77b4;stroke:#1f77b4;" x="287.367683" xlink:href="#mb8a3d8252d" y="105.931501"/>
     <use style="fill:#1f77b4;stroke:#1f77b4;" x="297.221978" xlink:href="#mb8a3d8252d" y="103.602781"/>
     <use style="fill:#1f77b4;stroke:#1f77b4;" x="198.654323" xlink:href="#mb8a3d8252d" y="158.175628"/>
     <use style="fill:#1f77b4;stroke:#1f77b4;" x="199.398746" xlink:href="#mb8a3d8252d" y="142.198061"/>
     <use style="fill:#1f77b4;stroke:#1f77b4;" x="197.888942" xlink:href="#mb8a3d8252d" y="143.067952"/>
     <use style="fill:#1f77b4;stroke:#1f77b4;" x="204.393262" xlink:href="#mb8a3d8252d" y="136.538386"/>
     <use style="fill:#1f77b4;stroke:#1f77b4;" x="289.959201" xlink:href="#mb8a3d8252d" y="106.169507"/>
     <use style="fill:#1f77b4;stroke:#1f77b4;" x="301.571527" xlink:href="#mb8a3d8252d" y="102.27066"/>
     <use style="fill:#1f77b4;stroke:#1f77b4;" x="153.468931" xlink:href="#mb8a3d8252d" y="172.14089"/>
     <use style="fill:#1f77b4;stroke:#1f77b4;" x="155.750238" xlink:href="#mb8a3d8252d" y="183.140067"/>
     <use style="fill:#1f77b4;stroke:#1f77b4;" x="337.4802" xlink:href="#mb8a3d8252d" y="28.622101"/>
     <use style="fill:#1f77b4;stroke:#1f77b4;" x="330.291406" xlink:href="#mb8a3d8252d" y="25.687182"/>
     <use style="fill:#1f77b4;stroke:#1f77b4;" x="165.497962" xlink:href="#mb8a3d8252d" y="182.200079"/>
     <use style="fill:#1f77b4;stroke:#1f77b4;" x="171.751594" xlink:href="#mb8a3d8252d" y="168.293583"/>
     <use style="fill:#1f77b4;stroke:#1f77b4;" x="162.307394" xlink:href="#mb8a3d8252d" y="178.317656"/>
     <use style="fill:#1f77b4;stroke:#1f77b4;" x="337.894107" xlink:href="#mb8a3d8252d" y="26.036913"/>
     <use style="fill:#1f77b4;stroke:#1f77b4;" x="330.978425" xlink:href="#mb8a3d8252d" y="27.773885"/>
     <use style="fill:#1f77b4;stroke:#1f77b4;" x="144.386853" xlink:href="#mb8a3d8252d" y="153.26123"/>
     <use style="fill:#1f77b4;stroke:#1f77b4;" x="331.512166" xlink:href="#mb8a3d8252d" y="45.007507"/>
     <use style="fill:#1f77b4;stroke:#1f77b4;" x="168.172387" xlink:href="#mb8a3d8252d" y="164.367917"/>
     <use style="fill:#1f77b4;stroke:#1f77b4;" x="331.579965" xlink:href="#mb8a3d8252d" y="26.418912"/>
     <use style="fill:#1f77b4;stroke:#1f77b4;" x="179.149976" xlink:href="#mb8a3d8252d" y="163.321661"/>
     <use style="fill:#1f77b4;stroke:#1f77b4;" x="187.285761" xlink:href="#mb8a3d8252d" y="169.343819"/>
     <use style="fill:#1f77b4;stroke:#1f77b4;" x="192.73063" xlink:href="#mb8a3d8252d" y="167.828257"/>
     <use style="fill:#1f77b4;stroke:#1f77b4;" x="197.183163" xlink:href="#mb8a3d8252d" y="165.329587"/>
     <use style="fill:#1f77b4;stroke:#1f77b4;" x="327.556667" xlink:href="#mb8a3d8252d" y="45.150868"/>
     <use style="fill:#1f77b4;stroke:#1f77b4;" x="330.632176" xlink:href="#mb8a3d8252d" y="27.344635"/>
     <use style="fill:#1f77b4;stroke:#1f77b4;" x="202.460785" xlink:href="#mb8a3d8252d" y="178.104993"/>
     <use style="fill:#1f77b4;stroke:#1f77b4;" x="206.877992" xlink:href="#mb8a3d8252d" y="161.565538"/>
     <use style="fill:#1f77b4;stroke:#1f77b4;" x="326.126935" xlink:href="#mb8a3d8252d" y="45.849567"/>
     <use style="fill:#1f77b4;stroke:#1f77b4;" x="331.507874" xlink:href="#mb8a3d8252d" y="30.146856"/>
     <use style="fill:#1f77b4;stroke:#1f77b4;" x="181.535957" xlink:href="#mb8a3d8252d" y="184.26594"/>
     <use style="fill:#1f77b4;stroke:#1f77b4;" x="173.690088" xlink:href="#mb8a3d8252d" y="166.118844"/>
     <use style="fill:#1f77b4;stroke:#1f77b4;" x="208.109291" xlink:href="#mb8a3d8252d" y="172.395524"/>
     <use style="fill:#1f77b4;stroke:#1f77b4;" x="307.81434" xlink:href="#mb8a3d8252d" y="50.218942"/>
     <use style="fill:#1f77b4;stroke:#1f77b4;" x="323.026042" xlink:href="#mb8a3d8252d" y="54.758682"/>
     <use style="fill:#1f77b4;stroke:#1f77b4;" x="328.83229" xlink:href="#mb8a3d8252d" y="30.840735"/>
     <use style="fill:#1f77b4;stroke:#1f77b4;" x="226.624275" xlink:href="#mb8a3d8252d" y="167.360726"/>
     <use style="fill:#1f77b4;stroke:#1f77b4;" x="226.545694" xlink:href="#mb8a3d8252d" y="158.330667"/>
     <use style="fill:#1f77b4;stroke:#1f77b4;" x="193.201666" xlink:href="#mb8a3d8252d" y="188.50311"/>
     <use style="fill:#1f77b4;stroke:#1f77b4;" x="330.975177" xlink:href="#mb8a3d8252d" y="41.313917"/>
     <use style="fill:#1f77b4;stroke:#1f77b4;" x="225.418318" xlink:href="#mb8a3d8252d" y="173.476773"/>
     <use style="fill:#1f77b4;stroke:#1f77b4;" x="214.919357" xlink:href="#mb8a3d8252d" y="178.487559"/>
     <use style="fill:#1f77b4;stroke:#1f77b4;" x="236.230487" xlink:href="#mb8a3d8252d" y="155.900285"/>
     <use style="fill:#1f77b4;stroke:#1f77b4;" x="205.696623" xlink:href="#mb8a3d8252d" y="175.488046"/>
     <use style="fill:#1f77b4;stroke:#1f77b4;" x="331.77924" xlink:href="#mb8a3d8252d" y="27.492996"/>
     <use style="fill:#1f77b4;stroke:#1f77b4;" x="208.243241" xlink:href="#mb8a3d8252d" y="163.395534"/>
     <use style="fill:#1f77b4;stroke:#1f77b4;" x="333.795761" xlink:href="#mb8a3d8252d" y="25.32"/>
     <use style="fill:#1f77b4;stroke:#1f77b4;" x="231.315213" xlink:href="#mb8a3d8252d" y="176.876518"/>
     <use style="fill:#1f77b4;stroke:#1f77b4;" x="221.470076" xlink:href="#mb8a3d8252d" y="183.838594"/>
     <use style="fill:#1f77b4;stroke:#1f77b4;" x="205.75262" xlink:href="#mb8a3d8252d" y="177.904443"/>
     <use style="fill:#1f77b4;stroke:#1f77b4;" x="143.928773" xlink:href="#mb8a3d8252d" y="182.452335"/>
     <use style="fill:#1f77b4;stroke:#1f77b4;" x="150.238371" xlink:href="#mb8a3d8252d" y="179.441118"/>
     <use style="fill:#1f77b4;stroke:#1f77b4;" x="160.663467" xlink:href="#mb8a3d8252d" y="179.95786"/>
     <use style="fill:#1f77b4;stroke:#1f77b4;" x="162.277557" xlink:href="#mb8a3d8252d" y="156.553576"/>
     <use style="fill:#1f77b4;stroke:#1f77b4;" x="162.525221" xlink:href="#mb8a3d8252d" y="179.275345"/>
     <use style="fill:#1f77b4;stroke:#1f77b4;" x="156.283243" xlink:href="#mb8a3d8252d" y="186.724306"/>
     <use style="fill:#1f77b4;stroke:#1f77b4;" x="165.421924" xlink:href="#mb8a3d8252d" y="181.966395"/>
     <use style="fill:#1f77b4;stroke:#1f77b4;" x="170.385026" xlink:href="#mb8a3d8252d" y="169.597496"/>
     <use style="fill:#1f77b4;stroke:#1f77b4;" x="155.167475" xlink:href="#mb8a3d8252d" y="166.927275"/>
     <use style="fill:#1f77b4;stroke:#1f77b4;" x="164.846024" xlink:href="#mb8a3d8252d" y="171.7133"/>
     <use style="fill:#1f77b4;stroke:#1f77b4;" x="272.29817" xlink:href="#mb8a3d8252d" y="130.787551"/>
     <use style="fill:#1f77b4;stroke:#1f77b4;" x="310.770138" xlink:href="#mb8a3d8252d" y="66.884977"/>
     <use style="fill:#1f77b4;stroke:#1f77b4;" x="316.382682" xlink:href="#mb8a3d8252d" y="55.578015"/>
     <use style="fill:#1f77b4;stroke:#1f77b4;" x="238.534716" xlink:href="#mb8a3d8252d" y="172.631948"/>
     <use style="fill:#1f77b4;stroke:#1f77b4;" x="298.487504" xlink:href="#mb8a3d8252d" y="93.583662"/>
     <use style="fill:#1f77b4;stroke:#1f77b4;" x="303.279879" xlink:href="#mb8a3d8252d" y="76.816943"/>
     <use style="fill:#1f77b4;stroke:#1f77b4;" x="237.20472" xlink:href="#mb8a3d8252d" y="171.236727"/>
     <use style="fill:#1f77b4;stroke:#1f77b4;" x="295.774645" xlink:href="#mb8a3d8252d" y="92.248404"/>
     <use style="fill:#1f77b4;stroke:#1f77b4;" x="308.262309" xlink:href="#mb8a3d8252d" y="67.680124"/>
     <use style="fill:#1f77b4;stroke:#1f77b4;" x="205.998579" xlink:href="#mb8a3d8252d" y="116.065958"/>
     <use style="fill:#1f77b4;stroke:#1f77b4;" x="198.784217" xlink:href="#mb8a3d8252d" y="125.022654"/>
     <use style="fill:#1f77b4;stroke:#1f77b4;" x="201.248439" xlink:href="#mb8a3d8252d" y="132.729129"/>
     <use style="fill:#1f77b4;stroke:#1f77b4;" x="214.251188" xlink:href="#mb8a3d8252d" y="109.710348"/>
     <use style="fill:#1f77b4;stroke:#1f77b4;" x="218.770258" xlink:href="#mb8a3d8252d" y="118.498614"/>
     <use style="fill:#1f77b4;stroke:#1f77b4;" x="206.572575" xlink:href="#mb8a3d8252d" y="108.484187"/>
     <use style="fill:#1f77b4;stroke:#1f77b4;" x="219.697636" xlink:href="#mb8a3d8252d" y="102.435304"/>
     <use style="fill:#1f77b4;stroke:#1f77b4;" x="200.489308" xlink:href="#mb8a3d8252d" y="130.011255"/>
     <use style="fill:#1f77b4;stroke:#1f77b4;" x="223.659245" xlink:href="#mb8a3d8252d" y="86.112274"/>
     <use style="fill:#1f77b4;stroke:#1f77b4;" x="216.789134" xlink:href="#mb8a3d8252d" y="99.034572"/>
     <use style="fill:#1f77b4;stroke:#1f77b4;" x="207.176562" xlink:href="#mb8a3d8252d" y="82.449383"/>
     <use style="fill:#1f77b4;stroke:#1f77b4;" x="221.443008" xlink:href="#mb8a3d8252d" y="84.129207"/>
     <use style="fill:#1f77b4;stroke:#1f77b4;" x="203.059157" xlink:href="#mb8a3d8252d" y="160.222413"/>
     <use style="fill:#1f77b4;stroke:#1f77b4;" x="208.397926" xlink:href="#mb8a3d8252d" y="146.138913"/>
     <use style="fill:#1f77b4;stroke:#1f77b4;" x="202.237053" xlink:href="#mb8a3d8252d" y="156.369737"/>
     <use style="fill:#1f77b4;stroke:#1f77b4;" x="226.17662" xlink:href="#mb8a3d8252d" y="116.952841"/>
     <use style="fill:#1f77b4;stroke:#1f77b4;" x="201.438822" xlink:href="#mb8a3d8252d" y="128.661843"/>
     <use style="fill:#1f77b4;stroke:#1f77b4;" x="191.955772" xlink:href="#mb8a3d8252d" y="132.54313"/>
     <use style="fill:#1f77b4;stroke:#1f77b4;" x="173.304501" xlink:href="#mb8a3d8252d" y="206.52"/>
     <use style="fill:#1f77b4;stroke:#1f77b4;" x="174.217307" xlink:href="#mb8a3d8252d" y="202.792488"/>
     <use style="fill:#1f77b4;stroke:#1f77b4;" x="191.674985" xlink:href="#mb8a3d8252d" y="197.550778"/>
     <use style="fill:#1f77b4;stroke:#1f77b4;" x="164.50092" xlink:href="#mb8a3d8252d" y="206.52"/>
     <use style="fill:#1f77b4;stroke:#1f77b4;" x="159.873024" xlink:href="#mb8a3d8252d" y="206.52"/>
     <use style="fill:#1f77b4;stroke:#1f77b4;" x="166.651791" xlink:href="#mb8a3d8252d" y="206.52"/>
     <use style="fill:#1f77b4;stroke:#1f77b4;" x="199.168155" xlink:href="#mb8a3d8252d" y="155.002584"/>
     <use style="fill:#1f77b4;stroke:#1f77b4;" x="174.29915" xlink:href="#mb8a3d8252d" y="127.375663"/>
     <use style="fill:#1f77b4;stroke:#1f77b4;" x="263.320977" xlink:href="#mb8a3d8252d" y="98.78027"/>
     <use style="fill:#1f77b4;stroke:#1f77b4;" x="173.884911" xlink:href="#mb8a3d8252d" y="194.710214"/>
     <use style="fill:#1f77b4;stroke:#1f77b4;" x="189.079281" xlink:href="#mb8a3d8252d" y="186.770175"/>
     <use style="fill:#1f77b4;stroke:#1f77b4;" x="220.850198" xlink:href="#mb8a3d8252d" y="112.312623"/>
     <use style="fill:#1f77b4;stroke:#1f77b4;" x="190.204505" xlink:href="#mb8a3d8252d" y="139.986143"/>
     <use style="fill:#1f77b4;stroke:#1f77b4;" x="220.899088" xlink:href="#mb8a3d8252d" y="97.833382"/>
     <use style="fill:#1f77b4;stroke:#1f77b4;" x="101.901425" xlink:href="#mb8a3d8252d" y="175.196436"/>
     <use style="fill:#1f77b4;stroke:#1f77b4;" x="202.718047" xlink:href="#mb8a3d8252d" y="114.768352"/>
     <use style="fill:#1f77b4;stroke:#1f77b4;" x="112.1459" xlink:href="#mb8a3d8252d" y="186.001601"/>
     <use style="fill:#1f77b4;stroke:#1f77b4;" x="179.95974" xlink:href="#mb8a3d8252d" y="156.937152"/>
     <use style="fill:#1f77b4;stroke:#1f77b4;" x="121.972522" xlink:href="#mb8a3d8252d" y="198.105181"/>
     <use style="fill:#1f77b4;stroke:#1f77b4;" x="150.738505" xlink:href="#mb8a3d8252d" y="185.821744"/>
     <use style="fill:#1f77b4;stroke:#1f77b4;" x="84.139005" xlink:href="#mb8a3d8252d" y="205.113708"/>
     <use style="fill:#1f77b4;stroke:#1f77b4;" x="81.713204" xlink:href="#mb8a3d8252d" y="206.52"/>
     <use style="fill:#1f77b4;stroke:#1f77b4;" x="106.389108" xlink:href="#mb8a3d8252d" y="203.748666"/>
     <use style="fill:#1f77b4;stroke:#1f77b4;" x="133.780612" xlink:href="#mb8a3d8252d" y="200.966813"/>
     <use style="fill:#1f77b4;stroke:#1f77b4;" x="73.003102" xlink:href="#mb8a3d8252d" y="206.52"/>
     <use style="fill:#1f77b4;stroke:#1f77b4;" x="73.895507" xlink:href="#mb8a3d8252d" y="206.52"/>
     <use style="fill:#1f77b4;stroke:#1f77b4;" x="116.515109" xlink:href="#mb8a3d8252d" y="191.885319"/>
     <use style="fill:#1f77b4;stroke:#1f77b4;" x="150.215297" xlink:href="#mb8a3d8252d" y="162.681274"/>
     <use style="fill:#1f77b4;stroke:#1f77b4;" x="72.840178" xlink:href="#mb8a3d8252d" y="205.291781"/>
     <use style="fill:#1f77b4;stroke:#1f77b4;" x="91.512636" xlink:href="#mb8a3d8252d" y="201.13298"/>
     <use style="fill:#1f77b4;stroke:#1f77b4;" x="140.487699" xlink:href="#mb8a3d8252d" y="185.2265"/>
     <use style="fill:#1f77b4;stroke:#1f77b4;" x="152.107765" xlink:href="#mb8a3d8252d" y="177.523187"/>
     <use style="fill:#1f77b4;stroke:#1f77b4;" x="140.826739" xlink:href="#mb8a3d8252d" y="178.646246"/>
     <use style="fill:#1f77b4;stroke:#1f77b4;" x="153.468393" xlink:href="#mb8a3d8252d" y="169.28671"/>
     <use style="fill:#1f77b4;stroke:#1f77b4;" x="143.309899" xlink:href="#mb8a3d8252d" y="168.415091"/>
     <use style="fill:#1f77b4;stroke:#1f77b4;" x="178.980551" xlink:href="#mb8a3d8252d" y="159.263668"/>
     <use style="fill:#1f77b4;stroke:#1f77b4;" x="188.147322" xlink:href="#mb8a3d8252d" y="166.800387"/>
     <use style="fill:#1f77b4;stroke:#1f77b4;" x="193.545673" xlink:href="#mb8a3d8252d" y="148.973475"/>
     <use style="fill:#1f77b4;stroke:#1f77b4;" x="166.351482" xlink:href="#mb8a3d8252d" y="151.718361"/>
     <use style="fill:#1f77b4;stroke:#1f77b4;" x="154.7735" xlink:href="#mb8a3d8252d" y="164.416739"/>
     <use style="fill:#1f77b4;stroke:#1f77b4;" x="154.567699" xlink:href="#mb8a3d8252d" y="156.25623"/>
     <use style="fill:#1f77b4;stroke:#1f77b4;" x="120.124766" xlink:href="#mb8a3d8252d" y="183.895701"/>
     <use style="fill:#1f77b4;stroke:#1f77b4;" x="104.124188" xlink:href="#mb8a3d8252d" y="192.063923"/>
     <use style="fill:#1f77b4;stroke:#1f77b4;" x="105.64073" xlink:href="#mb8a3d8252d" y="190.321514"/>
     <use style="fill:#1f77b4;stroke:#1f77b4;" x="130.721109" xlink:href="#mb8a3d8252d" y="153.719523"/>
     <use style="fill:#1f77b4;stroke:#1f77b4;" x="101.285204" xlink:href="#mb8a3d8252d" y="190.516437"/>
     <use style="fill:#1f77b4;stroke:#1f77b4;" x="189.249707" xlink:href="#mb8a3d8252d" y="172.199463"/>
     <use style="fill:#1f77b4;stroke:#1f77b4;" x="173.559485" xlink:href="#mb8a3d8252d" y="172.735498"/>
     <use style="fill:#1f77b4;stroke:#1f77b4;" x="187.556453" xlink:href="#mb8a3d8252d" y="176.50801"/>
     <use style="fill:#1f77b4;stroke:#1f77b4;" x="179.081477" xlink:href="#mb8a3d8252d" y="177.363866"/>
     <use style="fill:#1f77b4;stroke:#1f77b4;" x="182.342638" xlink:href="#mb8a3d8252d" y="161.939758"/>
     <use style="fill:#1f77b4;stroke:#1f77b4;" x="187.562209" xlink:href="#mb8a3d8252d" y="206.52"/>
     <use style="fill:#1f77b4;stroke:#1f77b4;" x="178.616642" xlink:href="#mb8a3d8252d" y="189.890904"/>
     <use style="fill:#1f77b4;stroke:#1f77b4;" x="178.398726" xlink:href="#mb8a3d8252d" y="179.849455"/>
     <use style="fill:#1f77b4;stroke:#1f77b4;" x="164.214767" xlink:href="#mb8a3d8252d" y="167.984975"/>
     <use style="fill:#1f77b4;stroke:#1f77b4;" x="172.406595" xlink:href="#mb8a3d8252d" y="174.985214"/>
     <use style="fill:#1f77b4;stroke:#1f77b4;" x="183.636079" xlink:href="#mb8a3d8252d" y="206.52"/>
     <use style="fill:#1f77b4;stroke:#1f77b4;" x="183.616057" xlink:href="#mb8a3d8252d" y="142.399088"/>
     <use style="fill:#1f77b4;stroke:#1f77b4;" x="149.160519" xlink:href="#mb8a3d8252d" y="160.617278"/>
     <use style="fill:#1f77b4;stroke:#1f77b4;" x="151.082556" xlink:href="#mb8a3d8252d" y="168.27812"/>
     <use style="fill:#1f77b4;stroke:#1f77b4;" x="238.969948" xlink:href="#mb8a3d8252d" y="64.011279"/>
     <use style="fill:#1f77b4;stroke:#1f77b4;" x="264.890106" xlink:href="#mb8a3d8252d" y="41.736409"/>
     <use style="fill:#1f77b4;stroke:#1f77b4;" x="255.428421" xlink:href="#mb8a3d8252d" y="31.377479"/>
     <use style="fill:#1f77b4;stroke:#1f77b4;" x="256.771988" xlink:href="#mb8a3d8252d" y="58.852047"/>
     <use style="fill:#1f77b4;stroke:#1f77b4;" x="251.159636" xlink:href="#mb8a3d8252d" y="42.440471"/>
     <use style="fill:#1f77b4;stroke:#1f77b4;" x="237.232821" xlink:href="#mb8a3d8252d" y="131.316871"/>
     <use style="fill:#1f77b4;stroke:#1f77b4;" x="93.636848" xlink:href="#mb8a3d8252d" y="206.52"/>
     <use style="fill:#1f77b4;stroke:#1f77b4;" x="166.621243" xlink:href="#mb8a3d8252d" y="171.022101"/>
     <use style="fill:#1f77b4;stroke:#1f77b4;" x="247.768453" xlink:href="#mb8a3d8252d" y="174.797014"/>
     <use style="fill:#1f77b4;stroke:#1f77b4;" x="293.871227" xlink:href="#mb8a3d8252d" y="45.668386"/>
     <use style="fill:#1f77b4;stroke:#1f77b4;" x="294.494392" xlink:href="#mb8a3d8252d" y="44.048259"/>
     <use style="fill:#1f77b4;stroke:#1f77b4;" x="251.262386" xlink:href="#mb8a3d8252d" y="56.398794"/>
     <use style="fill:#1f77b4;stroke:#1f77b4;" x="119.514575" xlink:href="#mb8a3d8252d" y="206.52"/>
     <use style="fill:#1f77b4;stroke:#1f77b4;" x="67.724219" xlink:href="#mb8a3d8252d" y="206.52"/>
     <use style="fill:#1f77b4;stroke:#1f77b4;" x="86.026029" xlink:href="#mb8a3d8252d" y="206.52"/>
     <use style="fill:#1f77b4;stroke:#1f77b4;" x="67.724219" xlink:href="#mb8a3d8252d" y="206.52"/>
     <use style="fill:#1f77b4;stroke:#1f77b4;" x="177.200535" xlink:href="#mb8a3d8252d" y="206.52"/>
     <use style="fill:#1f77b4;stroke:#1f77b4;" x="170.318074" xlink:href="#mb8a3d8252d" y="197.623209"/>
     <use style="fill:#1f77b4;stroke:#1f77b4;" x="237.62235" xlink:href="#mb8a3d8252d" y="157.647976"/>
     <use style="fill:#1f77b4;stroke:#1f77b4;" x="242.102692" xlink:href="#mb8a3d8252d" y="166.29781"/>
     <use style="fill:#1f77b4;stroke:#1f77b4;" x="198.137373" xlink:href="#mb8a3d8252d" y="206.52"/>
     <use style="fill:#1f77b4;stroke:#1f77b4;" x="195.517907" xlink:href="#mb8a3d8252d" y="197.296569"/>
     <use style="fill:#1f77b4;stroke:#1f77b4;" x="157.175507" xlink:href="#mb8a3d8252d" y="179.609019"/>
     <use style="fill:#1f77b4;stroke:#1f77b4;" x="167.223972" xlink:href="#mb8a3d8252d" y="192.680857"/>
     <use style="fill:#1f77b4;stroke:#1f77b4;" x="168.636814" xlink:href="#mb8a3d8252d" y="203.368888"/>
     <use style="fill:#1f77b4;stroke:#1f77b4;" x="167.470689" xlink:href="#mb8a3d8252d" y="197.451809"/>
     <use style="fill:#1f77b4;stroke:#1f77b4;" x="180.272001" xlink:href="#mb8a3d8252d" y="180.479504"/>
     <use style="fill:#1f77b4;stroke:#1f77b4;" x="170.213071" xlink:href="#mb8a3d8252d" y="204.990627"/>
     <use style="fill:#1f77b4;stroke:#1f77b4;" x="153.214496" xlink:href="#mb8a3d8252d" y="206.52"/>
     <use style="fill:#1f77b4;stroke:#1f77b4;" x="188.673477" xlink:href="#mb8a3d8252d" y="195.843092"/>
     <use style="fill:#1f77b4;stroke:#1f77b4;" x="192.964616" xlink:href="#mb8a3d8252d" y="195.474648"/>
     <use style="fill:#1f77b4;stroke:#1f77b4;" x="201.684159" xlink:href="#mb8a3d8252d" y="163.436716"/>
     <use style="fill:#1f77b4;stroke:#1f77b4;" x="211.226051" xlink:href="#mb8a3d8252d" y="128.678705"/>
     <use style="fill:#1f77b4;stroke:#1f77b4;" x="213.082545" xlink:href="#mb8a3d8252d" y="120.942924"/>
     <use style="fill:#1f77b4;stroke:#1f77b4;" x="215.837932" xlink:href="#mb8a3d8252d" y="105.770495"/>
     <use style="fill:#1f77b4;stroke:#1f77b4;" x="215.540052" xlink:href="#mb8a3d8252d" y="129.20475"/>
     <use style="fill:#1f77b4;stroke:#1f77b4;" x="220.498993" xlink:href="#mb8a3d8252d" y="137.069417"/>
     <use style="fill:#1f77b4;stroke:#1f77b4;" x="215.320187" xlink:href="#mb8a3d8252d" y="118.474876"/>
     <use style="fill:#1f77b4;stroke:#1f77b4;" x="195.657331" xlink:href="#mb8a3d8252d" y="116.885006"/>
     <use style="fill:#1f77b4;stroke:#1f77b4;" x="201.33121" xlink:href="#mb8a3d8252d" y="129.477096"/>
     <use style="fill:#1f77b4;stroke:#1f77b4;" x="201.045811" xlink:href="#mb8a3d8252d" y="107.492951"/>
     <use style="fill:#1f77b4;stroke:#1f77b4;" x="196.901072" xlink:href="#mb8a3d8252d" y="131.734394"/>
     <use style="fill:#1f77b4;stroke:#1f77b4;" x="183.583608" xlink:href="#mb8a3d8252d" y="141.248933"/>
     <use style="fill:#1f77b4;stroke:#1f77b4;" x="191.440612" xlink:href="#mb8a3d8252d" y="145.59423"/>
     <use style="fill:#1f77b4;stroke:#1f77b4;" x="164.456738" xlink:href="#mb8a3d8252d" y="133.339292"/>
     <use style="fill:#1f77b4;stroke:#1f77b4;" x="178.907294" xlink:href="#mb8a3d8252d" y="132.56711"/>
     <use style="fill:#1f77b4;stroke:#1f77b4;" x="216.733476" xlink:href="#mb8a3d8252d" y="130.56727"/>
     <use style="fill:#1f77b4;stroke:#1f77b4;" x="168.492617" xlink:href="#mb8a3d8252d" y="191.784927"/>
     <use style="fill:#1f77b4;stroke:#1f77b4;" x="218.567935" xlink:href="#mb8a3d8252d" y="129.364392"/>
     <use style="fill:#1f77b4;stroke:#1f77b4;" x="170.948425" xlink:href="#mb8a3d8252d" y="178.810186"/>
     <use style="fill:#1f77b4;stroke:#1f77b4;" x="275.187936" xlink:href="#mb8a3d8252d" y="200.284243"/>
     <use style="fill:#1f77b4;stroke:#1f77b4;" x="165.414263" xlink:href="#mb8a3d8252d" y="206.52"/>
     <use style="fill:#1f77b4;stroke:#1f77b4;" x="141.876856" xlink:href="#mb8a3d8252d" y="206.52"/>
     <use style="fill:#1f77b4;stroke:#1f77b4;" x="163.112582" xlink:href="#mb8a3d8252d" y="127.578691"/>
     <use style="fill:#1f77b4;stroke:#1f77b4;" x="146.019362" xlink:href="#mb8a3d8252d" y="167.381484"/>
     <use style="fill:#1f77b4;stroke:#1f77b4;" x="150.493306" xlink:href="#mb8a3d8252d" y="158.944302"/>
     <use style="fill:#1f77b4;stroke:#1f77b4;" x="151.20138" xlink:href="#mb8a3d8252d" y="174.738184"/>
     <use style="fill:#1f77b4;stroke:#1f77b4;" x="139.665569" xlink:href="#mb8a3d8252d" y="183.669406"/>
     <use style="fill:#1f77b4;stroke:#1f77b4;" x="135.645661" xlink:href="#mb8a3d8252d" y="186.791442"/>
     <use style="fill:#1f77b4;stroke:#1f77b4;" x="151.749813" xlink:href="#mb8a3d8252d" y="190.836779"/>
     <use style="fill:#1f77b4;stroke:#1f77b4;" x="188.207889" xlink:href="#mb8a3d8252d" y="142.328863"/>
     <use style="fill:#1f77b4;stroke:#1f77b4;" x="186.210496" xlink:href="#mb8a3d8252d" y="160.161925"/>
     <use style="fill:#1f77b4;stroke:#1f77b4;" x="177.35111" xlink:href="#mb8a3d8252d" y="158.067834"/>
     <use style="fill:#1f77b4;stroke:#1f77b4;" x="181.155132" xlink:href="#mb8a3d8252d" y="165.11185"/>
     <use style="fill:#1f77b4;stroke:#1f77b4;" x="181.633174" xlink:href="#mb8a3d8252d" y="175.920771"/>
     <use style="fill:#1f77b4;stroke:#1f77b4;" x="186.783659" xlink:href="#mb8a3d8252d" y="177.859766"/>
     <use style="fill:#1f77b4;stroke:#1f77b4;" x="186.368276" xlink:href="#mb8a3d8252d" y="175.123582"/>
     <use style="fill:#1f77b4;stroke:#1f77b4;" x="190.175744" xlink:href="#mb8a3d8252d" y="185.399274"/>
     <use style="fill:#1f77b4;stroke:#1f77b4;" x="144.972226" xlink:href="#mb8a3d8252d" y="160.8915"/>
     <use style="fill:#1f77b4;stroke:#1f77b4;" x="178.397957" xlink:href="#mb8a3d8252d" y="155.880741"/>
     <use style="fill:#1f77b4;stroke:#1f77b4;" x="191.848745" xlink:href="#mb8a3d8252d" y="128.818898"/>
    </g>
   </g>
   <g id="matplotlib.axis_1">
    <g id="xtick_1">
     <g id="line2d_1">
      <defs>
       <path d="M 0 0 
L 0 3.5 
" id="m2521e82ad0" style="stroke:#000000;stroke-width:0.8;"/>
      </defs>
      <g>
       <use style="stroke:#000000;stroke-width:0.8;" x="67.724219" xlink:href="#m2521e82ad0" y="224.64"/>
      </g>
     </g>
     <g id="text_1">
      <!-- 0.0 -->
      <g transform="translate(57.724219 242.75)scale(0.16 -0.16)">
       <defs>
        <path d="M 3.609375 32.71875 
Q 3.609375 44.046875 7.03125 52.21875 
Q 10.453125 60.40625 16.109375 64.40625 
Q 20.515625 67.578125 25.203125 67.578125 
Q 32.8125 67.578125 38.875 59.8125 
Q 46.4375 50.203125 46.4375 33.734375 
Q 46.4375 22.21875 43.109375 14.15625 
Q 39.796875 6.109375 34.640625 2.46875 
Q 29.5 -1.171875 24.703125 -1.171875 
Q 15.234375 -1.171875 8.9375 10.015625 
Q 3.609375 19.4375 3.609375 32.71875 
z
M 13.1875 31.5 
Q 13.1875 17.828125 16.546875 9.1875 
Q 19.34375 1.90625 24.859375 1.90625 
Q 27.484375 1.90625 30.3125 4.265625 
Q 33.15625 6.640625 34.625 12.203125 
Q 36.859375 20.609375 36.859375 35.890625 
Q 36.859375 47.21875 34.515625 54.78125 
Q 32.765625 60.40625 29.984375 62.75 
Q 27.984375 64.359375 25.140625 64.359375 
Q 21.828125 64.359375 19.234375 61.375 
Q 15.71875 57.328125 14.453125 48.625 
Q 13.1875 39.9375 13.1875 31.5 
z
" id="TimesNewRomanPSMT-48"/>
        <path d="M 12.5 9.46875 
Q 14.796875 9.46875 16.359375 7.875 
Q 17.921875 6.296875 17.921875 4.046875 
Q 17.921875 1.8125 16.328125 0.21875 
Q 14.75 -1.375 12.5 -1.375 
Q 10.25 -1.375 8.65625 0.21875 
Q 7.078125 1.8125 7.078125 4.046875 
Q 7.078125 6.34375 8.65625 7.90625 
Q 10.25 9.46875 12.5 9.46875 
z
" id="TimesNewRomanPSMT-46"/>
       </defs>
       <use xlink:href="#TimesNewRomanPSMT-48"/>
       <use x="50" xlink:href="#TimesNewRomanPSMT-46"/>
       <use x="75" xlink:href="#TimesNewRomanPSMT-48"/>
      </g>
     </g>
    </g>
    <g id="xtick_2">
     <g id="line2d_2">
      <g>
       <use style="stroke:#000000;stroke-width:0.8;" x="126.168883" xlink:href="#m2521e82ad0" y="224.64"/>
      </g>
     </g>
     <g id="text_2">
      <!-- 2.5 -->
      <g transform="translate(116.168883 242.75)scale(0.16 -0.16)">
       <defs>
        <path d="M 45.84375 12.75 
L 41.21875 0 
L 2.15625 0 
L 2.15625 1.8125 
Q 19.390625 17.53125 26.421875 27.484375 
Q 33.453125 37.453125 33.453125 45.703125 
Q 33.453125 52 29.59375 56.046875 
Q 25.734375 60.109375 20.359375 60.109375 
Q 15.484375 60.109375 11.59375 57.25 
Q 7.71875 54.390625 5.859375 48.875 
L 4.046875 48.875 
Q 5.28125 57.90625 10.328125 62.734375 
Q 15.375 67.578125 22.953125 67.578125 
Q 31 67.578125 36.390625 62.40625 
Q 41.796875 57.234375 41.796875 50.203125 
Q 41.796875 45.171875 39.453125 40.140625 
Q 35.84375 32.234375 27.734375 23.390625 
Q 15.578125 10.109375 12.546875 7.375 
L 29.828125 7.375 
Q 35.109375 7.375 37.234375 7.765625 
Q 39.359375 8.15625 41.0625 9.34375 
Q 42.78125 10.546875 44.046875 12.75 
z
" id="TimesNewRomanPSMT-50"/>
        <path d="M 43.40625 66.21875 
L 39.59375 57.90625 
L 19.671875 57.90625 
L 15.328125 49.03125 
Q 28.265625 47.125 35.84375 39.40625 
Q 42.328125 32.765625 42.328125 23.78125 
Q 42.328125 18.5625 40.203125 14.109375 
Q 38.09375 9.671875 34.859375 6.546875 
Q 31.640625 3.421875 27.6875 1.515625 
Q 22.078125 -1.171875 16.15625 -1.171875 
Q 10.203125 -1.171875 7.484375 0.84375 
Q 4.78125 2.875 4.78125 5.328125 
Q 4.78125 6.6875 5.90625 7.734375 
Q 7.03125 8.796875 8.734375 8.796875 
Q 10.015625 8.796875 10.96875 8.40625 
Q 11.921875 8.015625 14.203125 6.390625 
Q 17.875 3.859375 21.625 3.859375 
Q 27.34375 3.859375 31.65625 8.171875 
Q 35.984375 12.5 35.984375 18.703125 
Q 35.984375 24.703125 32.125 29.90625 
Q 28.265625 35.109375 21.484375 37.9375 
Q 16.15625 40.140625 6.984375 40.484375 
L 19.671875 66.21875 
z
" id="TimesNewRomanPSMT-53"/>
       </defs>
       <use xlink:href="#TimesNewRomanPSMT-50"/>
       <use x="50" xlink:href="#TimesNewRomanPSMT-46"/>
       <use x="75" xlink:href="#TimesNewRomanPSMT-53"/>
      </g>
     </g>
    </g>
    <g id="xtick_3">
     <g id="line2d_3">
      <g>
       <use style="stroke:#000000;stroke-width:0.8;" x="184.613547" xlink:href="#m2521e82ad0" y="224.64"/>
      </g>
     </g>
     <g id="text_3">
      <!-- 5.0 -->
      <g transform="translate(174.613547 242.75)scale(0.16 -0.16)">
       <use xlink:href="#TimesNewRomanPSMT-53"/>
       <use x="50" xlink:href="#TimesNewRomanPSMT-46"/>
       <use x="75" xlink:href="#TimesNewRomanPSMT-48"/>
      </g>
     </g>
    </g>
    <g id="xtick_4">
     <g id="line2d_4">
      <g>
       <use style="stroke:#000000;stroke-width:0.8;" x="243.058211" xlink:href="#m2521e82ad0" y="224.64"/>
      </g>
     </g>
     <g id="text_4">
      <!-- 7.5 -->
      <g transform="translate(233.058211 242.75)scale(0.16 -0.16)">
       <defs>
        <path d="M 10.0625 66.21875 
L 45.5625 66.21875 
L 45.5625 64.359375 
L 23.484375 -1.375 
L 18.015625 -1.375 
L 37.796875 58.25 
L 19.578125 58.25 
Q 14.0625 58.25 11.71875 56.9375 
Q 7.625 54.6875 5.125 50 
L 3.71875 50.53125 
z
" id="TimesNewRomanPSMT-55"/>
       </defs>
       <use xlink:href="#TimesNewRomanPSMT-55"/>
       <use x="50" xlink:href="#TimesNewRomanPSMT-46"/>
       <use x="75" xlink:href="#TimesNewRomanPSMT-53"/>
      </g>
     </g>
    </g>
    <g id="xtick_5">
     <g id="line2d_5">
      <g>
       <use style="stroke:#000000;stroke-width:0.8;" x="301.502875" xlink:href="#m2521e82ad0" y="224.64"/>
      </g>
     </g>
     <g id="text_5">
      <!-- 10.0 -->
      <g transform="translate(287.502875 242.75)scale(0.16 -0.16)">
       <defs>
        <path d="M 11.71875 59.71875 
L 27.828125 67.578125 
L 29.4375 67.578125 
L 29.4375 11.671875 
Q 29.4375 6.109375 29.90625 4.734375 
Q 30.375 3.375 31.828125 2.640625 
Q 33.296875 1.90625 37.796875 1.8125 
L 37.796875 0 
L 12.890625 0 
L 12.890625 1.8125 
Q 17.578125 1.90625 18.9375 2.609375 
Q 20.3125 3.328125 20.84375 4.515625 
Q 21.390625 5.71875 21.390625 11.671875 
L 21.390625 47.40625 
Q 21.390625 54.640625 20.90625 56.6875 
Q 20.5625 58.25 19.65625 58.984375 
Q 18.75 59.71875 17.484375 59.71875 
Q 15.671875 59.71875 12.453125 58.203125 
z
" id="TimesNewRomanPSMT-49"/>
       </defs>
       <use xlink:href="#TimesNewRomanPSMT-49"/>
       <use x="50" xlink:href="#TimesNewRomanPSMT-48"/>
       <use x="100" xlink:href="#TimesNewRomanPSMT-46"/>
       <use x="125" xlink:href="#TimesNewRomanPSMT-48"/>
      </g>
     </g>
    </g>
    <g id="xtick_6">
     <g id="line2d_6">
      <g>
       <use style="stroke:#000000;stroke-width:0.8;" x="359.947539" xlink:href="#m2521e82ad0" y="224.64"/>
      </g>
     </g>
     <g id="text_6">
      <!-- 12.5 -->
      <g transform="translate(345.947539 242.75)scale(0.16 -0.16)">
       <use xlink:href="#TimesNewRomanPSMT-49"/>
       <use x="50" xlink:href="#TimesNewRomanPSMT-50"/>
       <use x="100" xlink:href="#TimesNewRomanPSMT-46"/>
       <use x="125" xlink:href="#TimesNewRomanPSMT-53"/>
      </g>
     </g>
    </g>
    <g id="text_7">
     <!-- cg2918 Expression -->
     <g transform="translate(149.940625 260.588125)scale(0.15 -0.15)">
      <defs>
       <path d="M 41.109375 17 
Q 39.3125 8.15625 34.03125 3.390625 
Q 28.765625 -1.375 22.359375 -1.375 
Q 14.75 -1.375 9.078125 5.015625 
Q 3.421875 11.421875 3.421875 22.3125 
Q 3.421875 32.859375 9.6875 39.453125 
Q 15.96875 46.046875 24.75 46.046875 
Q 31.34375 46.046875 35.59375 42.546875 
Q 39.84375 39.0625 39.84375 35.296875 
Q 39.84375 33.453125 38.640625 32.296875 
Q 37.453125 31.15625 35.296875 31.15625 
Q 32.421875 31.15625 30.953125 33.015625 
Q 30.125 34.03125 29.859375 36.90625 
Q 29.59375 39.796875 27.875 41.3125 
Q 26.171875 42.78125 23.140625 42.78125 
Q 18.265625 42.78125 15.28125 39.15625 
Q 11.328125 34.375 11.328125 26.515625 
Q 11.328125 18.5 15.25 12.375 
Q 19.1875 6.25 25.875 6.25 
Q 30.671875 6.25 34.46875 9.515625 
Q 37.15625 11.765625 39.703125 17.671875 
z
" id="TimesNewRomanPSMT-99"/>
       <path d="M 15.09375 16.3125 
Q 10.984375 18.3125 8.78125 21.890625 
Q 6.59375 25.484375 6.59375 29.828125 
Q 6.59375 36.46875 11.59375 41.25 
Q 16.609375 46.046875 24.421875 46.046875 
Q 30.8125 46.046875 35.5 42.921875 
L 44.96875 42.921875 
Q 47.078125 42.921875 47.40625 42.796875 
Q 47.75 42.671875 47.90625 42.390625 
Q 48.1875 41.9375 48.1875 40.828125 
Q 48.1875 39.546875 47.953125 39.0625 
Q 47.796875 38.8125 47.4375 38.671875 
Q 47.078125 38.53125 44.96875 38.53125 
L 39.15625 38.53125 
Q 41.890625 35.015625 41.890625 29.546875 
Q 41.890625 23.296875 37.109375 18.84375 
Q 32.328125 14.40625 24.265625 14.40625 
Q 20.953125 14.40625 17.484375 15.375 
Q 15.328125 13.53125 14.5625 12.140625 
Q 13.8125 10.75 13.8125 9.765625 
Q 13.8125 8.9375 14.625 8.15625 
Q 15.4375 7.375 17.78125 7.03125 
Q 19.140625 6.84375 24.609375 6.6875 
Q 34.671875 6.453125 37.640625 6 
Q 42.1875 5.375 44.890625 2.640625 
Q 47.609375 -0.09375 47.609375 -4.109375 
Q 47.609375 -9.625 42.4375 -14.453125 
Q 34.8125 -21.578125 22.5625 -21.578125 
Q 13.140625 -21.578125 6.640625 -17.328125 
Q 2.984375 -14.890625 2.984375 -12.25 
Q 2.984375 -11.078125 3.515625 -9.90625 
Q 4.34375 -8.109375 6.9375 -4.890625 
Q 7.28125 -4.4375 11.921875 0.390625 
Q 9.375 1.90625 8.328125 3.09375 
Q 7.28125 4.296875 7.28125 5.8125 
Q 7.28125 7.515625 8.671875 9.8125 
Q 10.0625 12.109375 15.09375 16.3125 
z
M 23.578125 43.703125 
Q 19.96875 43.703125 17.53125 40.8125 
Q 15.09375 37.9375 15.09375 31.984375 
Q 15.09375 24.265625 18.40625 20.015625 
Q 20.953125 16.796875 24.859375 16.796875 
Q 28.5625 16.796875 30.953125 19.578125 
Q 33.34375 22.359375 33.34375 28.328125 
Q 33.34375 36.078125 29.984375 40.484375 
Q 27.484375 43.703125 23.578125 43.703125 
z
M 14.59375 0 
Q 12.3125 -2.484375 11.140625 -4.625 
Q 9.96875 -6.78125 9.96875 -8.59375 
Q 9.96875 -10.9375 12.796875 -12.703125 
Q 17.671875 -15.71875 26.90625 -15.71875 
Q 35.6875 -15.71875 39.859375 -12.609375 
Q 44.046875 -9.515625 44.046875 -6 
Q 44.046875 -3.46875 41.546875 -2.390625 
Q 39.015625 -1.3125 31.5 -1.125 
Q 20.515625 -0.828125 14.59375 0 
z
" id="TimesNewRomanPSMT-103"/>
       <path d="M 5.28125 -1.375 
L 5.28125 0.4375 
Q 11.625 0.53125 17.09375 3.390625 
Q 22.5625 6.25 27.65625 13.375 
Q 32.765625 20.515625 34.765625 29.046875 
Q 27.09375 24.125 20.90625 24.125 
Q 13.921875 24.125 8.9375 29.515625 
Q 3.953125 34.90625 3.953125 43.84375 
Q 3.953125 52.546875 8.9375 59.328125 
Q 14.9375 67.578125 24.609375 67.578125 
Q 32.765625 67.578125 38.578125 60.84375 
Q 45.703125 52.484375 45.703125 40.234375 
Q 45.703125 29.203125 40.28125 19.65625 
Q 34.859375 10.109375 25.203125 3.8125 
Q 17.328125 -1.375 8.0625 -1.375 
z
M 35.546875 32.671875 
Q 36.421875 39.015625 36.421875 42.828125 
Q 36.421875 47.5625 34.8125 53.046875 
Q 33.203125 58.546875 30.25 61.46875 
Q 27.296875 64.40625 23.53125 64.40625 
Q 19.1875 64.40625 15.90625 60.5 
Q 12.640625 56.59375 12.640625 48.875 
Q 12.640625 38.578125 17 32.765625 
Q 20.171875 28.5625 24.8125 28.5625 
Q 27.046875 28.5625 30.125 29.640625 
Q 33.203125 30.71875 35.546875 32.671875 
z
" id="TimesNewRomanPSMT-57"/>
       <path d="M 19.1875 33.34375 
Q 11.328125 39.796875 9.046875 43.703125 
Q 6.78125 47.609375 6.78125 51.8125 
Q 6.78125 58.25 11.765625 62.90625 
Q 16.75 67.578125 25 67.578125 
Q 33.015625 67.578125 37.890625 63.234375 
Q 42.78125 58.890625 42.78125 53.328125 
Q 42.78125 49.609375 40.140625 45.75 
Q 37.5 41.890625 29.15625 36.671875 
Q 37.75 30.03125 40.53125 26.21875 
Q 44.234375 21.234375 44.234375 15.71875 
Q 44.234375 8.734375 38.90625 3.78125 
Q 33.59375 -1.171875 24.953125 -1.171875 
Q 15.53125 -1.171875 10.25 4.734375 
Q 6.0625 9.46875 6.0625 15.09375 
Q 6.0625 19.484375 9.015625 23.796875 
Q 11.96875 28.125 19.1875 33.34375 
z
M 26.859375 38.578125 
Q 32.71875 43.84375 34.28125 46.890625 
Q 35.84375 49.953125 35.84375 53.8125 
Q 35.84375 58.9375 32.953125 61.84375 
Q 30.078125 64.75 25.09375 64.75 
Q 20.125 64.75 17 61.859375 
Q 13.875 58.984375 13.875 55.125 
Q 13.875 52.59375 15.15625 50.046875 
Q 16.453125 47.515625 18.84375 45.21875 
z
M 21.484375 31.5 
Q 17.4375 28.078125 15.484375 24.046875 
Q 13.53125 20.015625 13.53125 15.328125 
Q 13.53125 9.03125 16.96875 5.25 
Q 20.40625 1.46875 25.734375 1.46875 
Q 31 1.46875 34.171875 4.4375 
Q 37.359375 7.421875 37.359375 11.671875 
Q 37.359375 15.1875 35.5 17.96875 
Q 32.03125 23.140625 21.484375 31.5 
z
" id="TimesNewRomanPSMT-56"/>
       <path id="TimesNewRomanPSMT-32"/>
       <path d="M 20.90625 62.59375 
L 20.90625 36.421875 
L 35.453125 36.421875 
Q 41.109375 36.421875 43.015625 38.140625 
Q 45.5625 40.375 45.84375 46.046875 
L 47.65625 46.046875 
L 47.65625 23 
L 45.84375 23 
Q 45.171875 27.828125 44.484375 29.203125 
Q 43.609375 30.90625 41.59375 31.875 
Q 39.59375 32.859375 35.453125 32.859375 
L 20.90625 32.859375 
L 20.90625 11.03125 
Q 20.90625 6.640625 21.296875 5.6875 
Q 21.6875 4.734375 22.65625 4.171875 
Q 23.640625 3.609375 26.375 3.609375 
L 37.59375 3.609375 
Q 43.21875 3.609375 45.75 4.390625 
Q 48.296875 5.171875 50.640625 7.46875 
Q 53.65625 10.5 56.84375 16.609375 
L 58.796875 16.609375 
L 53.078125 0 
L 2.046875 0 
L 2.046875 1.8125 
L 4.390625 1.8125 
Q 6.734375 1.8125 8.84375 2.9375 
Q 10.40625 3.71875 10.96875 5.28125 
Q 11.53125 6.84375 11.53125 11.671875 
L 11.53125 54.6875 
Q 11.53125 60.984375 10.25 62.453125 
Q 8.5 64.40625 4.390625 64.40625 
L 2.046875 64.40625 
L 2.046875 66.21875 
L 53.078125 66.21875 
L 53.8125 51.703125 
L 51.90625 51.703125 
Q 50.875 56.9375 49.625 58.890625 
Q 48.390625 60.84375 45.953125 61.859375 
Q 44 62.59375 39.0625 62.59375 
z
" id="TimesNewRomanPSMT-69"/>
       <path d="M 1.3125 44.734375 
L 22.359375 44.734375 
L 22.359375 42.921875 
Q 20.359375 42.921875 19.546875 42.234375 
Q 18.75 41.546875 18.75 40.4375 
Q 18.75 39.265625 20.453125 36.8125 
Q 21 36.03125 22.078125 34.375 
L 25.25 29.296875 
L 28.90625 34.375 
Q 32.421875 39.203125 32.421875 40.484375 
Q 32.421875 41.5 31.59375 42.203125 
Q 30.765625 42.921875 28.90625 42.921875 
L 28.90625 44.734375 
L 44.046875 44.734375 
L 44.046875 42.921875 
Q 41.65625 42.78125 39.890625 41.609375 
Q 37.5 39.9375 33.34375 34.375 
L 27.25 26.21875 
L 38.375 10.203125 
Q 42.484375 4.296875 44.234375 3.09375 
Q 46 1.90625 48.78125 1.765625 
L 48.78125 0 
L 27.6875 0 
L 27.6875 1.765625 
Q 29.890625 1.765625 31.109375 2.734375 
Q 32.03125 3.421875 32.03125 4.546875 
Q 32.03125 5.671875 28.90625 10.203125 
L 22.359375 19.78125 
L 15.1875 10.203125 
Q 11.859375 5.765625 11.859375 4.9375 
Q 11.859375 3.765625 12.953125 2.8125 
Q 14.0625 1.859375 16.265625 1.765625 
L 16.265625 0 
L 1.65625 0 
L 1.65625 1.765625 
Q 3.421875 2 4.734375 2.984375 
Q 6.59375 4.390625 10.984375 10.203125 
L 20.359375 22.65625 
L 11.859375 34.96875 
Q 8.25 40.234375 6.265625 41.578125 
Q 4.296875 42.921875 1.3125 42.921875 
z
" id="TimesNewRomanPSMT-120"/>
       <path d="M -0.09375 40.28125 
L 13.671875 45.84375 
L 15.53125 45.84375 
L 15.53125 35.40625 
Q 19 41.3125 22.484375 43.671875 
Q 25.984375 46.046875 29.828125 46.046875 
Q 36.578125 46.046875 41.0625 40.765625 
Q 46.578125 34.328125 46.578125 23.96875 
Q 46.578125 12.40625 39.9375 4.828125 
Q 34.46875 -1.375 26.171875 -1.375 
Q 22.5625 -1.375 19.921875 -0.34375 
Q 17.96875 0.390625 15.53125 2.59375 
L 15.53125 -11.03125 
Q 15.53125 -15.625 16.09375 -16.859375 
Q 16.65625 -18.109375 18.046875 -18.84375 
Q 19.4375 -19.578125 23.09375 -19.578125 
L 23.09375 -21.390625 
L -0.34375 -21.390625 
L -0.34375 -19.578125 
L 0.875 -19.578125 
Q 3.5625 -19.625 5.46875 -18.5625 
Q 6.390625 -18.015625 6.90625 -16.8125 
Q 7.421875 -15.625 7.421875 -10.75 
L 7.421875 31.546875 
Q 7.421875 35.890625 7.03125 37.0625 
Q 6.640625 38.234375 5.78125 38.8125 
Q 4.9375 39.40625 3.46875 39.40625 
Q 2.296875 39.40625 0.484375 38.71875 
z
M 15.53125 32.515625 
L 15.53125 15.828125 
Q 15.53125 10.40625 15.96875 8.6875 
Q 16.65625 5.859375 19.3125 3.703125 
Q 21.96875 1.5625 26.03125 1.5625 
Q 30.90625 1.5625 33.9375 5.375 
Q 37.890625 10.359375 37.890625 19.390625 
Q 37.890625 29.640625 33.40625 35.15625 
Q 30.28125 38.96875 25.984375 38.96875 
Q 23.640625 38.96875 21.34375 37.796875 
Q 19.578125 36.921875 15.53125 32.515625 
z
" id="TimesNewRomanPSMT-112"/>
       <path d="M 16.21875 46.046875 
L 16.21875 35.984375 
Q 21.828125 46.046875 27.734375 46.046875 
Q 30.421875 46.046875 32.171875 44.40625 
Q 33.9375 42.78125 33.9375 40.625 
Q 33.9375 38.71875 32.65625 37.390625 
Q 31.390625 36.078125 29.640625 36.078125 
Q 27.9375 36.078125 25.8125 37.765625 
Q 23.6875 39.453125 22.65625 39.453125 
Q 21.78125 39.453125 20.75 38.484375 
Q 18.5625 36.46875 16.21875 31.890625 
L 16.21875 10.453125 
Q 16.21875 6.734375 17.140625 4.828125 
Q 17.78125 3.515625 19.390625 2.640625 
Q 21 1.765625 24.03125 1.765625 
L 24.03125 0 
L 1.125 0 
L 1.125 1.765625 
Q 4.546875 1.765625 6.203125 2.828125 
Q 7.421875 3.609375 7.90625 5.328125 
Q 8.15625 6.15625 8.15625 10.0625 
L 8.15625 27.390625 
Q 8.15625 35.203125 7.828125 36.6875 
Q 7.515625 38.1875 6.65625 38.859375 
Q 5.8125 39.546875 4.546875 39.546875 
Q 3.03125 39.546875 1.125 38.8125 
L 0.640625 40.578125 
L 14.15625 46.046875 
z
" id="TimesNewRomanPSMT-114"/>
       <path d="M 10.640625 27.875 
Q 10.59375 17.921875 15.484375 12.25 
Q 20.359375 6.59375 26.953125 6.59375 
Q 31.34375 6.59375 34.59375 9 
Q 37.84375 11.421875 40.046875 17.28125 
L 41.546875 16.3125 
Q 40.53125 9.625 35.59375 4.125 
Q 30.671875 -1.375 23.25 -1.375 
Q 15.1875 -1.375 9.453125 4.90625 
Q 3.71875 11.1875 3.71875 21.78125 
Q 3.71875 33.25 9.59375 39.671875 
Q 15.484375 46.09375 24.359375 46.09375 
Q 31.890625 46.09375 36.71875 41.140625 
Q 41.546875 36.1875 41.546875 27.875 
z
M 10.640625 30.71875 
L 31.34375 30.71875 
Q 31.109375 35.015625 30.328125 36.765625 
Q 29.109375 39.5 26.6875 41.0625 
Q 24.265625 42.625 21.625 42.625 
Q 17.578125 42.625 14.375 39.46875 
Q 11.1875 36.328125 10.640625 30.71875 
z
" id="TimesNewRomanPSMT-101"/>
       <path d="M 32.03125 46.046875 
L 32.03125 30.8125 
L 30.421875 30.8125 
Q 28.5625 37.984375 25.65625 40.578125 
Q 22.75 43.171875 18.265625 43.171875 
Q 14.84375 43.171875 12.734375 41.359375 
Q 10.640625 39.546875 10.640625 37.359375 
Q 10.640625 34.625 12.203125 32.671875 
Q 13.71875 30.671875 18.359375 28.421875 
L 25.484375 24.953125 
Q 35.40625 20.125 35.40625 12.203125 
Q 35.40625 6.109375 30.78125 2.359375 
Q 26.171875 -1.375 20.453125 -1.375 
Q 16.359375 -1.375 11.078125 0.09375 
Q 9.46875 0.59375 8.453125 0.59375 
Q 7.328125 0.59375 6.6875 -0.6875 
L 5.078125 -0.6875 
L 5.078125 15.28125 
L 6.6875 15.28125 
Q 8.0625 8.453125 11.90625 4.984375 
Q 15.765625 1.515625 20.5625 1.515625 
Q 23.921875 1.515625 26.046875 3.484375 
Q 28.171875 5.46875 28.171875 8.25 
Q 28.171875 11.625 25.796875 13.921875 
Q 23.4375 16.21875 16.359375 19.734375 
Q 9.28125 23.25 7.078125 26.078125 
Q 4.890625 28.859375 4.890625 33.109375 
Q 4.890625 38.625 8.671875 42.328125 
Q 12.453125 46.046875 18.453125 46.046875 
Q 21.09375 46.046875 24.859375 44.921875 
Q 27.34375 44.1875 28.171875 44.1875 
Q 28.953125 44.1875 29.390625 44.53125 
Q 29.828125 44.875 30.421875 46.046875 
z
" id="TimesNewRomanPSMT-115"/>
       <path d="M 14.5 69.4375 
Q 16.546875 69.4375 17.984375 67.984375 
Q 19.4375 66.546875 19.4375 64.5 
Q 19.4375 62.453125 17.984375 60.984375 
Q 16.546875 59.515625 14.5 59.515625 
Q 12.453125 59.515625 10.984375 60.984375 
Q 9.515625 62.453125 9.515625 64.5 
Q 9.515625 66.546875 10.953125 67.984375 
Q 12.40625 69.4375 14.5 69.4375 
z
M 18.5625 46.046875 
L 18.5625 10.109375 
Q 18.5625 5.90625 19.171875 4.515625 
Q 19.78125 3.125 20.96875 2.4375 
Q 22.171875 1.765625 25.34375 1.765625 
L 25.34375 0 
L 3.609375 0 
L 3.609375 1.765625 
Q 6.890625 1.765625 8 2.390625 
Q 9.125 3.03125 9.78125 4.484375 
Q 10.453125 5.953125 10.453125 10.109375 
L 10.453125 27.34375 
Q 10.453125 34.625 10.015625 36.765625 
Q 9.671875 38.328125 8.9375 38.9375 
Q 8.203125 39.546875 6.9375 39.546875 
Q 5.5625 39.546875 3.609375 38.8125 
L 2.9375 40.578125 
L 16.40625 46.046875 
z
" id="TimesNewRomanPSMT-105"/>
       <path d="M 25 46.046875 
Q 35.15625 46.046875 41.3125 38.328125 
Q 46.53125 31.734375 46.53125 23.1875 
Q 46.53125 17.1875 43.640625 11.03125 
Q 40.765625 4.890625 35.71875 1.75 
Q 30.671875 -1.375 24.46875 -1.375 
Q 14.359375 -1.375 8.40625 6.6875 
Q 3.375 13.484375 3.375 21.921875 
Q 3.375 28.078125 6.421875 34.15625 
Q 9.46875 40.234375 14.453125 43.140625 
Q 19.4375 46.046875 25 46.046875 
z
M 23.484375 42.875 
Q 20.90625 42.875 18.28125 41.328125 
Q 15.671875 39.796875 14.0625 35.9375 
Q 12.453125 32.078125 12.453125 26.03125 
Q 12.453125 16.265625 16.328125 9.171875 
Q 20.21875 2.09375 26.5625 2.09375 
Q 31.296875 2.09375 34.375 6 
Q 37.453125 9.90625 37.453125 19.4375 
Q 37.453125 31.34375 32.328125 38.1875 
Q 28.859375 42.875 23.484375 42.875 
z
" id="TimesNewRomanPSMT-111"/>
       <path d="M 16.15625 36.578125 
Q 24.03125 46.046875 31.15625 46.046875 
Q 34.8125 46.046875 37.453125 44.21875 
Q 40.09375 42.390625 41.65625 38.1875 
Q 42.71875 35.25 42.71875 29.203125 
L 42.71875 10.109375 
Q 42.71875 5.859375 43.40625 4.34375 
Q 43.953125 3.125 45.140625 2.4375 
Q 46.34375 1.765625 49.5625 1.765625 
L 49.5625 0 
L 27.4375 0 
L 27.4375 1.765625 
L 28.375 1.765625 
Q 31.5 1.765625 32.734375 2.703125 
Q 33.984375 3.65625 34.46875 5.515625 
Q 34.671875 6.25 34.671875 10.109375 
L 34.671875 28.421875 
Q 34.671875 34.515625 33.078125 37.28125 
Q 31.5 40.046875 27.734375 40.046875 
Q 21.921875 40.046875 16.15625 33.6875 
L 16.15625 10.109375 
Q 16.15625 5.5625 16.703125 4.5 
Q 17.390625 3.078125 18.578125 2.421875 
Q 19.78125 1.765625 23.4375 1.765625 
L 23.4375 0 
L 1.3125 0 
L 1.3125 1.765625 
L 2.296875 1.765625 
Q 5.71875 1.765625 6.90625 3.484375 
Q 8.109375 5.21875 8.109375 10.109375 
L 8.109375 26.703125 
Q 8.109375 34.765625 7.734375 36.515625 
Q 7.375 38.28125 6.609375 38.90625 
Q 5.859375 39.546875 4.59375 39.546875 
Q 3.21875 39.546875 1.3125 38.8125 
L 0.59375 40.578125 
L 14.0625 46.046875 
L 16.15625 46.046875 
z
" id="TimesNewRomanPSMT-110"/>
      </defs>
      <use xlink:href="#TimesNewRomanPSMT-99"/>
      <use x="44.384766" xlink:href="#TimesNewRomanPSMT-103"/>
      <use x="94.384766" xlink:href="#TimesNewRomanPSMT-50"/>
      <use x="144.384766" xlink:href="#TimesNewRomanPSMT-57"/>
      <use x="194.384766" xlink:href="#TimesNewRomanPSMT-49"/>
      <use x="244.384766" xlink:href="#TimesNewRomanPSMT-56"/>
      <use x="294.384766" xlink:href="#TimesNewRomanPSMT-32"/>
      <use x="319.384766" xlink:href="#TimesNewRomanPSMT-69"/>
      <use x="380.46875" xlink:href="#TimesNewRomanPSMT-120"/>
      <use x="430.46875" xlink:href="#TimesNewRomanPSMT-112"/>
      <use x="480.46875" xlink:href="#TimesNewRomanPSMT-114"/>
      <use x="513.769531" xlink:href="#TimesNewRomanPSMT-101"/>
      <use x="558.154297" xlink:href="#TimesNewRomanPSMT-115"/>
      <use x="597.070312" xlink:href="#TimesNewRomanPSMT-115"/>
      <use x="635.986328" xlink:href="#TimesNewRomanPSMT-105"/>
      <use x="663.769531" xlink:href="#TimesNewRomanPSMT-111"/>
      <use x="713.769531" xlink:href="#TimesNewRomanPSMT-110"/>
     </g>
    </g>
   </g>
   <g id="matplotlib.axis_2">
    <g id="ytick_1">
     <g id="line2d_7">
      <defs>
       <path d="M 0 0 
L -3.5 0 
" id="m2ed6c185de" style="stroke:#000000;stroke-width:0.8;"/>
      </defs>
      <g>
       <use style="stroke:#000000;stroke-width:0.8;" x="39.824219" xlink:href="#m2ed6c185de" y="206.52"/>
      </g>
     </g>
     <g id="text_8">
      <!-- 0 -->
      <g transform="translate(24.824219 212.075)scale(0.16 -0.16)">
       <use xlink:href="#TimesNewRomanPSMT-48"/>
      </g>
     </g>
    </g>
    <g id="ytick_2">
     <g id="line2d_8">
      <g>
       <use style="stroke:#000000;stroke-width:0.8;" x="39.824219" xlink:href="#m2ed6c185de" y="162.888552"/>
      </g>
     </g>
     <g id="text_9">
      <!-- 2 -->
      <g transform="translate(24.824219 168.443552)scale(0.16 -0.16)">
       <use xlink:href="#TimesNewRomanPSMT-50"/>
      </g>
     </g>
    </g>
    <g id="ytick_3">
     <g id="line2d_9">
      <g>
       <use style="stroke:#000000;stroke-width:0.8;" x="39.824219" xlink:href="#m2ed6c185de" y="119.257104"/>
      </g>
     </g>
     <g id="text_10">
      <!-- 4 -->
      <g transform="translate(24.824219 124.812104)scale(0.16 -0.16)">
       <defs>
        <path d="M 46.53125 24.421875 
L 46.53125 17.484375 
L 37.640625 17.484375 
L 37.640625 0 
L 29.59375 0 
L 29.59375 17.484375 
L 1.5625 17.484375 
L 1.5625 23.734375 
L 32.28125 67.578125 
L 37.640625 67.578125 
L 37.640625 24.421875 
z
M 29.59375 24.421875 
L 29.59375 57.28125 
L 6.34375 24.421875 
z
" id="TimesNewRomanPSMT-52"/>
       </defs>
       <use xlink:href="#TimesNewRomanPSMT-52"/>
      </g>
     </g>
    </g>
    <g id="ytick_4">
     <g id="line2d_10">
      <g>
       <use style="stroke:#000000;stroke-width:0.8;" x="39.824219" xlink:href="#m2ed6c185de" y="75.625656"/>
      </g>
     </g>
     <g id="text_11">
      <!-- 6 -->
      <g transform="translate(24.824219 81.180656)scale(0.16 -0.16)">
       <defs>
        <path d="M 44.828125 67.578125 
L 44.828125 65.765625 
Q 38.375 65.140625 34.296875 63.203125 
Q 30.21875 61.28125 26.234375 57.328125 
Q 22.265625 53.375 19.65625 48.515625 
Q 17.046875 43.65625 15.28125 36.96875 
Q 22.3125 41.796875 29.390625 41.796875 
Q 36.1875 41.796875 41.15625 36.328125 
Q 46.140625 30.859375 46.140625 22.265625 
Q 46.140625 13.96875 41.109375 7.125 
Q 35.0625 -1.171875 25.09375 -1.171875 
Q 18.3125 -1.171875 13.578125 3.328125 
Q 4.296875 12.0625 4.296875 25.984375 
Q 4.296875 34.859375 7.859375 42.859375 
Q 11.421875 50.875 18.03125 57.078125 
Q 24.65625 63.28125 30.703125 65.421875 
Q 36.765625 67.578125 42 67.578125 
z
M 14.453125 33.40625 
Q 13.578125 26.8125 13.578125 22.75 
Q 13.578125 18.0625 15.3125 12.5625 
Q 17.046875 7.078125 20.453125 3.859375 
Q 22.953125 1.5625 26.515625 1.5625 
Q 30.765625 1.5625 34.109375 5.5625 
Q 37.453125 9.578125 37.453125 17 
Q 37.453125 25.34375 34.125 31.4375 
Q 30.8125 37.546875 24.703125 37.546875 
Q 22.859375 37.546875 20.734375 36.765625 
Q 18.609375 35.984375 14.453125 33.40625 
z
" id="TimesNewRomanPSMT-54"/>
       </defs>
       <use xlink:href="#TimesNewRomanPSMT-54"/>
      </g>
     </g>
    </g>
    <g id="ytick_5">
     <g id="line2d_11">
      <g>
       <use style="stroke:#000000;stroke-width:0.8;" x="39.824219" xlink:href="#m2ed6c185de" y="31.994208"/>
      </g>
     </g>
     <g id="text_12">
      <!-- 8 -->
      <g transform="translate(24.824219 37.549208)scale(0.16 -0.16)">
       <use xlink:href="#TimesNewRomanPSMT-56"/>
      </g>
     </g>
    </g>
    <g id="text_13">
     <!-- mntB Expression -->
     <g transform="translate(17.615625 167.794219)rotate(-90)scale(0.15 -0.15)">
      <defs>
       <path d="M 16.40625 36.53125 
Q 21.296875 41.40625 22.171875 42.140625 
Q 24.359375 44 26.890625 45.015625 
Q 29.4375 46.046875 31.9375 46.046875 
Q 36.140625 46.046875 39.15625 43.59375 
Q 42.1875 41.15625 43.21875 36.53125 
Q 48.25 42.390625 51.703125 44.21875 
Q 55.171875 46.046875 58.84375 46.046875 
Q 62.40625 46.046875 65.15625 44.21875 
Q 67.921875 42.390625 69.53125 38.234375 
Q 70.609375 35.40625 70.609375 29.34375 
L 70.609375 10.109375 
Q 70.609375 5.90625 71.234375 4.34375 
Q 71.734375 3.265625 73.046875 2.515625 
Q 74.359375 1.765625 77.34375 1.765625 
L 77.34375 0 
L 55.28125 0 
L 55.28125 1.765625 
L 56.203125 1.765625 
Q 59.078125 1.765625 60.6875 2.875 
Q 61.8125 3.65625 62.3125 5.375 
Q 62.5 6.203125 62.5 10.109375 
L 62.5 29.34375 
Q 62.5 34.8125 61.1875 37.0625 
Q 59.28125 40.1875 55.078125 40.1875 
Q 52.484375 40.1875 49.875 38.890625 
Q 47.265625 37.59375 43.5625 34.078125 
L 43.453125 33.546875 
L 43.5625 31.453125 
L 43.5625 10.109375 
Q 43.5625 5.515625 44.0625 4.390625 
Q 44.578125 3.265625 45.984375 2.515625 
Q 47.40625 1.765625 50.828125 1.765625 
L 50.828125 0 
L 28.21875 0 
L 28.21875 1.765625 
Q 31.9375 1.765625 33.328125 2.640625 
Q 34.71875 3.515625 35.25 5.28125 
Q 35.5 6.109375 35.5 10.109375 
L 35.5 29.34375 
Q 35.5 34.8125 33.890625 37.203125 
Q 31.734375 40.328125 27.875 40.328125 
Q 25.25 40.328125 22.65625 38.921875 
Q 18.609375 36.765625 16.40625 34.078125 
L 16.40625 10.109375 
Q 16.40625 5.71875 17.015625 4.390625 
Q 17.625 3.078125 18.8125 2.421875 
Q 20.015625 1.765625 23.6875 1.765625 
L 23.6875 0 
L 1.5625 0 
L 1.5625 1.765625 
Q 4.640625 1.765625 5.859375 2.421875 
Q 7.078125 3.078125 7.703125 4.515625 
Q 8.34375 5.953125 8.34375 10.109375 
L 8.34375 27.203125 
Q 8.34375 34.578125 7.90625 36.71875 
Q 7.5625 38.328125 6.828125 38.9375 
Q 6.109375 39.546875 4.828125 39.546875 
Q 3.46875 39.546875 1.5625 38.8125 
L 0.828125 40.578125 
L 14.3125 46.046875 
L 16.40625 46.046875 
z
" id="TimesNewRomanPSMT-109"/>
       <path d="M 16.109375 59.421875 
L 16.109375 44.734375 
L 26.5625 44.734375 
L 26.5625 41.3125 
L 16.109375 41.3125 
L 16.109375 12.3125 
Q 16.109375 7.953125 17.359375 6.4375 
Q 18.609375 4.9375 20.5625 4.9375 
Q 22.171875 4.9375 23.6875 5.9375 
Q 25.203125 6.9375 26.03125 8.890625 
L 27.9375 8.890625 
Q 26.21875 4.109375 23.09375 1.6875 
Q 19.96875 -0.734375 16.65625 -0.734375 
Q 14.40625 -0.734375 12.25 0.515625 
Q 10.109375 1.765625 9.078125 4.078125 
Q 8.0625 6.390625 8.0625 11.234375 
L 8.0625 41.3125 
L 0.984375 41.3125 
L 0.984375 42.921875 
Q 3.65625 44 6.46875 46.5625 
Q 9.28125 49.125 11.46875 52.640625 
Q 12.59375 54.5 14.59375 59.421875 
z
" id="TimesNewRomanPSMT-116"/>
       <path d="M 46.1875 33.796875 
Q 53.078125 32.328125 56.5 29.109375 
Q 61.234375 24.609375 61.234375 18.109375 
Q 61.234375 13.1875 58.109375 8.671875 
Q 54.984375 4.15625 49.53125 2.078125 
Q 44.09375 0 32.90625 0 
L 1.65625 0 
L 1.65625 1.8125 
L 4.15625 1.8125 
Q 8.296875 1.8125 10.109375 4.4375 
Q 11.234375 6.15625 11.234375 11.71875 
L 11.234375 54.5 
Q 11.234375 60.640625 9.8125 62.25 
Q 7.90625 64.40625 4.15625 64.40625 
L 1.65625 64.40625 
L 1.65625 66.21875 
L 30.28125 66.21875 
Q 38.28125 66.21875 43.109375 65.046875 
Q 50.4375 63.28125 54.296875 58.8125 
Q 58.15625 54.34375 58.15625 48.53125 
Q 58.15625 43.5625 55.125 39.625 
Q 52.09375 35.6875 46.1875 33.796875 
z
M 20.609375 36.421875 
Q 22.40625 36.078125 24.71875 35.90625 
Q 27.046875 35.75 29.828125 35.75 
Q 36.96875 35.75 40.546875 37.28125 
Q 44.140625 38.8125 46.046875 41.984375 
Q 47.953125 45.171875 47.953125 48.921875 
Q 47.953125 54.734375 43.21875 58.828125 
Q 38.484375 62.9375 29.390625 62.9375 
Q 24.515625 62.9375 20.609375 61.859375 
z
M 20.609375 4.78125 
Q 26.265625 3.46875 31.78125 3.46875 
Q 40.625 3.46875 45.265625 7.4375 
Q 49.90625 11.421875 49.90625 17.28125 
Q 49.90625 21.140625 47.796875 24.703125 
Q 45.703125 28.265625 40.96875 30.3125 
Q 36.234375 32.375 29.25 32.375 
Q 26.21875 32.375 24.0625 32.265625 
Q 21.921875 32.171875 20.609375 31.9375 
z
" id="TimesNewRomanPSMT-66"/>
      </defs>
      <use xlink:href="#TimesNewRomanPSMT-109"/>
      <use x="77.783203" xlink:href="#TimesNewRomanPSMT-110"/>
      <use x="127.783203" xlink:href="#TimesNewRomanPSMT-116"/>
      <use x="155.566406" xlink:href="#TimesNewRomanPSMT-66"/>
      <use x="222.265625" xlink:href="#TimesNewRomanPSMT-32"/>
      <use x="247.265625" xlink:href="#TimesNewRomanPSMT-69"/>
      <use x="308.349609" xlink:href="#TimesNewRomanPSMT-120"/>
      <use x="358.349609" xlink:href="#TimesNewRomanPSMT-112"/>
      <use x="408.349609" xlink:href="#TimesNewRomanPSMT-114"/>
      <use x="441.650391" xlink:href="#TimesNewRomanPSMT-101"/>
      <use x="486.035156" xlink:href="#TimesNewRomanPSMT-115"/>
      <use x="524.951172" xlink:href="#TimesNewRomanPSMT-115"/>
      <use x="563.867188" xlink:href="#TimesNewRomanPSMT-105"/>
      <use x="591.650391" xlink:href="#TimesNewRomanPSMT-111"/>
      <use x="641.650391" xlink:href="#TimesNewRomanPSMT-110"/>
     </g>
    </g>
   </g>
   <g id="LineCollection_1">
    <path clip-path="url(#pef88ebcbf3)" d="M 39.824219 206.52 
L 374.624219 206.52 
" style="fill:none;stroke:#808080;stroke-width:0.5;"/>
   </g>
   <g id="LineCollection_2">
    <path clip-path="url(#pef88ebcbf3)" d="M 67.724219 224.64 
L 67.724219 7.2 
" style="fill:none;stroke:#808080;stroke-width:0.5;"/>
   </g>
   <g id="patch_3">
    <path d="M 39.824219 224.64 
L 39.824219 7.2 
" style="fill:none;stroke:#000000;stroke-linecap:square;stroke-linejoin:miter;stroke-width:0.8;"/>
   </g>
   <g id="patch_4">
    <path d="M 374.624219 224.64 
L 374.624219 7.2 
" style="fill:none;stroke:#000000;stroke-linecap:square;stroke-linejoin:miter;stroke-width:0.8;"/>
   </g>
   <g id="patch_5">
    <path d="M 39.824219 224.64 
L 374.624219 224.64 
" style="fill:none;stroke:#000000;stroke-linecap:square;stroke-linejoin:miter;stroke-width:0.8;"/>
   </g>
   <g id="patch_6">
    <path d="M 39.824219 7.2 
L 374.624219 7.2 
" style="fill:none;stroke:#000000;stroke-linecap:square;stroke-linejoin:miter;stroke-width:0.8;"/>
   </g>
   <g id="line2d_12">
    <path clip-path="url(#pef88ebcbf3)" d="M 67.724219 238.5347 
L 346.724219 51.017827 
" style="fill:none;stroke:#000000;stroke-dasharray:3.7,1.6;stroke-dashoffset:0;"/>
   </g>
   <g id="legend_1">
    <g id="patch_7">
     <path d="M 48.224219 46.26525 
L 169.388594 46.26525 
Q 171.788594 46.26525 171.788594 43.86525 
L 171.788594 15.6 
Q 171.788594 13.2 169.388594 13.2 
L 48.224219 13.2 
Q 45.824219 13.2 45.824219 15.6 
L 45.824219 43.86525 
Q 45.824219 46.26525 48.224219 46.26525 
z
" style="fill:#ffffff;opacity:0.8;stroke:#cccccc;stroke-linejoin:miter;"/>
    </g>
    <g id="line2d_13">
     <path d="M 50.624219 29.698875 
L 74.624219 29.698875 
" style="fill:none;stroke:#000000;stroke-dasharray:3.7,1.6;stroke-dashoffset:0;"/>
    </g>
    <g id="line2d_14"/>
    <g id="text_14">
     <!-- Pearson R = 0.83 -->
     <g transform="translate(84.224219 26.3325)scale(0.12 -0.12)">
      <defs>
       <path d="M 20.515625 31 
L 20.515625 11.71875 
Q 20.515625 5.46875 21.875 3.953125 
Q 23.734375 1.8125 27.484375 1.8125 
L 30.03125 1.8125 
L 30.03125 0 
L 1.65625 0 
L 1.65625 1.8125 
L 4.15625 1.8125 
Q 8.34375 1.8125 10.15625 4.546875 
Q 11.140625 6.0625 11.140625 11.71875 
L 11.140625 54.5 
Q 11.140625 60.75 9.8125 62.25 
Q 7.90625 64.40625 4.15625 64.40625 
L 1.65625 64.40625 
L 1.65625 66.21875 
L 25.921875 66.21875 
Q 34.8125 66.21875 39.9375 64.375 
Q 45.0625 62.546875 48.578125 58.203125 
Q 52.09375 53.859375 52.09375 47.90625 
Q 52.09375 39.796875 46.75 34.71875 
Q 41.40625 29.640625 31.640625 29.640625 
Q 29.25 29.640625 26.46875 29.984375 
Q 23.6875 30.328125 20.515625 31 
z
M 20.515625 33.796875 
Q 23.09375 33.296875 25.09375 33.046875 
Q 27.09375 32.8125 28.515625 32.8125 
Q 33.59375 32.8125 37.28125 36.734375 
Q 40.96875 40.671875 40.96875 46.921875 
Q 40.96875 51.21875 39.203125 54.90625 
Q 37.453125 58.59375 34.21875 60.421875 
Q 31 62.25 26.90625 62.25 
Q 24.421875 62.25 20.515625 61.328125 
z
" id="TimesNewRomanPSMT-80"/>
       <path d="M 28.46875 6.453125 
Q 21.578125 1.125 19.828125 0.296875 
Q 17.1875 -0.921875 14.203125 -0.921875 
Q 9.578125 -0.921875 6.5625 2.25 
Q 3.5625 5.421875 3.5625 10.59375 
Q 3.5625 13.875 5.03125 16.265625 
Q 7.03125 19.578125 11.984375 22.5 
Q 16.9375 25.4375 28.46875 29.640625 
L 28.46875 31.390625 
Q 28.46875 38.09375 26.34375 40.578125 
Q 24.21875 43.0625 20.171875 43.0625 
Q 17.09375 43.0625 15.28125 41.40625 
Q 13.421875 39.75 13.421875 37.59375 
L 13.53125 34.765625 
Q 13.53125 32.515625 12.375 31.296875 
Q 11.234375 30.078125 9.375 30.078125 
Q 7.5625 30.078125 6.421875 31.34375 
Q 5.28125 32.625 5.28125 34.8125 
Q 5.28125 39.015625 9.578125 42.53125 
Q 13.875 46.046875 21.625 46.046875 
Q 27.59375 46.046875 31.390625 44.046875 
Q 34.28125 42.53125 35.640625 39.3125 
Q 36.53125 37.203125 36.53125 30.71875 
L 36.53125 15.53125 
Q 36.53125 9.125 36.765625 7.6875 
Q 37.015625 6.25 37.578125 5.765625 
Q 38.140625 5.28125 38.875 5.28125 
Q 39.65625 5.28125 40.234375 5.609375 
Q 41.265625 6.25 44.1875 9.1875 
L 44.1875 6.453125 
Q 38.71875 -0.875 33.734375 -0.875 
Q 31.34375 -0.875 29.921875 0.78125 
Q 28.515625 2.4375 28.46875 6.453125 
z
M 28.46875 9.625 
L 28.46875 26.65625 
Q 21.09375 23.734375 18.953125 22.515625 
Q 15.09375 20.359375 13.421875 18.015625 
Q 11.765625 15.671875 11.765625 12.890625 
Q 11.765625 9.375 13.859375 7.046875 
Q 15.96875 4.734375 18.703125 4.734375 
Q 22.40625 4.734375 28.46875 9.625 
z
" id="TimesNewRomanPSMT-97"/>
       <path d="M 67.578125 0 
L 49.90625 0 
L 27.484375 30.953125 
Q 25 30.859375 23.4375 30.859375 
Q 22.796875 30.859375 22.0625 30.875 
Q 21.34375 30.90625 20.5625 30.953125 
L 20.5625 11.71875 
Q 20.5625 5.46875 21.921875 3.953125 
Q 23.78125 1.8125 27.484375 1.8125 
L 30.078125 1.8125 
L 30.078125 0 
L 1.703125 0 
L 1.703125 1.8125 
L 4.203125 1.8125 
Q 8.40625 1.8125 10.203125 4.546875 
Q 11.234375 6.0625 11.234375 11.71875 
L 11.234375 54.5 
Q 11.234375 60.75 9.859375 62.25 
Q 7.953125 64.40625 4.203125 64.40625 
L 1.703125 64.40625 
L 1.703125 66.21875 
L 25.828125 66.21875 
Q 36.375 66.21875 41.375 64.671875 
Q 46.390625 63.140625 49.875 59.015625 
Q 53.375 54.890625 53.375 49.171875 
Q 53.375 43.0625 49.390625 38.5625 
Q 45.40625 34.078125 37.0625 32.234375 
L 50.734375 13.234375 
Q 55.421875 6.6875 58.78125 4.53125 
Q 62.15625 2.390625 67.578125 1.8125 
z
M 20.5625 34.03125 
Q 21.484375 34.03125 22.171875 34 
Q 22.859375 33.984375 23.296875 33.984375 
Q 32.765625 33.984375 37.578125 38.078125 
Q 42.390625 42.1875 42.390625 48.53125 
Q 42.390625 54.734375 38.5 58.609375 
Q 34.625 62.5 28.21875 62.5 
Q 25.390625 62.5 20.5625 61.578125 
z
" id="TimesNewRomanPSMT-82"/>
       <path d="M 1.8125 43.109375 
L 54.5 43.109375 
L 54.5 39.109375 
L 1.8125 39.109375 
z
M 1.8125 27.203125 
L 54.5 27.203125 
L 54.5 23.1875 
L 1.8125 23.1875 
z
" id="TimesNewRomanPSMT-61"/>
       <path d="M 5.078125 53.609375 
Q 7.90625 60.296875 12.21875 63.9375 
Q 16.546875 67.578125 23 67.578125 
Q 30.953125 67.578125 35.203125 62.40625 
Q 38.421875 58.546875 38.421875 54.15625 
Q 38.421875 46.921875 29.34375 39.203125 
Q 35.453125 36.8125 38.578125 32.375 
Q 41.703125 27.9375 41.703125 21.921875 
Q 41.703125 13.328125 36.234375 7.03125 
Q 29.109375 -1.171875 15.578125 -1.171875 
Q 8.890625 -1.171875 6.46875 0.484375 
Q 4.046875 2.15625 4.046875 4.046875 
Q 4.046875 5.46875 5.1875 6.546875 
Q 6.34375 7.625 7.953125 7.625 
Q 9.1875 7.625 10.453125 7.234375 
Q 11.28125 6.984375 14.203125 5.4375 
Q 17.140625 3.90625 18.265625 3.609375 
Q 20.0625 3.078125 22.125 3.078125 
Q 27.09375 3.078125 30.78125 6.9375 
Q 34.46875 10.796875 34.46875 16.0625 
Q 34.46875 19.921875 32.765625 23.578125 
Q 31.5 26.3125 29.984375 27.734375 
Q 27.875 29.6875 24.21875 31.265625 
Q 20.5625 32.859375 16.75 32.859375 
L 15.1875 32.859375 
L 15.1875 34.328125 
Q 19.046875 34.8125 22.921875 37.109375 
Q 26.8125 39.40625 28.5625 42.625 
Q 30.328125 45.84375 30.328125 49.703125 
Q 30.328125 54.734375 27.171875 57.828125 
Q 24.03125 60.9375 19.34375 60.9375 
Q 11.765625 60.9375 6.6875 52.828125 
z
" id="TimesNewRomanPSMT-51"/>
      </defs>
      <use xlink:href="#TimesNewRomanPSMT-80"/>
      <use x="55.615234" xlink:href="#TimesNewRomanPSMT-101"/>
      <use x="100" xlink:href="#TimesNewRomanPSMT-97"/>
      <use x="144.384766" xlink:href="#TimesNewRomanPSMT-114"/>
      <use x="177.685547" xlink:href="#TimesNewRomanPSMT-115"/>
      <use x="216.601562" xlink:href="#TimesNewRomanPSMT-111"/>
      <use x="266.601562" xlink:href="#TimesNewRomanPSMT-110"/>
      <use x="316.601562" xlink:href="#TimesNewRomanPSMT-32"/>
      <use x="341.601562" xlink:href="#TimesNewRomanPSMT-82"/>
      <use x="408.300781" xlink:href="#TimesNewRomanPSMT-32"/>
      <use x="433.300781" xlink:href="#TimesNewRomanPSMT-61"/>
      <use x="489.697266" xlink:href="#TimesNewRomanPSMT-32"/>
      <use x="514.697266" xlink:href="#TimesNewRomanPSMT-48"/>
      <use x="564.697266" xlink:href="#TimesNewRomanPSMT-46"/>
      <use x="589.697266" xlink:href="#TimesNewRomanPSMT-56"/>
      <use x="639.697266" xlink:href="#TimesNewRomanPSMT-51"/>
     </g>
     <!-- p-value &lt; 1e-10 -->
     <g transform="translate(84.224219 38.898375)scale(0.12 -0.12)">
      <defs>
       <path d="M 4.046875 26.125 
L 29.296875 26.125 
L 29.296875 18.75 
L 4.046875 18.75 
z
" id="TimesNewRomanPSMT-45"/>
       <path d="M 0.828125 44.734375 
L 21.875 44.734375 
L 21.875 42.921875 
L 20.515625 42.921875 
Q 18.609375 42.921875 17.609375 41.984375 
Q 16.609375 41.0625 16.609375 39.5 
Q 16.609375 37.796875 17.625 35.453125 
L 28.03125 10.75 
L 38.484375 36.375 
Q 39.59375 39.109375 39.59375 40.53125 
Q 39.59375 41.21875 39.203125 41.65625 
Q 38.671875 42.390625 37.84375 42.65625 
Q 37.015625 42.921875 34.46875 42.921875 
L 34.46875 44.734375 
L 49.078125 44.734375 
L 49.078125 42.921875 
Q 46.53125 42.71875 45.5625 41.890625 
Q 43.84375 40.4375 42.484375 37.015625 
L 26.609375 -1.375 
L 24.609375 -1.375 
L 8.640625 36.375 
Q 7.5625 39.015625 6.578125 40.15625 
Q 5.609375 41.3125 4.109375 42.09375 
Q 3.265625 42.53125 0.828125 42.921875 
z
" id="TimesNewRomanPSMT-118"/>
       <path d="M 18.5 69.4375 
L 18.5 10.109375 
Q 18.5 5.90625 19.109375 4.53125 
Q 19.734375 3.171875 21 2.46875 
Q 22.265625 1.765625 25.734375 1.765625 
L 25.734375 0 
L 3.8125 0 
L 3.8125 1.765625 
Q 6.890625 1.765625 8 2.390625 
Q 9.125 3.03125 9.765625 4.484375 
Q 10.40625 5.953125 10.40625 10.109375 
L 10.40625 50.734375 
Q 10.40625 58.296875 10.0625 60.03125 
Q 9.71875 61.765625 8.953125 62.390625 
Q 8.203125 63.03125 7.03125 63.03125 
Q 5.765625 63.03125 3.8125 62.25 
L 2.984375 63.96875 
L 16.3125 69.4375 
z
" id="TimesNewRomanPSMT-108"/>
       <path d="M 42.328125 44.734375 
L 42.328125 17.625 
Q 42.328125 9.859375 42.6875 8.125 
Q 43.0625 6.390625 43.859375 5.703125 
Q 44.671875 5.03125 45.75 5.03125 
Q 47.265625 5.03125 49.171875 5.859375 
L 49.859375 4.15625 
L 36.46875 -1.375 
L 34.28125 -1.375 
L 34.28125 8.109375 
Q 28.515625 1.859375 25.484375 0.234375 
Q 22.46875 -1.375 19.09375 -1.375 
Q 15.328125 -1.375 12.5625 0.796875 
Q 9.8125 2.984375 8.734375 6.390625 
Q 7.671875 9.8125 7.671875 16.0625 
L 7.671875 36.03125 
Q 7.671875 39.203125 6.984375 40.421875 
Q 6.296875 41.65625 4.953125 42.3125 
Q 3.609375 42.96875 0.09375 42.921875 
L 0.09375 44.734375 
L 15.765625 44.734375 
L 15.765625 14.796875 
Q 15.765625 8.546875 17.9375 6.59375 
Q 20.125 4.640625 23.1875 4.640625 
Q 25.296875 4.640625 27.953125 5.953125 
Q 30.609375 7.28125 34.28125 10.984375 
L 34.28125 36.328125 
Q 34.28125 40.140625 32.890625 41.484375 
Q 31.5 42.828125 27.09375 42.921875 
L 27.09375 44.734375 
z
" id="TimesNewRomanPSMT-117"/>
       <path d="M 1.8125 34.46875 
L 54.34375 57.234375 
L 54.34375 52.984375 
L 9.125 33.34375 
L 54.34375 13.53125 
L 54.34375 9.125 
L 1.8125 32.078125 
z
" id="TimesNewRomanPSMT-60"/>
      </defs>
      <use xlink:href="#TimesNewRomanPSMT-112"/>
      <use x="50" xlink:href="#TimesNewRomanPSMT-45"/>
      <use x="83.300781" xlink:href="#TimesNewRomanPSMT-118"/>
      <use x="133.300781" xlink:href="#TimesNewRomanPSMT-97"/>
      <use x="177.685547" xlink:href="#TimesNewRomanPSMT-108"/>
      <use x="205.46875" xlink:href="#TimesNewRomanPSMT-117"/>
      <use x="255.46875" xlink:href="#TimesNewRomanPSMT-101"/>
      <use x="299.853516" xlink:href="#TimesNewRomanPSMT-32"/>
      <use x="324.853516" xlink:href="#TimesNewRomanPSMT-60"/>
      <use x="381.25" xlink:href="#TimesNewRomanPSMT-32"/>
      <use x="406.25" xlink:href="#TimesNewRomanPSMT-49"/>
      <use x="456.25" xlink:href="#TimesNewRomanPSMT-101"/>
      <use x="500.634766" xlink:href="#TimesNewRomanPSMT-45"/>
      <use x="533.935547" xlink:href="#TimesNewRomanPSMT-49"/>
      <use x="583.935547" xlink:href="#TimesNewRomanPSMT-48"/>
     </g>
    </g>
   </g>
  </g>
 </g>
 <defs>
  <clipPath id="pef88ebcbf3">
   <rect height="217.44" width="334.8" x="39.824219" y="7.2"/>
  </clipPath>
 </defs>
</svg>
