<?xml version="1.0" encoding="utf-8" standalone="no"?>
<!DOCTYPE svg PUBLIC "-//W3C//DTD SVG 1.1//EN"
  "http://www.w3.org/Graphics/SVG/1.1/DTD/svg11.dtd">
<!-- Created with matplotlib (https://matplotlib.org/) -->
<svg height="432pt" version="1.1" viewBox="0 0 864 432" width="864pt" xmlns="http://www.w3.org/2000/svg" xmlns:xlink="http://www.w3.org/1999/xlink">
 <metadata>
  <rdf:RDF xmlns:cc="http://creativecommons.org/ns#" xmlns:dc="http://purl.org/dc/elements/1.1/" xmlns:rdf="http://www.w3.org/1999/02/22-rdf-syntax-ns#">
   <cc:Work>
    <dc:type rdf:resource="http://purl.org/dc/dcmitype/StillImage"/>
    <dc:date>2023-02-03T12:43:37.213017</dc:date>
    <dc:format>image/svg+xml</dc:format>
    <dc:creator>
     <cc:Agent>
      <dc:title>Matplotlib v3.3.4, https://matplotlib.org/</dc:title>
     </cc:Agent>
    </dc:creator>
   </cc:Work>
  </rdf:RDF>
 </metadata>
 <defs>
  <style type="text/css">*{stroke-linecap:butt;stroke-linejoin:round;}</style>
 </defs>
 <g id="figure_1">
  <g id="patch_1">
   <path d="M 0 432 
L 864 432 
L 864 0 
L 0 0 
z
" style="fill:none;"/>
  </g>
  <g id="axes_1">
   <g id="patch_2">
    <path d="M 108 378 
L 777.6 378 
L 777.6 51.84 
L 108 51.84 
z
" style="fill:none;"/>
   </g>
   <g id="patch_3">
    <path clip-path="url(#p12080667d0)" d="M 112.565455 244.252731 
L 118.652727 244.252731 
L 118.652727 363.174545 
L 112.565455 363.174545 
z
" style="fill:#1f77b4;"/>
   </g>
   <g id="patch_4">
    <path clip-path="url(#p12080667d0)" d="M 120.174545 244.252731 
L 126.261818 244.252731 
L 126.261818 354.226074 
L 120.174545 354.226074 
z
" style="fill:#1f77b4;"/>
   </g>
   <g id="patch_5">
    <path clip-path="url(#p12080667d0)" d="M 127.783636 244.252731 
L 133.870909 244.252731 
L 133.870909 347.858515 
L 127.783636 347.858515 
z
" style="fill:#1f77b4;"/>
   </g>
   <g id="patch_6">
    <path clip-path="url(#p12080667d0)" d="M 135.392727 244.252731 
L 141.48 244.252731 
L 141.48 345.636627 
L 135.392727 345.636627 
z
" style="fill:#1f77b4;"/>
   </g>
   <g id="patch_7">
    <path clip-path="url(#p12080667d0)" d="M 143.001818 244.252731 
L 149.089091 244.252731 
L 149.089091 327.947386 
L 143.001818 327.947386 
z
" style="fill:#1f77b4;"/>
   </g>
   <g id="patch_8">
    <path clip-path="url(#p12080667d0)" d="M 150.610909 244.252731 
L 156.698182 244.252731 
L 156.698182 325.013751 
L 150.610909 325.013751 
z
" style="fill:#1f77b4;"/>
   </g>
   <g id="patch_9">
    <path clip-path="url(#p12080667d0)" d="M 158.22 244.252731 
L 164.307273 244.252731 
L 164.307273 321.071257 
L 158.22 321.071257 
z
" style="fill:#1f77b4;"/>
   </g>
   <g id="patch_10">
    <path clip-path="url(#p12080667d0)" d="M 165.829091 244.252731 
L 171.916364 244.252731 
L 171.916364 318.351327 
L 165.829091 318.351327 
z
" style="fill:#1f77b4;"/>
   </g>
   <g id="patch_11">
    <path clip-path="url(#p12080667d0)" d="M 173.438182 244.252731 
L 179.525455 244.252731 
L 179.525455 314.062803 
L 173.438182 314.062803 
z
" style="fill:#1f77b4;"/>
   </g>
   <g id="patch_12">
    <path clip-path="url(#p12080667d0)" d="M 181.047273 244.252731 
L 187.134545 244.252731 
L 187.134545 305.866335 
L 181.047273 305.866335 
z
" style="fill:#1f77b4;"/>
   </g>
   <g id="patch_13">
    <path clip-path="url(#p12080667d0)" d="M 188.656364 244.252731 
L 194.743636 244.252731 
L 194.743636 300.323136 
L 188.656364 300.323136 
z
" style="fill:#1f77b4;"/>
   </g>
   <g id="patch_14">
    <path clip-path="url(#p12080667d0)" d="M 196.265455 244.252731 
L 202.352727 244.252731 
L 202.352727 297.263009 
L 196.265455 297.263009 
z
" style="fill:#1f77b4;"/>
   </g>
   <g id="patch_15">
    <path clip-path="url(#p12080667d0)" d="M 203.874545 244.252731 
L 209.961818 244.252731 
L 209.961818 293.645112 
L 203.874545 293.645112 
z
" style="fill:#1f77b4;"/>
   </g>
   <g id="patch_16">
    <path clip-path="url(#p12080667d0)" d="M 211.483636 244.252731 
L 217.570909 244.252731 
L 217.570909 292.765859 
L 211.483636 292.765859 
z
" style="fill:#1f77b4;"/>
   </g>
   <g id="patch_17">
    <path clip-path="url(#p12080667d0)" d="M 219.092727 244.252731 
L 225.18 244.252731 
L 225.18 289.619404 
L 219.092727 289.619404 
z
" style="fill:#1f77b4;"/>
   </g>
   <g id="patch_18">
    <path clip-path="url(#p12080667d0)" d="M 226.701818 244.252731 
L 232.789091 244.252731 
L 232.789091 289.167056 
L 226.701818 289.167056 
z
" style="fill:#1f77b4;"/>
   </g>
   <g id="patch_19">
    <path clip-path="url(#p12080667d0)" d="M 234.310909 244.252731 
L 240.398182 244.252731 
L 240.398182 286.617366 
L 234.310909 286.617366 
z
" style="fill:#1f77b4;"/>
   </g>
   <g id="patch_20">
    <path clip-path="url(#p12080667d0)" d="M 241.92 244.252731 
L 248.007273 244.252731 
L 248.007273 286.351951 
L 241.92 286.351951 
z
" style="fill:#1f77b4;"/>
   </g>
   <g id="patch_21">
    <path clip-path="url(#p12080667d0)" d="M 249.529091 244.252731 
L 255.616364 244.252731 
L 255.616364 285.695791 
L 249.529091 285.695791 
z
" style="fill:#1f77b4;"/>
   </g>
   <g id="patch_22">
    <path clip-path="url(#p12080667d0)" d="M 257.138182 244.252731 
L 263.225455 244.252731 
L 263.225455 285.326124 
L 257.138182 285.326124 
z
" style="fill:#1f77b4;"/>
   </g>
   <g id="patch_23">
    <path clip-path="url(#p12080667d0)" d="M 264.747273 244.252731 
L 270.834545 244.252731 
L 270.834545 284.767575 
L 264.747273 284.767575 
z
" style="fill:#1f77b4;"/>
   </g>
   <g id="patch_24">
    <path clip-path="url(#p12080667d0)" d="M 272.356364 244.252731 
L 278.443636 244.252731 
L 278.443636 281.470448 
L 272.356364 281.470448 
z
" style="fill:#1f77b4;"/>
   </g>
   <g id="patch_25">
    <path clip-path="url(#p12080667d0)" d="M 279.965455 244.252731 
L 286.052727 244.252731 
L 286.052727 280.88047 
L 279.965455 280.88047 
z
" style="fill:#1f77b4;"/>
   </g>
   <g id="patch_26">
    <path clip-path="url(#p12080667d0)" d="M 287.574545 244.252731 
L 293.661818 244.252731 
L 293.661818 278.12103 
L 287.574545 278.12103 
z
" style="fill:#1f77b4;"/>
   </g>
   <g id="patch_27">
    <path clip-path="url(#p12080667d0)" d="M 295.183636 244.252731 
L 301.270909 244.252731 
L 301.270909 278.016622 
L 295.183636 278.016622 
z
" style="fill:#1f77b4;"/>
   </g>
   <g id="patch_28">
    <path clip-path="url(#p12080667d0)" d="M 302.792727 244.252731 
L 308.88 244.252731 
L 308.88 277.339214 
L 302.792727 277.339214 
z
" style="fill:#1f77b4;"/>
   </g>
   <g id="patch_29">
    <path clip-path="url(#p12080667d0)" d="M 310.401818 244.252731 
L 316.489091 244.252731 
L 316.489091 276.21086 
L 310.401818 276.21086 
z
" style="fill:#1f77b4;"/>
   </g>
   <g id="patch_30">
    <path clip-path="url(#p12080667d0)" d="M 318.010909 244.252731 
L 324.098182 244.252731 
L 324.098182 273.939617 
L 318.010909 273.939617 
z
" style="fill:#1f77b4;"/>
   </g>
   <g id="patch_31">
    <path clip-path="url(#p12080667d0)" d="M 325.62 244.252731 
L 331.707273 244.252731 
L 331.707273 272.538464 
L 325.62 272.538464 
z
" style="fill:#1f77b4;"/>
   </g>
   <g id="patch_32">
    <path clip-path="url(#p12080667d0)" d="M 333.229091 244.252731 
L 339.316364 244.252731 
L 339.316364 272.066355 
L 333.229091 272.066355 
z
" style="fill:#1f77b4;"/>
   </g>
   <g id="patch_33">
    <path clip-path="url(#p12080667d0)" d="M 340.838182 244.252731 
L 346.925455 244.252731 
L 346.925455 270.022719 
L 340.838182 270.022719 
z
" style="fill:#1f77b4;"/>
   </g>
   <g id="patch_34">
    <path clip-path="url(#p12080667d0)" d="M 348.447273 244.252731 
L 354.534545 244.252731 
L 354.534545 266.682418 
L 348.447273 266.682418 
z
" style="fill:#1f77b4;"/>
   </g>
   <g id="patch_35">
    <path clip-path="url(#p12080667d0)" d="M 356.056364 244.252731 
L 362.143636 244.252731 
L 362.143636 265.739178 
L 356.056364 265.739178 
z
" style="fill:#1f77b4;"/>
   </g>
   <g id="patch_36">
    <path clip-path="url(#p12080667d0)" d="M 363.665455 244.252731 
L 369.752727 244.252731 
L 369.752727 260.24229 
L 363.665455 260.24229 
z
" style="fill:#1f77b4;"/>
   </g>
   <g id="patch_37">
    <path clip-path="url(#p12080667d0)" d="M 371.274545 244.252731 
L 377.361818 244.252731 
L 377.361818 259.677657 
L 371.274545 259.677657 
z
" style="fill:#1f77b4;"/>
   </g>
   <g id="patch_38">
    <path clip-path="url(#p12080667d0)" d="M 378.883636 244.252731 
L 384.970909 244.252731 
L 384.970909 259.525477 
L 378.883636 259.525477 
z
" style="fill:#1f77b4;"/>
   </g>
   <g id="patch_39">
    <path clip-path="url(#p12080667d0)" d="M 386.492727 244.252731 
L 392.58 244.252731 
L 392.58 257.694596 
L 386.492727 257.694596 
z
" style="fill:#1f77b4;"/>
   </g>
   <g id="patch_40">
    <path clip-path="url(#p12080667d0)" d="M 394.101818 244.252731 
L 400.189091 244.252731 
L 400.189091 254.843544 
L 394.101818 254.843544 
z
" style="fill:#1f77b4;"/>
   </g>
   <g id="patch_41">
    <path clip-path="url(#p12080667d0)" d="M 401.710909 244.252731 
L 407.798182 244.252731 
L 407.798182 254.359057 
L 401.710909 254.359057 
z
" style="fill:#1f77b4;"/>
   </g>
   <g id="patch_42">
    <path clip-path="url(#p12080667d0)" d="M 409.32 244.252731 
L 415.407273 244.252731 
L 415.407273 254.21897 
L 409.32 254.21897 
z
" style="fill:#1f77b4;"/>
   </g>
   <g id="patch_43">
    <path clip-path="url(#p12080667d0)" d="M 416.929091 244.252731 
L 423.016364 244.252731 
L 423.016364 251.331262 
L 416.929091 251.331262 
z
" style="fill:#1f77b4;"/>
   </g>
   <g id="patch_44">
    <path clip-path="url(#p12080667d0)" d="M 424.538182 244.252731 
L 430.625455 244.252731 
L 430.625455 250.774618 
L 424.538182 250.774618 
z
" style="fill:#1f77b4;"/>
   </g>
   <g id="patch_45">
    <path clip-path="url(#p12080667d0)" d="M 432.147273 244.252731 
L 438.234545 244.252731 
L 438.234545 248.716817 
L 432.147273 248.716817 
z
" style="fill:#1f77b4;"/>
   </g>
   <g id="patch_46">
    <path clip-path="url(#p12080667d0)" d="M 439.756364 244.252731 
L 445.843636 244.252731 
L 445.843636 247.598578 
L 439.756364 247.598578 
z
" style="fill:#1f77b4;"/>
   </g>
   <g id="patch_47">
    <path clip-path="url(#p12080667d0)" d="M 447.365455 244.252731 
L 453.452727 244.252731 
L 453.452727 245.488765 
L 447.365455 245.488765 
z
" style="fill:#1f77b4;"/>
   </g>
   <g id="patch_48">
    <path clip-path="url(#p12080667d0)" d="M 454.974545 244.252731 
L 461.061818 244.252731 
L 461.061818 242.006182 
L 454.974545 242.006182 
z
" style="fill:#1f77b4;"/>
   </g>
   <g id="patch_49">
    <path clip-path="url(#p12080667d0)" d="M 462.583636 244.252731 
L 468.670909 244.252731 
L 468.670909 241.910127 
L 462.583636 241.910127 
z
" style="fill:#1f77b4;"/>
   </g>
   <g id="patch_50">
    <path clip-path="url(#p12080667d0)" d="M 470.192727 244.252731 
L 476.28 244.252731 
L 476.28 241.397317 
L 470.192727 241.397317 
z
" style="fill:#1f77b4;"/>
   </g>
   <g id="patch_51">
    <path clip-path="url(#p12080667d0)" d="M 477.801818 244.252731 
L 483.889091 244.252731 
L 483.889091 240.430817 
L 477.801818 240.430817 
z
" style="fill:#1f77b4;"/>
   </g>
   <g id="patch_52">
    <path clip-path="url(#p12080667d0)" d="M 485.410909 244.252731 
L 491.498182 244.252731 
L 491.498182 237.059878 
L 485.410909 237.059878 
z
" style="fill:#1f77b4;"/>
   </g>
   <g id="patch_53">
    <path clip-path="url(#p12080667d0)" d="M 493.02 244.252731 
L 499.107273 244.252731 
L 499.107273 236.712714 
L 493.02 236.712714 
z
" style="fill:#1f77b4;"/>
   </g>
   <g id="patch_54">
    <path clip-path="url(#p12080667d0)" d="M 500.629091 244.252731 
L 506.716364 244.252731 
L 506.716364 236.510332 
L 500.629091 236.510332 
z
" style="fill:#1f77b4;"/>
   </g>
   <g id="patch_55">
    <path clip-path="url(#p12080667d0)" d="M 508.238182 244.252731 
L 514.325455 244.252731 
L 514.325455 235.080509 
L 508.238182 235.080509 
z
" style="fill:#1f77b4;"/>
   </g>
   <g id="patch_56">
    <path clip-path="url(#p12080667d0)" d="M 515.847273 244.252731 
L 521.934545 244.252731 
L 521.934545 229.271215 
L 515.847273 229.271215 
z
" style="fill:#1f77b4;"/>
   </g>
   <g id="patch_57">
    <path clip-path="url(#p12080667d0)" d="M 523.456364 244.252731 
L 529.543636 244.252731 
L 529.543636 229.097825 
L 523.456364 229.097825 
z
" style="fill:#1f77b4;"/>
   </g>
   <g id="patch_58">
    <path clip-path="url(#p12080667d0)" d="M 531.065455 244.252731 
L 537.152727 244.252731 
L 537.152727 227.110573 
L 531.065455 227.110573 
z
" style="fill:#1f77b4;"/>
   </g>
   <g id="patch_59">
    <path clip-path="url(#p12080667d0)" d="M 538.674545 244.252731 
L 544.761818 244.252731 
L 544.761818 225.346407 
L 538.674545 225.346407 
z
" style="fill:#1f77b4;"/>
   </g>
   <g id="patch_60">
    <path clip-path="url(#p12080667d0)" d="M 546.283636 244.252731 
L 552.370909 244.252731 
L 552.370909 223.071237 
L 546.283636 223.071237 
z
" style="fill:#1f77b4;"/>
   </g>
   <g id="patch_61">
    <path clip-path="url(#p12080667d0)" d="M 553.892727 244.252731 
L 559.98 244.252731 
L 559.98 222.821255 
L 553.892727 222.821255 
z
" style="fill:#1f77b4;"/>
   </g>
   <g id="patch_62">
    <path clip-path="url(#p12080667d0)" d="M 561.501818 244.252731 
L 567.589091 244.252731 
L 567.589091 221.765835 
L 561.501818 221.765835 
z
" style="fill:#1f77b4;"/>
   </g>
   <g id="patch_63">
    <path clip-path="url(#p12080667d0)" d="M 569.110909 244.252731 
L 575.198182 244.252731 
L 575.198182 221.665745 
L 569.110909 221.665745 
z
" style="fill:#1f77b4;"/>
   </g>
   <g id="patch_64">
    <path clip-path="url(#p12080667d0)" d="M 576.72 244.252731 
L 582.807273 244.252731 
L 582.807273 218.460754 
L 576.72 218.460754 
z
" style="fill:#1f77b4;"/>
   </g>
   <g id="patch_65">
    <path clip-path="url(#p12080667d0)" d="M 584.329091 244.252731 
L 590.416364 244.252731 
L 590.416364 216.952749 
L 584.329091 216.952749 
z
" style="fill:#1f77b4;"/>
   </g>
   <g id="patch_66">
    <path clip-path="url(#p12080667d0)" d="M 591.938182 244.252731 
L 598.025455 244.252731 
L 598.025455 210.282328 
L 591.938182 210.282328 
z
" style="fill:#1f77b4;"/>
   </g>
   <g id="patch_67">
    <path clip-path="url(#p12080667d0)" d="M 599.547273 244.252731 
L 605.634545 244.252731 
L 605.634545 209.2122 
L 599.547273 209.2122 
z
" style="fill:#1f77b4;"/>
   </g>
   <g id="patch_68">
    <path clip-path="url(#p12080667d0)" d="M 607.156364 244.252731 
L 613.243636 244.252731 
L 613.243636 209.117194 
L 607.156364 209.117194 
z
" style="fill:#1f77b4;"/>
   </g>
   <g id="patch_69">
    <path clip-path="url(#p12080667d0)" d="M 614.765455 244.252731 
L 620.852727 244.252731 
L 620.852727 209.007818 
L 614.765455 209.007818 
z
" style="fill:#1f77b4;"/>
   </g>
   <g id="patch_70">
    <path clip-path="url(#p12080667d0)" d="M 622.374545 244.252731 
L 628.461818 244.252731 
L 628.461818 198.226683 
L 622.374545 198.226683 
z
" style="fill:#1f77b4;"/>
   </g>
   <g id="patch_71">
    <path clip-path="url(#p12080667d0)" d="M 629.983636 244.252731 
L 636.070909 244.252731 
L 636.070909 195.926021 
L 629.983636 195.926021 
z
" style="fill:#1f77b4;"/>
   </g>
   <g id="patch_72">
    <path clip-path="url(#p12080667d0)" d="M 637.592727 244.252731 
L 643.68 244.252731 
L 643.68 188.601851 
L 637.592727 188.601851 
z
" style="fill:#1f77b4;"/>
   </g>
   <g id="patch_73">
    <path clip-path="url(#p12080667d0)" d="M 645.201818 244.252731 
L 651.289091 244.252731 
L 651.289091 185.230128 
L 645.201818 185.230128 
z
" style="fill:#1f77b4;"/>
   </g>
   <g id="patch_74">
    <path clip-path="url(#p12080667d0)" d="M 652.810909 244.252731 
L 658.898182 244.252731 
L 658.898182 184.435486 
L 652.810909 184.435486 
z
" style="fill:#1f77b4;"/>
   </g>
   <g id="patch_75">
    <path clip-path="url(#p12080667d0)" d="M 660.42 244.252731 
L 666.507273 244.252731 
L 666.507273 183.033796 
L 660.42 183.033796 
z
" style="fill:#1f77b4;"/>
   </g>
   <g id="patch_76">
    <path clip-path="url(#p12080667d0)" d="M 668.029091 244.252731 
L 674.116364 244.252731 
L 674.116364 180.822676 
L 668.029091 180.822676 
z
" style="fill:#1f77b4;"/>
   </g>
   <g id="patch_77">
    <path clip-path="url(#p12080667d0)" d="M 675.638182 244.252731 
L 681.725455 244.252731 
L 681.725455 179.608433 
L 675.638182 179.608433 
z
" style="fill:#1f77b4;"/>
   </g>
   <g id="patch_78">
    <path clip-path="url(#p12080667d0)" d="M 683.247273 244.252731 
L 689.334545 244.252731 
L 689.334545 177.313549 
L 683.247273 177.313549 
z
" style="fill:#1f77b4;"/>
   </g>
   <g id="patch_79">
    <path clip-path="url(#p12080667d0)" d="M 690.856364 244.252731 
L 696.943636 244.252731 
L 696.943636 169.874784 
L 690.856364 169.874784 
z
" style="fill:#1f77b4;"/>
   </g>
   <g id="patch_80">
    <path clip-path="url(#p12080667d0)" d="M 698.465455 244.252731 
L 704.552727 244.252731 
L 704.552727 166.718324 
L 698.465455 166.718324 
z
" style="fill:#1f77b4;"/>
   </g>
   <g id="patch_81">
    <path clip-path="url(#p12080667d0)" d="M 706.074545 244.252731 
L 712.161818 244.252731 
L 712.161818 153.558407 
L 706.074545 153.558407 
z
" style="fill:#1f77b4;"/>
   </g>
   <g id="patch_82">
    <path clip-path="url(#p12080667d0)" d="M 713.683636 244.252731 
L 719.770909 244.252731 
L 719.770909 153.23249 
L 713.683636 153.23249 
z
" style="fill:#1f77b4;"/>
   </g>
   <g id="patch_83">
    <path clip-path="url(#p12080667d0)" d="M 721.292727 244.252731 
L 727.38 244.252731 
L 727.38 141.458118 
L 721.292727 141.458118 
z
" style="fill:#1f77b4;"/>
   </g>
   <g id="patch_84">
    <path clip-path="url(#p12080667d0)" d="M 728.901818 244.252731 
L 734.989091 244.252731 
L 734.989091 120.497395 
L 728.901818 120.497395 
z
" style="fill:#1f77b4;"/>
   </g>
   <g id="patch_85">
    <path clip-path="url(#p12080667d0)" d="M 736.510909 244.252731 
L 742.598182 244.252731 
L 742.598182 114.852909 
L 736.510909 114.852909 
z
" style="fill:#1f77b4;"/>
   </g>
   <g id="patch_86">
    <path clip-path="url(#p12080667d0)" d="M 744.12 244.252731 
L 750.207273 244.252731 
L 750.207273 100.057965 
L 744.12 100.057965 
z
" style="fill:#1f77b4;"/>
   </g>
   <g id="patch_87">
    <path clip-path="url(#p12080667d0)" d="M 751.729091 244.252731 
L 757.816364 244.252731 
L 757.816364 89.498151 
L 751.729091 89.498151 
z
" style="fill:#1f77b4;"/>
   </g>
   <g id="patch_88">
    <path clip-path="url(#p12080667d0)" d="M 759.338182 244.252731 
L 765.425455 244.252731 
L 765.425455 88.165165 
L 759.338182 88.165165 
z
" style="fill:#1f77b4;"/>
   </g>
   <g id="patch_89">
    <path clip-path="url(#p12080667d0)" d="M 766.947273 244.252731 
L 773.034545 244.252731 
L 773.034545 66.665455 
L 766.947273 66.665455 
z
" style="fill:#1f77b4;"/>
   </g>
   <g id="patch_90">
    <path clip-path="url(#p12080667d0)" d="M 112.565455 244.252731 
L 118.652727 244.252731 
L 118.652727 363.174545 
L 112.565455 363.174545 
z
" style="fill:#add8e6;"/>
   </g>
   <g id="patch_91">
    <path clip-path="url(#p12080667d0)" d="M 120.174545 244.252731 
L 126.261818 244.252731 
L 126.261818 354.226074 
L 120.174545 354.226074 
z
" style="fill:#add8e6;"/>
   </g>
   <g id="patch_92">
    <path clip-path="url(#p12080667d0)" d="M 127.783636 244.252731 
L 133.870909 244.252731 
L 133.870909 347.858515 
L 127.783636 347.858515 
z
" style="fill:#7f7f7f;"/>
   </g>
   <g id="patch_93">
    <path clip-path="url(#p12080667d0)" d="M 135.392727 244.252731 
L 141.48 244.252731 
L 141.48 345.636627 
L 135.392727 345.636627 
z
" style="fill:#7f7f7f;"/>
   </g>
   <g id="patch_94">
    <path clip-path="url(#p12080667d0)" d="M 143.001818 244.252731 
L 149.089091 244.252731 
L 149.089091 327.947386 
L 143.001818 327.947386 
z
" style="fill:#7f7f7f;"/>
   </g>
   <g id="patch_95">
    <path clip-path="url(#p12080667d0)" d="M 150.610909 244.252731 
L 156.698182 244.252731 
L 156.698182 325.013751 
L 150.610909 325.013751 
z
" style="fill:#7f7f7f;"/>
   </g>
   <g id="patch_96">
    <path clip-path="url(#p12080667d0)" d="M 158.22 244.252731 
L 164.307273 244.252731 
L 164.307273 321.071257 
L 158.22 321.071257 
z
" style="fill:#7f7f7f;"/>
   </g>
   <g id="patch_97">
    <path clip-path="url(#p12080667d0)" d="M 165.829091 244.252731 
L 171.916364 244.252731 
L 171.916364 318.351327 
L 165.829091 318.351327 
z
" style="fill:#7f7f7f;"/>
   </g>
   <g id="patch_98">
    <path clip-path="url(#p12080667d0)" d="M 173.438182 244.252731 
L 179.525455 244.252731 
L 179.525455 314.062803 
L 173.438182 314.062803 
z
" style="fill:#7f7f7f;"/>
   </g>
   <g id="patch_99">
    <path clip-path="url(#p12080667d0)" d="M 181.047273 244.252731 
L 187.134545 244.252731 
L 187.134545 305.866335 
L 181.047273 305.866335 
z
" style="fill:#7f7f7f;"/>
   </g>
   <g id="patch_100">
    <path clip-path="url(#p12080667d0)" d="M 188.656364 244.252731 
L 194.743636 244.252731 
L 194.743636 300.323136 
L 188.656364 300.323136 
z
" style="fill:#7f7f7f;"/>
   </g>
   <g id="patch_101">
    <path clip-path="url(#p12080667d0)" d="M 196.265455 244.252731 
L 202.352727 244.252731 
L 202.352727 297.263009 
L 196.265455 297.263009 
z
" style="fill:#7f7f7f;"/>
   </g>
   <g id="patch_102">
    <path clip-path="url(#p12080667d0)" d="M 203.874545 244.252731 
L 209.961818 244.252731 
L 209.961818 293.645112 
L 203.874545 293.645112 
z
" style="fill:#7f7f7f;"/>
   </g>
   <g id="patch_103">
    <path clip-path="url(#p12080667d0)" d="M 211.483636 244.252731 
L 217.570909 244.252731 
L 217.570909 292.765859 
L 211.483636 292.765859 
z
" style="fill:#7f7f7f;"/>
   </g>
   <g id="patch_104">
    <path clip-path="url(#p12080667d0)" d="M 219.092727 244.252731 
L 225.18 244.252731 
L 225.18 289.619404 
L 219.092727 289.619404 
z
" style="fill:#7f7f7f;"/>
   </g>
   <g id="patch_105">
    <path clip-path="url(#p12080667d0)" d="M 226.701818 244.252731 
L 232.789091 244.252731 
L 232.789091 289.167056 
L 226.701818 289.167056 
z
" style="fill:#7f7f7f;"/>
   </g>
   <g id="patch_106">
    <path clip-path="url(#p12080667d0)" d="M 234.310909 244.252731 
L 240.398182 244.252731 
L 240.398182 286.617366 
L 234.310909 286.617366 
z
" style="fill:#7f7f7f;"/>
   </g>
   <g id="patch_107">
    <path clip-path="url(#p12080667d0)" d="M 241.92 244.252731 
L 248.007273 244.252731 
L 248.007273 286.351951 
L 241.92 286.351951 
z
" style="fill:#add8e6;"/>
   </g>
   <g id="patch_108">
    <path clip-path="url(#p12080667d0)" d="M 249.529091 244.252731 
L 255.616364 244.252731 
L 255.616364 285.695791 
L 249.529091 285.695791 
z
" style="fill:#7f7f7f;"/>
   </g>
   <g id="patch_109">
    <path clip-path="url(#p12080667d0)" d="M 257.138182 244.252731 
L 263.225455 244.252731 
L 263.225455 285.326124 
L 257.138182 285.326124 
z
" style="fill:#7f7f7f;"/>
   </g>
   <g id="patch_110">
    <path clip-path="url(#p12080667d0)" d="M 264.747273 244.252731 
L 270.834545 244.252731 
L 270.834545 284.767575 
L 264.747273 284.767575 
z
" style="fill:#7f7f7f;"/>
   </g>
   <g id="patch_111">
    <path clip-path="url(#p12080667d0)" d="M 272.356364 244.252731 
L 278.443636 244.252731 
L 278.443636 281.470448 
L 272.356364 281.470448 
z
" style="fill:#7f7f7f;"/>
   </g>
   <g id="patch_112">
    <path clip-path="url(#p12080667d0)" d="M 279.965455 244.252731 
L 286.052727 244.252731 
L 286.052727 280.88047 
L 279.965455 280.88047 
z
" style="fill:#7f7f7f;"/>
   </g>
   <g id="patch_113">
    <path clip-path="url(#p12080667d0)" d="M 287.574545 244.252731 
L 293.661818 244.252731 
L 293.661818 278.12103 
L 287.574545 278.12103 
z
" style="fill:#7f7f7f;"/>
   </g>
   <g id="patch_114">
    <path clip-path="url(#p12080667d0)" d="M 295.183636 244.252731 
L 301.270909 244.252731 
L 301.270909 278.016622 
L 295.183636 278.016622 
z
" style="fill:#7f7f7f;"/>
   </g>
   <g id="patch_115">
    <path clip-path="url(#p12080667d0)" d="M 302.792727 244.252731 
L 308.88 244.252731 
L 308.88 277.339214 
L 302.792727 277.339214 
z
" style="fill:#7f7f7f;"/>
   </g>
   <g id="patch_116">
    <path clip-path="url(#p12080667d0)" d="M 310.401818 244.252731 
L 316.489091 244.252731 
L 316.489091 276.21086 
L 310.401818 276.21086 
z
" style="fill:#7f7f7f;"/>
   </g>
   <g id="patch_117">
    <path clip-path="url(#p12080667d0)" d="M 318.010909 244.252731 
L 324.098182 244.252731 
L 324.098182 273.939617 
L 318.010909 273.939617 
z
" style="fill:#7f7f7f;"/>
   </g>
   <g id="patch_118">
    <path clip-path="url(#p12080667d0)" d="M 325.62 244.252731 
L 331.707273 244.252731 
L 331.707273 272.538464 
L 325.62 272.538464 
z
" style="fill:#add8e6;"/>
   </g>
   <g id="patch_119">
    <path clip-path="url(#p12080667d0)" d="M 333.229091 244.252731 
L 339.316364 244.252731 
L 339.316364 272.066355 
L 333.229091 272.066355 
z
" style="fill:#7f7f7f;"/>
   </g>
   <g id="patch_120">
    <path clip-path="url(#p12080667d0)" d="M 340.838182 244.252731 
L 346.925455 244.252731 
L 346.925455 270.022719 
L 340.838182 270.022719 
z
" style="fill:#add8e6;"/>
   </g>
   <g id="patch_121">
    <path clip-path="url(#p12080667d0)" d="M 348.447273 244.252731 
L 354.534545 244.252731 
L 354.534545 266.682418 
L 348.447273 266.682418 
z
" style="fill:#7f7f7f;"/>
   </g>
   <g id="patch_122">
    <path clip-path="url(#p12080667d0)" d="M 356.056364 244.252731 
L 362.143636 244.252731 
L 362.143636 265.739178 
L 356.056364 265.739178 
z
" style="fill:#7f7f7f;"/>
   </g>
   <g id="patch_123">
    <path clip-path="url(#p12080667d0)" d="M 363.665455 244.252731 
L 369.752727 244.252731 
L 369.752727 260.24229 
L 363.665455 260.24229 
z
" style="fill:#7f7f7f;"/>
   </g>
   <g id="patch_124">
    <path clip-path="url(#p12080667d0)" d="M 371.274545 244.252731 
L 377.361818 244.252731 
L 377.361818 259.677657 
L 371.274545 259.677657 
z
" style="fill:#7f7f7f;"/>
   </g>
   <g id="patch_125">
    <path clip-path="url(#p12080667d0)" d="M 378.883636 244.252731 
L 384.970909 244.252731 
L 384.970909 259.525477 
L 378.883636 259.525477 
z
" style="fill:#7f7f7f;"/>
   </g>
   <g id="patch_126">
    <path clip-path="url(#p12080667d0)" d="M 386.492727 244.252731 
L 392.58 244.252731 
L 392.58 257.694596 
L 386.492727 257.694596 
z
" style="fill:#7f7f7f;"/>
   </g>
   <g id="patch_127">
    <path clip-path="url(#p12080667d0)" d="M 394.101818 244.252731 
L 400.189091 244.252731 
L 400.189091 254.843544 
L 394.101818 254.843544 
z
" style="fill:#7f7f7f;"/>
   </g>
   <g id="patch_128">
    <path clip-path="url(#p12080667d0)" d="M 401.710909 244.252731 
L 407.798182 244.252731 
L 407.798182 254.359057 
L 401.710909 254.359057 
z
" style="fill:#add8e6;"/>
   </g>
   <g id="patch_129">
    <path clip-path="url(#p12080667d0)" d="M 409.32 244.252731 
L 415.407273 244.252731 
L 415.407273 254.21897 
L 409.32 254.21897 
z
" style="fill:#7f7f7f;"/>
   </g>
   <g id="patch_130">
    <path clip-path="url(#p12080667d0)" d="M 416.929091 244.252731 
L 423.016364 244.252731 
L 423.016364 251.331262 
L 416.929091 251.331262 
z
" style="fill:#7f7f7f;"/>
   </g>
   <g id="patch_131">
    <path clip-path="url(#p12080667d0)" d="M 424.538182 244.252731 
L 430.625455 244.252731 
L 430.625455 250.774618 
L 424.538182 250.774618 
z
" style="fill:#7f7f7f;"/>
   </g>
   <g id="patch_132">
    <path clip-path="url(#p12080667d0)" d="M 432.147273 244.252731 
L 438.234545 244.252731 
L 438.234545 248.716817 
L 432.147273 248.716817 
z
" style="fill:#7f7f7f;"/>
   </g>
   <g id="patch_133">
    <path clip-path="url(#p12080667d0)" d="M 439.756364 244.252731 
L 445.843636 244.252731 
L 445.843636 247.598578 
L 439.756364 247.598578 
z
" style="fill:#7f7f7f;"/>
   </g>
   <g id="patch_134">
    <path clip-path="url(#p12080667d0)" d="M 447.365455 244.252731 
L 453.452727 244.252731 
L 453.452727 245.488765 
L 447.365455 245.488765 
z
" style="fill:#7f7f7f;"/>
   </g>
   <g id="patch_135">
    <path clip-path="url(#p12080667d0)" d="M 454.974545 244.252731 
L 461.061818 244.252731 
L 461.061818 242.006182 
L 454.974545 242.006182 
z
" style="fill:#7f7f7f;"/>
   </g>
   <g id="patch_136">
    <path clip-path="url(#p12080667d0)" d="M 462.583636 244.252731 
L 468.670909 244.252731 
L 468.670909 241.910127 
L 462.583636 241.910127 
z
" style="fill:#7f7f7f;"/>
   </g>
   <g id="patch_137">
    <path clip-path="url(#p12080667d0)" d="M 470.192727 244.252731 
L 476.28 244.252731 
L 476.28 241.397317 
L 470.192727 241.397317 
z
" style="fill:#7f7f7f;"/>
   </g>
   <g id="patch_138">
    <path clip-path="url(#p12080667d0)" d="M 477.801818 244.252731 
L 483.889091 244.252731 
L 483.889091 240.430817 
L 477.801818 240.430817 
z
" style="fill:#7f7f7f;"/>
   </g>
   <g id="patch_139">
    <path clip-path="url(#p12080667d0)" d="M 485.410909 244.252731 
L 491.498182 244.252731 
L 491.498182 237.059878 
L 485.410909 237.059878 
z
" style="fill:#7f7f7f;"/>
   </g>
   <g id="patch_140">
    <path clip-path="url(#p12080667d0)" d="M 493.02 244.252731 
L 499.107273 244.252731 
L 499.107273 236.712714 
L 493.02 236.712714 
z
" style="fill:#7f7f7f;"/>
   </g>
   <g id="patch_141">
    <path clip-path="url(#p12080667d0)" d="M 500.629091 244.252731 
L 506.716364 244.252731 
L 506.716364 236.510332 
L 500.629091 236.510332 
z
" style="fill:#add8e6;"/>
   </g>
   <g id="patch_142">
    <path clip-path="url(#p12080667d0)" d="M 508.238182 244.252731 
L 514.325455 244.252731 
L 514.325455 235.080509 
L 508.238182 235.080509 
z
" style="fill:#7f7f7f;"/>
   </g>
   <g id="patch_143">
    <path clip-path="url(#p12080667d0)" d="M 515.847273 244.252731 
L 521.934545 244.252731 
L 521.934545 229.271215 
L 515.847273 229.271215 
z
" style="fill:#7f7f7f;"/>
   </g>
   <g id="patch_144">
    <path clip-path="url(#p12080667d0)" d="M 523.456364 244.252731 
L 529.543636 244.252731 
L 529.543636 229.097825 
L 523.456364 229.097825 
z
" style="fill:#add8e6;"/>
   </g>
   <g id="patch_145">
    <path clip-path="url(#p12080667d0)" d="M 531.065455 244.252731 
L 537.152727 244.252731 
L 537.152727 227.110573 
L 531.065455 227.110573 
z
" style="fill:#7f7f7f;"/>
   </g>
   <g id="patch_146">
    <path clip-path="url(#p12080667d0)" d="M 538.674545 244.252731 
L 544.761818 244.252731 
L 544.761818 225.346407 
L 538.674545 225.346407 
z
" style="fill:#7f7f7f;"/>
   </g>
   <g id="patch_147">
    <path clip-path="url(#p12080667d0)" d="M 546.283636 244.252731 
L 552.370909 244.252731 
L 552.370909 223.071237 
L 546.283636 223.071237 
z
" style="fill:#7f7f7f;"/>
   </g>
   <g id="patch_148">
    <path clip-path="url(#p12080667d0)" d="M 553.892727 244.252731 
L 559.98 244.252731 
L 559.98 222.821255 
L 553.892727 222.821255 
z
" style="fill:#add8e6;"/>
   </g>
   <g id="patch_149">
    <path clip-path="url(#p12080667d0)" d="M 561.501818 244.252731 
L 567.589091 244.252731 
L 567.589091 221.765835 
L 561.501818 221.765835 
z
" style="fill:#7f7f7f;"/>
   </g>
   <g id="patch_150">
    <path clip-path="url(#p12080667d0)" d="M 569.110909 244.252731 
L 575.198182 244.252731 
L 575.198182 221.665745 
L 569.110909 221.665745 
z
" style="fill:#7f7f7f;"/>
   </g>
   <g id="patch_151">
    <path clip-path="url(#p12080667d0)" d="M 576.72 244.252731 
L 582.807273 244.252731 
L 582.807273 218.460754 
L 576.72 218.460754 
z
" style="fill:#7f7f7f;"/>
   </g>
   <g id="patch_152">
    <path clip-path="url(#p12080667d0)" d="M 584.329091 244.252731 
L 590.416364 244.252731 
L 590.416364 216.952749 
L 584.329091 216.952749 
z
" style="fill:#7f7f7f;"/>
   </g>
   <g id="patch_153">
    <path clip-path="url(#p12080667d0)" d="M 591.938182 244.252731 
L 598.025455 244.252731 
L 598.025455 210.282328 
L 591.938182 210.282328 
z
" style="fill:#add8e6;"/>
   </g>
   <g id="patch_154">
    <path clip-path="url(#p12080667d0)" d="M 599.547273 244.252731 
L 605.634545 244.252731 
L 605.634545 209.2122 
L 599.547273 209.2122 
z
" style="fill:#7f7f7f;"/>
   </g>
   <g id="patch_155">
    <path clip-path="url(#p12080667d0)" d="M 607.156364 244.252731 
L 613.243636 244.252731 
L 613.243636 209.117194 
L 607.156364 209.117194 
z
" style="fill:#7f7f7f;"/>
   </g>
   <g id="patch_156">
    <path clip-path="url(#p12080667d0)" d="M 614.765455 244.252731 
L 620.852727 244.252731 
L 620.852727 209.007818 
L 614.765455 209.007818 
z
" style="fill:#7f7f7f;"/>
   </g>
   <g id="patch_157">
    <path clip-path="url(#p12080667d0)" d="M 622.374545 244.252731 
L 628.461818 244.252731 
L 628.461818 198.226683 
L 622.374545 198.226683 
z
" style="fill:#add8e6;"/>
   </g>
   <g id="patch_158">
    <path clip-path="url(#p12080667d0)" d="M 629.983636 244.252731 
L 636.070909 244.252731 
L 636.070909 195.926021 
L 629.983636 195.926021 
z
" style="fill:#add8e6;"/>
   </g>
   <g id="patch_159">
    <path clip-path="url(#p12080667d0)" d="M 637.592727 244.252731 
L 643.68 244.252731 
L 643.68 188.601851 
L 637.592727 188.601851 
z
" style="fill:#7f7f7f;"/>
   </g>
   <g id="patch_160">
    <path clip-path="url(#p12080667d0)" d="M 645.201818 244.252731 
L 651.289091 244.252731 
L 651.289091 185.230128 
L 645.201818 185.230128 
z
" style="fill:#7f7f7f;"/>
   </g>
   <g id="patch_161">
    <path clip-path="url(#p12080667d0)" d="M 652.810909 244.252731 
L 658.898182 244.252731 
L 658.898182 184.435486 
L 652.810909 184.435486 
z
" style="fill:#7f7f7f;"/>
   </g>
   <g id="patch_162">
    <path clip-path="url(#p12080667d0)" d="M 660.42 244.252731 
L 666.507273 244.252731 
L 666.507273 183.033796 
L 660.42 183.033796 
z
" style="fill:#7f7f7f;"/>
   </g>
   <g id="patch_163">
    <path clip-path="url(#p12080667d0)" d="M 668.029091 244.252731 
L 674.116364 244.252731 
L 674.116364 180.822676 
L 668.029091 180.822676 
z
" style="fill:#add8e6;"/>
   </g>
   <g id="patch_164">
    <path clip-path="url(#p12080667d0)" d="M 675.638182 244.252731 
L 681.725455 244.252731 
L 681.725455 179.608433 
L 675.638182 179.608433 
z
" style="fill:#7f7f7f;"/>
   </g>
   <g id="patch_165">
    <path clip-path="url(#p12080667d0)" d="M 683.247273 244.252731 
L 689.334545 244.252731 
L 689.334545 177.313549 
L 683.247273 177.313549 
z
" style="fill:#7f7f7f;"/>
   </g>
   <g id="patch_166">
    <path clip-path="url(#p12080667d0)" d="M 690.856364 244.252731 
L 696.943636 244.252731 
L 696.943636 169.874784 
L 690.856364 169.874784 
z
" style="fill:#7f7f7f;"/>
   </g>
   <g id="patch_167">
    <path clip-path="url(#p12080667d0)" d="M 698.465455 244.252731 
L 704.552727 244.252731 
L 704.552727 166.718324 
L 698.465455 166.718324 
z
" style="fill:#7f7f7f;"/>
   </g>
   <g id="patch_168">
    <path clip-path="url(#p12080667d0)" d="M 706.074545 244.252731 
L 712.161818 244.252731 
L 712.161818 153.558407 
L 706.074545 153.558407 
z
" style="fill:#7f7f7f;"/>
   </g>
   <g id="patch_169">
    <path clip-path="url(#p12080667d0)" d="M 713.683636 244.252731 
L 719.770909 244.252731 
L 719.770909 153.23249 
L 713.683636 153.23249 
z
" style="fill:#7f7f7f;"/>
   </g>
   <g id="patch_170">
    <path clip-path="url(#p12080667d0)" d="M 721.292727 244.252731 
L 727.38 244.252731 
L 727.38 141.458118 
L 721.292727 141.458118 
z
" style="fill:#add8e6;"/>
   </g>
   <g id="patch_171">
    <path clip-path="url(#p12080667d0)" d="M 728.901818 244.252731 
L 734.989091 244.252731 
L 734.989091 120.497395 
L 728.901818 120.497395 
z
" style="fill:#add8e6;"/>
   </g>
   <g id="patch_172">
    <path clip-path="url(#p12080667d0)" d="M 736.510909 244.252731 
L 742.598182 244.252731 
L 742.598182 114.852909 
L 736.510909 114.852909 
z
" style="fill:#add8e6;"/>
   </g>
   <g id="patch_173">
    <path clip-path="url(#p12080667d0)" d="M 744.12 244.252731 
L 750.207273 244.252731 
L 750.207273 100.057965 
L 744.12 100.057965 
z
" style="fill:#7f7f7f;"/>
   </g>
   <g id="patch_174">
    <path clip-path="url(#p12080667d0)" d="M 751.729091 244.252731 
L 757.816364 244.252731 
L 757.816364 89.498151 
L 751.729091 89.498151 
z
" style="fill:#7f7f7f;"/>
   </g>
   <g id="patch_175">
    <path clip-path="url(#p12080667d0)" d="M 759.338182 244.252731 
L 765.425455 244.252731 
L 765.425455 88.165165 
L 759.338182 88.165165 
z
" style="fill:#add8e6;"/>
   </g>
   <g id="patch_176">
    <path clip-path="url(#p12080667d0)" d="M 766.947273 244.252731 
L 773.034545 244.252731 
L 773.034545 66.665455 
L 766.947273 66.665455 
z
" style="fill:#add8e6;"/>
   </g>
   <g id="matplotlib.axis_1">
    <g id="text_1">
     <!-- iModulons -->
     <g transform="translate(404.808984 393.397656)scale(0.15 -0.15)">
      <defs>
       <path d="M 9.421875 54.6875 
L 18.40625 54.6875 
L 18.40625 0 
L 9.421875 0 
z
M 9.421875 75.984375 
L 18.40625 75.984375 
L 18.40625 64.59375 
L 9.421875 64.59375 
z
" id="DejaVuSans-105"/>
       <path d="M 9.8125 72.90625 
L 24.515625 72.90625 
L 43.109375 23.296875 
L 61.8125 72.90625 
L 76.515625 72.90625 
L 76.515625 0 
L 66.890625 0 
L 66.890625 64.015625 
L 48.09375 14.015625 
L 38.1875 14.015625 
L 19.390625 64.015625 
L 19.390625 0 
L 9.8125 0 
z
" id="DejaVuSans-77"/>
       <path d="M 30.609375 48.390625 
Q 23.390625 48.390625 19.1875 42.75 
Q 14.984375 37.109375 14.984375 27.296875 
Q 14.984375 17.484375 19.15625 11.84375 
Q 23.34375 6.203125 30.609375 6.203125 
Q 37.796875 6.203125 41.984375 11.859375 
Q 46.1875 17.53125 46.1875 27.296875 
Q 46.1875 37.015625 41.984375 42.703125 
Q 37.796875 48.390625 30.609375 48.390625 
z
M 30.609375 56 
Q 42.328125 56 49.015625 48.375 
Q 55.71875 40.765625 55.71875 27.296875 
Q 55.71875 13.875 49.015625 6.21875 
Q 42.328125 -1.421875 30.609375 -1.421875 
Q 18.84375 -1.421875 12.171875 6.21875 
Q 5.515625 13.875 5.515625 27.296875 
Q 5.515625 40.765625 12.171875 48.375 
Q 18.84375 56 30.609375 56 
z
" id="DejaVuSans-111"/>
       <path d="M 45.40625 46.390625 
L 45.40625 75.984375 
L 54.390625 75.984375 
L 54.390625 0 
L 45.40625 0 
L 45.40625 8.203125 
Q 42.578125 3.328125 38.25 0.953125 
Q 33.9375 -1.421875 27.875 -1.421875 
Q 17.96875 -1.421875 11.734375 6.484375 
Q 5.515625 14.40625 5.515625 27.296875 
Q 5.515625 40.1875 11.734375 48.09375 
Q 17.96875 56 27.875 56 
Q 33.9375 56 38.25 53.625 
Q 42.578125 51.265625 45.40625 46.390625 
z
M 14.796875 27.296875 
Q 14.796875 17.390625 18.875 11.75 
Q 22.953125 6.109375 30.078125 6.109375 
Q 37.203125 6.109375 41.296875 11.75 
Q 45.40625 17.390625 45.40625 27.296875 
Q 45.40625 37.203125 41.296875 42.84375 
Q 37.203125 48.484375 30.078125 48.484375 
Q 22.953125 48.484375 18.875 42.84375 
Q 14.796875 37.203125 14.796875 27.296875 
z
" id="DejaVuSans-100"/>
       <path d="M 8.5 21.578125 
L 8.5 54.6875 
L 17.484375 54.6875 
L 17.484375 21.921875 
Q 17.484375 14.15625 20.5 10.265625 
Q 23.53125 6.390625 29.59375 6.390625 
Q 36.859375 6.390625 41.078125 11.03125 
Q 45.3125 15.671875 45.3125 23.6875 
L 45.3125 54.6875 
L 54.296875 54.6875 
L 54.296875 0 
L 45.3125 0 
L 45.3125 8.40625 
Q 42.046875 3.421875 37.71875 1 
Q 33.40625 -1.421875 27.6875 -1.421875 
Q 18.265625 -1.421875 13.375 4.4375 
Q 8.5 10.296875 8.5 21.578125 
z
M 31.109375 56 
z
" id="DejaVuSans-117"/>
       <path d="M 9.421875 75.984375 
L 18.40625 75.984375 
L 18.40625 0 
L 9.421875 0 
z
" id="DejaVuSans-108"/>
       <path d="M 54.890625 33.015625 
L 54.890625 0 
L 45.90625 0 
L 45.90625 32.71875 
Q 45.90625 40.484375 42.875 44.328125 
Q 39.84375 48.1875 33.796875 48.1875 
Q 26.515625 48.1875 22.3125 43.546875 
Q 18.109375 38.921875 18.109375 30.90625 
L 18.109375 0 
L 9.078125 0 
L 9.078125 54.6875 
L 18.109375 54.6875 
L 18.109375 46.1875 
Q 21.34375 51.125 25.703125 53.5625 
Q 30.078125 56 35.796875 56 
Q 45.21875 56 50.046875 50.171875 
Q 54.890625 44.34375 54.890625 33.015625 
z
" id="DejaVuSans-110"/>
       <path d="M 44.28125 53.078125 
L 44.28125 44.578125 
Q 40.484375 46.53125 36.375 47.5 
Q 32.28125 48.484375 27.875 48.484375 
Q 21.1875 48.484375 17.84375 46.4375 
Q 14.5 44.390625 14.5 40.28125 
Q 14.5 37.15625 16.890625 35.375 
Q 19.28125 33.59375 26.515625 31.984375 
L 29.59375 31.296875 
Q 39.15625 29.25 43.1875 25.515625 
Q 47.21875 21.78125 47.21875 15.09375 
Q 47.21875 7.46875 41.1875 3.015625 
Q 35.15625 -1.421875 24.609375 -1.421875 
Q 20.21875 -1.421875 15.453125 -0.5625 
Q 10.6875 0.296875 5.421875 2 
L 5.421875 11.28125 
Q 10.40625 8.6875 15.234375 7.390625 
Q 20.0625 6.109375 24.8125 6.109375 
Q 31.15625 6.109375 34.5625 8.28125 
Q 37.984375 10.453125 37.984375 14.40625 
Q 37.984375 18.0625 35.515625 20.015625 
Q 33.0625 21.96875 24.703125 23.78125 
L 21.578125 24.515625 
Q 13.234375 26.265625 9.515625 29.90625 
Q 5.8125 33.546875 5.8125 39.890625 
Q 5.8125 47.609375 11.28125 51.796875 
Q 16.75 56 26.8125 56 
Q 31.78125 56 36.171875 55.265625 
Q 40.578125 54.546875 44.28125 53.078125 
z
" id="DejaVuSans-115"/>
      </defs>
      <use xlink:href="#DejaVuSans-105"/>
      <use x="27.783203" xlink:href="#DejaVuSans-77"/>
      <use x="114.0625" xlink:href="#DejaVuSans-111"/>
      <use x="175.244141" xlink:href="#DejaVuSans-100"/>
      <use x="238.720703" xlink:href="#DejaVuSans-117"/>
      <use x="302.099609" xlink:href="#DejaVuSans-108"/>
      <use x="329.882812" xlink:href="#DejaVuSans-111"/>
      <use x="391.064453" xlink:href="#DejaVuSans-110"/>
      <use x="454.443359" xlink:href="#DejaVuSans-115"/>
     </g>
    </g>
   </g>
   <g id="matplotlib.axis_2">
    <g id="ytick_1">
     <g id="line2d_1">
      <defs>
       <path d="M 0 0 
L -3.5 0 
" id="ma8471cc8ad" style="stroke:#000000;stroke-width:0.8;"/>
      </defs>
      <g>
       <use style="stroke:#000000;stroke-width:0.8;" x="108" xlink:href="#ma8471cc8ad" y="354.362573"/>
      </g>
     </g>
     <g id="text_2">
      <!-- −20 -->
      <g transform="translate(79.895313 358.161791)scale(0.1 -0.1)">
       <defs>
        <path d="M 10.59375 35.5 
L 73.1875 35.5 
L 73.1875 27.203125 
L 10.59375 27.203125 
z
" id="DejaVuSans-8722"/>
        <path d="M 19.1875 8.296875 
L 53.609375 8.296875 
L 53.609375 0 
L 7.328125 0 
L 7.328125 8.296875 
Q 12.9375 14.109375 22.625 23.890625 
Q 32.328125 33.6875 34.8125 36.53125 
Q 39.546875 41.84375 41.421875 45.53125 
Q 43.3125 49.21875 43.3125 52.78125 
Q 43.3125 58.59375 39.234375 62.25 
Q 35.15625 65.921875 28.609375 65.921875 
Q 23.96875 65.921875 18.8125 64.3125 
Q 13.671875 62.703125 7.8125 59.421875 
L 7.8125 69.390625 
Q 13.765625 71.78125 18.9375 73 
Q 24.125 74.21875 28.421875 74.21875 
Q 39.75 74.21875 46.484375 68.546875 
Q 53.21875 62.890625 53.21875 53.421875 
Q 53.21875 48.921875 51.53125 44.890625 
Q 49.859375 40.875 45.40625 35.40625 
Q 44.1875 33.984375 37.640625 27.21875 
Q 31.109375 20.453125 19.1875 8.296875 
z
" id="DejaVuSans-50"/>
        <path d="M 31.78125 66.40625 
Q 24.171875 66.40625 20.328125 58.90625 
Q 16.5 51.421875 16.5 36.375 
Q 16.5 21.390625 20.328125 13.890625 
Q 24.171875 6.390625 31.78125 6.390625 
Q 39.453125 6.390625 43.28125 13.890625 
Q 47.125 21.390625 47.125 36.375 
Q 47.125 51.421875 43.28125 58.90625 
Q 39.453125 66.40625 31.78125 66.40625 
z
M 31.78125 74.21875 
Q 44.046875 74.21875 50.515625 64.515625 
Q 56.984375 54.828125 56.984375 36.375 
Q 56.984375 17.96875 50.515625 8.265625 
Q 44.046875 -1.421875 31.78125 -1.421875 
Q 19.53125 -1.421875 13.0625 8.265625 
Q 6.59375 17.96875 6.59375 36.375 
Q 6.59375 54.828125 13.0625 64.515625 
Q 19.53125 74.21875 31.78125 74.21875 
z
" id="DejaVuSans-48"/>
       </defs>
       <use xlink:href="#DejaVuSans-8722"/>
       <use x="83.789062" xlink:href="#DejaVuSans-50"/>
       <use x="147.412109" xlink:href="#DejaVuSans-48"/>
      </g>
     </g>
    </g>
    <g id="ytick_2">
     <g id="line2d_2">
      <g>
       <use style="stroke:#000000;stroke-width:0.8;" x="108" xlink:href="#ma8471cc8ad" y="299.307652"/>
      </g>
     </g>
     <g id="text_3">
      <!-- −10 -->
      <g transform="translate(79.895313 303.106871)scale(0.1 -0.1)">
       <defs>
        <path d="M 12.40625 8.296875 
L 28.515625 8.296875 
L 28.515625 63.921875 
L 10.984375 60.40625 
L 10.984375 69.390625 
L 28.421875 72.90625 
L 38.28125 72.90625 
L 38.28125 8.296875 
L 54.390625 8.296875 
L 54.390625 0 
L 12.40625 0 
z
" id="DejaVuSans-49"/>
       </defs>
       <use xlink:href="#DejaVuSans-8722"/>
       <use x="83.789062" xlink:href="#DejaVuSans-49"/>
       <use x="147.412109" xlink:href="#DejaVuSans-48"/>
      </g>
     </g>
    </g>
    <g id="ytick_3">
     <g id="line2d_3">
      <g>
       <use style="stroke:#000000;stroke-width:0.8;" x="108" xlink:href="#ma8471cc8ad" y="244.252731"/>
      </g>
     </g>
     <g id="text_4">
      <!-- 0 -->
      <g transform="translate(94.6375 248.05195)scale(0.1 -0.1)">
       <use xlink:href="#DejaVuSans-48"/>
      </g>
     </g>
    </g>
    <g id="ytick_4">
     <g id="line2d_4">
      <g>
       <use style="stroke:#000000;stroke-width:0.8;" x="108" xlink:href="#ma8471cc8ad" y="189.197811"/>
      </g>
     </g>
     <g id="text_5">
      <!-- 10 -->
      <g transform="translate(88.275 192.997029)scale(0.1 -0.1)">
       <use xlink:href="#DejaVuSans-49"/>
       <use x="63.623047" xlink:href="#DejaVuSans-48"/>
      </g>
     </g>
    </g>
    <g id="ytick_5">
     <g id="line2d_5">
      <g>
       <use style="stroke:#000000;stroke-width:0.8;" x="108" xlink:href="#ma8471cc8ad" y="134.14289"/>
      </g>
     </g>
     <g id="text_6">
      <!-- 20 -->
      <g transform="translate(88.275 137.942109)scale(0.1 -0.1)">
       <use xlink:href="#DejaVuSans-50"/>
       <use x="63.623047" xlink:href="#DejaVuSans-48"/>
      </g>
     </g>
    </g>
    <g id="ytick_6">
     <g id="line2d_6">
      <g>
       <use style="stroke:#000000;stroke-width:0.8;" x="108" xlink:href="#ma8471cc8ad" y="79.087969"/>
      </g>
     </g>
     <g id="text_7">
      <!-- 30 -->
      <g transform="translate(88.275 82.887188)scale(0.1 -0.1)">
       <defs>
        <path d="M 40.578125 39.3125 
Q 47.65625 37.796875 51.625 33 
Q 55.609375 28.21875 55.609375 21.1875 
Q 55.609375 10.40625 48.1875 4.484375 
Q 40.765625 -1.421875 27.09375 -1.421875 
Q 22.515625 -1.421875 17.65625 -0.515625 
Q 12.796875 0.390625 7.625 2.203125 
L 7.625 11.71875 
Q 11.71875 9.328125 16.59375 8.109375 
Q 21.484375 6.890625 26.8125 6.890625 
Q 36.078125 6.890625 40.9375 10.546875 
Q 45.796875 14.203125 45.796875 21.1875 
Q 45.796875 27.640625 41.28125 31.265625 
Q 36.765625 34.90625 28.71875 34.90625 
L 20.21875 34.90625 
L 20.21875 43.015625 
L 29.109375 43.015625 
Q 36.375 43.015625 40.234375 45.921875 
Q 44.09375 48.828125 44.09375 54.296875 
Q 44.09375 59.90625 40.109375 62.90625 
Q 36.140625 65.921875 28.71875 65.921875 
Q 24.65625 65.921875 20.015625 65.03125 
Q 15.375 64.15625 9.8125 62.3125 
L 9.8125 71.09375 
Q 15.4375 72.65625 20.34375 73.4375 
Q 25.25 74.21875 29.59375 74.21875 
Q 40.828125 74.21875 47.359375 69.109375 
Q 53.90625 64.015625 53.90625 55.328125 
Q 53.90625 49.265625 50.4375 45.09375 
Q 46.96875 40.921875 40.578125 39.3125 
z
" id="DejaVuSans-51"/>
       </defs>
       <use xlink:href="#DejaVuSans-51"/>
       <use x="63.623047" xlink:href="#DejaVuSans-48"/>
      </g>
     </g>
    </g>
    <g id="text_8">
     <!-- iModulon Activity:Anaerobiosis -->
     <g transform="translate(73.399687 306.463125)rotate(-90)scale(0.12 -0.12)">
      <defs>
       <path id="DejaVuSans-32"/>
       <path d="M 34.1875 63.1875 
L 20.796875 26.90625 
L 47.609375 26.90625 
z
M 28.609375 72.90625 
L 39.796875 72.90625 
L 67.578125 0 
L 57.328125 0 
L 50.6875 18.703125 
L 17.828125 18.703125 
L 11.1875 0 
L 0.78125 0 
z
" id="DejaVuSans-65"/>
       <path d="M 48.78125 52.59375 
L 48.78125 44.1875 
Q 44.96875 46.296875 41.140625 47.34375 
Q 37.3125 48.390625 33.40625 48.390625 
Q 24.65625 48.390625 19.8125 42.84375 
Q 14.984375 37.3125 14.984375 27.296875 
Q 14.984375 17.28125 19.8125 11.734375 
Q 24.65625 6.203125 33.40625 6.203125 
Q 37.3125 6.203125 41.140625 7.25 
Q 44.96875 8.296875 48.78125 10.40625 
L 48.78125 2.09375 
Q 45.015625 0.34375 40.984375 -0.53125 
Q 36.96875 -1.421875 32.421875 -1.421875 
Q 20.0625 -1.421875 12.78125 6.34375 
Q 5.515625 14.109375 5.515625 27.296875 
Q 5.515625 40.671875 12.859375 48.328125 
Q 20.21875 56 33.015625 56 
Q 37.15625 56 41.109375 55.140625 
Q 45.0625 54.296875 48.78125 52.59375 
z
" id="DejaVuSans-99"/>
       <path d="M 18.3125 70.21875 
L 18.3125 54.6875 
L 36.8125 54.6875 
L 36.8125 47.703125 
L 18.3125 47.703125 
L 18.3125 18.015625 
Q 18.3125 11.328125 20.140625 9.421875 
Q 21.96875 7.515625 27.59375 7.515625 
L 36.8125 7.515625 
L 36.8125 0 
L 27.59375 0 
Q 17.1875 0 13.234375 3.875 
Q 9.28125 7.765625 9.28125 18.015625 
L 9.28125 47.703125 
L 2.6875 47.703125 
L 2.6875 54.6875 
L 9.28125 54.6875 
L 9.28125 70.21875 
z
" id="DejaVuSans-116"/>
       <path d="M 2.984375 54.6875 
L 12.5 54.6875 
L 29.59375 8.796875 
L 46.6875 54.6875 
L 56.203125 54.6875 
L 35.6875 0 
L 23.484375 0 
z
" id="DejaVuSans-118"/>
       <path d="M 32.171875 -5.078125 
Q 28.375 -14.84375 24.75 -17.8125 
Q 21.140625 -20.796875 15.09375 -20.796875 
L 7.90625 -20.796875 
L 7.90625 -13.28125 
L 13.1875 -13.28125 
Q 16.890625 -13.28125 18.9375 -11.515625 
Q 21 -9.765625 23.484375 -3.21875 
L 25.09375 0.875 
L 2.984375 54.6875 
L 12.5 54.6875 
L 29.59375 11.921875 
L 46.6875 54.6875 
L 56.203125 54.6875 
z
" id="DejaVuSans-121"/>
       <path d="M 11.71875 12.40625 
L 22.015625 12.40625 
L 22.015625 0 
L 11.71875 0 
z
M 11.71875 51.703125 
L 22.015625 51.703125 
L 22.015625 39.3125 
L 11.71875 39.3125 
z
" id="DejaVuSans-58"/>
       <path d="M 34.28125 27.484375 
Q 23.390625 27.484375 19.1875 25 
Q 14.984375 22.515625 14.984375 16.5 
Q 14.984375 11.71875 18.140625 8.90625 
Q 21.296875 6.109375 26.703125 6.109375 
Q 34.1875 6.109375 38.703125 11.40625 
Q 43.21875 16.703125 43.21875 25.484375 
L 43.21875 27.484375 
z
M 52.203125 31.203125 
L 52.203125 0 
L 43.21875 0 
L 43.21875 8.296875 
Q 40.140625 3.328125 35.546875 0.953125 
Q 30.953125 -1.421875 24.3125 -1.421875 
Q 15.921875 -1.421875 10.953125 3.296875 
Q 6 8.015625 6 15.921875 
Q 6 25.140625 12.171875 29.828125 
Q 18.359375 34.515625 30.609375 34.515625 
L 43.21875 34.515625 
L 43.21875 35.40625 
Q 43.21875 41.609375 39.140625 45 
Q 35.0625 48.390625 27.6875 48.390625 
Q 23 48.390625 18.546875 47.265625 
Q 14.109375 46.140625 10.015625 43.890625 
L 10.015625 52.203125 
Q 14.9375 54.109375 19.578125 55.046875 
Q 24.21875 56 28.609375 56 
Q 40.484375 56 46.34375 49.84375 
Q 52.203125 43.703125 52.203125 31.203125 
z
" id="DejaVuSans-97"/>
       <path d="M 56.203125 29.59375 
L 56.203125 25.203125 
L 14.890625 25.203125 
Q 15.484375 15.921875 20.484375 11.0625 
Q 25.484375 6.203125 34.421875 6.203125 
Q 39.59375 6.203125 44.453125 7.46875 
Q 49.3125 8.734375 54.109375 11.28125 
L 54.109375 2.78125 
Q 49.265625 0.734375 44.1875 -0.34375 
Q 39.109375 -1.421875 33.890625 -1.421875 
Q 20.796875 -1.421875 13.15625 6.1875 
Q 5.515625 13.8125 5.515625 26.8125 
Q 5.515625 40.234375 12.765625 48.109375 
Q 20.015625 56 32.328125 56 
Q 43.359375 56 49.78125 48.890625 
Q 56.203125 41.796875 56.203125 29.59375 
z
M 47.21875 32.234375 
Q 47.125 39.59375 43.09375 43.984375 
Q 39.0625 48.390625 32.421875 48.390625 
Q 24.90625 48.390625 20.390625 44.140625 
Q 15.875 39.890625 15.1875 32.171875 
z
" id="DejaVuSans-101"/>
       <path d="M 41.109375 46.296875 
Q 39.59375 47.171875 37.8125 47.578125 
Q 36.03125 48 33.890625 48 
Q 26.265625 48 22.1875 43.046875 
Q 18.109375 38.09375 18.109375 28.8125 
L 18.109375 0 
L 9.078125 0 
L 9.078125 54.6875 
L 18.109375 54.6875 
L 18.109375 46.1875 
Q 20.953125 51.171875 25.484375 53.578125 
Q 30.03125 56 36.53125 56 
Q 37.453125 56 38.578125 55.875 
Q 39.703125 55.765625 41.0625 55.515625 
z
" id="DejaVuSans-114"/>
       <path d="M 48.6875 27.296875 
Q 48.6875 37.203125 44.609375 42.84375 
Q 40.53125 48.484375 33.40625 48.484375 
Q 26.265625 48.484375 22.1875 42.84375 
Q 18.109375 37.203125 18.109375 27.296875 
Q 18.109375 17.390625 22.1875 11.75 
Q 26.265625 6.109375 33.40625 6.109375 
Q 40.53125 6.109375 44.609375 11.75 
Q 48.6875 17.390625 48.6875 27.296875 
z
M 18.109375 46.390625 
Q 20.953125 51.265625 25.265625 53.625 
Q 29.59375 56 35.59375 56 
Q 45.5625 56 51.78125 48.09375 
Q 58.015625 40.1875 58.015625 27.296875 
Q 58.015625 14.40625 51.78125 6.484375 
Q 45.5625 -1.421875 35.59375 -1.421875 
Q 29.59375 -1.421875 25.265625 0.953125 
Q 20.953125 3.328125 18.109375 8.203125 
L 18.109375 0 
L 9.078125 0 
L 9.078125 75.984375 
L 18.109375 75.984375 
z
" id="DejaVuSans-98"/>
      </defs>
      <use xlink:href="#DejaVuSans-105"/>
      <use x="27.783203" xlink:href="#DejaVuSans-77"/>
      <use x="114.0625" xlink:href="#DejaVuSans-111"/>
      <use x="175.244141" xlink:href="#DejaVuSans-100"/>
      <use x="238.720703" xlink:href="#DejaVuSans-117"/>
      <use x="302.099609" xlink:href="#DejaVuSans-108"/>
      <use x="329.882812" xlink:href="#DejaVuSans-111"/>
      <use x="391.064453" xlink:href="#DejaVuSans-110"/>
      <use x="454.443359" xlink:href="#DejaVuSans-32"/>
      <use x="486.230469" xlink:href="#DejaVuSans-65"/>
      <use x="552.888672" xlink:href="#DejaVuSans-99"/>
      <use x="607.869141" xlink:href="#DejaVuSans-116"/>
      <use x="647.078125" xlink:href="#DejaVuSans-105"/>
      <use x="674.861328" xlink:href="#DejaVuSans-118"/>
      <use x="734.041016" xlink:href="#DejaVuSans-105"/>
      <use x="761.824219" xlink:href="#DejaVuSans-116"/>
      <use x="801.033203" xlink:href="#DejaVuSans-121"/>
      <use x="852.962891" xlink:href="#DejaVuSans-58"/>
      <use x="886.654297" xlink:href="#DejaVuSans-65"/>
      <use x="955.0625" xlink:href="#DejaVuSans-110"/>
      <use x="1018.441406" xlink:href="#DejaVuSans-97"/>
      <use x="1079.720703" xlink:href="#DejaVuSans-101"/>
      <use x="1141.244141" xlink:href="#DejaVuSans-114"/>
      <use x="1180.107422" xlink:href="#DejaVuSans-111"/>
      <use x="1241.289062" xlink:href="#DejaVuSans-98"/>
      <use x="1304.765625" xlink:href="#DejaVuSans-105"/>
      <use x="1332.548828" xlink:href="#DejaVuSans-111"/>
      <use x="1393.730469" xlink:href="#DejaVuSans-115"/>
      <use x="1445.830078" xlink:href="#DejaVuSans-105"/>
      <use x="1473.613281" xlink:href="#DejaVuSans-115"/>
     </g>
    </g>
   </g>
   <g id="line2d_7">
    <path clip-path="url(#p12080667d0)" d="M 108 244.252731 
L 777.6 244.252731 
" style="fill:none;stroke:#000000;stroke-linecap:square;stroke-width:1.5;"/>
   </g>
   <g id="patch_177">
    <path d="M 108 378 
L 108 51.84 
" style="fill:none;stroke:#000000;stroke-linecap:square;stroke-linejoin:miter;stroke-width:0.8;"/>
   </g>
   <g id="patch_178">
    <path d="M 777.6 378 
L 777.6 51.84 
" style="fill:none;stroke:#000000;stroke-linecap:square;stroke-linejoin:miter;stroke-width:0.8;"/>
   </g>
   <g id="patch_179">
    <path d="M 108 378 
L 777.6 378 
" style="fill:none;stroke:#000000;stroke-linecap:square;stroke-linejoin:miter;stroke-width:0.8;"/>
   </g>
   <g id="patch_180">
    <path d="M 108 51.84 
L 777.6 51.84 
" style="fill:none;stroke:#000000;stroke-linecap:square;stroke-linejoin:miter;stroke-width:0.8;"/>
   </g>
   <g id="text_9">
    <!-- DtxR -->
    <g transform="translate(106.786534 373.02106)scale(0.1 -0.1)">
     <defs>
      <path d="M 19.671875 64.796875 
L 19.671875 8.109375 
L 31.59375 8.109375 
Q 46.6875 8.109375 53.6875 14.9375 
Q 60.6875 21.78125 60.6875 36.53125 
Q 60.6875 51.171875 53.6875 57.984375 
Q 46.6875 64.796875 31.59375 64.796875 
z
M 9.8125 72.90625 
L 30.078125 72.90625 
Q 51.265625 72.90625 61.171875 64.09375 
Q 71.09375 55.28125 71.09375 36.53125 
Q 71.09375 17.671875 61.125 8.828125 
Q 51.171875 0 30.078125 0 
L 9.8125 0 
z
" id="DejaVuSans-68"/>
      <path d="M 54.890625 54.6875 
L 35.109375 28.078125 
L 55.90625 0 
L 45.3125 0 
L 29.390625 21.484375 
L 13.484375 0 
L 2.875 0 
L 24.125 28.609375 
L 4.6875 54.6875 
L 15.28125 54.6875 
L 29.78125 35.203125 
L 44.28125 54.6875 
z
" id="DejaVuSans-120"/>
      <path d="M 44.390625 34.1875 
Q 47.5625 33.109375 50.5625 29.59375 
Q 53.5625 26.078125 56.59375 19.921875 
L 66.609375 0 
L 56 0 
L 46.6875 18.703125 
Q 43.0625 26.03125 39.671875 28.421875 
Q 36.28125 30.8125 30.421875 30.8125 
L 19.671875 30.8125 
L 19.671875 0 
L 9.8125 0 
L 9.8125 72.90625 
L 32.078125 72.90625 
Q 44.578125 72.90625 50.734375 67.671875 
Q 56.890625 62.453125 56.890625 51.90625 
Q 56.890625 45.015625 53.6875 40.46875 
Q 50.484375 35.9375 44.390625 34.1875 
z
M 19.671875 64.796875 
L 19.671875 38.921875 
L 32.078125 38.921875 
Q 39.203125 38.921875 42.84375 42.21875 
Q 46.484375 45.515625 46.484375 51.90625 
Q 46.484375 58.296875 42.84375 61.546875 
Q 39.203125 64.796875 32.078125 64.796875 
z
" id="DejaVuSans-82"/>
     </defs>
     <use xlink:href="#DejaVuSans-68"/>
     <use x="77.001953" xlink:href="#DejaVuSans-116"/>
     <use x="116.210938" xlink:href="#DejaVuSans-120"/>
     <use x="175.390625" xlink:href="#DejaVuSans-82"/>
    </g>
   </g>
   <g id="text_10">
    <!-- IolR -->
    <g transform="translate(134.281624 361.181998)scale(0.1 -0.1)">
     <defs>
      <path d="M 9.8125 72.90625 
L 19.671875 72.90625 
L 19.671875 0 
L 9.8125 0 
z
" id="DejaVuSans-73"/>
     </defs>
     <use xlink:href="#DejaVuSans-73"/>
     <use x="29.492188" xlink:href="#DejaVuSans-111"/>
     <use x="90.673828" xlink:href="#DejaVuSans-108"/>
     <use x="118.457031" xlink:href="#DejaVuSans-82"/>
    </g>
   </g>
   <g id="text_11">
    <!-- cadA-operon -->
    <g transform="translate(603.263588 177.743016)scale(0.1 -0.1)">
     <defs>
      <path d="M 4.890625 31.390625 
L 31.203125 31.390625 
L 31.203125 23.390625 
L 4.890625 23.390625 
z
" id="DejaVuSans-45"/>
      <path d="M 18.109375 8.203125 
L 18.109375 -20.796875 
L 9.078125 -20.796875 
L 9.078125 54.6875 
L 18.109375 54.6875 
L 18.109375 46.390625 
Q 20.953125 51.265625 25.265625 53.625 
Q 29.59375 56 35.59375 56 
Q 45.5625 56 51.78125 48.09375 
Q 58.015625 40.1875 58.015625 27.296875 
Q 58.015625 14.40625 51.78125 6.484375 
Q 45.5625 -1.421875 35.59375 -1.421875 
Q 29.59375 -1.421875 25.265625 0.953125 
Q 20.953125 3.328125 18.109375 8.203125 
z
M 48.6875 27.296875 
Q 48.6875 37.203125 44.609375 42.84375 
Q 40.53125 48.484375 33.40625 48.484375 
Q 26.265625 48.484375 22.1875 42.84375 
Q 18.109375 37.203125 18.109375 27.296875 
Q 18.109375 17.390625 22.1875 11.75 
Q 26.265625 6.109375 33.40625 6.109375 
Q 40.53125 6.109375 44.609375 11.75 
Q 48.6875 17.390625 48.6875 27.296875 
z
" id="DejaVuSans-112"/>
     </defs>
     <use xlink:href="#DejaVuSans-99"/>
     <use x="54.980469" xlink:href="#DejaVuSans-97"/>
     <use x="116.259766" xlink:href="#DejaVuSans-100"/>
     <use x="179.736328" xlink:href="#DejaVuSans-65"/>
     <use x="245.894531" xlink:href="#DejaVuSans-45"/>
     <use x="283.853516" xlink:href="#DejaVuSans-111"/>
     <use x="345.035156" xlink:href="#DejaVuSans-112"/>
     <use x="408.511719" xlink:href="#DejaVuSans-101"/>
     <use x="470.035156" xlink:href="#DejaVuSans-114"/>
     <use x="508.898438" xlink:href="#DejaVuSans-111"/>
     <use x="570.080078" xlink:href="#DejaVuSans-110"/>
    </g>
   </g>
   <g id="text_12">
    <!-- FruR-NanR -->
    <g transform="translate(667.624292 138.217661)scale(0.1 -0.1)">
     <defs>
      <path d="M 9.8125 72.90625 
L 51.703125 72.90625 
L 51.703125 64.59375 
L 19.671875 64.59375 
L 19.671875 43.109375 
L 48.578125 43.109375 
L 48.578125 34.8125 
L 19.671875 34.8125 
L 19.671875 0 
L 9.8125 0 
z
" id="DejaVuSans-70"/>
      <path d="M 9.8125 72.90625 
L 23.09375 72.90625 
L 55.421875 11.921875 
L 55.421875 72.90625 
L 64.984375 72.90625 
L 64.984375 0 
L 51.703125 0 
L 19.390625 60.984375 
L 19.390625 0 
L 9.8125 0 
z
" id="DejaVuSans-78"/>
     </defs>
     <use xlink:href="#DejaVuSans-70"/>
     <use x="50.269531" xlink:href="#DejaVuSans-114"/>
     <use x="91.382812" xlink:href="#DejaVuSans-117"/>
     <use x="154.761719" xlink:href="#DejaVuSans-82"/>
     <use x="220.244141" xlink:href="#DejaVuSans-45"/>
     <use x="256.328125" xlink:href="#DejaVuSans-78"/>
     <use x="331.132812" xlink:href="#DejaVuSans-97"/>
     <use x="392.412109" xlink:href="#DejaVuSans-110"/>
     <use x="455.791016" xlink:href="#DejaVuSans-82"/>
    </g>
   </g>
   <g id="text_13">
    <!-- Tyrosine-metabolism -->
    <g transform="translate(610.980865 122.108911)scale(0.1 -0.1)">
     <defs>
      <path d="M -0.296875 72.90625 
L 61.375 72.90625 
L 61.375 64.59375 
L 35.5 64.59375 
L 35.5 0 
L 25.59375 0 
L 25.59375 64.59375 
L -0.296875 64.59375 
z
" id="DejaVuSans-84"/>
      <path d="M 52 44.1875 
Q 55.375 50.25 60.0625 53.125 
Q 64.75 56 71.09375 56 
Q 79.640625 56 84.28125 50.015625 
Q 88.921875 44.046875 88.921875 33.015625 
L 88.921875 0 
L 79.890625 0 
L 79.890625 32.71875 
Q 79.890625 40.578125 77.09375 44.375 
Q 74.3125 48.1875 68.609375 48.1875 
Q 61.625 48.1875 57.5625 43.546875 
Q 53.515625 38.921875 53.515625 30.90625 
L 53.515625 0 
L 44.484375 0 
L 44.484375 32.71875 
Q 44.484375 40.625 41.703125 44.40625 
Q 38.921875 48.1875 33.109375 48.1875 
Q 26.21875 48.1875 22.15625 43.53125 
Q 18.109375 38.875 18.109375 30.90625 
L 18.109375 0 
L 9.078125 0 
L 9.078125 54.6875 
L 18.109375 54.6875 
L 18.109375 46.1875 
Q 21.1875 51.21875 25.484375 53.609375 
Q 29.78125 56 35.6875 56 
Q 41.65625 56 45.828125 52.96875 
Q 50 49.953125 52 44.1875 
z
" id="DejaVuSans-109"/>
     </defs>
     <use xlink:href="#DejaVuSans-84"/>
     <use x="45.458984" xlink:href="#DejaVuSans-121"/>
     <use x="104.638672" xlink:href="#DejaVuSans-114"/>
     <use x="143.501953" xlink:href="#DejaVuSans-111"/>
     <use x="204.683594" xlink:href="#DejaVuSans-115"/>
     <use x="256.783203" xlink:href="#DejaVuSans-105"/>
     <use x="284.566406" xlink:href="#DejaVuSans-110"/>
     <use x="347.945312" xlink:href="#DejaVuSans-101"/>
     <use x="409.46875" xlink:href="#DejaVuSans-45"/>
     <use x="445.552734" xlink:href="#DejaVuSans-109"/>
     <use x="542.964844" xlink:href="#DejaVuSans-101"/>
     <use x="604.488281" xlink:href="#DejaVuSans-116"/>
     <use x="643.697266" xlink:href="#DejaVuSans-97"/>
     <use x="704.976562" xlink:href="#DejaVuSans-98"/>
     <use x="768.453125" xlink:href="#DejaVuSans-111"/>
     <use x="829.634766" xlink:href="#DejaVuSans-108"/>
     <use x="857.417969" xlink:href="#DejaVuSans-105"/>
     <use x="885.201172" xlink:href="#DejaVuSans-115"/>
     <use x="937.300781" xlink:href="#DejaVuSans-109"/>
    </g>
   </g>
   <g id="text_14">
    <!-- Growth-related -->
    <g transform="translate(659.045901 97.058833)scale(0.1 -0.1)">
     <defs>
      <path d="M 59.515625 10.40625 
L 59.515625 29.984375 
L 43.40625 29.984375 
L 43.40625 38.09375 
L 69.28125 38.09375 
L 69.28125 6.78125 
Q 63.578125 2.734375 56.6875 0.65625 
Q 49.8125 -1.421875 42 -1.421875 
Q 24.90625 -1.421875 15.25 8.5625 
Q 5.609375 18.5625 5.609375 36.375 
Q 5.609375 54.25 15.25 64.234375 
Q 24.90625 74.21875 42 74.21875 
Q 49.125 74.21875 55.546875 72.453125 
Q 61.96875 70.703125 67.390625 67.28125 
L 67.390625 56.78125 
Q 61.921875 61.421875 55.765625 63.765625 
Q 49.609375 66.109375 42.828125 66.109375 
Q 29.4375 66.109375 22.71875 58.640625 
Q 16.015625 51.171875 16.015625 36.375 
Q 16.015625 21.625 22.71875 14.15625 
Q 29.4375 6.6875 42.828125 6.6875 
Q 48.046875 6.6875 52.140625 7.59375 
Q 56.25 8.5 59.515625 10.40625 
z
" id="DejaVuSans-71"/>
      <path d="M 4.203125 54.6875 
L 13.1875 54.6875 
L 24.421875 12.015625 
L 35.59375 54.6875 
L 46.1875 54.6875 
L 57.421875 12.015625 
L 68.609375 54.6875 
L 77.59375 54.6875 
L 63.28125 0 
L 52.6875 0 
L 40.921875 44.828125 
L 29.109375 0 
L 18.5 0 
z
" id="DejaVuSans-119"/>
      <path d="M 54.890625 33.015625 
L 54.890625 0 
L 45.90625 0 
L 45.90625 32.71875 
Q 45.90625 40.484375 42.875 44.328125 
Q 39.84375 48.1875 33.796875 48.1875 
Q 26.515625 48.1875 22.3125 43.546875 
Q 18.109375 38.921875 18.109375 30.90625 
L 18.109375 0 
L 9.078125 0 
L 9.078125 75.984375 
L 18.109375 75.984375 
L 18.109375 46.1875 
Q 21.34375 51.125 25.703125 53.5625 
Q 30.078125 56 35.796875 56 
Q 45.21875 56 50.046875 50.171875 
Q 54.890625 44.34375 54.890625 33.015625 
z
" id="DejaVuSans-104"/>
     </defs>
     <use xlink:href="#DejaVuSans-71"/>
     <use x="77.490234" xlink:href="#DejaVuSans-114"/>
     <use x="116.353516" xlink:href="#DejaVuSans-111"/>
     <use x="177.535156" xlink:href="#DejaVuSans-119"/>
     <use x="259.322266" xlink:href="#DejaVuSans-116"/>
     <use x="298.53125" xlink:href="#DejaVuSans-104"/>
     <use x="361.910156" xlink:href="#DejaVuSans-45"/>
     <use x="397.994141" xlink:href="#DejaVuSans-114"/>
     <use x="436.857422" xlink:href="#DejaVuSans-101"/>
     <use x="498.380859" xlink:href="#DejaVuSans-108"/>
     <use x="526.164062" xlink:href="#DejaVuSans-97"/>
     <use x="587.443359" xlink:href="#DejaVuSans-116"/>
     <use x="626.652344" xlink:href="#DejaVuSans-101"/>
     <use x="688.175781" xlink:href="#DejaVuSans-100"/>
    </g>
   </g>
   <g id="text_15">
    <!-- Ribosome -->
    <g transform="translate(723.723261 71.326433)scale(0.1 -0.1)">
     <use xlink:href="#DejaVuSans-82"/>
     <use x="69.482422" xlink:href="#DejaVuSans-105"/>
     <use x="97.265625" xlink:href="#DejaVuSans-98"/>
     <use x="160.742188" xlink:href="#DejaVuSans-111"/>
     <use x="221.923828" xlink:href="#DejaVuSans-115"/>
     <use x="274.023438" xlink:href="#DejaVuSans-111"/>
     <use x="335.205078" xlink:href="#DejaVuSans-109"/>
     <use x="432.617188" xlink:href="#DejaVuSans-101"/>
    </g>
   </g>
   <g id="text_16">
    <!-- acpP-operon -->
    <g transform="translate(697.642531 62.956114)scale(0.1 -0.1)">
     <defs>
      <path d="M 19.671875 64.796875 
L 19.671875 37.40625 
L 32.078125 37.40625 
Q 38.96875 37.40625 42.71875 40.96875 
Q 46.484375 44.53125 46.484375 51.125 
Q 46.484375 57.671875 42.71875 61.234375 
Q 38.96875 64.796875 32.078125 64.796875 
z
M 9.8125 72.90625 
L 32.078125 72.90625 
Q 44.34375 72.90625 50.609375 67.359375 
Q 56.890625 61.8125 56.890625 51.125 
Q 56.890625 40.328125 50.609375 34.8125 
Q 44.34375 29.296875 32.078125 29.296875 
L 19.671875 29.296875 
L 19.671875 0 
L 9.8125 0 
z
" id="DejaVuSans-80"/>
     </defs>
     <use xlink:href="#DejaVuSans-97"/>
     <use x="61.279297" xlink:href="#DejaVuSans-99"/>
     <use x="116.259766" xlink:href="#DejaVuSans-112"/>
     <use x="179.736328" xlink:href="#DejaVuSans-80"/>
     <use x="237.789062" xlink:href="#DejaVuSans-45"/>
     <use x="275.748047" xlink:href="#DejaVuSans-111"/>
     <use x="336.929688" xlink:href="#DejaVuSans-112"/>
     <use x="400.40625" xlink:href="#DejaVuSans-101"/>
     <use x="461.929688" xlink:href="#DejaVuSans-114"/>
     <use x="500.792969" xlink:href="#DejaVuSans-111"/>
     <use x="561.974609" xlink:href="#DejaVuSans-110"/>
    </g>
   </g>
   <g id="patch_181">
    <path d="M 115.935566 363.712236 
Q 115.772328 363.443391 115.609091 363.174545 
" style="fill:none;opacity:0.8;stroke:#808080;stroke-linecap:round;"/>
   </g>
   <g id="patch_182">
    <path d="M 132.316603 356.029875 
Q 128.746983 355.322183 125.177363 354.61449 
" style="fill:none;opacity:0.8;stroke:#808080;stroke-linecap:round;"/>
   </g>
   <g id="patch_183">
    <path d="M 666.611934 180.129977 
Q 667.855642 180.323108 669.099349 180.516238 
" style="fill:none;opacity:0.8;stroke:#808080;stroke-linecap:round;"/>
   </g>
   <g id="patch_184">
    <path d="M 719.981822 140.658329 
Q 721.174643 140.877412 722.367464 141.096495 
" style="fill:none;opacity:0.8;stroke:#808080;stroke-linecap:round;"/>
   </g>
   <g id="patch_185">
    <path d="M 716.453848 120.28921 
Q 723.199278 120.379859 729.944707 120.470507 
" style="fill:none;opacity:0.8;stroke:#808080;stroke-linecap:round;"/>
   </g>
   <g id="patch_186">
    <path d="M 706.454516 99.957931 
Q 722.093391 106.995408 737.732266 114.032885 
" style="fill:none;opacity:0.8;stroke:#808080;stroke-linecap:round;"/>
   </g>
   <g id="patch_187">
    <path d="M 751.810648 74.966396 
Q 756.470377 80.784359 761.130105 86.602323 
" style="fill:none;opacity:0.8;stroke:#808080;stroke-linecap:round;"/>
   </g>
   <g id="patch_188">
    <path d="M 761.291164 65.337911 
Q 764.653395 65.850973 768.015625 66.364035 
" style="fill:none;opacity:0.8;stroke:#808080;stroke-linecap:round;"/>
   </g>
   <g id="text_17">
    <!-- Decreasing Oxygen DIMA plot -->
    <g transform="translate(330.630469 45.84)scale(0.15 -0.15)">
     <defs>
      <path d="M 45.40625 27.984375 
Q 45.40625 37.75 41.375 43.109375 
Q 37.359375 48.484375 30.078125 48.484375 
Q 22.859375 48.484375 18.828125 43.109375 
Q 14.796875 37.75 14.796875 27.984375 
Q 14.796875 18.265625 18.828125 12.890625 
Q 22.859375 7.515625 30.078125 7.515625 
Q 37.359375 7.515625 41.375 12.890625 
Q 45.40625 18.265625 45.40625 27.984375 
z
M 54.390625 6.78125 
Q 54.390625 -7.171875 48.1875 -13.984375 
Q 42 -20.796875 29.203125 -20.796875 
Q 24.46875 -20.796875 20.265625 -20.09375 
Q 16.0625 -19.390625 12.109375 -17.921875 
L 12.109375 -9.1875 
Q 16.0625 -11.328125 19.921875 -12.34375 
Q 23.78125 -13.375 27.78125 -13.375 
Q 36.625 -13.375 41.015625 -8.765625 
Q 45.40625 -4.15625 45.40625 5.171875 
L 45.40625 9.625 
Q 42.625 4.78125 38.28125 2.390625 
Q 33.9375 0 27.875 0 
Q 17.828125 0 11.671875 7.65625 
Q 5.515625 15.328125 5.515625 27.984375 
Q 5.515625 40.671875 11.671875 48.328125 
Q 17.828125 56 27.875 56 
Q 33.9375 56 38.28125 53.609375 
Q 42.625 51.21875 45.40625 46.390625 
L 45.40625 54.6875 
L 54.390625 54.6875 
z
" id="DejaVuSans-103"/>
      <path d="M 39.40625 66.21875 
Q 28.65625 66.21875 22.328125 58.203125 
Q 16.015625 50.203125 16.015625 36.375 
Q 16.015625 22.609375 22.328125 14.59375 
Q 28.65625 6.59375 39.40625 6.59375 
Q 50.140625 6.59375 56.421875 14.59375 
Q 62.703125 22.609375 62.703125 36.375 
Q 62.703125 50.203125 56.421875 58.203125 
Q 50.140625 66.21875 39.40625 66.21875 
z
M 39.40625 74.21875 
Q 54.734375 74.21875 63.90625 63.9375 
Q 73.09375 53.65625 73.09375 36.375 
Q 73.09375 19.140625 63.90625 8.859375 
Q 54.734375 -1.421875 39.40625 -1.421875 
Q 24.03125 -1.421875 14.8125 8.828125 
Q 5.609375 19.09375 5.609375 36.375 
Q 5.609375 53.65625 14.8125 63.9375 
Q 24.03125 74.21875 39.40625 74.21875 
z
" id="DejaVuSans-79"/>
     </defs>
     <use xlink:href="#DejaVuSans-68"/>
     <use x="77.001953" xlink:href="#DejaVuSans-101"/>
     <use x="138.525391" xlink:href="#DejaVuSans-99"/>
     <use x="193.505859" xlink:href="#DejaVuSans-114"/>
     <use x="232.369141" xlink:href="#DejaVuSans-101"/>
     <use x="293.892578" xlink:href="#DejaVuSans-97"/>
     <use x="355.171875" xlink:href="#DejaVuSans-115"/>
     <use x="407.271484" xlink:href="#DejaVuSans-105"/>
     <use x="435.054688" xlink:href="#DejaVuSans-110"/>
     <use x="498.433594" xlink:href="#DejaVuSans-103"/>
     <use x="561.910156" xlink:href="#DejaVuSans-32"/>
     <use x="593.697266" xlink:href="#DejaVuSans-79"/>
     <use x="672.408203" xlink:href="#DejaVuSans-120"/>
     <use x="731.587891" xlink:href="#DejaVuSans-121"/>
     <use x="790.767578" xlink:href="#DejaVuSans-103"/>
     <use x="854.244141" xlink:href="#DejaVuSans-101"/>
     <use x="915.767578" xlink:href="#DejaVuSans-110"/>
     <use x="979.146484" xlink:href="#DejaVuSans-32"/>
     <use x="1010.933594" xlink:href="#DejaVuSans-68"/>
     <use x="1087.935547" xlink:href="#DejaVuSans-73"/>
     <use x="1117.427734" xlink:href="#DejaVuSans-77"/>
     <use x="1203.707031" xlink:href="#DejaVuSans-65"/>
     <use x="1272.115234" xlink:href="#DejaVuSans-32"/>
     <use x="1303.902344" xlink:href="#DejaVuSans-112"/>
     <use x="1367.378906" xlink:href="#DejaVuSans-108"/>
     <use x="1395.162109" xlink:href="#DejaVuSans-111"/>
     <use x="1456.34375" xlink:href="#DejaVuSans-116"/>
    </g>
   </g>
  </g>
 </g>
 <defs>
  <clipPath id="p12080667d0">
   <rect height="326.16" width="669.6" x="108" y="51.84"/>
  </clipPath>
 </defs>
</svg>
