<?xml version="1.0" encoding="utf-8" standalone="no"?>
<!DOCTYPE svg PUBLIC "-//W3C//DTD SVG 1.1//EN"
  "http://www.w3.org/Graphics/SVG/1.1/DTD/svg11.dtd">
<!-- Created with matplotlib (https://matplotlib.org/) -->
<svg height="288pt" version="1.1" viewBox="0 0 432 288" width="432pt" xmlns="http://www.w3.org/2000/svg" xmlns:xlink="http://www.w3.org/1999/xlink">
 <metadata>
  <rdf:RDF xmlns:cc="http://creativecommons.org/ns#" xmlns:dc="http://purl.org/dc/elements/1.1/" xmlns:rdf="http://www.w3.org/1999/02/22-rdf-syntax-ns#">
   <cc:Work>
    <dc:type rdf:resource="http://purl.org/dc/dcmitype/StillImage"/>
    <dc:date>2023-02-03T12:56:20.894033</dc:date>
    <dc:format>image/svg+xml</dc:format>
    <dc:creator>
     <cc:Agent>
      <dc:title>Matplotlib v3.3.4, https://matplotlib.org/</dc:title>
     </cc:Agent>
    </dc:creator>
   </cc:Work>
  </rdf:RDF>
 </metadata>
 <defs>
  <style type="text/css">*{stroke-linecap:butt;stroke-linejoin:round;}</style>
 </defs>
 <g id="figure_1">
  <g id="patch_1">
   <path d="M 0 288 
L 432 288 
L 432 0 
L 0 0 
z
" style="fill:none;"/>
  </g>
  <g id="axes_1">
   <g id="patch_2">
    <path d="M 54 252 
L 388.8 252 
L 388.8 34.56 
L 54 34.56 
z
" style="fill:none;"/>
   </g>
   <g id="line2d_1">
    <path clip-path="url(#p13aad047ff)" d="M 58.043503 252 
L 323.337358 34.56 
" style="fill:none;stroke:#000000;stroke-dasharray:1.85,0.8;stroke-dashoffset:0;stroke-width:0.5;"/>
   </g>
   <g id="PathCollection_1">
    <defs>
     <path d="M 0 3 
C 0.795609 3 1.55874 2.683901 2.12132 2.12132 
C 2.683901 1.55874 3 0.795609 3 0 
C 3 -0.795609 2.683901 -1.55874 2.12132 -2.12132 
C 1.55874 -2.683901 0.795609 -3 0 -3 
C -0.795609 -3 -1.55874 -2.683901 -2.12132 -2.12132 
C -2.683901 -1.55874 -3 -0.795609 -3 0 
C -3 0.795609 -2.683901 1.55874 -2.12132 2.12132 
C -1.55874 2.683901 -0.795609 3 0 3 
z
" id="m43ffbe8425" style="stroke:#1f77b4;"/>
    </defs>
    <g clip-path="url(#p13aad047ff)">
     <use style="fill:#1f77b4;stroke:#1f77b4;" x="131.075931" xlink:href="#m43ffbe8425" y="228.41149"/>
     <use style="fill:#1f77b4;stroke:#1f77b4;" x="128.064956" xlink:href="#m43ffbe8425" y="140.445867"/>
     <use style="fill:#1f77b4;stroke:#1f77b4;" x="214.055515" xlink:href="#m43ffbe8425" y="82.127889"/>
     <use style="fill:#1f77b4;stroke:#1f77b4;" x="193.907046" xlink:href="#m43ffbe8425" y="185.964629"/>
     <use style="fill:#1f77b4;stroke:#1f77b4;" x="217.80034" xlink:href="#m43ffbe8425" y="156.474092"/>
     <use style="fill:#1f77b4;stroke:#1f77b4;" x="360.9" xlink:href="#m43ffbe8425" y="65.818712"/>
     <use style="fill:#1f77b4;stroke:#1f77b4;" x="237.240674" xlink:href="#m43ffbe8425" y="52.68"/>
     <use style="fill:#1f77b4;stroke:#1f77b4;" x="144.024114" xlink:href="#m43ffbe8425" y="133.078529"/>
     <use style="fill:#1f77b4;stroke:#1f77b4;" x="144.027013" xlink:href="#m43ffbe8425" y="233.88"/>
     <use style="fill:#1f77b4;stroke:#1f77b4;" x="214.647967" xlink:href="#m43ffbe8425" y="167.381646"/>
     <use style="fill:#1f77b4;stroke:#1f77b4;" x="138.120664" xlink:href="#m43ffbe8425" y="151.944226"/>
     <use style="fill:#1f77b4;stroke:#1f77b4;" x="135.28681" xlink:href="#m43ffbe8425" y="148.108545"/>
     <use style="fill:#1f77b4;stroke:#1f77b4;" x="146.510785" xlink:href="#m43ffbe8425" y="122.442747"/>
     <use style="fill:#1f77b4;stroke:#1f77b4;" x="206.220764" xlink:href="#m43ffbe8425" y="178.491284"/>
     <use style="fill:#1f77b4;stroke:#1f77b4;" x="212.43684" xlink:href="#m43ffbe8425" y="85.577297"/>
     <use style="fill:#1f77b4;stroke:#1f77b4;" x="234.334011" xlink:href="#m43ffbe8425" y="73.086534"/>
    </g>
   </g>
   <g id="PathCollection_2">
    <defs>
     <path d="M 0 3 
C 0.795609 3 1.55874 2.683901 2.12132 2.12132 
C 2.683901 1.55874 3 0.795609 3 0 
C 3 -0.795609 2.683901 -1.55874 2.12132 -2.12132 
C 1.55874 -2.683901 0.795609 -3 0 -3 
C -0.795609 -3 -1.55874 -2.683901 -2.12132 -2.12132 
C -2.683901 -1.55874 -3 -0.795609 -3 0 
C -3 0.795609 -2.683901 1.55874 -2.12132 2.12132 
C -1.55874 2.683901 -0.795609 3 0 3 
z
" id="mfecb996c76"/>
    </defs>
    <g clip-path="url(#p13aad047ff)">
     <use style="fill:#808080;fill-opacity:0.7;" x="191.532802" xlink:href="#mfecb996c76" y="148.261312"/>
     <use style="fill:#808080;fill-opacity:0.7;" x="117.268985" xlink:href="#mfecb996c76" y="183.949718"/>
     <use style="fill:#808080;fill-opacity:0.7;" x="185.605387" xlink:href="#mfecb996c76" y="176.953884"/>
     <use style="fill:#808080;fill-opacity:0.7;" x="147.672579" xlink:href="#mfecb996c76" y="170.538903"/>
     <use style="fill:#808080;fill-opacity:0.7;" x="154.21062" xlink:href="#mfecb996c76" y="165.191155"/>
     <use style="fill:#808080;fill-opacity:0.7;" x="153.752918" xlink:href="#mfecb996c76" y="180.735526"/>
     <use style="fill:#808080;fill-opacity:0.7;" x="188.990756" xlink:href="#mfecb996c76" y="139.667"/>
     <use style="fill:#808080;fill-opacity:0.7;" x="141.186671" xlink:href="#mfecb996c76" y="183.589176"/>
     <use style="fill:#808080;fill-opacity:0.7;" x="188.300065" xlink:href="#mfecb996c76" y="163.250242"/>
     <use style="fill:#808080;fill-opacity:0.7;" x="147.883394" xlink:href="#mfecb996c76" y="167.677722"/>
     <use style="fill:#808080;fill-opacity:0.7;" x="145.759875" xlink:href="#mfecb996c76" y="163.933611"/>
     <use style="fill:#808080;fill-opacity:0.7;" x="178.041362" xlink:href="#mfecb996c76" y="186.932859"/>
     <use style="fill:#808080;fill-opacity:0.7;" x="198.407727" xlink:href="#mfecb996c76" y="139.733841"/>
     <use style="fill:#808080;fill-opacity:0.7;" x="242.695095" xlink:href="#mfecb996c76" y="123.793987"/>
     <use style="fill:#808080;fill-opacity:0.7;" x="161.314785" xlink:href="#mfecb996c76" y="169.420031"/>
     <use style="fill:#808080;fill-opacity:0.7;" x="163.995736" xlink:href="#mfecb996c76" y="147.463566"/>
     <use style="fill:#808080;fill-opacity:0.7;" x="198.05945" xlink:href="#mfecb996c76" y="113.82342"/>
     <use style="fill:#808080;fill-opacity:0.7;" x="213.328623" xlink:href="#mfecb996c76" y="127.196686"/>
     <use style="fill:#808080;fill-opacity:0.7;" x="154.913587" xlink:href="#mfecb996c76" y="179.347543"/>
     <use style="fill:#808080;fill-opacity:0.7;" x="130.580552" xlink:href="#mfecb996c76" y="188.929636"/>
     <use style="fill:#808080;fill-opacity:0.7;" x="154.176321" xlink:href="#mfecb996c76" y="187.095057"/>
     <use style="fill:#808080;fill-opacity:0.7;" x="129.433453" xlink:href="#mfecb996c76" y="186.531873"/>
     <use style="fill:#808080;fill-opacity:0.7;" x="238.837272" xlink:href="#mfecb996c76" y="131.672568"/>
     <use style="fill:#808080;fill-opacity:0.7;" x="149.722486" xlink:href="#mfecb996c76" y="174.336165"/>
     <use style="fill:#808080;fill-opacity:0.7;" x="175.648236" xlink:href="#mfecb996c76" y="150.729795"/>
     <use style="fill:#808080;fill-opacity:0.7;" x="141.583649" xlink:href="#mfecb996c76" y="198.858316"/>
     <use style="fill:#808080;fill-opacity:0.7;" x="114.094672" xlink:href="#mfecb996c76" y="224.520204"/>
     <use style="fill:#808080;fill-opacity:0.7;" x="165.637476" xlink:href="#mfecb996c76" y="159.773967"/>
     <use style="fill:#808080;fill-opacity:0.7;" x="170.875541" xlink:href="#mfecb996c76" y="155.600311"/>
     <use style="fill:#808080;fill-opacity:0.7;" x="190.978601" xlink:href="#mfecb996c76" y="121.700709"/>
     <use style="fill:#808080;fill-opacity:0.7;" x="191.208616" xlink:href="#mfecb996c76" y="124.650575"/>
     <use style="fill:#808080;fill-opacity:0.7;" x="168.98141" xlink:href="#mfecb996c76" y="174.912589"/>
     <use style="fill:#808080;fill-opacity:0.7;" x="153.529051" xlink:href="#mfecb996c76" y="170.976955"/>
     <use style="fill:#808080;fill-opacity:0.7;" x="181.520855" xlink:href="#mfecb996c76" y="161.960912"/>
     <use style="fill:#808080;fill-opacity:0.7;" x="187.961977" xlink:href="#mfecb996c76" y="145.443794"/>
     <use style="fill:#808080;fill-opacity:0.7;" x="134.087299" xlink:href="#mfecb996c76" y="188.653201"/>
     <use style="fill:#808080;fill-opacity:0.7;" x="138.772214" xlink:href="#mfecb996c76" y="186.305964"/>
     <use style="fill:#808080;fill-opacity:0.7;" x="117.098304" xlink:href="#mfecb996c76" y="210.559515"/>
     <use style="fill:#808080;fill-opacity:0.7;" x="172.216528" xlink:href="#mfecb996c76" y="156.809926"/>
     <use style="fill:#808080;fill-opacity:0.7;" x="152.370442" xlink:href="#mfecb996c76" y="167.296037"/>
     <use style="fill:#808080;fill-opacity:0.7;" x="211.990721" xlink:href="#mfecb996c76" y="98.386628"/>
     <use style="fill:#808080;fill-opacity:0.7;" x="206.171567" xlink:href="#mfecb996c76" y="115.752368"/>
     <use style="fill:#808080;fill-opacity:0.7;" x="178.241507" xlink:href="#mfecb996c76" y="159.460583"/>
     <use style="fill:#808080;fill-opacity:0.7;" x="102.604749" xlink:href="#mfecb996c76" y="208.150213"/>
     <use style="fill:#808080;fill-opacity:0.7;" x="136.381578" xlink:href="#mfecb996c76" y="181.839047"/>
     <use style="fill:#808080;fill-opacity:0.7;" x="135.278148" xlink:href="#mfecb996c76" y="203.867268"/>
     <use style="fill:#808080;fill-opacity:0.7;" x="194.076596" xlink:href="#mfecb996c76" y="159.832667"/>
     <use style="fill:#808080;fill-opacity:0.7;" x="174.421882" xlink:href="#mfecb996c76" y="170.631902"/>
     <use style="fill:#808080;fill-opacity:0.7;" x="148.491611" xlink:href="#mfecb996c76" y="195.470805"/>
     <use style="fill:#808080;fill-opacity:0.7;" x="200.916096" xlink:href="#mfecb996c76" y="147.4024"/>
     <use style="fill:#808080;fill-opacity:0.7;" x="144.095834" xlink:href="#mfecb996c76" y="181.902851"/>
     <use style="fill:#808080;fill-opacity:0.7;" x="137.211283" xlink:href="#mfecb996c76" y="191.389791"/>
     <use style="fill:#808080;fill-opacity:0.7;" x="200.516168" xlink:href="#mfecb996c76" y="105.781249"/>
     <use style="fill:#808080;fill-opacity:0.7;" x="81.9" xlink:href="#mfecb996c76" y="212.352291"/>
     <use style="fill:#808080;fill-opacity:0.7;" x="220.89256" xlink:href="#mfecb996c76" y="144.522235"/>
     <use style="fill:#808080;fill-opacity:0.7;" x="217.775722" xlink:href="#mfecb996c76" y="105.582077"/>
     <use style="fill:#808080;fill-opacity:0.7;" x="127.916663" xlink:href="#mfecb996c76" y="190.852469"/>
     <use style="fill:#808080;fill-opacity:0.7;" x="82.657555" xlink:href="#mfecb996c76" y="223.162383"/>
     <use style="fill:#808080;fill-opacity:0.7;" x="205.704344" xlink:href="#mfecb996c76" y="120.29828"/>
     <use style="fill:#808080;fill-opacity:0.7;" x="200.018171" xlink:href="#mfecb996c76" y="125.136189"/>
     <use style="fill:#808080;fill-opacity:0.7;" x="134.847168" xlink:href="#mfecb996c76" y="206.488033"/>
     <use style="fill:#808080;fill-opacity:0.7;" x="185.174316" xlink:href="#mfecb996c76" y="139.7919"/>
     <use style="fill:#808080;fill-opacity:0.7;" x="163.106095" xlink:href="#mfecb996c76" y="178.202773"/>
     <use style="fill:#808080;fill-opacity:0.7;" x="280.738519" xlink:href="#mfecb996c76" y="66.633315"/>
     <use style="fill:#808080;fill-opacity:0.7;" x="186.448555" xlink:href="#mfecb996c76" y="158.869943"/>
     <use style="fill:#808080;fill-opacity:0.7;" x="144.042788" xlink:href="#mfecb996c76" y="181.425075"/>
     <use style="fill:#808080;fill-opacity:0.7;" x="161.270188" xlink:href="#mfecb996c76" y="165.531327"/>
     <use style="fill:#808080;fill-opacity:0.7;" x="165.969502" xlink:href="#mfecb996c76" y="156.597769"/>
     <use style="fill:#808080;fill-opacity:0.7;" x="163.296198" xlink:href="#mfecb996c76" y="149.651693"/>
     <use style="fill:#808080;fill-opacity:0.7;" x="160.347108" xlink:href="#mfecb996c76" y="152.050187"/>
     <use style="fill:#808080;fill-opacity:0.7;" x="134.844632" xlink:href="#mfecb996c76" y="193.600728"/>
    </g>
   </g>
   <g id="matplotlib.axis_1">
    <g id="xtick_1">
     <g id="line2d_2">
      <defs>
       <path d="M 0 0 
L 0 3.5 
" id="mc1876f1bc1" style="stroke:#000000;stroke-width:0.8;"/>
      </defs>
      <g>
       <use style="stroke:#000000;stroke-width:0.8;" x="86.721562" xlink:href="#mc1876f1bc1" y="252"/>
      </g>
     </g>
     <g id="text_1">
      <!-- −20 -->
      <g transform="translate(76.169218 266.598437)scale(0.1 -0.1)">
       <defs>
        <path d="M 10.59375 35.5 
L 73.1875 35.5 
L 73.1875 27.203125 
L 10.59375 27.203125 
z
" id="DejaVuSans-8722"/>
        <path d="M 19.1875 8.296875 
L 53.609375 8.296875 
L 53.609375 0 
L 7.328125 0 
L 7.328125 8.296875 
Q 12.9375 14.109375 22.625 23.890625 
Q 32.328125 33.6875 34.8125 36.53125 
Q 39.546875 41.84375 41.421875 45.53125 
Q 43.3125 49.21875 43.3125 52.78125 
Q 43.3125 58.59375 39.234375 62.25 
Q 35.15625 65.921875 28.609375 65.921875 
Q 23.96875 65.921875 18.8125 64.3125 
Q 13.671875 62.703125 7.8125 59.421875 
L 7.8125 69.390625 
Q 13.765625 71.78125 18.9375 73 
Q 24.125 74.21875 28.421875 74.21875 
Q 39.75 74.21875 46.484375 68.546875 
Q 53.21875 62.890625 53.21875 53.421875 
Q 53.21875 48.921875 51.53125 44.890625 
Q 49.859375 40.875 45.40625 35.40625 
Q 44.1875 33.984375 37.640625 27.21875 
Q 31.109375 20.453125 19.1875 8.296875 
z
" id="DejaVuSans-50"/>
        <path d="M 31.78125 66.40625 
Q 24.171875 66.40625 20.328125 58.90625 
Q 16.5 51.421875 16.5 36.375 
Q 16.5 21.390625 20.328125 13.890625 
Q 24.171875 6.390625 31.78125 6.390625 
Q 39.453125 6.390625 43.28125 13.890625 
Q 47.125 21.390625 47.125 36.375 
Q 47.125 51.421875 43.28125 58.90625 
Q 39.453125 66.40625 31.78125 66.40625 
z
M 31.78125 74.21875 
Q 44.046875 74.21875 50.515625 64.515625 
Q 56.984375 54.828125 56.984375 36.375 
Q 56.984375 17.96875 50.515625 8.265625 
Q 44.046875 -1.421875 31.78125 -1.421875 
Q 19.53125 -1.421875 13.0625 8.265625 
Q 6.59375 17.96875 6.59375 36.375 
Q 6.59375 54.828125 13.0625 64.515625 
Q 19.53125 74.21875 31.78125 74.21875 
z
" id="DejaVuSans-48"/>
       </defs>
       <use xlink:href="#DejaVuSans-8722"/>
       <use x="83.789062" xlink:href="#DejaVuSans-50"/>
       <use x="147.412109" xlink:href="#DejaVuSans-48"/>
      </g>
     </g>
    </g>
    <g id="xtick_2">
     <g id="line2d_3">
      <g>
       <use style="stroke:#000000;stroke-width:0.8;" x="127.770703" xlink:href="#mc1876f1bc1" y="252"/>
      </g>
     </g>
     <g id="text_2">
      <!-- −10 -->
      <g transform="translate(117.218359 266.598437)scale(0.1 -0.1)">
       <defs>
        <path d="M 12.40625 8.296875 
L 28.515625 8.296875 
L 28.515625 63.921875 
L 10.984375 60.40625 
L 10.984375 69.390625 
L 28.421875 72.90625 
L 38.28125 72.90625 
L 38.28125 8.296875 
L 54.390625 8.296875 
L 54.390625 0 
L 12.40625 0 
z
" id="DejaVuSans-49"/>
       </defs>
       <use xlink:href="#DejaVuSans-8722"/>
       <use x="83.789062" xlink:href="#DejaVuSans-49"/>
       <use x="147.412109" xlink:href="#DejaVuSans-48"/>
      </g>
     </g>
    </g>
    <g id="xtick_3">
     <g id="line2d_4">
      <g>
       <use style="stroke:#000000;stroke-width:0.8;" x="168.819844" xlink:href="#mc1876f1bc1" y="252"/>
      </g>
     </g>
     <g id="text_3">
      <!-- 0 -->
      <g transform="translate(165.638594 266.598437)scale(0.1 -0.1)">
       <use xlink:href="#DejaVuSans-48"/>
      </g>
     </g>
    </g>
    <g id="xtick_4">
     <g id="line2d_5">
      <g>
       <use style="stroke:#000000;stroke-width:0.8;" x="209.868985" xlink:href="#mc1876f1bc1" y="252"/>
      </g>
     </g>
     <g id="text_4">
      <!-- 10 -->
      <g transform="translate(203.506485 266.598437)scale(0.1 -0.1)">
       <use xlink:href="#DejaVuSans-49"/>
       <use x="63.623047" xlink:href="#DejaVuSans-48"/>
      </g>
     </g>
    </g>
    <g id="xtick_5">
     <g id="line2d_6">
      <g>
       <use style="stroke:#000000;stroke-width:0.8;" x="250.918125" xlink:href="#mc1876f1bc1" y="252"/>
      </g>
     </g>
     <g id="text_5">
      <!-- 20 -->
      <g transform="translate(244.555625 266.598437)scale(0.1 -0.1)">
       <use xlink:href="#DejaVuSans-50"/>
       <use x="63.623047" xlink:href="#DejaVuSans-48"/>
      </g>
     </g>
    </g>
    <g id="xtick_6">
     <g id="line2d_7">
      <g>
       <use style="stroke:#000000;stroke-width:0.8;" x="291.967266" xlink:href="#mc1876f1bc1" y="252"/>
      </g>
     </g>
     <g id="text_6">
      <!-- 30 -->
      <g transform="translate(285.604766 266.598437)scale(0.1 -0.1)">
       <defs>
        <path d="M 40.578125 39.3125 
Q 47.65625 37.796875 51.625 33 
Q 55.609375 28.21875 55.609375 21.1875 
Q 55.609375 10.40625 48.1875 4.484375 
Q 40.765625 -1.421875 27.09375 -1.421875 
Q 22.515625 -1.421875 17.65625 -0.515625 
Q 12.796875 0.390625 7.625 2.203125 
L 7.625 11.71875 
Q 11.71875 9.328125 16.59375 8.109375 
Q 21.484375 6.890625 26.8125 6.890625 
Q 36.078125 6.890625 40.9375 10.546875 
Q 45.796875 14.203125 45.796875 21.1875 
Q 45.796875 27.640625 41.28125 31.265625 
Q 36.765625 34.90625 28.71875 34.90625 
L 20.21875 34.90625 
L 20.21875 43.015625 
L 29.109375 43.015625 
Q 36.375 43.015625 40.234375 45.921875 
Q 44.09375 48.828125 44.09375 54.296875 
Q 44.09375 59.90625 40.109375 62.90625 
Q 36.140625 65.921875 28.71875 65.921875 
Q 24.65625 65.921875 20.015625 65.03125 
Q 15.375 64.15625 9.8125 62.3125 
L 9.8125 71.09375 
Q 15.4375 72.65625 20.34375 73.4375 
Q 25.25 74.21875 29.59375 74.21875 
Q 40.828125 74.21875 47.359375 69.109375 
Q 53.90625 64.015625 53.90625 55.328125 
Q 53.90625 49.265625 50.4375 45.09375 
Q 46.96875 40.921875 40.578125 39.3125 
z
" id="DejaVuSans-51"/>
       </defs>
       <use xlink:href="#DejaVuSans-51"/>
       <use x="63.623047" xlink:href="#DejaVuSans-48"/>
      </g>
     </g>
    </g>
    <g id="xtick_7">
     <g id="line2d_8">
      <g>
       <use style="stroke:#000000;stroke-width:0.8;" x="333.016407" xlink:href="#mc1876f1bc1" y="252"/>
      </g>
     </g>
     <g id="text_7">
      <!-- 40 -->
      <g transform="translate(326.653907 266.598437)scale(0.1 -0.1)">
       <defs>
        <path d="M 37.796875 64.3125 
L 12.890625 25.390625 
L 37.796875 25.390625 
z
M 35.203125 72.90625 
L 47.609375 72.90625 
L 47.609375 25.390625 
L 58.015625 25.390625 
L 58.015625 17.1875 
L 47.609375 17.1875 
L 47.609375 0 
L 37.796875 0 
L 37.796875 17.1875 
L 4.890625 17.1875 
L 4.890625 26.703125 
z
" id="DejaVuSans-52"/>
       </defs>
       <use xlink:href="#DejaVuSans-52"/>
       <use x="63.623047" xlink:href="#DejaVuSans-48"/>
      </g>
     </g>
    </g>
    <g id="xtick_8">
     <g id="line2d_9">
      <g>
       <use style="stroke:#000000;stroke-width:0.8;" x="374.065548" xlink:href="#mc1876f1bc1" y="252"/>
      </g>
     </g>
     <g id="text_8">
      <!-- 50 -->
      <g transform="translate(367.703048 266.598437)scale(0.1 -0.1)">
       <defs>
        <path d="M 10.796875 72.90625 
L 49.515625 72.90625 
L 49.515625 64.59375 
L 19.828125 64.59375 
L 19.828125 46.734375 
Q 21.96875 47.46875 24.109375 47.828125 
Q 26.265625 48.1875 28.421875 48.1875 
Q 40.625 48.1875 47.75 41.5 
Q 54.890625 34.8125 54.890625 23.390625 
Q 54.890625 11.625 47.5625 5.09375 
Q 40.234375 -1.421875 26.90625 -1.421875 
Q 22.3125 -1.421875 17.546875 -0.640625 
Q 12.796875 0.140625 7.71875 1.703125 
L 7.71875 11.625 
Q 12.109375 9.234375 16.796875 8.0625 
Q 21.484375 6.890625 26.703125 6.890625 
Q 35.15625 6.890625 40.078125 11.328125 
Q 45.015625 15.765625 45.015625 23.390625 
Q 45.015625 31 40.078125 35.4375 
Q 35.15625 39.890625 26.703125 39.890625 
Q 22.75 39.890625 18.8125 39.015625 
Q 14.890625 38.140625 10.796875 36.28125 
z
" id="DejaVuSans-53"/>
       </defs>
       <use xlink:href="#DejaVuSans-53"/>
       <use x="63.623047" xlink:href="#DejaVuSans-48"/>
      </g>
     </g>
    </g>
    <g id="text_9">
     <!-- iModulon Activity:aerobiosis -->
     <g transform="translate(137.76375 281.79625)scale(0.12 -0.12)">
      <defs>
       <path d="M 9.421875 54.6875 
L 18.40625 54.6875 
L 18.40625 0 
L 9.421875 0 
z
M 9.421875 75.984375 
L 18.40625 75.984375 
L 18.40625 64.59375 
L 9.421875 64.59375 
z
" id="DejaVuSans-105"/>
       <path d="M 9.8125 72.90625 
L 24.515625 72.90625 
L 43.109375 23.296875 
L 61.8125 72.90625 
L 76.515625 72.90625 
L 76.515625 0 
L 66.890625 0 
L 66.890625 64.015625 
L 48.09375 14.015625 
L 38.1875 14.015625 
L 19.390625 64.015625 
L 19.390625 0 
L 9.8125 0 
z
" id="DejaVuSans-77"/>
       <path d="M 30.609375 48.390625 
Q 23.390625 48.390625 19.1875 42.75 
Q 14.984375 37.109375 14.984375 27.296875 
Q 14.984375 17.484375 19.15625 11.84375 
Q 23.34375 6.203125 30.609375 6.203125 
Q 37.796875 6.203125 41.984375 11.859375 
Q 46.1875 17.53125 46.1875 27.296875 
Q 46.1875 37.015625 41.984375 42.703125 
Q 37.796875 48.390625 30.609375 48.390625 
z
M 30.609375 56 
Q 42.328125 56 49.015625 48.375 
Q 55.71875 40.765625 55.71875 27.296875 
Q 55.71875 13.875 49.015625 6.21875 
Q 42.328125 -1.421875 30.609375 -1.421875 
Q 18.84375 -1.421875 12.171875 6.21875 
Q 5.515625 13.875 5.515625 27.296875 
Q 5.515625 40.765625 12.171875 48.375 
Q 18.84375 56 30.609375 56 
z
" id="DejaVuSans-111"/>
       <path d="M 45.40625 46.390625 
L 45.40625 75.984375 
L 54.390625 75.984375 
L 54.390625 0 
L 45.40625 0 
L 45.40625 8.203125 
Q 42.578125 3.328125 38.25 0.953125 
Q 33.9375 -1.421875 27.875 -1.421875 
Q 17.96875 -1.421875 11.734375 6.484375 
Q 5.515625 14.40625 5.515625 27.296875 
Q 5.515625 40.1875 11.734375 48.09375 
Q 17.96875 56 27.875 56 
Q 33.9375 56 38.25 53.625 
Q 42.578125 51.265625 45.40625 46.390625 
z
M 14.796875 27.296875 
Q 14.796875 17.390625 18.875 11.75 
Q 22.953125 6.109375 30.078125 6.109375 
Q 37.203125 6.109375 41.296875 11.75 
Q 45.40625 17.390625 45.40625 27.296875 
Q 45.40625 37.203125 41.296875 42.84375 
Q 37.203125 48.484375 30.078125 48.484375 
Q 22.953125 48.484375 18.875 42.84375 
Q 14.796875 37.203125 14.796875 27.296875 
z
" id="DejaVuSans-100"/>
       <path d="M 8.5 21.578125 
L 8.5 54.6875 
L 17.484375 54.6875 
L 17.484375 21.921875 
Q 17.484375 14.15625 20.5 10.265625 
Q 23.53125 6.390625 29.59375 6.390625 
Q 36.859375 6.390625 41.078125 11.03125 
Q 45.3125 15.671875 45.3125 23.6875 
L 45.3125 54.6875 
L 54.296875 54.6875 
L 54.296875 0 
L 45.3125 0 
L 45.3125 8.40625 
Q 42.046875 3.421875 37.71875 1 
Q 33.40625 -1.421875 27.6875 -1.421875 
Q 18.265625 -1.421875 13.375 4.4375 
Q 8.5 10.296875 8.5 21.578125 
z
M 31.109375 56 
z
" id="DejaVuSans-117"/>
       <path d="M 9.421875 75.984375 
L 18.40625 75.984375 
L 18.40625 0 
L 9.421875 0 
z
" id="DejaVuSans-108"/>
       <path d="M 54.890625 33.015625 
L 54.890625 0 
L 45.90625 0 
L 45.90625 32.71875 
Q 45.90625 40.484375 42.875 44.328125 
Q 39.84375 48.1875 33.796875 48.1875 
Q 26.515625 48.1875 22.3125 43.546875 
Q 18.109375 38.921875 18.109375 30.90625 
L 18.109375 0 
L 9.078125 0 
L 9.078125 54.6875 
L 18.109375 54.6875 
L 18.109375 46.1875 
Q 21.34375 51.125 25.703125 53.5625 
Q 30.078125 56 35.796875 56 
Q 45.21875 56 50.046875 50.171875 
Q 54.890625 44.34375 54.890625 33.015625 
z
" id="DejaVuSans-110"/>
       <path id="DejaVuSans-32"/>
       <path d="M 34.1875 63.1875 
L 20.796875 26.90625 
L 47.609375 26.90625 
z
M 28.609375 72.90625 
L 39.796875 72.90625 
L 67.578125 0 
L 57.328125 0 
L 50.6875 18.703125 
L 17.828125 18.703125 
L 11.1875 0 
L 0.78125 0 
z
" id="DejaVuSans-65"/>
       <path d="M 48.78125 52.59375 
L 48.78125 44.1875 
Q 44.96875 46.296875 41.140625 47.34375 
Q 37.3125 48.390625 33.40625 48.390625 
Q 24.65625 48.390625 19.8125 42.84375 
Q 14.984375 37.3125 14.984375 27.296875 
Q 14.984375 17.28125 19.8125 11.734375 
Q 24.65625 6.203125 33.40625 6.203125 
Q 37.3125 6.203125 41.140625 7.25 
Q 44.96875 8.296875 48.78125 10.40625 
L 48.78125 2.09375 
Q 45.015625 0.34375 40.984375 -0.53125 
Q 36.96875 -1.421875 32.421875 -1.421875 
Q 20.0625 -1.421875 12.78125 6.34375 
Q 5.515625 14.109375 5.515625 27.296875 
Q 5.515625 40.671875 12.859375 48.328125 
Q 20.21875 56 33.015625 56 
Q 37.15625 56 41.109375 55.140625 
Q 45.0625 54.296875 48.78125 52.59375 
z
" id="DejaVuSans-99"/>
       <path d="M 18.3125 70.21875 
L 18.3125 54.6875 
L 36.8125 54.6875 
L 36.8125 47.703125 
L 18.3125 47.703125 
L 18.3125 18.015625 
Q 18.3125 11.328125 20.140625 9.421875 
Q 21.96875 7.515625 27.59375 7.515625 
L 36.8125 7.515625 
L 36.8125 0 
L 27.59375 0 
Q 17.1875 0 13.234375 3.875 
Q 9.28125 7.765625 9.28125 18.015625 
L 9.28125 47.703125 
L 2.6875 47.703125 
L 2.6875 54.6875 
L 9.28125 54.6875 
L 9.28125 70.21875 
z
" id="DejaVuSans-116"/>
       <path d="M 2.984375 54.6875 
L 12.5 54.6875 
L 29.59375 8.796875 
L 46.6875 54.6875 
L 56.203125 54.6875 
L 35.6875 0 
L 23.484375 0 
z
" id="DejaVuSans-118"/>
       <path d="M 32.171875 -5.078125 
Q 28.375 -14.84375 24.75 -17.8125 
Q 21.140625 -20.796875 15.09375 -20.796875 
L 7.90625 -20.796875 
L 7.90625 -13.28125 
L 13.1875 -13.28125 
Q 16.890625 -13.28125 18.9375 -11.515625 
Q 21 -9.765625 23.484375 -3.21875 
L 25.09375 0.875 
L 2.984375 54.6875 
L 12.5 54.6875 
L 29.59375 11.921875 
L 46.6875 54.6875 
L 56.203125 54.6875 
z
" id="DejaVuSans-121"/>
       <path d="M 11.71875 12.40625 
L 22.015625 12.40625 
L 22.015625 0 
L 11.71875 0 
z
M 11.71875 51.703125 
L 22.015625 51.703125 
L 22.015625 39.3125 
L 11.71875 39.3125 
z
" id="DejaVuSans-58"/>
       <path d="M 34.28125 27.484375 
Q 23.390625 27.484375 19.1875 25 
Q 14.984375 22.515625 14.984375 16.5 
Q 14.984375 11.71875 18.140625 8.90625 
Q 21.296875 6.109375 26.703125 6.109375 
Q 34.1875 6.109375 38.703125 11.40625 
Q 43.21875 16.703125 43.21875 25.484375 
L 43.21875 27.484375 
z
M 52.203125 31.203125 
L 52.203125 0 
L 43.21875 0 
L 43.21875 8.296875 
Q 40.140625 3.328125 35.546875 0.953125 
Q 30.953125 -1.421875 24.3125 -1.421875 
Q 15.921875 -1.421875 10.953125 3.296875 
Q 6 8.015625 6 15.921875 
Q 6 25.140625 12.171875 29.828125 
Q 18.359375 34.515625 30.609375 34.515625 
L 43.21875 34.515625 
L 43.21875 35.40625 
Q 43.21875 41.609375 39.140625 45 
Q 35.0625 48.390625 27.6875 48.390625 
Q 23 48.390625 18.546875 47.265625 
Q 14.109375 46.140625 10.015625 43.890625 
L 10.015625 52.203125 
Q 14.9375 54.109375 19.578125 55.046875 
Q 24.21875 56 28.609375 56 
Q 40.484375 56 46.34375 49.84375 
Q 52.203125 43.703125 52.203125 31.203125 
z
" id="DejaVuSans-97"/>
       <path d="M 56.203125 29.59375 
L 56.203125 25.203125 
L 14.890625 25.203125 
Q 15.484375 15.921875 20.484375 11.0625 
Q 25.484375 6.203125 34.421875 6.203125 
Q 39.59375 6.203125 44.453125 7.46875 
Q 49.3125 8.734375 54.109375 11.28125 
L 54.109375 2.78125 
Q 49.265625 0.734375 44.1875 -0.34375 
Q 39.109375 -1.421875 33.890625 -1.421875 
Q 20.796875 -1.421875 13.15625 6.1875 
Q 5.515625 13.8125 5.515625 26.8125 
Q 5.515625 40.234375 12.765625 48.109375 
Q 20.015625 56 32.328125 56 
Q 43.359375 56 49.78125 48.890625 
Q 56.203125 41.796875 56.203125 29.59375 
z
M 47.21875 32.234375 
Q 47.125 39.59375 43.09375 43.984375 
Q 39.0625 48.390625 32.421875 48.390625 
Q 24.90625 48.390625 20.390625 44.140625 
Q 15.875 39.890625 15.1875 32.171875 
z
" id="DejaVuSans-101"/>
       <path d="M 41.109375 46.296875 
Q 39.59375 47.171875 37.8125 47.578125 
Q 36.03125 48 33.890625 48 
Q 26.265625 48 22.1875 43.046875 
Q 18.109375 38.09375 18.109375 28.8125 
L 18.109375 0 
L 9.078125 0 
L 9.078125 54.6875 
L 18.109375 54.6875 
L 18.109375 46.1875 
Q 20.953125 51.171875 25.484375 53.578125 
Q 30.03125 56 36.53125 56 
Q 37.453125 56 38.578125 55.875 
Q 39.703125 55.765625 41.0625 55.515625 
z
" id="DejaVuSans-114"/>
       <path d="M 48.6875 27.296875 
Q 48.6875 37.203125 44.609375 42.84375 
Q 40.53125 48.484375 33.40625 48.484375 
Q 26.265625 48.484375 22.1875 42.84375 
Q 18.109375 37.203125 18.109375 27.296875 
Q 18.109375 17.390625 22.1875 11.75 
Q 26.265625 6.109375 33.40625 6.109375 
Q 40.53125 6.109375 44.609375 11.75 
Q 48.6875 17.390625 48.6875 27.296875 
z
M 18.109375 46.390625 
Q 20.953125 51.265625 25.265625 53.625 
Q 29.59375 56 35.59375 56 
Q 45.5625 56 51.78125 48.09375 
Q 58.015625 40.1875 58.015625 27.296875 
Q 58.015625 14.40625 51.78125 6.484375 
Q 45.5625 -1.421875 35.59375 -1.421875 
Q 29.59375 -1.421875 25.265625 0.953125 
Q 20.953125 3.328125 18.109375 8.203125 
L 18.109375 0 
L 9.078125 0 
L 9.078125 75.984375 
L 18.109375 75.984375 
z
" id="DejaVuSans-98"/>
       <path d="M 44.28125 53.078125 
L 44.28125 44.578125 
Q 40.484375 46.53125 36.375 47.5 
Q 32.28125 48.484375 27.875 48.484375 
Q 21.1875 48.484375 17.84375 46.4375 
Q 14.5 44.390625 14.5 40.28125 
Q 14.5 37.15625 16.890625 35.375 
Q 19.28125 33.59375 26.515625 31.984375 
L 29.59375 31.296875 
Q 39.15625 29.25 43.1875 25.515625 
Q 47.21875 21.78125 47.21875 15.09375 
Q 47.21875 7.46875 41.1875 3.015625 
Q 35.15625 -1.421875 24.609375 -1.421875 
Q 20.21875 -1.421875 15.453125 -0.5625 
Q 10.6875 0.296875 5.421875 2 
L 5.421875 11.28125 
Q 10.40625 8.6875 15.234375 7.390625 
Q 20.0625 6.109375 24.8125 6.109375 
Q 31.15625 6.109375 34.5625 8.28125 
Q 37.984375 10.453125 37.984375 14.40625 
Q 37.984375 18.0625 35.515625 20.015625 
Q 33.0625 21.96875 24.703125 23.78125 
L 21.578125 24.515625 
Q 13.234375 26.265625 9.515625 29.90625 
Q 5.8125 33.546875 5.8125 39.890625 
Q 5.8125 47.609375 11.28125 51.796875 
Q 16.75 56 26.8125 56 
Q 31.78125 56 36.171875 55.265625 
Q 40.578125 54.546875 44.28125 53.078125 
z
" id="DejaVuSans-115"/>
      </defs>
      <use xlink:href="#DejaVuSans-105"/>
      <use x="27.783203" xlink:href="#DejaVuSans-77"/>
      <use x="114.0625" xlink:href="#DejaVuSans-111"/>
      <use x="175.244141" xlink:href="#DejaVuSans-100"/>
      <use x="238.720703" xlink:href="#DejaVuSans-117"/>
      <use x="302.099609" xlink:href="#DejaVuSans-108"/>
      <use x="329.882812" xlink:href="#DejaVuSans-111"/>
      <use x="391.064453" xlink:href="#DejaVuSans-110"/>
      <use x="454.443359" xlink:href="#DejaVuSans-32"/>
      <use x="486.230469" xlink:href="#DejaVuSans-65"/>
      <use x="552.888672" xlink:href="#DejaVuSans-99"/>
      <use x="607.869141" xlink:href="#DejaVuSans-116"/>
      <use x="647.078125" xlink:href="#DejaVuSans-105"/>
      <use x="674.861328" xlink:href="#DejaVuSans-118"/>
      <use x="734.041016" xlink:href="#DejaVuSans-105"/>
      <use x="761.824219" xlink:href="#DejaVuSans-116"/>
      <use x="801.033203" xlink:href="#DejaVuSans-121"/>
      <use x="852.962891" xlink:href="#DejaVuSans-58"/>
      <use x="886.654297" xlink:href="#DejaVuSans-97"/>
      <use x="947.933594" xlink:href="#DejaVuSans-101"/>
      <use x="1009.457031" xlink:href="#DejaVuSans-114"/>
      <use x="1048.320312" xlink:href="#DejaVuSans-111"/>
      <use x="1109.501953" xlink:href="#DejaVuSans-98"/>
      <use x="1172.978516" xlink:href="#DejaVuSans-105"/>
      <use x="1200.761719" xlink:href="#DejaVuSans-111"/>
      <use x="1261.943359" xlink:href="#DejaVuSans-115"/>
      <use x="1314.042969" xlink:href="#DejaVuSans-105"/>
      <use x="1341.826172" xlink:href="#DejaVuSans-115"/>
     </g>
    </g>
   </g>
   <g id="matplotlib.axis_2">
    <g id="ytick_1">
     <g id="line2d_10">
      <defs>
       <path d="M 0 0 
L -3.5 0 
" id="m7c85220762" style="stroke:#000000;stroke-width:0.8;"/>
      </defs>
      <g>
       <use style="stroke:#000000;stroke-width:0.8;" x="54" xlink:href="#m7c85220762" y="228.494906"/>
      </g>
     </g>
     <g id="text_10">
      <!-- −20 -->
      <g transform="translate(25.895312 232.294124)scale(0.1 -0.1)">
       <use xlink:href="#DejaVuSans-8722"/>
       <use x="83.789062" xlink:href="#DejaVuSans-50"/>
       <use x="147.412109" xlink:href="#DejaVuSans-48"/>
      </g>
     </g>
    </g>
    <g id="ytick_2">
     <g id="line2d_11">
      <g>
       <use style="stroke:#000000;stroke-width:0.8;" x="54" xlink:href="#m7c85220762" y="194.850232"/>
      </g>
     </g>
     <g id="text_11">
      <!-- −10 -->
      <g transform="translate(25.895312 198.649451)scale(0.1 -0.1)">
       <use xlink:href="#DejaVuSans-8722"/>
       <use x="83.789062" xlink:href="#DejaVuSans-49"/>
       <use x="147.412109" xlink:href="#DejaVuSans-48"/>
      </g>
     </g>
    </g>
    <g id="ytick_3">
     <g id="line2d_12">
      <g>
       <use style="stroke:#000000;stroke-width:0.8;" x="54" xlink:href="#m7c85220762" y="161.205558"/>
      </g>
     </g>
     <g id="text_12">
      <!-- 0 -->
      <g transform="translate(40.6375 165.004777)scale(0.1 -0.1)">
       <use xlink:href="#DejaVuSans-48"/>
      </g>
     </g>
    </g>
    <g id="ytick_4">
     <g id="line2d_13">
      <g>
       <use style="stroke:#000000;stroke-width:0.8;" x="54" xlink:href="#m7c85220762" y="127.560884"/>
      </g>
     </g>
     <g id="text_13">
      <!-- 10 -->
      <g transform="translate(34.275 131.360103)scale(0.1 -0.1)">
       <use xlink:href="#DejaVuSans-49"/>
       <use x="63.623047" xlink:href="#DejaVuSans-48"/>
      </g>
     </g>
    </g>
    <g id="ytick_5">
     <g id="line2d_14">
      <g>
       <use style="stroke:#000000;stroke-width:0.8;" x="54" xlink:href="#m7c85220762" y="93.916211"/>
      </g>
     </g>
     <g id="text_14">
      <!-- 20 -->
      <g transform="translate(34.275 97.715429)scale(0.1 -0.1)">
       <use xlink:href="#DejaVuSans-50"/>
       <use x="63.623047" xlink:href="#DejaVuSans-48"/>
      </g>
     </g>
    </g>
    <g id="ytick_6">
     <g id="line2d_15">
      <g>
       <use style="stroke:#000000;stroke-width:0.8;" x="54" xlink:href="#m7c85220762" y="60.271537"/>
      </g>
     </g>
     <g id="text_15">
      <!-- 30 -->
      <g transform="translate(34.275 64.070756)scale(0.1 -0.1)">
       <use xlink:href="#DejaVuSans-51"/>
       <use x="63.623047" xlink:href="#DejaVuSans-48"/>
      </g>
     </g>
    </g>
    <g id="text_16">
     <!-- iModulon Activity:Anaerobiosis -->
     <g transform="translate(19.399687 234.823125)rotate(-90)scale(0.12 -0.12)">
      <use xlink:href="#DejaVuSans-105"/>
      <use x="27.783203" xlink:href="#DejaVuSans-77"/>
      <use x="114.0625" xlink:href="#DejaVuSans-111"/>
      <use x="175.244141" xlink:href="#DejaVuSans-100"/>
      <use x="238.720703" xlink:href="#DejaVuSans-117"/>
      <use x="302.099609" xlink:href="#DejaVuSans-108"/>
      <use x="329.882812" xlink:href="#DejaVuSans-111"/>
      <use x="391.064453" xlink:href="#DejaVuSans-110"/>
      <use x="454.443359" xlink:href="#DejaVuSans-32"/>
      <use x="486.230469" xlink:href="#DejaVuSans-65"/>
      <use x="552.888672" xlink:href="#DejaVuSans-99"/>
      <use x="607.869141" xlink:href="#DejaVuSans-116"/>
      <use x="647.078125" xlink:href="#DejaVuSans-105"/>
      <use x="674.861328" xlink:href="#DejaVuSans-118"/>
      <use x="734.041016" xlink:href="#DejaVuSans-105"/>
      <use x="761.824219" xlink:href="#DejaVuSans-116"/>
      <use x="801.033203" xlink:href="#DejaVuSans-121"/>
      <use x="852.962891" xlink:href="#DejaVuSans-58"/>
      <use x="886.654297" xlink:href="#DejaVuSans-65"/>
      <use x="955.0625" xlink:href="#DejaVuSans-110"/>
      <use x="1018.441406" xlink:href="#DejaVuSans-97"/>
      <use x="1079.720703" xlink:href="#DejaVuSans-101"/>
      <use x="1141.244141" xlink:href="#DejaVuSans-114"/>
      <use x="1180.107422" xlink:href="#DejaVuSans-111"/>
      <use x="1241.289062" xlink:href="#DejaVuSans-98"/>
      <use x="1304.765625" xlink:href="#DejaVuSans-105"/>
      <use x="1332.548828" xlink:href="#DejaVuSans-111"/>
      <use x="1393.730469" xlink:href="#DejaVuSans-115"/>
      <use x="1445.830078" xlink:href="#DejaVuSans-105"/>
      <use x="1473.613281" xlink:href="#DejaVuSans-115"/>
     </g>
    </g>
   </g>
   <g id="LineCollection_1">
    <path clip-path="url(#p13aad047ff)" d="M 54 161.205558 
L 388.8 161.205558 
" style="fill:none;stroke:#808080;stroke-width:0.5;"/>
   </g>
   <g id="LineCollection_2">
    <path clip-path="url(#p13aad047ff)" d="M 168.819844 252 
L 168.819844 34.56 
" style="fill:none;stroke:#808080;stroke-width:0.5;"/>
   </g>
   <g id="patch_3">
    <path d="M 54 252 
L 54 34.56 
" style="fill:none;stroke:#000000;stroke-linecap:square;stroke-linejoin:miter;stroke-width:0.8;"/>
   </g>
   <g id="patch_4">
    <path d="M 388.8 252 
L 388.8 34.56 
" style="fill:none;stroke:#000000;stroke-linecap:square;stroke-linejoin:miter;stroke-width:0.8;"/>
   </g>
   <g id="patch_5">
    <path d="M 54 252 
L 388.8 252 
" style="fill:none;stroke:#000000;stroke-linecap:square;stroke-linejoin:miter;stroke-width:0.8;"/>
   </g>
   <g id="patch_6">
    <path d="M 54 34.56 
L 388.8 34.56 
" style="fill:none;stroke:#000000;stroke-linecap:square;stroke-linejoin:miter;stroke-width:0.8;"/>
   </g>
   <g id="text_17">
    <!-- cadA-operon -->
    <g transform="translate(157.354692 113.785208)scale(0.1 -0.1)">
     <defs>
      <path d="M 4.890625 31.390625 
L 31.203125 31.390625 
L 31.203125 23.390625 
L 4.890625 23.390625 
z
" id="DejaVuSans-45"/>
      <path d="M 18.109375 8.203125 
L 18.109375 -20.796875 
L 9.078125 -20.796875 
L 9.078125 54.6875 
L 18.109375 54.6875 
L 18.109375 46.390625 
Q 20.953125 51.265625 25.265625 53.625 
Q 29.59375 56 35.59375 56 
Q 45.5625 56 51.78125 48.09375 
Q 58.015625 40.1875 58.015625 27.296875 
Q 58.015625 14.40625 51.78125 6.484375 
Q 45.5625 -1.421875 35.59375 -1.421875 
Q 29.59375 -1.421875 25.265625 0.953125 
Q 20.953125 3.328125 18.109375 8.203125 
z
M 48.6875 27.296875 
Q 48.6875 37.203125 44.609375 42.84375 
Q 40.53125 48.484375 33.40625 48.484375 
Q 26.265625 48.484375 22.1875 42.84375 
Q 18.109375 37.203125 18.109375 27.296875 
Q 18.109375 17.390625 22.1875 11.75 
Q 26.265625 6.109375 33.40625 6.109375 
Q 40.53125 6.109375 44.609375 11.75 
Q 48.6875 17.390625 48.6875 27.296875 
z
" id="DejaVuSans-112"/>
     </defs>
     <use xlink:href="#DejaVuSans-99"/>
     <use x="54.980469" xlink:href="#DejaVuSans-97"/>
     <use x="116.259766" xlink:href="#DejaVuSans-100"/>
     <use x="179.736328" xlink:href="#DejaVuSans-65"/>
     <use x="245.894531" xlink:href="#DejaVuSans-45"/>
     <use x="283.853516" xlink:href="#DejaVuSans-111"/>
     <use x="345.035156" xlink:href="#DejaVuSans-112"/>
     <use x="408.511719" xlink:href="#DejaVuSans-101"/>
     <use x="470.035156" xlink:href="#DejaVuSans-114"/>
     <use x="508.898438" xlink:href="#DejaVuSans-111"/>
     <use x="570.080078" xlink:href="#DejaVuSans-110"/>
    </g>
   </g>
   <g id="text_18">
    <!-- Zur -->
    <g transform="translate(98.986325 143.7713)scale(0.1 -0.1)">
     <defs>
      <path d="M 5.609375 72.90625 
L 62.890625 72.90625 
L 62.890625 65.375 
L 16.796875 8.296875 
L 64.015625 8.296875 
L 64.015625 0 
L 4.5 0 
L 4.5 7.515625 
L 50.59375 64.59375 
L 5.609375 64.59375 
z
" id="DejaVuSans-90"/>
     </defs>
     <use xlink:href="#DejaVuSans-90"/>
     <use x="68.505859" xlink:href="#DejaVuSans-117"/>
     <use x="131.884766" xlink:href="#DejaVuSans-114"/>
    </g>
   </g>
   <g id="text_19">
    <!-- acpP-operon -->
    <g transform="translate(246.54035 49.100313)scale(0.1 -0.1)">
     <defs>
      <path d="M 19.671875 64.796875 
L 19.671875 37.40625 
L 32.078125 37.40625 
Q 38.96875 37.40625 42.71875 40.96875 
Q 46.484375 44.53125 46.484375 51.125 
Q 46.484375 57.671875 42.71875 61.234375 
Q 38.96875 64.796875 32.078125 64.796875 
z
M 9.8125 72.90625 
L 32.078125 72.90625 
Q 44.34375 72.90625 50.609375 67.359375 
Q 56.890625 61.8125 56.890625 51.125 
Q 56.890625 40.328125 50.609375 34.8125 
Q 44.34375 29.296875 32.078125 29.296875 
L 19.671875 29.296875 
L 19.671875 0 
L 9.8125 0 
z
" id="DejaVuSans-80"/>
     </defs>
     <use xlink:href="#DejaVuSans-97"/>
     <use x="61.279297" xlink:href="#DejaVuSans-99"/>
     <use x="116.259766" xlink:href="#DejaVuSans-112"/>
     <use x="179.736328" xlink:href="#DejaVuSans-80"/>
     <use x="237.789062" xlink:href="#DejaVuSans-45"/>
     <use x="275.748047" xlink:href="#DejaVuSans-111"/>
     <use x="336.929688" xlink:href="#DejaVuSans-112"/>
     <use x="400.40625" xlink:href="#DejaVuSans-101"/>
     <use x="461.929688" xlink:href="#DejaVuSans-114"/>
     <use x="500.792969" xlink:href="#DejaVuSans-111"/>
     <use x="561.974609" xlink:href="#DejaVuSans-110"/>
    </g>
   </g>
   <g id="text_20">
    <!-- sigC -->
    <g transform="translate(117.069096 125.749334)scale(0.1 -0.1)">
     <defs>
      <path d="M 45.40625 27.984375 
Q 45.40625 37.75 41.375 43.109375 
Q 37.359375 48.484375 30.078125 48.484375 
Q 22.859375 48.484375 18.828125 43.109375 
Q 14.796875 37.75 14.796875 27.984375 
Q 14.796875 18.265625 18.828125 12.890625 
Q 22.859375 7.515625 30.078125 7.515625 
Q 37.359375 7.515625 41.375 12.890625 
Q 45.40625 18.265625 45.40625 27.984375 
z
M 54.390625 6.78125 
Q 54.390625 -7.171875 48.1875 -13.984375 
Q 42 -20.796875 29.203125 -20.796875 
Q 24.46875 -20.796875 20.265625 -20.09375 
Q 16.0625 -19.390625 12.109375 -17.921875 
L 12.109375 -9.1875 
Q 16.0625 -11.328125 19.921875 -12.34375 
Q 23.78125 -13.375 27.78125 -13.375 
Q 36.625 -13.375 41.015625 -8.765625 
Q 45.40625 -4.15625 45.40625 5.171875 
L 45.40625 9.625 
Q 42.625 4.78125 38.28125 2.390625 
Q 33.9375 0 27.875 0 
Q 17.828125 0 11.671875 7.65625 
Q 5.515625 15.328125 5.515625 27.984375 
Q 5.515625 40.671875 11.671875 48.328125 
Q 17.828125 56 27.875 56 
Q 33.9375 56 38.28125 53.609375 
Q 42.625 51.21875 45.40625 46.390625 
L 45.40625 54.6875 
L 54.390625 54.6875 
z
" id="DejaVuSans-103"/>
      <path d="M 64.40625 67.28125 
L 64.40625 56.890625 
Q 59.421875 61.53125 53.78125 63.8125 
Q 48.140625 66.109375 41.796875 66.109375 
Q 29.296875 66.109375 22.65625 58.46875 
Q 16.015625 50.828125 16.015625 36.375 
Q 16.015625 21.96875 22.65625 14.328125 
Q 29.296875 6.6875 41.796875 6.6875 
Q 48.140625 6.6875 53.78125 8.984375 
Q 59.421875 11.28125 64.40625 15.921875 
L 64.40625 5.609375 
Q 59.234375 2.09375 53.4375 0.328125 
Q 47.65625 -1.421875 41.21875 -1.421875 
Q 24.65625 -1.421875 15.125 8.703125 
Q 5.609375 18.84375 5.609375 36.375 
Q 5.609375 53.953125 15.125 64.078125 
Q 24.65625 74.21875 41.21875 74.21875 
Q 47.75 74.21875 53.53125 72.484375 
Q 59.328125 70.75 64.40625 67.28125 
z
" id="DejaVuSans-67"/>
     </defs>
     <use xlink:href="#DejaVuSans-115"/>
     <use x="52.099609" xlink:href="#DejaVuSans-105"/>
     <use x="79.882812" xlink:href="#DejaVuSans-103"/>
     <use x="143.359375" xlink:href="#DejaVuSans-67"/>
    </g>
   </g>
   <g id="text_21">
    <!-- Growth-related -->
    <g transform="translate(103.579972 83.01306)scale(0.1 -0.1)">
     <defs>
      <path d="M 59.515625 10.40625 
L 59.515625 29.984375 
L 43.40625 29.984375 
L 43.40625 38.09375 
L 69.28125 38.09375 
L 69.28125 6.78125 
Q 63.578125 2.734375 56.6875 0.65625 
Q 49.8125 -1.421875 42 -1.421875 
Q 24.90625 -1.421875 15.25 8.5625 
Q 5.609375 18.5625 5.609375 36.375 
Q 5.609375 54.25 15.25 64.234375 
Q 24.90625 74.21875 42 74.21875 
Q 49.125 74.21875 55.546875 72.453125 
Q 61.96875 70.703125 67.390625 67.28125 
L 67.390625 56.78125 
Q 61.921875 61.421875 55.765625 63.765625 
Q 49.609375 66.109375 42.828125 66.109375 
Q 29.4375 66.109375 22.71875 58.640625 
Q 16.015625 51.171875 16.015625 36.375 
Q 16.015625 21.625 22.71875 14.15625 
Q 29.4375 6.6875 42.828125 6.6875 
Q 48.046875 6.6875 52.140625 7.59375 
Q 56.25 8.5 59.515625 10.40625 
z
" id="DejaVuSans-71"/>
      <path d="M 4.203125 54.6875 
L 13.1875 54.6875 
L 24.421875 12.015625 
L 35.59375 54.6875 
L 46.1875 54.6875 
L 57.421875 12.015625 
L 68.609375 54.6875 
L 77.59375 54.6875 
L 63.28125 0 
L 52.6875 0 
L 40.921875 44.828125 
L 29.109375 0 
L 18.5 0 
z
" id="DejaVuSans-119"/>
      <path d="M 54.890625 33.015625 
L 54.890625 0 
L 45.90625 0 
L 45.90625 32.71875 
Q 45.90625 40.484375 42.875 44.328125 
Q 39.84375 48.1875 33.796875 48.1875 
Q 26.515625 48.1875 22.3125 43.546875 
Q 18.109375 38.921875 18.109375 30.90625 
L 18.109375 0 
L 9.078125 0 
L 9.078125 75.984375 
L 18.109375 75.984375 
L 18.109375 46.1875 
Q 21.34375 51.125 25.703125 53.5625 
Q 30.078125 56 35.796875 56 
Q 45.21875 56 50.046875 50.171875 
Q 54.890625 44.34375 54.890625 33.015625 
z
" id="DejaVuSans-104"/>
     </defs>
     <use xlink:href="#DejaVuSans-71"/>
     <use x="77.490234" xlink:href="#DejaVuSans-114"/>
     <use x="116.353516" xlink:href="#DejaVuSans-111"/>
     <use x="177.535156" xlink:href="#DejaVuSans-119"/>
     <use x="259.322266" xlink:href="#DejaVuSans-116"/>
     <use x="298.53125" xlink:href="#DejaVuSans-104"/>
     <use x="361.910156" xlink:href="#DejaVuSans-45"/>
     <use x="397.994141" xlink:href="#DejaVuSans-114"/>
     <use x="436.857422" xlink:href="#DejaVuSans-101"/>
     <use x="498.380859" xlink:href="#DejaVuSans-108"/>
     <use x="526.164062" xlink:href="#DejaVuSans-97"/>
     <use x="587.443359" xlink:href="#DejaVuSans-116"/>
     <use x="626.652344" xlink:href="#DejaVuSans-101"/>
     <use x="688.175781" xlink:href="#DejaVuSans-100"/>
    </g>
   </g>
   <g id="text_22">
    <!-- translation-related -->
    <g transform="translate(143.867864 141.230095)scale(0.1 -0.1)">
     <use xlink:href="#DejaVuSans-116"/>
     <use x="39.208984" xlink:href="#DejaVuSans-114"/>
     <use x="80.322266" xlink:href="#DejaVuSans-97"/>
     <use x="141.601562" xlink:href="#DejaVuSans-110"/>
     <use x="204.980469" xlink:href="#DejaVuSans-115"/>
     <use x="257.080078" xlink:href="#DejaVuSans-108"/>
     <use x="284.863281" xlink:href="#DejaVuSans-97"/>
     <use x="346.142578" xlink:href="#DejaVuSans-116"/>
     <use x="385.351562" xlink:href="#DejaVuSans-105"/>
     <use x="413.134766" xlink:href="#DejaVuSans-111"/>
     <use x="474.316406" xlink:href="#DejaVuSans-110"/>
     <use x="537.695312" xlink:href="#DejaVuSans-45"/>
     <use x="573.779297" xlink:href="#DejaVuSans-114"/>
     <use x="612.642578" xlink:href="#DejaVuSans-101"/>
     <use x="674.166016" xlink:href="#DejaVuSans-108"/>
     <use x="701.949219" xlink:href="#DejaVuSans-97"/>
     <use x="763.228516" xlink:href="#DejaVuSans-116"/>
     <use x="802.4375" xlink:href="#DejaVuSans-101"/>
     <use x="863.960938" xlink:href="#DejaVuSans-100"/>
    </g>
   </g>
   <g id="text_23">
    <!-- Tyrosine-metabolism -->
    <g transform="translate(230.577156 95.922686)scale(0.1 -0.1)">
     <defs>
      <path d="M -0.296875 72.90625 
L 61.375 72.90625 
L 61.375 64.59375 
L 35.5 64.59375 
L 35.5 0 
L 25.59375 0 
L 25.59375 64.59375 
L -0.296875 64.59375 
z
" id="DejaVuSans-84"/>
      <path d="M 52 44.1875 
Q 55.375 50.25 60.0625 53.125 
Q 64.75 56 71.09375 56 
Q 79.640625 56 84.28125 50.015625 
Q 88.921875 44.046875 88.921875 33.015625 
L 88.921875 0 
L 79.890625 0 
L 79.890625 32.71875 
Q 79.890625 40.578125 77.09375 44.375 
Q 74.3125 48.1875 68.609375 48.1875 
Q 61.625 48.1875 57.5625 43.546875 
Q 53.515625 38.921875 53.515625 30.90625 
L 53.515625 0 
L 44.484375 0 
L 44.484375 32.71875 
Q 44.484375 40.625 41.703125 44.40625 
Q 38.921875 48.1875 33.109375 48.1875 
Q 26.21875 48.1875 22.15625 43.53125 
Q 18.109375 38.875 18.109375 30.90625 
L 18.109375 0 
L 9.078125 0 
L 9.078125 54.6875 
L 18.109375 54.6875 
L 18.109375 46.1875 
Q 21.1875 51.21875 25.484375 53.609375 
Q 29.78125 56 35.6875 56 
Q 41.65625 56 45.828125 52.96875 
Q 50 49.953125 52 44.1875 
z
" id="DejaVuSans-109"/>
     </defs>
     <use xlink:href="#DejaVuSans-84"/>
     <use x="45.458984" xlink:href="#DejaVuSans-121"/>
     <use x="104.638672" xlink:href="#DejaVuSans-114"/>
     <use x="143.501953" xlink:href="#DejaVuSans-111"/>
     <use x="204.683594" xlink:href="#DejaVuSans-115"/>
     <use x="256.783203" xlink:href="#DejaVuSans-105"/>
     <use x="284.566406" xlink:href="#DejaVuSans-110"/>
     <use x="347.945312" xlink:href="#DejaVuSans-101"/>
     <use x="409.46875" xlink:href="#DejaVuSans-45"/>
     <use x="445.552734" xlink:href="#DejaVuSans-109"/>
     <use x="542.964844" xlink:href="#DejaVuSans-101"/>
     <use x="604.488281" xlink:href="#DejaVuSans-116"/>
     <use x="643.697266" xlink:href="#DejaVuSans-97"/>
     <use x="704.976562" xlink:href="#DejaVuSans-98"/>
     <use x="768.453125" xlink:href="#DejaVuSans-111"/>
     <use x="829.634766" xlink:href="#DejaVuSans-108"/>
     <use x="857.417969" xlink:href="#DejaVuSans-105"/>
     <use x="885.201172" xlink:href="#DejaVuSans-115"/>
     <use x="937.300781" xlink:href="#DejaVuSans-109"/>
    </g>
   </g>
   <g id="text_24">
    <!-- pyruvate-related -->
    <g transform="translate(54.383366 158.152019)scale(0.1 -0.1)">
     <use xlink:href="#DejaVuSans-112"/>
     <use x="63.476562" xlink:href="#DejaVuSans-121"/>
     <use x="122.65625" xlink:href="#DejaVuSans-114"/>
     <use x="163.769531" xlink:href="#DejaVuSans-117"/>
     <use x="227.148438" xlink:href="#DejaVuSans-118"/>
     <use x="286.328125" xlink:href="#DejaVuSans-97"/>
     <use x="347.607422" xlink:href="#DejaVuSans-116"/>
     <use x="386.816406" xlink:href="#DejaVuSans-101"/>
     <use x="448.339844" xlink:href="#DejaVuSans-45"/>
     <use x="484.423828" xlink:href="#DejaVuSans-114"/>
     <use x="523.287109" xlink:href="#DejaVuSans-101"/>
     <use x="584.810547" xlink:href="#DejaVuSans-108"/>
     <use x="612.59375" xlink:href="#DejaVuSans-97"/>
     <use x="673.873047" xlink:href="#DejaVuSans-116"/>
     <use x="713.082031" xlink:href="#DejaVuSans-101"/>
     <use x="774.605469" xlink:href="#DejaVuSans-100"/>
    </g>
   </g>
   <g id="text_25">
    <!-- uncharacterized-17 -->
    <g transform="translate(213.166126 69.01306)scale(0.1 -0.1)">
     <defs>
      <path d="M 5.515625 54.6875 
L 48.1875 54.6875 
L 48.1875 46.484375 
L 14.40625 7.171875 
L 48.1875 7.171875 
L 48.1875 0 
L 4.296875 0 
L 4.296875 8.203125 
L 38.09375 47.515625 
L 5.515625 47.515625 
z
" id="DejaVuSans-122"/>
      <path d="M 8.203125 72.90625 
L 55.078125 72.90625 
L 55.078125 68.703125 
L 28.609375 0 
L 18.3125 0 
L 43.21875 64.59375 
L 8.203125 64.59375 
z
" id="DejaVuSans-55"/>
     </defs>
     <use xlink:href="#DejaVuSans-117"/>
     <use x="63.378906" xlink:href="#DejaVuSans-110"/>
     <use x="126.757812" xlink:href="#DejaVuSans-99"/>
     <use x="181.738281" xlink:href="#DejaVuSans-104"/>
     <use x="245.117188" xlink:href="#DejaVuSans-97"/>
     <use x="306.396484" xlink:href="#DejaVuSans-114"/>
     <use x="347.509766" xlink:href="#DejaVuSans-97"/>
     <use x="408.789062" xlink:href="#DejaVuSans-99"/>
     <use x="463.769531" xlink:href="#DejaVuSans-116"/>
     <use x="502.978516" xlink:href="#DejaVuSans-101"/>
     <use x="564.501953" xlink:href="#DejaVuSans-114"/>
     <use x="605.615234" xlink:href="#DejaVuSans-105"/>
     <use x="633.398438" xlink:href="#DejaVuSans-122"/>
     <use x="685.888672" xlink:href="#DejaVuSans-101"/>
     <use x="747.412109" xlink:href="#DejaVuSans-100"/>
     <use x="810.888672" xlink:href="#DejaVuSans-45"/>
     <use x="846.972656" xlink:href="#DejaVuSans-49"/>
     <use x="910.595703" xlink:href="#DejaVuSans-55"/>
    </g>
   </g>
   <g id="text_26">
    <!-- ripA -->
    <g transform="translate(230.888399 152.370728)scale(0.1 -0.1)">
     <use xlink:href="#DejaVuSans-114"/>
     <use x="41.113281" xlink:href="#DejaVuSans-105"/>
     <use x="68.896484" xlink:href="#DejaVuSans-112"/>
     <use x="132.373047" xlink:href="#DejaVuSans-65"/>
    </g>
   </g>
   <g id="text_27">
    <!-- IolR -->
    <g transform="translate(109.486946 224.831802)scale(0.1 -0.1)">
     <defs>
      <path d="M 9.8125 72.90625 
L 19.671875 72.90625 
L 19.671875 0 
L 9.8125 0 
z
" id="DejaVuSans-73"/>
      <path d="M 44.390625 34.1875 
Q 47.5625 33.109375 50.5625 29.59375 
Q 53.5625 26.078125 56.59375 19.921875 
L 66.609375 0 
L 56 0 
L 46.6875 18.703125 
Q 43.0625 26.03125 39.671875 28.421875 
Q 36.28125 30.8125 30.421875 30.8125 
L 19.671875 30.8125 
L 19.671875 0 
L 9.8125 0 
L 9.8125 72.90625 
L 32.078125 72.90625 
Q 44.578125 72.90625 50.734375 67.671875 
Q 56.890625 62.453125 56.890625 51.90625 
Q 56.890625 45.015625 53.6875 40.46875 
Q 50.484375 35.9375 44.390625 34.1875 
z
M 19.671875 64.796875 
L 19.671875 38.921875 
L 32.078125 38.921875 
Q 39.203125 38.921875 42.84375 42.21875 
Q 46.484375 45.515625 46.484375 51.90625 
Q 46.484375 58.296875 42.84375 61.546875 
Q 39.203125 64.796875 32.078125 64.796875 
z
" id="DejaVuSans-82"/>
     </defs>
     <use xlink:href="#DejaVuSans-73"/>
     <use x="29.492188" xlink:href="#DejaVuSans-111"/>
     <use x="90.673828" xlink:href="#DejaVuSans-108"/>
     <use x="118.457031" xlink:href="#DejaVuSans-82"/>
    </g>
   </g>
   <g id="text_28">
    <!-- metE-operon -->
    <g transform="translate(149.122786 166.692603)scale(0.1 -0.1)">
     <defs>
      <path d="M 9.8125 72.90625 
L 55.90625 72.90625 
L 55.90625 64.59375 
L 19.671875 64.59375 
L 19.671875 43.015625 
L 54.390625 43.015625 
L 54.390625 34.71875 
L 19.671875 34.71875 
L 19.671875 8.296875 
L 56.78125 8.296875 
L 56.78125 0 
L 9.8125 0 
z
" id="DejaVuSans-69"/>
     </defs>
     <use xlink:href="#DejaVuSans-109"/>
     <use x="97.412109" xlink:href="#DejaVuSans-101"/>
     <use x="158.935547" xlink:href="#DejaVuSans-116"/>
     <use x="198.144531" xlink:href="#DejaVuSans-69"/>
     <use x="261.328125" xlink:href="#DejaVuSans-45"/>
     <use x="299.287109" xlink:href="#DejaVuSans-111"/>
     <use x="360.46875" xlink:href="#DejaVuSans-112"/>
     <use x="423.945312" xlink:href="#DejaVuSans-101"/>
     <use x="485.46875" xlink:href="#DejaVuSans-114"/>
     <use x="524.332031" xlink:href="#DejaVuSans-111"/>
     <use x="585.513672" xlink:href="#DejaVuSans-110"/>
    </g>
   </g>
   <g id="text_29">
    <!-- uncharacterized-1 -->
    <g transform="translate(142.020338 196.484367)scale(0.1 -0.1)">
     <use xlink:href="#DejaVuSans-117"/>
     <use x="63.378906" xlink:href="#DejaVuSans-110"/>
     <use x="126.757812" xlink:href="#DejaVuSans-99"/>
     <use x="181.738281" xlink:href="#DejaVuSans-104"/>
     <use x="245.117188" xlink:href="#DejaVuSans-97"/>
     <use x="306.396484" xlink:href="#DejaVuSans-114"/>
     <use x="347.509766" xlink:href="#DejaVuSans-97"/>
     <use x="408.789062" xlink:href="#DejaVuSans-99"/>
     <use x="463.769531" xlink:href="#DejaVuSans-116"/>
     <use x="502.978516" xlink:href="#DejaVuSans-101"/>
     <use x="564.501953" xlink:href="#DejaVuSans-114"/>
     <use x="605.615234" xlink:href="#DejaVuSans-105"/>
     <use x="633.398438" xlink:href="#DejaVuSans-122"/>
     <use x="685.888672" xlink:href="#DejaVuSans-101"/>
     <use x="747.412109" xlink:href="#DejaVuSans-100"/>
     <use x="810.888672" xlink:href="#DejaVuSans-45"/>
     <use x="846.972656" xlink:href="#DejaVuSans-49"/>
    </g>
   </g>
   <g id="text_30">
    <!-- sulfate-reduction -->
    <g transform="translate(268.418626 182.645305)scale(0.1 -0.1)">
     <defs>
      <path d="M 37.109375 75.984375 
L 37.109375 68.5 
L 28.515625 68.5 
Q 23.6875 68.5 21.796875 66.546875 
Q 19.921875 64.59375 19.921875 59.515625 
L 19.921875 54.6875 
L 34.71875 54.6875 
L 34.71875 47.703125 
L 19.921875 47.703125 
L 19.921875 0 
L 10.890625 0 
L 10.890625 47.703125 
L 2.296875 47.703125 
L 2.296875 54.6875 
L 10.890625 54.6875 
L 10.890625 58.5 
Q 10.890625 67.625 15.140625 71.796875 
Q 19.390625 75.984375 28.609375 75.984375 
z
" id="DejaVuSans-102"/>
     </defs>
     <use xlink:href="#DejaVuSans-115"/>
     <use x="52.099609" xlink:href="#DejaVuSans-117"/>
     <use x="115.478516" xlink:href="#DejaVuSans-108"/>
     <use x="143.261719" xlink:href="#DejaVuSans-102"/>
     <use x="178.466797" xlink:href="#DejaVuSans-97"/>
     <use x="239.746094" xlink:href="#DejaVuSans-116"/>
     <use x="278.955078" xlink:href="#DejaVuSans-101"/>
     <use x="340.478516" xlink:href="#DejaVuSans-45"/>
     <use x="376.5625" xlink:href="#DejaVuSans-114"/>
     <use x="415.425781" xlink:href="#DejaVuSans-101"/>
     <use x="476.949219" xlink:href="#DejaVuSans-100"/>
     <use x="540.425781" xlink:href="#DejaVuSans-117"/>
     <use x="603.804688" xlink:href="#DejaVuSans-99"/>
     <use x="658.785156" xlink:href="#DejaVuSans-116"/>
     <use x="697.994141" xlink:href="#DejaVuSans-105"/>
     <use x="725.777344" xlink:href="#DejaVuSans-111"/>
     <use x="786.958984" xlink:href="#DejaVuSans-110"/>
    </g>
   </g>
   <g id="text_31">
    <!-- DtxR -->
    <g transform="translate(147.683263 230.300312)scale(0.1 -0.1)">
     <defs>
      <path d="M 19.671875 64.796875 
L 19.671875 8.109375 
L 31.59375 8.109375 
Q 46.6875 8.109375 53.6875 14.9375 
Q 60.6875 21.78125 60.6875 36.53125 
Q 60.6875 51.171875 53.6875 57.984375 
Q 46.6875 64.796875 31.59375 64.796875 
z
M 9.8125 72.90625 
L 30.078125 72.90625 
Q 51.265625 72.90625 61.171875 64.09375 
Q 71.09375 55.28125 71.09375 36.53125 
Q 71.09375 17.671875 61.125 8.828125 
Q 51.171875 0 30.078125 0 
L 9.8125 0 
z
" id="DejaVuSans-68"/>
      <path d="M 54.890625 54.6875 
L 35.109375 28.078125 
L 55.90625 0 
L 45.3125 0 
L 29.390625 21.484375 
L 13.484375 0 
L 2.875 0 
L 24.125 28.609375 
L 4.6875 54.6875 
L 15.28125 54.6875 
L 29.78125 35.203125 
L 44.28125 54.6875 
z
" id="DejaVuSans-120"/>
     </defs>
     <use xlink:href="#DejaVuSans-68"/>
     <use x="77.001953" xlink:href="#DejaVuSans-116"/>
     <use x="116.210938" xlink:href="#DejaVuSans-120"/>
     <use x="175.390625" xlink:href="#DejaVuSans-82"/>
    </g>
   </g>
   <g id="text_32">
    <!-- Ribosome -->
    <g transform="translate(339.591007 55.01306)scale(0.1 -0.1)">
     <use xlink:href="#DejaVuSans-82"/>
     <use x="69.482422" xlink:href="#DejaVuSans-105"/>
     <use x="97.265625" xlink:href="#DejaVuSans-98"/>
     <use x="160.742188" xlink:href="#DejaVuSans-111"/>
     <use x="221.923828" xlink:href="#DejaVuSans-115"/>
     <use x="274.023438" xlink:href="#DejaVuSans-111"/>
     <use x="335.205078" xlink:href="#DejaVuSans-109"/>
     <use x="432.617188" xlink:href="#DejaVuSans-101"/>
    </g>
   </g>
   <g id="patch_7">
    <path d="M 168.640068 116.392064 
Q 158.541151 119.153353 148.442235 121.914641 
" style="fill:none;stroke:#000000;stroke-linecap:round;stroke-width:0.5;"/>
   </g>
   <g id="patch_8">
    <path d="M 118.285488 140.639433 
Q 122.174832 140.562451 126.064176 140.485469 
" style="fill:none;stroke:#000000;stroke-linecap:round;stroke-width:0.5;"/>
   </g>
   <g id="patch_9">
    <path d="M 244.56736 51.498267 
Q 241.889614 51.930165 239.211867 52.362063 
" style="fill:none;stroke:#000000;stroke-linecap:round;stroke-width:0.5;"/>
   </g>
   <g id="patch_10">
    <path d="M 137.360419 128.894471 
Q 139.844663 130.454299 142.328907 132.014127 
" style="fill:none;stroke:#000000;stroke-linecap:round;stroke-width:0.5;"/>
   </g>
   <g id="patch_11">
    <path d="M 180.743018 81.196777 
Q 196.400949 81.634429 212.05888 82.072081 
" style="fill:none;stroke:#000000;stroke-linecap:round;stroke-width:0.5;"/>
   </g>
   <g id="patch_12">
    <path d="M 160.258589 143.66109 
Q 148.755781 145.709732 137.252972 147.758373 
" style="fill:none;stroke:#000000;stroke-linecap:round;stroke-width:0.5;"/>
   </g>
   <g id="patch_13">
    <path d="M 235.162148 88.103046 
Q 224.794004 86.950704 214.42586 85.798361 
" style="fill:none;stroke:#000000;stroke-linecap:round;stroke-width:0.5;"/>
   </g>
   <g id="patch_14">
    <path d="M 98.376525 155.381088 
Q 117.251595 153.748873 136.126665 152.116657 
" style="fill:none;stroke:#000000;stroke-linecap:round;stroke-width:0.5;"/>
   </g>
   <g id="patch_15">
    <path d="M 240.257267 71.584619 
Q 238.265977 72.089536 236.274687 72.594452 
" style="fill:none;stroke:#000000;stroke-linecap:round;stroke-width:0.5;"/>
   </g>
   <g id="patch_16">
    <path d="M 228.967264 153.241405 
Q 224.344822 154.579545 219.722381 155.917685 
" style="fill:none;stroke:#000000;stroke-linecap:round;stroke-width:0.5;"/>
   </g>
   <g id="patch_17">
    <path d="M 130.04763 227.859378 
Q 130.561781 228.135434 131.075931 228.41149 
" style="fill:none;stroke:#000000;stroke-linecap:round;stroke-width:0.5;"/>
   </g>
   <g id="patch_18">
    <path d="M 214.01213 167.311591 
Q 214.330048 167.346619 214.647967 167.381646 
" style="fill:none;stroke:#000000;stroke-linecap:round;stroke-width:0.5;"/>
   </g>
   <g id="patch_19">
    <path d="M 192.82557 187.319217 
Q 193.366308 186.641923 193.907046 185.964629 
" style="fill:none;stroke:#000000;stroke-linecap:round;stroke-width:0.5;"/>
   </g>
   <g id="patch_20">
    <path d="M 266.417153 179.292184 
Q 237.32015 178.905055 208.223147 178.517925 
" style="fill:none;stroke:#000000;stroke-linecap:round;stroke-width:0.5;"/>
   </g>
   <g id="patch_21">
    <path d="M 145.829704 233.140435 
Q 144.928358 233.510217 144.027013 233.88 
" style="fill:none;stroke:#000000;stroke-linecap:round;stroke-width:0.5;"/>
   </g>
   <g id="patch_22">
    <path d="M 362.580073 59.033821 
Q 361.979988 61.457233 361.379904 63.880645 
" style="fill:none;stroke:#000000;stroke-linecap:round;stroke-width:0.5;"/>
   </g>
  </g>
 </g>
 <defs>
  <clipPath id="p13aad047ff">
   <rect height="217.44" width="334.8" x="54" y="34.56"/>
  </clipPath>
 </defs>
</svg>
