<?xml version="1.0" encoding="utf-8" standalone="no"?>
<!DOCTYPE svg PUBLIC "-//W3C//DTD SVG 1.1//EN"
  "http://www.w3.org/Graphics/SVG/1.1/DTD/svg11.dtd">
<!-- Created with matplotlib (https://matplotlib.org/) -->
<svg height="374.4pt" version="1.1" viewBox="0 0 374.4 374.4" width="374.4pt" xmlns="http://www.w3.org/2000/svg" xmlns:xlink="http://www.w3.org/1999/xlink">
 <metadata>
  <rdf:RDF xmlns:cc="http://creativecommons.org/ns#" xmlns:dc="http://purl.org/dc/elements/1.1/" xmlns:rdf="http://www.w3.org/1999/02/22-rdf-syntax-ns#">
   <cc:Work>
    <dc:type rdf:resource="http://purl.org/dc/dcmitype/StillImage"/>
    <dc:date>2023-05-17T16:07:31.053691</dc:date>
    <dc:format>image/svg+xml</dc:format>
    <dc:creator>
     <cc:Agent>
      <dc:title>Matplotlib v3.3.4, https://matplotlib.org/</dc:title>
     </cc:Agent>
    </dc:creator>
   </cc:Work>
  </rdf:RDF>
 </metadata>
 <defs>
  <style type="text/css">*{stroke-linecap:butt;stroke-linejoin:round;}</style>
 </defs>
 <g id="figure_1">
  <g id="patch_1">
   <path d="M 0 374.4 
L 374.4 374.4 
L 374.4 -0 
L 0 -0 
z
" style="fill:none;"/>
  </g>
  <g id="axes_1">
   <g id="patch_2">
    <path d="M 327.867792 184.450675 
C 327.867792 169.711466 325.604831 155.059246 321.158107 141.006811 
C 316.711384 126.954377 310.133386 113.667598 301.65433 101.611484 
C 293.175274 89.555371 282.895243 78.872229 271.174017 69.935946 
C 259.452792 60.999664 246.428725 53.915722 232.557632 48.932043 
C 218.686539 43.948365 204.13215 41.123776 189.403838 40.55713 
C 174.675526 39.990485 159.947139 41.688472 145.734139 45.591665 
C 131.52114 49.494859 117.991294 55.557187 105.618118 63.56648 
C 93.244942 71.575774 82.174484 81.437494 72.794189 92.806501 
C 63.413893 104.175508 55.83448 116.917606 50.321215 130.586848 
C 44.80795 144.25609 41.425909 158.691128 40.293456 173.386768 
C 39.161003 188.082407 40.291505 202.865185 43.645398 217.217734 
C 46.99929 231.570284 52.536985 245.323192 60.064673 257.995136 
C 67.592362 270.667081 77.02119 282.108486 88.021169 291.918926 
C 99.021148 301.729366 111.462438 309.793042 124.909618 315.827742 
C 138.356799 321.862442 152.651144 325.796935 167.292383 327.493521 
C 181.933621 329.190107 196.748932 328.628761 211.219811 325.829128 
L 183.867792 184.450675 
L 327.867792 184.450675 
z
" style="fill:#4965b5;"/>
   </g>
   <g id="patch_3">
    <path d="M 214.552019 328.578453 
C 247.380522 322.227232 276.993544 304.635804 298.273599 278.844179 
C 319.553654 253.052555 331.199997 220.637248 331.2 187.200013 
L 187.2 187.2 
L 214.552019 328.578453 
z
" style="fill:#e2514e;"/>
   </g>
   <g id="matplotlib.axis_1"/>
   <g id="matplotlib.axis_2"/>
   <g id="text_1">
    <!-- Passed -->
    <g transform="translate(9.680891 87.676615)scale(0.18 -0.18)">
     <defs>
      <path d="M 27 29.984375 
L 27 11.625 
Q 27 6.25 27.65625 4.859375 
Q 28.328125 3.46875 30 2.640625 
Q 31.6875 1.8125 36.1875 1.8125 
L 36.1875 0 
L 2.546875 0 
L 2.546875 1.8125 
Q 7.125 1.8125 8.765625 2.65625 
Q 10.40625 3.515625 11.0625 4.875 
Q 11.71875 6.25 11.71875 11.625 
L 11.71875 54.59375 
Q 11.71875 59.96875 11.0625 61.359375 
Q 10.40625 62.75 8.734375 63.578125 
Q 7.078125 64.40625 2.546875 64.40625 
L 2.546875 66.21875 
L 31.390625 66.21875 
Q 45.65625 66.21875 51.859375 61.140625 
Q 58.0625 56.0625 58.0625 48.4375 
Q 58.0625 42 54.046875 37.40625 
Q 50.046875 32.8125 43.015625 31.15625 
Q 38.28125 29.984375 27 29.984375 
z
M 27 62.40625 
L 27 33.796875 
Q 28.609375 33.6875 29.4375 33.6875 
Q 35.40625 33.6875 38.625 37.21875 
Q 41.84375 40.765625 41.84375 48.1875 
Q 41.84375 55.5625 38.625 58.984375 
Q 35.40625 62.40625 29 62.40625 
z
" id="TimesNewRomanPS-BoldMT-80"/>
      <path d="M 28.5625 6.734375 
Q 20.21875 -0.640625 13.578125 -0.640625 
Q 9.671875 -0.640625 7.078125 1.921875 
Q 4.5 4.5 4.5 8.34375 
Q 4.5 13.578125 8.984375 17.75 
Q 13.484375 21.921875 28.5625 28.859375 
L 28.5625 33.453125 
Q 28.5625 38.625 28 39.96875 
Q 27.4375 41.3125 25.875 42.3125 
Q 24.3125 43.3125 22.359375 43.3125 
Q 19.1875 43.3125 17.140625 41.890625 
Q 15.875 41.015625 15.875 39.84375 
Q 15.875 38.8125 17.234375 37.3125 
Q 19.09375 35.203125 19.09375 33.25 
Q 19.09375 30.859375 17.3125 29.171875 
Q 15.53125 27.484375 12.640625 27.484375 
Q 9.578125 27.484375 7.5 29.34375 
Q 5.421875 31.203125 5.421875 33.6875 
Q 5.421875 37.203125 8.203125 40.40625 
Q 10.984375 43.609375 15.96875 45.3125 
Q 20.953125 47.015625 26.3125 47.015625 
Q 32.8125 47.015625 36.59375 44.25 
Q 40.375 41.5 41.5 38.28125 
Q 42.1875 36.234375 42.1875 28.859375 
L 42.1875 11.140625 
Q 42.1875 8.015625 42.421875 7.203125 
Q 42.671875 6.390625 43.15625 6 
Q 43.65625 5.609375 44.28125 5.609375 
Q 45.5625 5.609375 46.875 7.421875 
L 48.34375 6.25 
Q 45.90625 2.640625 43.28125 1 
Q 40.671875 -0.640625 37.359375 -0.640625 
Q 33.453125 -0.640625 31.25 1.1875 
Q 29.046875 3.03125 28.5625 6.734375 
z
M 28.5625 10.296875 
L 28.5625 25.59375 
Q 22.65625 22.125 19.78125 18.171875 
Q 17.875 15.53125 17.875 12.84375 
Q 17.875 10.59375 19.484375 8.890625 
Q 20.703125 7.5625 22.90625 7.5625 
Q 25.34375 7.5625 28.5625 10.296875 
z
" id="TimesNewRomanPS-BoldMT-97"/>
      <path d="M 32.234375 46.921875 
L 32.953125 31.34375 
L 31.296875 31.34375 
Q 28.328125 38.28125 25.125 40.8125 
Q 21.921875 43.359375 18.75 43.359375 
Q 16.75 43.359375 15.328125 42.015625 
Q 13.921875 40.671875 13.921875 38.921875 
Q 13.921875 37.59375 14.890625 36.375 
Q 16.453125 34.375 23.625 29.515625 
Q 30.8125 24.65625 33.078125 21.265625 
Q 35.359375 17.875 35.359375 13.671875 
Q 35.359375 9.859375 33.453125 6.203125 
Q 31.546875 2.546875 28.078125 0.578125 
Q 24.609375 -1.375 20.40625 -1.375 
Q 17.140625 -1.375 11.671875 0.6875 
Q 10.203125 1.21875 9.671875 1.21875 
Q 8.0625 1.21875 6.984375 -1.21875 
L 5.375 -1.21875 
L 4.59375 15.1875 
L 6.25 15.1875 
Q 8.453125 8.734375 12.28125 5.515625 
Q 16.109375 2.296875 19.53125 2.296875 
Q 21.875 2.296875 23.359375 3.734375 
Q 24.859375 5.171875 24.859375 7.234375 
Q 24.859375 9.578125 23.390625 11.28125 
Q 21.921875 12.984375 16.84375 16.453125 
Q 9.375 21.625 7.171875 24.359375 
Q 3.953125 28.375 3.953125 33.203125 
Q 3.953125 38.484375 7.59375 42.75 
Q 11.234375 47.015625 18.109375 47.015625 
Q 21.828125 47.015625 25.296875 45.21875 
Q 26.609375 44.484375 27.4375 44.484375 
Q 28.328125 44.484375 28.859375 44.84375 
Q 29.390625 45.21875 30.5625 46.921875 
z
" id="TimesNewRomanPS-BoldMT-115"/>
      <path d="M 42.046875 24.46875 
L 17 24.46875 
Q 17.4375 15.375 21.828125 10.109375 
Q 25.203125 6.0625 29.9375 6.0625 
Q 32.859375 6.0625 35.25 7.6875 
Q 37.640625 9.328125 40.375 13.578125 
L 42.046875 12.5 
Q 38.328125 4.9375 33.828125 1.78125 
Q 29.34375 -1.375 23.4375 -1.375 
Q 13.28125 -1.375 8.0625 6.453125 
Q 3.859375 12.75 3.859375 22.078125 
Q 3.859375 33.5 10.03125 40.25 
Q 16.21875 47.015625 24.515625 47.015625 
Q 31.453125 47.015625 36.546875 41.328125 
Q 41.65625 35.640625 42.046875 24.46875 
z
M 30.03125 27.734375 
Q 30.03125 35.59375 29.171875 38.515625 
Q 28.328125 41.453125 26.515625 42.96875 
Q 25.484375 43.84375 23.78125 43.84375 
Q 21.234375 43.84375 19.625 41.359375 
Q 16.75 37.015625 16.75 29.4375 
L 16.75 27.734375 
z
" id="TimesNewRomanPS-BoldMT-101"/>
      <path d="M 47.75 66.21875 
L 47.75 13.671875 
Q 47.75 8.34375 48.046875 7.375 
Q 48.4375 5.765625 49.53125 4.984375 
Q 50.640625 4.203125 53.375 4 
L 53.375 2.390625 
L 34.078125 -1.375 
L 34.078125 5.859375 
Q 30.609375 1.65625 27.90625 0.140625 
Q 25.203125 -1.375 21.78125 -1.375 
Q 13.03125 -1.375 7.953125 6.453125 
Q 3.859375 12.796875 3.859375 22.015625 
Q 3.859375 29.390625 6.390625 35.21875 
Q 8.9375 41.0625 13.359375 44.03125 
Q 17.78125 47.015625 22.859375 47.015625 
Q 26.125 47.015625 28.65625 45.75 
Q 31.203125 44.484375 34.078125 41.3125 
L 34.078125 55.078125 
Q 34.078125 60.296875 33.640625 61.375 
Q 33.0625 62.796875 31.890625 63.46875 
Q 30.71875 64.15625 27.484375 64.15625 
L 27.484375 66.21875 
z
M 34.078125 35.25 
Q 30.46875 42.1875 25.25 42.1875 
Q 23.4375 42.1875 22.265625 41.21875 
Q 20.453125 39.703125 19.3125 35.890625 
Q 18.171875 32.078125 18.171875 24.21875 
Q 18.171875 15.578125 19.4375 11.421875 
Q 20.703125 7.28125 22.90625 5.421875 
Q 24.03125 4.5 25.984375 4.5 
Q 30.28125 4.5 34.078125 11.234375 
z
" id="TimesNewRomanPS-BoldMT-100"/>
     </defs>
     <use xlink:href="#TimesNewRomanPS-BoldMT-80"/>
     <use x="61.083984" xlink:href="#TimesNewRomanPS-BoldMT-97"/>
     <use x="111.083984" xlink:href="#TimesNewRomanPS-BoldMT-115"/>
     <use x="150" xlink:href="#TimesNewRomanPS-BoldMT-115"/>
     <use x="188.916016" xlink:href="#TimesNewRomanPS-BoldMT-101"/>
     <use x="233.300781" xlink:href="#TimesNewRomanPS-BoldMT-100"/>
    </g>
   </g>
   <g id="text_2">
    <!-- 78.0% -->
    <g style="fill:#ffffff;" transform="translate(84.22363 134.843545)scale(0.24 -0.24)">
     <defs>
      <path d="M 17.71875 -1.375 
L 35.75 53.265625 
L 22.015625 53.265625 
Q 13.96875 53.265625 9.90625 51.171875 
Q 7.078125 49.703125 5.21875 45.65625 
L 3.375 45.65625 
L 8.15625 66.21875 
L 47.609375 66.21875 
L 25.390625 -1.375 
z
" id="TimesNewRomanPS-BoldMT-55"/>
      <path d="M 34.078125 37.40625 
Q 41.0625 32.28125 43.765625 27.859375 
Q 46.484375 23.4375 46.484375 17.71875 
Q 46.484375 9.71875 40.453125 4.171875 
Q 34.421875 -1.375 24.078125 -1.375 
Q 14.265625 -1.375 8.890625 3.453125 
Q 3.515625 8.296875 3.515625 15.28125 
Q 3.515625 20.609375 6.609375 24.609375 
Q 9.71875 28.609375 16.9375 31.9375 
Q 9.078125 37.9375 6.859375 41.75 
Q 4.640625 45.5625 4.640625 50.59375 
Q 4.640625 57.234375 10.28125 62.28125 
Q 15.921875 67.328125 25.734375 67.328125 
Q 35.203125 67.328125 40.296875 62.859375 
Q 45.40625 58.40625 45.40625 52.15625 
Q 45.40625 47.46875 42.640625 43.875 
Q 39.890625 40.28125 34.078125 37.40625 
z
M 30.375 39.890625 
Q 32.171875 42.328125 33.046875 45.359375 
Q 33.9375 48.390625 33.9375 52 
Q 33.9375 58.34375 31.203125 61.71875 
Q 29.15625 64.3125 25.53125 64.3125 
Q 22.265625 64.3125 19.96875 61.9375 
Q 17.671875 59.578125 17.671875 56.0625 
Q 17.671875 52.484375 20.234375 48.65625 
Q 22.796875 44.828125 30.375 39.890625 
z
M 20.609375 29.59375 
Q 19.09375 28.21875 18.453125 27.09375 
Q 17.484375 25.390625 16.703125 22.109375 
Q 15.921875 18.84375 15.921875 15.28125 
Q 15.921875 10.6875 17.09375 7.59375 
Q 18.265625 4.5 20.4375 3.125 
Q 22.609375 1.765625 24.90625 1.765625 
Q 28.46875 1.765625 30.90625 4.375 
Q 33.34375 6.984375 33.34375 11.53125 
Q 33.34375 21 20.609375 29.59375 
z
" id="TimesNewRomanPS-BoldMT-56"/>
      <path d="M 12.5 15.046875 
Q 15.921875 15.046875 18.28125 12.640625 
Q 20.65625 10.25 20.65625 6.890625 
Q 20.65625 3.515625 18.265625 1.140625 
Q 15.875 -1.21875 12.5 -1.21875 
Q 9.125 -1.21875 6.75 1.140625 
Q 4.390625 3.515625 4.390625 6.890625 
Q 4.390625 10.25 6.75 12.640625 
Q 9.125 15.046875 12.5 15.046875 
z
" id="TimesNewRomanPS-BoldMT-46"/>
      <path d="M 46.34375 33.109375 
Q 46.34375 23.1875 43.5625 14.59375 
Q 41.890625 9.328125 39.078125 5.953125 
Q 36.28125 2.59375 32.71875 0.609375 
Q 29.15625 -1.375 24.953125 -1.375 
Q 20.171875 -1.375 16.3125 1.0625 
Q 12.453125 3.515625 9.46875 8.0625 
Q 7.328125 11.375 5.71875 16.890625 
Q 3.609375 24.359375 3.609375 32.328125 
Q 3.609375 43.109375 6.640625 52.15625 
Q 9.125 59.625 14.203125 63.59375 
Q 19.28125 67.578125 24.953125 67.578125 
Q 30.71875 67.578125 35.71875 63.640625 
Q 40.71875 59.71875 43.0625 53.078125 
Q 46.34375 43.953125 46.34375 33.109375 
z
M 31.296875 33.203125 
Q 31.296875 50.59375 31.109375 53.46875 
Q 30.609375 60.25 28.765625 62.640625 
Q 27.546875 64.203125 24.8125 64.203125 
Q 22.703125 64.203125 21.484375 63.03125 
Q 19.671875 61.328125 19.03125 57 
Q 18.40625 52.6875 18.40625 26.859375 
Q 18.40625 12.796875 19.390625 8.015625 
Q 20.125 4.546875 21.484375 3.375 
Q 22.859375 2.203125 25.09375 2.203125 
Q 27.546875 2.203125 28.765625 3.765625 
Q 30.8125 6.5 31.109375 12.203125 
z
" id="TimesNewRomanPS-BoldMT-48"/>
      <path d="M 76.8125 67.71875 
L 29.78125 -2.78125 
L 23.25 -2.78125 
L 70.21875 67.71875 
z
M 23.34375 67.71875 
Q 30.28125 67.71875 35.03125 62.8125 
Q 39.796875 57.90625 39.796875 50.140625 
Q 39.796875 42.1875 35 37.234375 
Q 30.21875 32.28125 23.140625 32.28125 
Q 16.15625 32.28125 11.546875 37.0625 
Q 6.9375 41.84375 6.9375 49.65625 
Q 6.9375 57.71875 11.671875 62.71875 
Q 16.40625 67.71875 23.34375 67.71875 
z
M 23.34375 65.140625 
Q 22.265625 65.140625 21.578125 64.5 
Q 20.359375 63.375 19.75 60.609375 
Q 19.140625 57.859375 19.140625 49.21875 
Q 19.140625 42.328125 19.96875 38.578125 
Q 20.453125 36.421875 21.625 35.359375 
Q 22.359375 34.71875 23.34375 34.71875 
Q 24.421875 34.71875 25.046875 35.296875 
Q 26.171875 36.328125 26.703125 38.625 
Q 27.546875 42.328125 27.546875 49.03125 
Q 27.546875 57.234375 26.765625 60.890625 
Q 26.21875 63.421875 25 64.59375 
Q 24.421875 65.140625 23.34375 65.140625 
z
M 76.46875 32.765625 
Q 83.546875 32.765625 88.296875 27.90625 
Q 93.0625 23.046875 93.0625 15.1875 
Q 93.0625 7.234375 88.234375 2.25 
Q 83.40625 -2.734375 76.5625 -2.734375 
Q 69.78125 -2.734375 65.015625 2.25 
Q 60.25 7.234375 60.25 15.046875 
Q 60.25 22.90625 64.890625 27.828125 
Q 69.53125 32.765625 76.46875 32.765625 
z
M 76.609375 30.21875 
Q 75.640625 30.21875 74.953125 29.640625 
Q 73.78125 28.5625 73.140625 25.90625 
Q 72.515625 23.25 72.515625 15.71875 
Q 72.515625 7.71875 73.25 4.203125 
Q 73.78125 1.703125 75.046875 0.59375 
Q 75.6875 0 76.703125 0 
Q 77.640625 0 78.21875 0.53125 
Q 79.4375 1.65625 80.03125 4.203125 
Q 80.859375 7.765625 80.859375 14.984375 
Q 80.859375 22.609375 80.078125 26.125 
Q 79.5 28.65625 78.328125 29.6875 
Q 77.734375 30.21875 76.609375 30.21875 
z
" id="TimesNewRomanPS-BoldMT-37"/>
     </defs>
     <use xlink:href="#TimesNewRomanPS-BoldMT-55"/>
     <use x="50" xlink:href="#TimesNewRomanPS-BoldMT-56"/>
     <use x="100" xlink:href="#TimesNewRomanPS-BoldMT-46"/>
     <use x="125" xlink:href="#TimesNewRomanPS-BoldMT-48"/>
     <use x="175" xlink:href="#TimesNewRomanPS-BoldMT-37"/>
    </g>
   </g>
   <g id="text_3">
    <!-- Failed -->
    <g transform="translate(309.380959 292.043128)scale(0.18 -0.18)">
     <defs>
      <path d="M 27.484375 62.40625 
L 27.484375 35.203125 
L 29.390625 35.203125 
Q 33.796875 35.203125 36.578125 36.515625 
Q 39.359375 37.84375 41.28125 40.96875 
Q 43.21875 44.09375 43.796875 49.421875 
L 45.515625 49.421875 
L 45.515625 16.15625 
L 43.796875 16.15625 
Q 42.875 25.59375 38.75 28.59375 
Q 34.625 31.59375 29.390625 31.59375 
L 27.484375 31.59375 
L 27.484375 11.328125 
Q 27.484375 6.25 28.046875 4.984375 
Q 28.609375 3.71875 30.25 2.765625 
Q 31.890625 1.8125 34.671875 1.8125 
L 36.859375 1.8125 
L 36.859375 0 
L 2.25 0 
L 2.25 1.8125 
L 4.4375 1.8125 
Q 7.328125 1.8125 9.078125 2.828125 
Q 10.359375 3.515625 11.03125 5.171875 
Q 11.578125 6.34375 11.578125 11.328125 
L 11.578125 54.890625 
Q 11.578125 59.96875 11.03125 61.234375 
Q 10.5 62.5 8.859375 63.453125 
Q 7.234375 64.40625 4.4375 64.40625 
L 2.25 64.40625 
L 2.25 66.21875 
L 58.109375 66.21875 
L 58.109375 47.21875 
L 56.109375 47.21875 
Q 55.421875 53.90625 52.609375 57.125 
Q 49.8125 60.359375 44.484375 61.671875 
Q 41.546875 62.40625 33.640625 62.40625 
z
" id="TimesNewRomanPS-BoldMT-70"/>
      <path d="M 14.359375 67.78125 
Q 17.53125 67.78125 19.71875 65.546875 
Q 21.921875 63.328125 21.921875 60.203125 
Q 21.921875 57.078125 19.703125 54.875 
Q 17.484375 52.6875 14.359375 52.6875 
Q 11.234375 52.6875 9.03125 54.875 
Q 6.84375 57.078125 6.84375 60.203125 
Q 6.84375 63.328125 9.03125 65.546875 
Q 11.234375 67.78125 14.359375 67.78125 
z
M 21.1875 45.65625 
L 21.1875 9.46875 
Q 21.1875 4.640625 22.3125 3.296875 
Q 23.4375 1.953125 26.703125 1.765625 
L 26.703125 0 
L 2.046875 0 
L 2.046875 1.765625 
Q 5.078125 1.859375 6.546875 3.515625 
Q 7.515625 4.640625 7.515625 9.46875 
L 7.515625 36.140625 
Q 7.515625 40.96875 6.390625 42.3125 
Q 5.28125 43.65625 2.046875 43.84375 
L 2.046875 45.65625 
z
" id="TimesNewRomanPS-BoldMT-105"/>
      <path d="M 21.234375 66.21875 
L 21.234375 9.46875 
Q 21.234375 4.640625 22.359375 3.296875 
Q 23.484375 1.953125 26.765625 1.765625 
L 26.765625 0 
L 2.09375 0 
L 2.09375 1.765625 
Q 5.125 1.859375 6.59375 3.515625 
Q 7.5625 4.640625 7.5625 9.46875 
L 7.5625 56.734375 
Q 7.5625 61.53125 6.4375 62.859375 
Q 5.328125 64.203125 2.09375 64.40625 
L 2.09375 66.21875 
z
" id="TimesNewRomanPS-BoldMT-108"/>
     </defs>
     <use xlink:href="#TimesNewRomanPS-BoldMT-70"/>
     <use x="61.083984" xlink:href="#TimesNewRomanPS-BoldMT-97"/>
     <use x="111.083984" xlink:href="#TimesNewRomanPS-BoldMT-105"/>
     <use x="138.867188" xlink:href="#TimesNewRomanPS-BoldMT-108"/>
     <use x="166.650391" xlink:href="#TimesNewRomanPS-BoldMT-101"/>
     <use x="211.035156" xlink:href="#TimesNewRomanPS-BoldMT-100"/>
    </g>
   </g>
   <g id="text_4">
    <!-- 22.0% -->
    <g style="fill:#ffffff;" transform="translate(220.844159 247.565883)scale(0.24 -0.24)">
     <defs>
      <path d="M 41.40625 0 
L 2.4375 0 
L 2.4375 1.078125 
Q 20.359375 22.40625 24.1875 29.78125 
Q 28.03125 37.15625 28.03125 44.1875 
Q 28.03125 49.3125 24.859375 52.703125 
Q 21.6875 56.109375 17.09375 56.109375 
Q 9.578125 56.109375 5.421875 48.578125 
L 3.609375 49.21875 
Q 6.25 58.59375 11.625 63.078125 
Q 17 67.578125 24.03125 67.578125 
Q 29.046875 67.578125 33.203125 65.234375 
Q 37.359375 62.890625 39.703125 58.8125 
Q 42.046875 54.734375 42.046875 51.171875 
Q 42.046875 44.671875 38.421875 37.984375 
Q 33.5 28.953125 16.890625 12.796875 
L 31.203125 12.796875 
Q 36.46875 12.796875 38.0625 13.234375 
Q 39.65625 13.671875 40.671875 14.71875 
Q 41.703125 15.765625 43.359375 19.140625 
L 45.125 19.140625 
z
" id="TimesNewRomanPS-BoldMT-50"/>
     </defs>
     <use xlink:href="#TimesNewRomanPS-BoldMT-50"/>
     <use x="50" xlink:href="#TimesNewRomanPS-BoldMT-50"/>
     <use x="100" xlink:href="#TimesNewRomanPS-BoldMT-46"/>
     <use x="125" xlink:href="#TimesNewRomanPS-BoldMT-48"/>
     <use x="175" xlink:href="#TimesNewRomanPS-BoldMT-37"/>
    </g>
   </g>
  </g>
 </g>
</svg>
