<?xml version="1.0" encoding="utf-8" standalone="no"?>
<!DOCTYPE svg PUBLIC "-//W3C//DTD SVG 1.1//EN"
  "http://www.w3.org/Graphics/SVG/1.1/DTD/svg11.dtd">
<!-- Created with matplotlib (https://matplotlib.org/) -->
<svg height="453.229872pt" version="1.1" viewBox="0 0 1328.720313 453.229872" width="1328.720313pt" xmlns="http://www.w3.org/2000/svg" xmlns:xlink="http://www.w3.org/1999/xlink">
 <metadata>
  <rdf:RDF xmlns:cc="http://creativecommons.org/ns#" xmlns:dc="http://purl.org/dc/elements/1.1/" xmlns:rdf="http://www.w3.org/1999/02/22-rdf-syntax-ns#">
   <cc:Work>
    <dc:type rdf:resource="http://purl.org/dc/dcmitype/StillImage"/>
    <dc:date>2023-02-08T16:55:51.705429</dc:date>
    <dc:format>image/svg+xml</dc:format>
    <dc:creator>
     <cc:Agent>
      <dc:title>Matplotlib v3.3.4, https://matplotlib.org/</dc:title>
     </cc:Agent>
    </dc:creator>
   </cc:Work>
  </rdf:RDF>
 </metadata>
 <defs>
  <style type="text/css">*{stroke-linecap:butt;stroke-linejoin:round;}</style>
 </defs>
 <g id="figure_1">
  <g id="patch_1">
   <path d="M 0 453.229872 
L 1328.720313 453.229872 
L 1328.720313 0 
L 0 0 
z
" style="fill:none;"/>
  </g>
  <g id="axes_1">
   <g id="patch_2">
    <path d="M 54.982813 333.36 
L 836.182813 333.36 
L 836.182813 7.2 
L 54.982813 7.2 
z
" style="fill:none;"/>
   </g>
   <g id="patch_3">
    <path clip-path="url(#pc6ca451812)" d="M 152.632812 316.335459 
L 217.732812 316.335459 
L 217.732812 289.765565 
L 152.632812 289.765565 
z
" style="fill:#d62728;"/>
   </g>
   <g id="patch_4">
    <path clip-path="url(#pc6ca451812)" d="M 217.732812 316.335459 
L 282.832812 316.335459 
L 282.832812 249.660829 
L 217.732812 249.660829 
z
" style="fill:#ff7f0e;"/>
   </g>
   <g id="patch_5">
    <path clip-path="url(#pc6ca451812)" d="M 282.832812 316.335459 
L 347.932812 316.335459 
L 347.932812 257.54604 
L 282.832812 257.54604 
z
" style="fill:#2ca02c;"/>
   </g>
   <g id="patch_6">
    <path clip-path="url(#pc6ca451812)" d="M 347.932812 316.335459 
L 413.032812 316.335459 
L 413.032812 85.79287 
L 347.932812 85.79287 
z
" style="fill:#9467bd;"/>
   </g>
   <g id="patch_7">
    <path clip-path="url(#pc6ca451812)" d="M 413.032812 316.335459 
L 478.132812 316.335459 
L 478.132812 49.688192 
L 413.032812 49.688192 
z
" style="fill:#8c564b;"/>
   </g>
   <g id="patch_8">
    <path clip-path="url(#pc6ca451812)" d="M 478.132812 316.335459 
L 543.232813 316.335459 
L 543.232813 95.124854 
L 478.132812 95.124854 
z
" style="fill:#e377c2;"/>
   </g>
   <g id="patch_9">
    <path clip-path="url(#pc6ca451812)" d="M 543.232812 316.335459 
L 608.332812 316.335459 
L 608.332812 85.610072 
L 543.232812 85.610072 
z
" style="fill:#7f7f7f;"/>
   </g>
   <g id="patch_10">
    <path clip-path="url(#pc6ca451812)" d="M 608.332812 316.335459 
L 673.432812 316.335459 
L 673.432812 59.188829 
L 608.332812 59.188829 
z
" style="fill:#bcbd22;"/>
   </g>
   <g id="patch_11">
    <path clip-path="url(#pc6ca451812)" d="M 673.432812 316.335459 
L 738.532812 316.335459 
L 738.532812 35.303224 
L 673.432812 35.303224 
z
" style="fill:#17becf;"/>
   </g>
   <g id="matplotlib.axis_1">
    <g id="text_1">
     <!-- DO -->
     <g transform="translate(433.903906 348.757656)scale(0.15 -0.15)">
      <defs>
       <path d="M 19.671875 64.796875 
L 19.671875 8.109375 
L 31.59375 8.109375 
Q 46.6875 8.109375 53.6875 14.9375 
Q 60.6875 21.78125 60.6875 36.53125 
Q 60.6875 51.171875 53.6875 57.984375 
Q 46.6875 64.796875 31.59375 64.796875 
z
M 9.8125 72.90625 
L 30.078125 72.90625 
Q 51.265625 72.90625 61.171875 64.09375 
Q 71.09375 55.28125 71.09375 36.53125 
Q 71.09375 17.671875 61.125 8.828125 
Q 51.171875 0 30.078125 0 
L 9.8125 0 
z
" id="DejaVuSans-68"/>
       <path d="M 39.40625 66.21875 
Q 28.65625 66.21875 22.328125 58.203125 
Q 16.015625 50.203125 16.015625 36.375 
Q 16.015625 22.609375 22.328125 14.59375 
Q 28.65625 6.59375 39.40625 6.59375 
Q 50.140625 6.59375 56.421875 14.59375 
Q 62.703125 22.609375 62.703125 36.375 
Q 62.703125 50.203125 56.421875 58.203125 
Q 50.140625 66.21875 39.40625 66.21875 
z
M 39.40625 74.21875 
Q 54.734375 74.21875 63.90625 63.9375 
Q 73.09375 53.65625 73.09375 36.375 
Q 73.09375 19.140625 63.90625 8.859375 
Q 54.734375 -1.421875 39.40625 -1.421875 
Q 24.03125 -1.421875 14.8125 8.828125 
Q 5.609375 19.09375 5.609375 36.375 
Q 5.609375 53.65625 14.8125 63.9375 
Q 24.03125 74.21875 39.40625 74.21875 
z
" id="DejaVuSans-79"/>
      </defs>
      <use xlink:href="#DejaVuSans-68"/>
      <use x="77.001953" xlink:href="#DejaVuSans-79"/>
     </g>
    </g>
   </g>
   <g id="matplotlib.axis_2">
    <g id="ytick_1">
     <g id="line2d_1">
      <defs>
       <path d="M 0 0 
L -3.5 0 
" id="m4d504fb4c8" style="stroke:#000000;stroke-width:0.8;"/>
      </defs>
      <g>
       <use style="stroke:#000000;stroke-width:0.8;" x="54.982813" xlink:href="#m4d504fb4c8" y="316.335459"/>
      </g>
     </g>
     <g id="text_2">
      <!-- 0.0 -->
      <g transform="translate(32.079688 320.134678)scale(0.1 -0.1)">
       <defs>
        <path d="M 31.78125 66.40625 
Q 24.171875 66.40625 20.328125 58.90625 
Q 16.5 51.421875 16.5 36.375 
Q 16.5 21.390625 20.328125 13.890625 
Q 24.171875 6.390625 31.78125 6.390625 
Q 39.453125 6.390625 43.28125 13.890625 
Q 47.125 21.390625 47.125 36.375 
Q 47.125 51.421875 43.28125 58.90625 
Q 39.453125 66.40625 31.78125 66.40625 
z
M 31.78125 74.21875 
Q 44.046875 74.21875 50.515625 64.515625 
Q 56.984375 54.828125 56.984375 36.375 
Q 56.984375 17.96875 50.515625 8.265625 
Q 44.046875 -1.421875 31.78125 -1.421875 
Q 19.53125 -1.421875 13.0625 8.265625 
Q 6.59375 17.96875 6.59375 36.375 
Q 6.59375 54.828125 13.0625 64.515625 
Q 19.53125 74.21875 31.78125 74.21875 
z
" id="DejaVuSans-48"/>
        <path d="M 10.6875 12.40625 
L 21 12.40625 
L 21 0 
L 10.6875 0 
z
" id="DejaVuSans-46"/>
       </defs>
       <use xlink:href="#DejaVuSans-48"/>
       <use x="63.623047" xlink:href="#DejaVuSans-46"/>
       <use x="95.410156" xlink:href="#DejaVuSans-48"/>
      </g>
     </g>
    </g>
    <g id="ytick_2">
     <g id="line2d_2">
      <g>
       <use style="stroke:#000000;stroke-width:0.8;" x="54.982813" xlink:href="#m4d504fb4c8" y="273.774108"/>
      </g>
     </g>
     <g id="text_3">
      <!-- 2.5 -->
      <g transform="translate(32.079688 277.573326)scale(0.1 -0.1)">
       <defs>
        <path d="M 19.1875 8.296875 
L 53.609375 8.296875 
L 53.609375 0 
L 7.328125 0 
L 7.328125 8.296875 
Q 12.9375 14.109375 22.625 23.890625 
Q 32.328125 33.6875 34.8125 36.53125 
Q 39.546875 41.84375 41.421875 45.53125 
Q 43.3125 49.21875 43.3125 52.78125 
Q 43.3125 58.59375 39.234375 62.25 
Q 35.15625 65.921875 28.609375 65.921875 
Q 23.96875 65.921875 18.8125 64.3125 
Q 13.671875 62.703125 7.8125 59.421875 
L 7.8125 69.390625 
Q 13.765625 71.78125 18.9375 73 
Q 24.125 74.21875 28.421875 74.21875 
Q 39.75 74.21875 46.484375 68.546875 
Q 53.21875 62.890625 53.21875 53.421875 
Q 53.21875 48.921875 51.53125 44.890625 
Q 49.859375 40.875 45.40625 35.40625 
Q 44.1875 33.984375 37.640625 27.21875 
Q 31.109375 20.453125 19.1875 8.296875 
z
" id="DejaVuSans-50"/>
        <path d="M 10.796875 72.90625 
L 49.515625 72.90625 
L 49.515625 64.59375 
L 19.828125 64.59375 
L 19.828125 46.734375 
Q 21.96875 47.46875 24.109375 47.828125 
Q 26.265625 48.1875 28.421875 48.1875 
Q 40.625 48.1875 47.75 41.5 
Q 54.890625 34.8125 54.890625 23.390625 
Q 54.890625 11.625 47.5625 5.09375 
Q 40.234375 -1.421875 26.90625 -1.421875 
Q 22.3125 -1.421875 17.546875 -0.640625 
Q 12.796875 0.140625 7.71875 1.703125 
L 7.71875 11.625 
Q 12.109375 9.234375 16.796875 8.0625 
Q 21.484375 6.890625 26.703125 6.890625 
Q 35.15625 6.890625 40.078125 11.328125 
Q 45.015625 15.765625 45.015625 23.390625 
Q 45.015625 31 40.078125 35.4375 
Q 35.15625 39.890625 26.703125 39.890625 
Q 22.75 39.890625 18.8125 39.015625 
Q 14.890625 38.140625 10.796875 36.28125 
z
" id="DejaVuSans-53"/>
       </defs>
       <use xlink:href="#DejaVuSans-50"/>
       <use x="63.623047" xlink:href="#DejaVuSans-46"/>
       <use x="95.410156" xlink:href="#DejaVuSans-53"/>
      </g>
     </g>
    </g>
    <g id="ytick_3">
     <g id="line2d_3">
      <g>
       <use style="stroke:#000000;stroke-width:0.8;" x="54.982813" xlink:href="#m4d504fb4c8" y="231.212756"/>
      </g>
     </g>
     <g id="text_4">
      <!-- 5.0 -->
      <g transform="translate(32.079688 235.011974)scale(0.1 -0.1)">
       <use xlink:href="#DejaVuSans-53"/>
       <use x="63.623047" xlink:href="#DejaVuSans-46"/>
       <use x="95.410156" xlink:href="#DejaVuSans-48"/>
      </g>
     </g>
    </g>
    <g id="ytick_4">
     <g id="line2d_4">
      <g>
       <use style="stroke:#000000;stroke-width:0.8;" x="54.982813" xlink:href="#m4d504fb4c8" y="188.651404"/>
      </g>
     </g>
     <g id="text_5">
      <!-- 7.5 -->
      <g transform="translate(32.079688 192.450623)scale(0.1 -0.1)">
       <defs>
        <path d="M 8.203125 72.90625 
L 55.078125 72.90625 
L 55.078125 68.703125 
L 28.609375 0 
L 18.3125 0 
L 43.21875 64.59375 
L 8.203125 64.59375 
z
" id="DejaVuSans-55"/>
       </defs>
       <use xlink:href="#DejaVuSans-55"/>
       <use x="63.623047" xlink:href="#DejaVuSans-46"/>
       <use x="95.410156" xlink:href="#DejaVuSans-53"/>
      </g>
     </g>
    </g>
    <g id="ytick_5">
     <g id="line2d_5">
      <g>
       <use style="stroke:#000000;stroke-width:0.8;" x="54.982813" xlink:href="#m4d504fb4c8" y="146.090052"/>
      </g>
     </g>
     <g id="text_6">
      <!-- 10.0 -->
      <g transform="translate(25.717188 149.889271)scale(0.1 -0.1)">
       <defs>
        <path d="M 12.40625 8.296875 
L 28.515625 8.296875 
L 28.515625 63.921875 
L 10.984375 60.40625 
L 10.984375 69.390625 
L 28.421875 72.90625 
L 38.28125 72.90625 
L 38.28125 8.296875 
L 54.390625 8.296875 
L 54.390625 0 
L 12.40625 0 
z
" id="DejaVuSans-49"/>
       </defs>
       <use xlink:href="#DejaVuSans-49"/>
       <use x="63.623047" xlink:href="#DejaVuSans-48"/>
       <use x="127.246094" xlink:href="#DejaVuSans-46"/>
       <use x="159.033203" xlink:href="#DejaVuSans-48"/>
      </g>
     </g>
    </g>
    <g id="ytick_6">
     <g id="line2d_6">
      <g>
       <use style="stroke:#000000;stroke-width:0.8;" x="54.982813" xlink:href="#m4d504fb4c8" y="103.5287"/>
      </g>
     </g>
     <g id="text_7">
      <!-- 12.5 -->
      <g transform="translate(25.717188 107.327919)scale(0.1 -0.1)">
       <use xlink:href="#DejaVuSans-49"/>
       <use x="63.623047" xlink:href="#DejaVuSans-50"/>
       <use x="127.246094" xlink:href="#DejaVuSans-46"/>
       <use x="159.033203" xlink:href="#DejaVuSans-53"/>
      </g>
     </g>
    </g>
    <g id="ytick_7">
     <g id="line2d_7">
      <g>
       <use style="stroke:#000000;stroke-width:0.8;" x="54.982813" xlink:href="#m4d504fb4c8" y="60.967349"/>
      </g>
     </g>
     <g id="text_8">
      <!-- 15.0 -->
      <g transform="translate(25.717188 64.766567)scale(0.1 -0.1)">
       <use xlink:href="#DejaVuSans-49"/>
       <use x="63.623047" xlink:href="#DejaVuSans-53"/>
       <use x="127.246094" xlink:href="#DejaVuSans-46"/>
       <use x="159.033203" xlink:href="#DejaVuSans-48"/>
      </g>
     </g>
    </g>
    <g id="ytick_8">
     <g id="line2d_8">
      <g>
       <use style="stroke:#000000;stroke-width:0.8;" x="54.982813" xlink:href="#m4d504fb4c8" y="18.405997"/>
      </g>
     </g>
     <g id="text_9">
      <!-- 17.5 -->
      <g transform="translate(25.717188 22.205216)scale(0.1 -0.1)">
       <use xlink:href="#DejaVuSans-49"/>
       <use x="63.623047" xlink:href="#DejaVuSans-55"/>
       <use x="127.246094" xlink:href="#DejaVuSans-46"/>
       <use x="159.033203" xlink:href="#DejaVuSans-53"/>
      </g>
     </g>
    </g>
    <g id="text_10">
     <!-- SufR iModulon Activity -->
     <g transform="translate(18.597656 254.546016)rotate(-90)scale(0.15 -0.15)">
      <defs>
       <path d="M 53.515625 70.515625 
L 53.515625 60.890625 
Q 47.90625 63.578125 42.921875 64.890625 
Q 37.9375 66.21875 33.296875 66.21875 
Q 25.25 66.21875 20.875 63.09375 
Q 16.5 59.96875 16.5 54.203125 
Q 16.5 49.359375 19.40625 46.890625 
Q 22.3125 44.4375 30.421875 42.921875 
L 36.375 41.703125 
Q 47.40625 39.59375 52.65625 34.296875 
Q 57.90625 29 57.90625 20.125 
Q 57.90625 9.515625 50.796875 4.046875 
Q 43.703125 -1.421875 29.984375 -1.421875 
Q 24.8125 -1.421875 18.96875 -0.25 
Q 13.140625 0.921875 6.890625 3.21875 
L 6.890625 13.375 
Q 12.890625 10.015625 18.65625 8.296875 
Q 24.421875 6.59375 29.984375 6.59375 
Q 38.421875 6.59375 43.015625 9.90625 
Q 47.609375 13.234375 47.609375 19.390625 
Q 47.609375 24.75 44.3125 27.78125 
Q 41.015625 30.8125 33.5 32.328125 
L 27.484375 33.5 
Q 16.453125 35.6875 11.515625 40.375 
Q 6.59375 45.0625 6.59375 53.421875 
Q 6.59375 63.09375 13.40625 68.65625 
Q 20.21875 74.21875 32.171875 74.21875 
Q 37.3125 74.21875 42.625 73.28125 
Q 47.953125 72.359375 53.515625 70.515625 
z
" id="DejaVuSans-83"/>
       <path d="M 8.5 21.578125 
L 8.5 54.6875 
L 17.484375 54.6875 
L 17.484375 21.921875 
Q 17.484375 14.15625 20.5 10.265625 
Q 23.53125 6.390625 29.59375 6.390625 
Q 36.859375 6.390625 41.078125 11.03125 
Q 45.3125 15.671875 45.3125 23.6875 
L 45.3125 54.6875 
L 54.296875 54.6875 
L 54.296875 0 
L 45.3125 0 
L 45.3125 8.40625 
Q 42.046875 3.421875 37.71875 1 
Q 33.40625 -1.421875 27.6875 -1.421875 
Q 18.265625 -1.421875 13.375 4.4375 
Q 8.5 10.296875 8.5 21.578125 
z
M 31.109375 56 
z
" id="DejaVuSans-117"/>
       <path d="M 37.109375 75.984375 
L 37.109375 68.5 
L 28.515625 68.5 
Q 23.6875 68.5 21.796875 66.546875 
Q 19.921875 64.59375 19.921875 59.515625 
L 19.921875 54.6875 
L 34.71875 54.6875 
L 34.71875 47.703125 
L 19.921875 47.703125 
L 19.921875 0 
L 10.890625 0 
L 10.890625 47.703125 
L 2.296875 47.703125 
L 2.296875 54.6875 
L 10.890625 54.6875 
L 10.890625 58.5 
Q 10.890625 67.625 15.140625 71.796875 
Q 19.390625 75.984375 28.609375 75.984375 
z
" id="DejaVuSans-102"/>
       <path d="M 44.390625 34.1875 
Q 47.5625 33.109375 50.5625 29.59375 
Q 53.5625 26.078125 56.59375 19.921875 
L 66.609375 0 
L 56 0 
L 46.6875 18.703125 
Q 43.0625 26.03125 39.671875 28.421875 
Q 36.28125 30.8125 30.421875 30.8125 
L 19.671875 30.8125 
L 19.671875 0 
L 9.8125 0 
L 9.8125 72.90625 
L 32.078125 72.90625 
Q 44.578125 72.90625 50.734375 67.671875 
Q 56.890625 62.453125 56.890625 51.90625 
Q 56.890625 45.015625 53.6875 40.46875 
Q 50.484375 35.9375 44.390625 34.1875 
z
M 19.671875 64.796875 
L 19.671875 38.921875 
L 32.078125 38.921875 
Q 39.203125 38.921875 42.84375 42.21875 
Q 46.484375 45.515625 46.484375 51.90625 
Q 46.484375 58.296875 42.84375 61.546875 
Q 39.203125 64.796875 32.078125 64.796875 
z
" id="DejaVuSans-82"/>
       <path id="DejaVuSans-32"/>
       <path d="M 9.421875 54.6875 
L 18.40625 54.6875 
L 18.40625 0 
L 9.421875 0 
z
M 9.421875 75.984375 
L 18.40625 75.984375 
L 18.40625 64.59375 
L 9.421875 64.59375 
z
" id="DejaVuSans-105"/>
       <path d="M 9.8125 72.90625 
L 24.515625 72.90625 
L 43.109375 23.296875 
L 61.8125 72.90625 
L 76.515625 72.90625 
L 76.515625 0 
L 66.890625 0 
L 66.890625 64.015625 
L 48.09375 14.015625 
L 38.1875 14.015625 
L 19.390625 64.015625 
L 19.390625 0 
L 9.8125 0 
z
" id="DejaVuSans-77"/>
       <path d="M 30.609375 48.390625 
Q 23.390625 48.390625 19.1875 42.75 
Q 14.984375 37.109375 14.984375 27.296875 
Q 14.984375 17.484375 19.15625 11.84375 
Q 23.34375 6.203125 30.609375 6.203125 
Q 37.796875 6.203125 41.984375 11.859375 
Q 46.1875 17.53125 46.1875 27.296875 
Q 46.1875 37.015625 41.984375 42.703125 
Q 37.796875 48.390625 30.609375 48.390625 
z
M 30.609375 56 
Q 42.328125 56 49.015625 48.375 
Q 55.71875 40.765625 55.71875 27.296875 
Q 55.71875 13.875 49.015625 6.21875 
Q 42.328125 -1.421875 30.609375 -1.421875 
Q 18.84375 -1.421875 12.171875 6.21875 
Q 5.515625 13.875 5.515625 27.296875 
Q 5.515625 40.765625 12.171875 48.375 
Q 18.84375 56 30.609375 56 
z
" id="DejaVuSans-111"/>
       <path d="M 45.40625 46.390625 
L 45.40625 75.984375 
L 54.390625 75.984375 
L 54.390625 0 
L 45.40625 0 
L 45.40625 8.203125 
Q 42.578125 3.328125 38.25 0.953125 
Q 33.9375 -1.421875 27.875 -1.421875 
Q 17.96875 -1.421875 11.734375 6.484375 
Q 5.515625 14.40625 5.515625 27.296875 
Q 5.515625 40.1875 11.734375 48.09375 
Q 17.96875 56 27.875 56 
Q 33.9375 56 38.25 53.625 
Q 42.578125 51.265625 45.40625 46.390625 
z
M 14.796875 27.296875 
Q 14.796875 17.390625 18.875 11.75 
Q 22.953125 6.109375 30.078125 6.109375 
Q 37.203125 6.109375 41.296875 11.75 
Q 45.40625 17.390625 45.40625 27.296875 
Q 45.40625 37.203125 41.296875 42.84375 
Q 37.203125 48.484375 30.078125 48.484375 
Q 22.953125 48.484375 18.875 42.84375 
Q 14.796875 37.203125 14.796875 27.296875 
z
" id="DejaVuSans-100"/>
       <path d="M 9.421875 75.984375 
L 18.40625 75.984375 
L 18.40625 0 
L 9.421875 0 
z
" id="DejaVuSans-108"/>
       <path d="M 54.890625 33.015625 
L 54.890625 0 
L 45.90625 0 
L 45.90625 32.71875 
Q 45.90625 40.484375 42.875 44.328125 
Q 39.84375 48.1875 33.796875 48.1875 
Q 26.515625 48.1875 22.3125 43.546875 
Q 18.109375 38.921875 18.109375 30.90625 
L 18.109375 0 
L 9.078125 0 
L 9.078125 54.6875 
L 18.109375 54.6875 
L 18.109375 46.1875 
Q 21.34375 51.125 25.703125 53.5625 
Q 30.078125 56 35.796875 56 
Q 45.21875 56 50.046875 50.171875 
Q 54.890625 44.34375 54.890625 33.015625 
z
" id="DejaVuSans-110"/>
       <path d="M 34.1875 63.1875 
L 20.796875 26.90625 
L 47.609375 26.90625 
z
M 28.609375 72.90625 
L 39.796875 72.90625 
L 67.578125 0 
L 57.328125 0 
L 50.6875 18.703125 
L 17.828125 18.703125 
L 11.1875 0 
L 0.78125 0 
z
" id="DejaVuSans-65"/>
       <path d="M 48.78125 52.59375 
L 48.78125 44.1875 
Q 44.96875 46.296875 41.140625 47.34375 
Q 37.3125 48.390625 33.40625 48.390625 
Q 24.65625 48.390625 19.8125 42.84375 
Q 14.984375 37.3125 14.984375 27.296875 
Q 14.984375 17.28125 19.8125 11.734375 
Q 24.65625 6.203125 33.40625 6.203125 
Q 37.3125 6.203125 41.140625 7.25 
Q 44.96875 8.296875 48.78125 10.40625 
L 48.78125 2.09375 
Q 45.015625 0.34375 40.984375 -0.53125 
Q 36.96875 -1.421875 32.421875 -1.421875 
Q 20.0625 -1.421875 12.78125 6.34375 
Q 5.515625 14.109375 5.515625 27.296875 
Q 5.515625 40.671875 12.859375 48.328125 
Q 20.21875 56 33.015625 56 
Q 37.15625 56 41.109375 55.140625 
Q 45.0625 54.296875 48.78125 52.59375 
z
" id="DejaVuSans-99"/>
       <path d="M 18.3125 70.21875 
L 18.3125 54.6875 
L 36.8125 54.6875 
L 36.8125 47.703125 
L 18.3125 47.703125 
L 18.3125 18.015625 
Q 18.3125 11.328125 20.140625 9.421875 
Q 21.96875 7.515625 27.59375 7.515625 
L 36.8125 7.515625 
L 36.8125 0 
L 27.59375 0 
Q 17.1875 0 13.234375 3.875 
Q 9.28125 7.765625 9.28125 18.015625 
L 9.28125 47.703125 
L 2.6875 47.703125 
L 2.6875 54.6875 
L 9.28125 54.6875 
L 9.28125 70.21875 
z
" id="DejaVuSans-116"/>
       <path d="M 2.984375 54.6875 
L 12.5 54.6875 
L 29.59375 8.796875 
L 46.6875 54.6875 
L 56.203125 54.6875 
L 35.6875 0 
L 23.484375 0 
z
" id="DejaVuSans-118"/>
       <path d="M 32.171875 -5.078125 
Q 28.375 -14.84375 24.75 -17.8125 
Q 21.140625 -20.796875 15.09375 -20.796875 
L 7.90625 -20.796875 
L 7.90625 -13.28125 
L 13.1875 -13.28125 
Q 16.890625 -13.28125 18.9375 -11.515625 
Q 21 -9.765625 23.484375 -3.21875 
L 25.09375 0.875 
L 2.984375 54.6875 
L 12.5 54.6875 
L 29.59375 11.921875 
L 46.6875 54.6875 
L 56.203125 54.6875 
z
" id="DejaVuSans-121"/>
      </defs>
      <use xlink:href="#DejaVuSans-83"/>
      <use x="63.476562" xlink:href="#DejaVuSans-117"/>
      <use x="126.855469" xlink:href="#DejaVuSans-102"/>
      <use x="162.060547" xlink:href="#DejaVuSans-82"/>
      <use x="231.542969" xlink:href="#DejaVuSans-32"/>
      <use x="263.330078" xlink:href="#DejaVuSans-105"/>
      <use x="291.113281" xlink:href="#DejaVuSans-77"/>
      <use x="377.392578" xlink:href="#DejaVuSans-111"/>
      <use x="438.574219" xlink:href="#DejaVuSans-100"/>
      <use x="502.050781" xlink:href="#DejaVuSans-117"/>
      <use x="565.429688" xlink:href="#DejaVuSans-108"/>
      <use x="593.212891" xlink:href="#DejaVuSans-111"/>
      <use x="654.394531" xlink:href="#DejaVuSans-110"/>
      <use x="717.773438" xlink:href="#DejaVuSans-32"/>
      <use x="749.560547" xlink:href="#DejaVuSans-65"/>
      <use x="816.21875" xlink:href="#DejaVuSans-99"/>
      <use x="871.199219" xlink:href="#DejaVuSans-116"/>
      <use x="910.408203" xlink:href="#DejaVuSans-105"/>
      <use x="938.191406" xlink:href="#DejaVuSans-118"/>
      <use x="997.371094" xlink:href="#DejaVuSans-105"/>
      <use x="1025.154297" xlink:href="#DejaVuSans-116"/>
      <use x="1064.363281" xlink:href="#DejaVuSans-121"/>
     </g>
    </g>
   </g>
   <g id="PathCollection_1">
    <defs>
     <path d="M 0 1.581139 
C 0.419323 1.581139 0.821528 1.41454 1.118034 1.118034 
C 1.41454 0.821528 1.581139 0.419323 1.581139 0 
C 1.581139 -0.419323 1.41454 -0.821528 1.118034 -1.118034 
C 0.821528 -1.41454 0.419323 -1.581139 0 -1.581139 
C -0.419323 -1.581139 -0.821528 -1.41454 -1.118034 -1.118034 
C -1.41454 -0.821528 -1.581139 -0.419323 -1.581139 0 
C -1.581139 0.419323 -1.41454 0.821528 -1.118034 1.118034 
C -0.821528 1.41454 -0.419323 1.581139 0 1.581139 
z
" id="m748958d42f" style="stroke:#000000;"/>
    </defs>
    <g clip-path="url(#pc6ca451812)">
     <use style="stroke:#000000;" x="185.182813" xlink:href="#m748958d42f" y="289.765565"/>
     <use style="stroke:#000000;" x="250.282813" xlink:href="#m748958d42f" y="249.660829"/>
     <use style="stroke:#000000;" x="315.382812" xlink:href="#m748958d42f" y="257.54604"/>
     <use style="stroke:#000000;" x="380.482813" xlink:href="#m748958d42f" y="85.79287"/>
     <use style="stroke:#000000;" x="445.582812" xlink:href="#m748958d42f" y="49.688192"/>
     <use style="stroke:#000000;" x="510.682812" xlink:href="#m748958d42f" y="95.124854"/>
     <use style="stroke:#000000;" x="575.782812" xlink:href="#m748958d42f" y="85.610072"/>
     <use style="stroke:#000000;" x="640.882812" xlink:href="#m748958d42f" y="59.188829"/>
     <use style="stroke:#000000;" x="705.982812" xlink:href="#m748958d42f" y="35.303224"/>
    </g>
   </g>
   <g id="LineCollection_1">
    <path clip-path="url(#pc6ca451812)" d="M 152.632812 333.36 
L 152.632812 7.2 
" style="fill:none;stroke:#d3d3d3;"/>
    <path clip-path="url(#pc6ca451812)" d="M 738.532812 333.36 
L 738.532812 7.2 
" style="fill:none;stroke:#d3d3d3;"/>
   </g>
   <g id="LineCollection_2">
    <path clip-path="url(#pc6ca451812)" d="M 54.982813 316.335459 
L 836.182812 316.335459 
" style="fill:none;stroke:#000000;stroke-width:1.5;"/>
   </g>
   <g id="patch_12">
    <path d="M 54.982813 333.36 
L 54.982813 7.2 
" style="fill:none;stroke:#000000;stroke-linecap:square;stroke-linejoin:miter;stroke-width:0.8;"/>
   </g>
   <g id="patch_13">
    <path d="M 836.182813 333.36 
L 836.182813 7.2 
" style="fill:none;stroke:#000000;stroke-linecap:square;stroke-linejoin:miter;stroke-width:0.8;"/>
   </g>
   <g id="patch_14">
    <path d="M 54.982813 333.36 
L 836.182812 333.36 
" style="fill:none;stroke:#000000;stroke-linecap:square;stroke-linejoin:miter;stroke-width:0.8;"/>
   </g>
   <g id="patch_15">
    <path d="M 54.982813 7.2 
L 836.182812 7.2 
" style="fill:none;stroke:#000000;stroke-linecap:square;stroke-linejoin:miter;stroke-width:0.8;"/>
   </g>
   <g id="text_11">
    <!-- change-of-dissolved-oxygen -->
    <g transform="translate(409.909048 444.55931)rotate(-45)scale(0.1 -0.1)">
     <defs>
      <path d="M 54.890625 33.015625 
L 54.890625 0 
L 45.90625 0 
L 45.90625 32.71875 
Q 45.90625 40.484375 42.875 44.328125 
Q 39.84375 48.1875 33.796875 48.1875 
Q 26.515625 48.1875 22.3125 43.546875 
Q 18.109375 38.921875 18.109375 30.90625 
L 18.109375 0 
L 9.078125 0 
L 9.078125 75.984375 
L 18.109375 75.984375 
L 18.109375 46.1875 
Q 21.34375 51.125 25.703125 53.5625 
Q 30.078125 56 35.796875 56 
Q 45.21875 56 50.046875 50.171875 
Q 54.890625 44.34375 54.890625 33.015625 
z
" id="DejaVuSans-104"/>
      <path d="M 34.28125 27.484375 
Q 23.390625 27.484375 19.1875 25 
Q 14.984375 22.515625 14.984375 16.5 
Q 14.984375 11.71875 18.140625 8.90625 
Q 21.296875 6.109375 26.703125 6.109375 
Q 34.1875 6.109375 38.703125 11.40625 
Q 43.21875 16.703125 43.21875 25.484375 
L 43.21875 27.484375 
z
M 52.203125 31.203125 
L 52.203125 0 
L 43.21875 0 
L 43.21875 8.296875 
Q 40.140625 3.328125 35.546875 0.953125 
Q 30.953125 -1.421875 24.3125 -1.421875 
Q 15.921875 -1.421875 10.953125 3.296875 
Q 6 8.015625 6 15.921875 
Q 6 25.140625 12.171875 29.828125 
Q 18.359375 34.515625 30.609375 34.515625 
L 43.21875 34.515625 
L 43.21875 35.40625 
Q 43.21875 41.609375 39.140625 45 
Q 35.0625 48.390625 27.6875 48.390625 
Q 23 48.390625 18.546875 47.265625 
Q 14.109375 46.140625 10.015625 43.890625 
L 10.015625 52.203125 
Q 14.9375 54.109375 19.578125 55.046875 
Q 24.21875 56 28.609375 56 
Q 40.484375 56 46.34375 49.84375 
Q 52.203125 43.703125 52.203125 31.203125 
z
" id="DejaVuSans-97"/>
      <path d="M 45.40625 27.984375 
Q 45.40625 37.75 41.375 43.109375 
Q 37.359375 48.484375 30.078125 48.484375 
Q 22.859375 48.484375 18.828125 43.109375 
Q 14.796875 37.75 14.796875 27.984375 
Q 14.796875 18.265625 18.828125 12.890625 
Q 22.859375 7.515625 30.078125 7.515625 
Q 37.359375 7.515625 41.375 12.890625 
Q 45.40625 18.265625 45.40625 27.984375 
z
M 54.390625 6.78125 
Q 54.390625 -7.171875 48.1875 -13.984375 
Q 42 -20.796875 29.203125 -20.796875 
Q 24.46875 -20.796875 20.265625 -20.09375 
Q 16.0625 -19.390625 12.109375 -17.921875 
L 12.109375 -9.1875 
Q 16.0625 -11.328125 19.921875 -12.34375 
Q 23.78125 -13.375 27.78125 -13.375 
Q 36.625 -13.375 41.015625 -8.765625 
Q 45.40625 -4.15625 45.40625 5.171875 
L 45.40625 9.625 
Q 42.625 4.78125 38.28125 2.390625 
Q 33.9375 0 27.875 0 
Q 17.828125 0 11.671875 7.65625 
Q 5.515625 15.328125 5.515625 27.984375 
Q 5.515625 40.671875 11.671875 48.328125 
Q 17.828125 56 27.875 56 
Q 33.9375 56 38.28125 53.609375 
Q 42.625 51.21875 45.40625 46.390625 
L 45.40625 54.6875 
L 54.390625 54.6875 
z
" id="DejaVuSans-103"/>
      <path d="M 56.203125 29.59375 
L 56.203125 25.203125 
L 14.890625 25.203125 
Q 15.484375 15.921875 20.484375 11.0625 
Q 25.484375 6.203125 34.421875 6.203125 
Q 39.59375 6.203125 44.453125 7.46875 
Q 49.3125 8.734375 54.109375 11.28125 
L 54.109375 2.78125 
Q 49.265625 0.734375 44.1875 -0.34375 
Q 39.109375 -1.421875 33.890625 -1.421875 
Q 20.796875 -1.421875 13.15625 6.1875 
Q 5.515625 13.8125 5.515625 26.8125 
Q 5.515625 40.234375 12.765625 48.109375 
Q 20.015625 56 32.328125 56 
Q 43.359375 56 49.78125 48.890625 
Q 56.203125 41.796875 56.203125 29.59375 
z
M 47.21875 32.234375 
Q 47.125 39.59375 43.09375 43.984375 
Q 39.0625 48.390625 32.421875 48.390625 
Q 24.90625 48.390625 20.390625 44.140625 
Q 15.875 39.890625 15.1875 32.171875 
z
" id="DejaVuSans-101"/>
      <path d="M 4.890625 31.390625 
L 31.203125 31.390625 
L 31.203125 23.390625 
L 4.890625 23.390625 
z
" id="DejaVuSans-45"/>
      <path d="M 44.28125 53.078125 
L 44.28125 44.578125 
Q 40.484375 46.53125 36.375 47.5 
Q 32.28125 48.484375 27.875 48.484375 
Q 21.1875 48.484375 17.84375 46.4375 
Q 14.5 44.390625 14.5 40.28125 
Q 14.5 37.15625 16.890625 35.375 
Q 19.28125 33.59375 26.515625 31.984375 
L 29.59375 31.296875 
Q 39.15625 29.25 43.1875 25.515625 
Q 47.21875 21.78125 47.21875 15.09375 
Q 47.21875 7.46875 41.1875 3.015625 
Q 35.15625 -1.421875 24.609375 -1.421875 
Q 20.21875 -1.421875 15.453125 -0.5625 
Q 10.6875 0.296875 5.421875 2 
L 5.421875 11.28125 
Q 10.40625 8.6875 15.234375 7.390625 
Q 20.0625 6.109375 24.8125 6.109375 
Q 31.15625 6.109375 34.5625 8.28125 
Q 37.984375 10.453125 37.984375 14.40625 
Q 37.984375 18.0625 35.515625 20.015625 
Q 33.0625 21.96875 24.703125 23.78125 
L 21.578125 24.515625 
Q 13.234375 26.265625 9.515625 29.90625 
Q 5.8125 33.546875 5.8125 39.890625 
Q 5.8125 47.609375 11.28125 51.796875 
Q 16.75 56 26.8125 56 
Q 31.78125 56 36.171875 55.265625 
Q 40.578125 54.546875 44.28125 53.078125 
z
" id="DejaVuSans-115"/>
      <path d="M 54.890625 54.6875 
L 35.109375 28.078125 
L 55.90625 0 
L 45.3125 0 
L 29.390625 21.484375 
L 13.484375 0 
L 2.875 0 
L 24.125 28.609375 
L 4.6875 54.6875 
L 15.28125 54.6875 
L 29.78125 35.203125 
L 44.28125 54.6875 
z
" id="DejaVuSans-120"/>
     </defs>
     <use xlink:href="#DejaVuSans-99"/>
     <use x="54.980469" xlink:href="#DejaVuSans-104"/>
     <use x="118.359375" xlink:href="#DejaVuSans-97"/>
     <use x="179.638672" xlink:href="#DejaVuSans-110"/>
     <use x="243.017578" xlink:href="#DejaVuSans-103"/>
     <use x="306.494141" xlink:href="#DejaVuSans-101"/>
     <use x="368.017578" xlink:href="#DejaVuSans-45"/>
     <use x="405.976562" xlink:href="#DejaVuSans-111"/>
     <use x="467.158203" xlink:href="#DejaVuSans-102"/>
     <use x="496.863281" xlink:href="#DejaVuSans-45"/>
     <use x="532.947266" xlink:href="#DejaVuSans-100"/>
     <use x="596.423828" xlink:href="#DejaVuSans-105"/>
     <use x="624.207031" xlink:href="#DejaVuSans-115"/>
     <use x="676.306641" xlink:href="#DejaVuSans-115"/>
     <use x="728.40625" xlink:href="#DejaVuSans-111"/>
     <use x="789.587891" xlink:href="#DejaVuSans-108"/>
     <use x="817.371094" xlink:href="#DejaVuSans-118"/>
     <use x="876.550781" xlink:href="#DejaVuSans-101"/>
     <use x="938.074219" xlink:href="#DejaVuSans-100"/>
     <use x="1001.550781" xlink:href="#DejaVuSans-45"/>
     <use x="1039.509766" xlink:href="#DejaVuSans-111"/>
     <use x="1097.566406" xlink:href="#DejaVuSans-120"/>
     <use x="1156.746094" xlink:href="#DejaVuSans-121"/>
     <use x="1215.925781" xlink:href="#DejaVuSans-103"/>
     <use x="1279.402344" xlink:href="#DejaVuSans-101"/>
     <use x="1340.925781" xlink:href="#DejaVuSans-110"/>
    </g>
   </g>
   <g id="legend_1">
    <g id="patch_16">
     <path d="M 843.182813 88.590625 
L 1319.520313 88.590625 
Q 1321.520313 88.590625 1321.520313 86.590625 
L 1321.520313 14.2 
Q 1321.520313 12.2 1319.520313 12.2 
L 843.182813 12.2 
Q 841.182813 12.2 841.182813 14.2 
L 841.182813 86.590625 
Q 841.182813 88.590625 843.182813 88.590625 
z
" style="fill:#ffffff;opacity:0.8;stroke:#cccccc;stroke-linejoin:miter;"/>
    </g>
    <g id="patch_17">
     <path d="M 845.182813 23.798437 
L 865.182813 23.798437 
L 865.182813 16.798437 
L 845.182813 16.798437 
z
" style="fill:#d62728;"/>
    </g>
    <g id="text_12">
     <!-- change-of-dissolved-oxygen - 0%OD-1 -->
     <g transform="translate(873.182813 23.798437)scale(0.1 -0.1)">
      <defs>
       <path d="M 72.703125 32.078125 
Q 68.453125 32.078125 66.03125 28.46875 
Q 63.625 24.859375 63.625 18.40625 
Q 63.625 12.0625 66.03125 8.421875 
Q 68.453125 4.78125 72.703125 4.78125 
Q 76.859375 4.78125 79.265625 8.421875 
Q 81.6875 12.0625 81.6875 18.40625 
Q 81.6875 24.8125 79.265625 28.4375 
Q 76.859375 32.078125 72.703125 32.078125 
z
M 72.703125 38.28125 
Q 80.421875 38.28125 84.953125 32.90625 
Q 89.5 27.546875 89.5 18.40625 
Q 89.5 9.28125 84.9375 3.921875 
Q 80.375 -1.421875 72.703125 -1.421875 
Q 64.890625 -1.421875 60.34375 3.921875 
Q 55.8125 9.28125 55.8125 18.40625 
Q 55.8125 27.59375 60.375 32.9375 
Q 64.9375 38.28125 72.703125 38.28125 
z
M 22.3125 68.015625 
Q 18.109375 68.015625 15.6875 64.375 
Q 13.28125 60.75 13.28125 54.390625 
Q 13.28125 47.953125 15.671875 44.328125 
Q 18.0625 40.71875 22.3125 40.71875 
Q 26.5625 40.71875 28.96875 44.328125 
Q 31.390625 47.953125 31.390625 54.390625 
Q 31.390625 60.6875 28.953125 64.34375 
Q 26.515625 68.015625 22.3125 68.015625 
z
M 66.40625 74.21875 
L 74.21875 74.21875 
L 28.609375 -1.421875 
L 20.796875 -1.421875 
z
M 22.3125 74.21875 
Q 30.03125 74.21875 34.609375 68.875 
Q 39.203125 63.53125 39.203125 54.390625 
Q 39.203125 45.171875 34.640625 39.84375 
Q 30.078125 34.515625 22.3125 34.515625 
Q 14.546875 34.515625 10.03125 39.859375 
Q 5.515625 45.21875 5.515625 54.390625 
Q 5.515625 63.484375 10.046875 68.84375 
Q 14.59375 74.21875 22.3125 74.21875 
z
" id="DejaVuSans-37"/>
      </defs>
      <use xlink:href="#DejaVuSans-99"/>
      <use x="54.980469" xlink:href="#DejaVuSans-104"/>
      <use x="118.359375" xlink:href="#DejaVuSans-97"/>
      <use x="179.638672" xlink:href="#DejaVuSans-110"/>
      <use x="243.017578" xlink:href="#DejaVuSans-103"/>
      <use x="306.494141" xlink:href="#DejaVuSans-101"/>
      <use x="368.017578" xlink:href="#DejaVuSans-45"/>
      <use x="405.976562" xlink:href="#DejaVuSans-111"/>
      <use x="467.158203" xlink:href="#DejaVuSans-102"/>
      <use x="496.863281" xlink:href="#DejaVuSans-45"/>
      <use x="532.947266" xlink:href="#DejaVuSans-100"/>
      <use x="596.423828" xlink:href="#DejaVuSans-105"/>
      <use x="624.207031" xlink:href="#DejaVuSans-115"/>
      <use x="676.306641" xlink:href="#DejaVuSans-115"/>
      <use x="728.40625" xlink:href="#DejaVuSans-111"/>
      <use x="789.587891" xlink:href="#DejaVuSans-108"/>
      <use x="817.371094" xlink:href="#DejaVuSans-118"/>
      <use x="876.550781" xlink:href="#DejaVuSans-101"/>
      <use x="938.074219" xlink:href="#DejaVuSans-100"/>
      <use x="1001.550781" xlink:href="#DejaVuSans-45"/>
      <use x="1039.509766" xlink:href="#DejaVuSans-111"/>
      <use x="1097.566406" xlink:href="#DejaVuSans-120"/>
      <use x="1156.746094" xlink:href="#DejaVuSans-121"/>
      <use x="1215.925781" xlink:href="#DejaVuSans-103"/>
      <use x="1279.402344" xlink:href="#DejaVuSans-101"/>
      <use x="1340.925781" xlink:href="#DejaVuSans-110"/>
      <use x="1404.304688" xlink:href="#DejaVuSans-32"/>
      <use x="1436.091797" xlink:href="#DejaVuSans-45"/>
      <use x="1472.175781" xlink:href="#DejaVuSans-32"/>
      <use x="1503.962891" xlink:href="#DejaVuSans-48"/>
      <use x="1567.585938" xlink:href="#DejaVuSans-37"/>
      <use x="1662.605469" xlink:href="#DejaVuSans-79"/>
      <use x="1741.316406" xlink:href="#DejaVuSans-68"/>
      <use x="1818.318359" xlink:href="#DejaVuSans-45"/>
      <use x="1854.402344" xlink:href="#DejaVuSans-49"/>
     </g>
    </g>
    <g id="patch_18">
     <path d="M 845.182813 38.476562 
L 865.182813 38.476562 
L 865.182813 31.476562 
L 845.182813 31.476562 
z
" style="fill:#ff7f0e;"/>
    </g>
    <g id="text_13">
     <!-- change-of-dissolved-oxygen - 0%OD-2 -->
     <g transform="translate(873.182813 38.476562)scale(0.1 -0.1)">
      <use xlink:href="#DejaVuSans-99"/>
      <use x="54.980469" xlink:href="#DejaVuSans-104"/>
      <use x="118.359375" xlink:href="#DejaVuSans-97"/>
      <use x="179.638672" xlink:href="#DejaVuSans-110"/>
      <use x="243.017578" xlink:href="#DejaVuSans-103"/>
      <use x="306.494141" xlink:href="#DejaVuSans-101"/>
      <use x="368.017578" xlink:href="#DejaVuSans-45"/>
      <use x="405.976562" xlink:href="#DejaVuSans-111"/>
      <use x="467.158203" xlink:href="#DejaVuSans-102"/>
      <use x="496.863281" xlink:href="#DejaVuSans-45"/>
      <use x="532.947266" xlink:href="#DejaVuSans-100"/>
      <use x="596.423828" xlink:href="#DejaVuSans-105"/>
      <use x="624.207031" xlink:href="#DejaVuSans-115"/>
      <use x="676.306641" xlink:href="#DejaVuSans-115"/>
      <use x="728.40625" xlink:href="#DejaVuSans-111"/>
      <use x="789.587891" xlink:href="#DejaVuSans-108"/>
      <use x="817.371094" xlink:href="#DejaVuSans-118"/>
      <use x="876.550781" xlink:href="#DejaVuSans-101"/>
      <use x="938.074219" xlink:href="#DejaVuSans-100"/>
      <use x="1001.550781" xlink:href="#DejaVuSans-45"/>
      <use x="1039.509766" xlink:href="#DejaVuSans-111"/>
      <use x="1097.566406" xlink:href="#DejaVuSans-120"/>
      <use x="1156.746094" xlink:href="#DejaVuSans-121"/>
      <use x="1215.925781" xlink:href="#DejaVuSans-103"/>
      <use x="1279.402344" xlink:href="#DejaVuSans-101"/>
      <use x="1340.925781" xlink:href="#DejaVuSans-110"/>
      <use x="1404.304688" xlink:href="#DejaVuSans-32"/>
      <use x="1436.091797" xlink:href="#DejaVuSans-45"/>
      <use x="1472.175781" xlink:href="#DejaVuSans-32"/>
      <use x="1503.962891" xlink:href="#DejaVuSans-48"/>
      <use x="1567.585938" xlink:href="#DejaVuSans-37"/>
      <use x="1662.605469" xlink:href="#DejaVuSans-79"/>
      <use x="1741.316406" xlink:href="#DejaVuSans-68"/>
      <use x="1818.318359" xlink:href="#DejaVuSans-45"/>
      <use x="1854.402344" xlink:href="#DejaVuSans-50"/>
     </g>
    </g>
    <g id="patch_19">
     <path d="M 845.182813 53.154687 
L 865.182813 53.154687 
L 865.182813 46.154687 
L 845.182813 46.154687 
z
" style="fill:#2ca02c;"/>
    </g>
    <g id="text_14">
     <!-- change-of-dissolved-oxygen - 0%OD-3 -->
     <g transform="translate(873.182813 53.154687)scale(0.1 -0.1)">
      <defs>
       <path d="M 40.578125 39.3125 
Q 47.65625 37.796875 51.625 33 
Q 55.609375 28.21875 55.609375 21.1875 
Q 55.609375 10.40625 48.1875 4.484375 
Q 40.765625 -1.421875 27.09375 -1.421875 
Q 22.515625 -1.421875 17.65625 -0.515625 
Q 12.796875 0.390625 7.625 2.203125 
L 7.625 11.71875 
Q 11.71875 9.328125 16.59375 8.109375 
Q 21.484375 6.890625 26.8125 6.890625 
Q 36.078125 6.890625 40.9375 10.546875 
Q 45.796875 14.203125 45.796875 21.1875 
Q 45.796875 27.640625 41.28125 31.265625 
Q 36.765625 34.90625 28.71875 34.90625 
L 20.21875 34.90625 
L 20.21875 43.015625 
L 29.109375 43.015625 
Q 36.375 43.015625 40.234375 45.921875 
Q 44.09375 48.828125 44.09375 54.296875 
Q 44.09375 59.90625 40.109375 62.90625 
Q 36.140625 65.921875 28.71875 65.921875 
Q 24.65625 65.921875 20.015625 65.03125 
Q 15.375 64.15625 9.8125 62.3125 
L 9.8125 71.09375 
Q 15.4375 72.65625 20.34375 73.4375 
Q 25.25 74.21875 29.59375 74.21875 
Q 40.828125 74.21875 47.359375 69.109375 
Q 53.90625 64.015625 53.90625 55.328125 
Q 53.90625 49.265625 50.4375 45.09375 
Q 46.96875 40.921875 40.578125 39.3125 
z
" id="DejaVuSans-51"/>
      </defs>
      <use xlink:href="#DejaVuSans-99"/>
      <use x="54.980469" xlink:href="#DejaVuSans-104"/>
      <use x="118.359375" xlink:href="#DejaVuSans-97"/>
      <use x="179.638672" xlink:href="#DejaVuSans-110"/>
      <use x="243.017578" xlink:href="#DejaVuSans-103"/>
      <use x="306.494141" xlink:href="#DejaVuSans-101"/>
      <use x="368.017578" xlink:href="#DejaVuSans-45"/>
      <use x="405.976562" xlink:href="#DejaVuSans-111"/>
      <use x="467.158203" xlink:href="#DejaVuSans-102"/>
      <use x="496.863281" xlink:href="#DejaVuSans-45"/>
      <use x="532.947266" xlink:href="#DejaVuSans-100"/>
      <use x="596.423828" xlink:href="#DejaVuSans-105"/>
      <use x="624.207031" xlink:href="#DejaVuSans-115"/>
      <use x="676.306641" xlink:href="#DejaVuSans-115"/>
      <use x="728.40625" xlink:href="#DejaVuSans-111"/>
      <use x="789.587891" xlink:href="#DejaVuSans-108"/>
      <use x="817.371094" xlink:href="#DejaVuSans-118"/>
      <use x="876.550781" xlink:href="#DejaVuSans-101"/>
      <use x="938.074219" xlink:href="#DejaVuSans-100"/>
      <use x="1001.550781" xlink:href="#DejaVuSans-45"/>
      <use x="1039.509766" xlink:href="#DejaVuSans-111"/>
      <use x="1097.566406" xlink:href="#DejaVuSans-120"/>
      <use x="1156.746094" xlink:href="#DejaVuSans-121"/>
      <use x="1215.925781" xlink:href="#DejaVuSans-103"/>
      <use x="1279.402344" xlink:href="#DejaVuSans-101"/>
      <use x="1340.925781" xlink:href="#DejaVuSans-110"/>
      <use x="1404.304688" xlink:href="#DejaVuSans-32"/>
      <use x="1436.091797" xlink:href="#DejaVuSans-45"/>
      <use x="1472.175781" xlink:href="#DejaVuSans-32"/>
      <use x="1503.962891" xlink:href="#DejaVuSans-48"/>
      <use x="1567.585938" xlink:href="#DejaVuSans-37"/>
      <use x="1662.605469" xlink:href="#DejaVuSans-79"/>
      <use x="1741.316406" xlink:href="#DejaVuSans-68"/>
      <use x="1818.318359" xlink:href="#DejaVuSans-45"/>
      <use x="1854.402344" xlink:href="#DejaVuSans-51"/>
     </g>
    </g>
    <g id="patch_20">
     <path d="M 845.182813 67.832812 
L 865.182813 67.832812 
L 865.182813 60.832812 
L 845.182813 60.832812 
z
" style="fill:#9467bd;"/>
    </g>
    <g id="text_15">
     <!-- change-of-dissolved-oxygen - 30%OD-1 -->
     <g transform="translate(873.182813 67.832812)scale(0.1 -0.1)">
      <use xlink:href="#DejaVuSans-99"/>
      <use x="54.980469" xlink:href="#DejaVuSans-104"/>
      <use x="118.359375" xlink:href="#DejaVuSans-97"/>
      <use x="179.638672" xlink:href="#DejaVuSans-110"/>
      <use x="243.017578" xlink:href="#DejaVuSans-103"/>
      <use x="306.494141" xlink:href="#DejaVuSans-101"/>
      <use x="368.017578" xlink:href="#DejaVuSans-45"/>
      <use x="405.976562" xlink:href="#DejaVuSans-111"/>
      <use x="467.158203" xlink:href="#DejaVuSans-102"/>
      <use x="496.863281" xlink:href="#DejaVuSans-45"/>
      <use x="532.947266" xlink:href="#DejaVuSans-100"/>
      <use x="596.423828" xlink:href="#DejaVuSans-105"/>
      <use x="624.207031" xlink:href="#DejaVuSans-115"/>
      <use x="676.306641" xlink:href="#DejaVuSans-115"/>
      <use x="728.40625" xlink:href="#DejaVuSans-111"/>
      <use x="789.587891" xlink:href="#DejaVuSans-108"/>
      <use x="817.371094" xlink:href="#DejaVuSans-118"/>
      <use x="876.550781" xlink:href="#DejaVuSans-101"/>
      <use x="938.074219" xlink:href="#DejaVuSans-100"/>
      <use x="1001.550781" xlink:href="#DejaVuSans-45"/>
      <use x="1039.509766" xlink:href="#DejaVuSans-111"/>
      <use x="1097.566406" xlink:href="#DejaVuSans-120"/>
      <use x="1156.746094" xlink:href="#DejaVuSans-121"/>
      <use x="1215.925781" xlink:href="#DejaVuSans-103"/>
      <use x="1279.402344" xlink:href="#DejaVuSans-101"/>
      <use x="1340.925781" xlink:href="#DejaVuSans-110"/>
      <use x="1404.304688" xlink:href="#DejaVuSans-32"/>
      <use x="1436.091797" xlink:href="#DejaVuSans-45"/>
      <use x="1472.175781" xlink:href="#DejaVuSans-32"/>
      <use x="1503.962891" xlink:href="#DejaVuSans-51"/>
      <use x="1567.585938" xlink:href="#DejaVuSans-48"/>
      <use x="1631.208984" xlink:href="#DejaVuSans-37"/>
      <use x="1726.228516" xlink:href="#DejaVuSans-79"/>
      <use x="1804.939453" xlink:href="#DejaVuSans-68"/>
      <use x="1881.941406" xlink:href="#DejaVuSans-45"/>
      <use x="1918.025391" xlink:href="#DejaVuSans-49"/>
     </g>
    </g>
    <g id="patch_21">
     <path d="M 845.182813 82.510938 
L 865.182813 82.510938 
L 865.182813 75.510938 
L 845.182813 75.510938 
z
" style="fill:#8c564b;"/>
    </g>
    <g id="text_16">
     <!-- change-of-dissolved-oxygen - 30%OD-2 -->
     <g transform="translate(873.182813 82.510938)scale(0.1 -0.1)">
      <use xlink:href="#DejaVuSans-99"/>
      <use x="54.980469" xlink:href="#DejaVuSans-104"/>
      <use x="118.359375" xlink:href="#DejaVuSans-97"/>
      <use x="179.638672" xlink:href="#DejaVuSans-110"/>
      <use x="243.017578" xlink:href="#DejaVuSans-103"/>
      <use x="306.494141" xlink:href="#DejaVuSans-101"/>
      <use x="368.017578" xlink:href="#DejaVuSans-45"/>
      <use x="405.976562" xlink:href="#DejaVuSans-111"/>
      <use x="467.158203" xlink:href="#DejaVuSans-102"/>
      <use x="496.863281" xlink:href="#DejaVuSans-45"/>
      <use x="532.947266" xlink:href="#DejaVuSans-100"/>
      <use x="596.423828" xlink:href="#DejaVuSans-105"/>
      <use x="624.207031" xlink:href="#DejaVuSans-115"/>
      <use x="676.306641" xlink:href="#DejaVuSans-115"/>
      <use x="728.40625" xlink:href="#DejaVuSans-111"/>
      <use x="789.587891" xlink:href="#DejaVuSans-108"/>
      <use x="817.371094" xlink:href="#DejaVuSans-118"/>
      <use x="876.550781" xlink:href="#DejaVuSans-101"/>
      <use x="938.074219" xlink:href="#DejaVuSans-100"/>
      <use x="1001.550781" xlink:href="#DejaVuSans-45"/>
      <use x="1039.509766" xlink:href="#DejaVuSans-111"/>
      <use x="1097.566406" xlink:href="#DejaVuSans-120"/>
      <use x="1156.746094" xlink:href="#DejaVuSans-121"/>
      <use x="1215.925781" xlink:href="#DejaVuSans-103"/>
      <use x="1279.402344" xlink:href="#DejaVuSans-101"/>
      <use x="1340.925781" xlink:href="#DejaVuSans-110"/>
      <use x="1404.304688" xlink:href="#DejaVuSans-32"/>
      <use x="1436.091797" xlink:href="#DejaVuSans-45"/>
      <use x="1472.175781" xlink:href="#DejaVuSans-32"/>
      <use x="1503.962891" xlink:href="#DejaVuSans-51"/>
      <use x="1567.585938" xlink:href="#DejaVuSans-48"/>
      <use x="1631.208984" xlink:href="#DejaVuSans-37"/>
      <use x="1726.228516" xlink:href="#DejaVuSans-79"/>
      <use x="1804.939453" xlink:href="#DejaVuSans-68"/>
      <use x="1881.941406" xlink:href="#DejaVuSans-45"/>
      <use x="1918.025391" xlink:href="#DejaVuSans-50"/>
     </g>
    </g>
    <g id="patch_22">
     <path d="M 1091.351562 23.798437 
L 1111.351562 23.798437 
L 1111.351562 16.798437 
L 1091.351562 16.798437 
z
" style="fill:#e377c2;"/>
    </g>
    <g id="text_17">
     <!-- change-of-dissolved-oxygen - 30%OD-3 -->
     <g transform="translate(1119.351562 23.798437)scale(0.1 -0.1)">
      <use xlink:href="#DejaVuSans-99"/>
      <use x="54.980469" xlink:href="#DejaVuSans-104"/>
      <use x="118.359375" xlink:href="#DejaVuSans-97"/>
      <use x="179.638672" xlink:href="#DejaVuSans-110"/>
      <use x="243.017578" xlink:href="#DejaVuSans-103"/>
      <use x="306.494141" xlink:href="#DejaVuSans-101"/>
      <use x="368.017578" xlink:href="#DejaVuSans-45"/>
      <use x="405.976562" xlink:href="#DejaVuSans-111"/>
      <use x="467.158203" xlink:href="#DejaVuSans-102"/>
      <use x="496.863281" xlink:href="#DejaVuSans-45"/>
      <use x="532.947266" xlink:href="#DejaVuSans-100"/>
      <use x="596.423828" xlink:href="#DejaVuSans-105"/>
      <use x="624.207031" xlink:href="#DejaVuSans-115"/>
      <use x="676.306641" xlink:href="#DejaVuSans-115"/>
      <use x="728.40625" xlink:href="#DejaVuSans-111"/>
      <use x="789.587891" xlink:href="#DejaVuSans-108"/>
      <use x="817.371094" xlink:href="#DejaVuSans-118"/>
      <use x="876.550781" xlink:href="#DejaVuSans-101"/>
      <use x="938.074219" xlink:href="#DejaVuSans-100"/>
      <use x="1001.550781" xlink:href="#DejaVuSans-45"/>
      <use x="1039.509766" xlink:href="#DejaVuSans-111"/>
      <use x="1097.566406" xlink:href="#DejaVuSans-120"/>
      <use x="1156.746094" xlink:href="#DejaVuSans-121"/>
      <use x="1215.925781" xlink:href="#DejaVuSans-103"/>
      <use x="1279.402344" xlink:href="#DejaVuSans-101"/>
      <use x="1340.925781" xlink:href="#DejaVuSans-110"/>
      <use x="1404.304688" xlink:href="#DejaVuSans-32"/>
      <use x="1436.091797" xlink:href="#DejaVuSans-45"/>
      <use x="1472.175781" xlink:href="#DejaVuSans-32"/>
      <use x="1503.962891" xlink:href="#DejaVuSans-51"/>
      <use x="1567.585938" xlink:href="#DejaVuSans-48"/>
      <use x="1631.208984" xlink:href="#DejaVuSans-37"/>
      <use x="1726.228516" xlink:href="#DejaVuSans-79"/>
      <use x="1804.939453" xlink:href="#DejaVuSans-68"/>
      <use x="1881.941406" xlink:href="#DejaVuSans-45"/>
      <use x="1918.025391" xlink:href="#DejaVuSans-51"/>
     </g>
    </g>
    <g id="patch_23">
     <path d="M 1091.351562 38.476562 
L 1111.351562 38.476562 
L 1111.351562 31.476562 
L 1091.351562 31.476562 
z
" style="fill:#7f7f7f;"/>
    </g>
    <g id="text_18">
     <!-- change-of-dissolved-oxygen - 50%OD-1 -->
     <g transform="translate(1119.351562 38.476562)scale(0.1 -0.1)">
      <use xlink:href="#DejaVuSans-99"/>
      <use x="54.980469" xlink:href="#DejaVuSans-104"/>
      <use x="118.359375" xlink:href="#DejaVuSans-97"/>
      <use x="179.638672" xlink:href="#DejaVuSans-110"/>
      <use x="243.017578" xlink:href="#DejaVuSans-103"/>
      <use x="306.494141" xlink:href="#DejaVuSans-101"/>
      <use x="368.017578" xlink:href="#DejaVuSans-45"/>
      <use x="405.976562" xlink:href="#DejaVuSans-111"/>
      <use x="467.158203" xlink:href="#DejaVuSans-102"/>
      <use x="496.863281" xlink:href="#DejaVuSans-45"/>
      <use x="532.947266" xlink:href="#DejaVuSans-100"/>
      <use x="596.423828" xlink:href="#DejaVuSans-105"/>
      <use x="624.207031" xlink:href="#DejaVuSans-115"/>
      <use x="676.306641" xlink:href="#DejaVuSans-115"/>
      <use x="728.40625" xlink:href="#DejaVuSans-111"/>
      <use x="789.587891" xlink:href="#DejaVuSans-108"/>
      <use x="817.371094" xlink:href="#DejaVuSans-118"/>
      <use x="876.550781" xlink:href="#DejaVuSans-101"/>
      <use x="938.074219" xlink:href="#DejaVuSans-100"/>
      <use x="1001.550781" xlink:href="#DejaVuSans-45"/>
      <use x="1039.509766" xlink:href="#DejaVuSans-111"/>
      <use x="1097.566406" xlink:href="#DejaVuSans-120"/>
      <use x="1156.746094" xlink:href="#DejaVuSans-121"/>
      <use x="1215.925781" xlink:href="#DejaVuSans-103"/>
      <use x="1279.402344" xlink:href="#DejaVuSans-101"/>
      <use x="1340.925781" xlink:href="#DejaVuSans-110"/>
      <use x="1404.304688" xlink:href="#DejaVuSans-32"/>
      <use x="1436.091797" xlink:href="#DejaVuSans-45"/>
      <use x="1472.175781" xlink:href="#DejaVuSans-32"/>
      <use x="1503.962891" xlink:href="#DejaVuSans-53"/>
      <use x="1567.585938" xlink:href="#DejaVuSans-48"/>
      <use x="1631.208984" xlink:href="#DejaVuSans-37"/>
      <use x="1726.228516" xlink:href="#DejaVuSans-79"/>
      <use x="1804.939453" xlink:href="#DejaVuSans-68"/>
      <use x="1881.941406" xlink:href="#DejaVuSans-45"/>
      <use x="1918.025391" xlink:href="#DejaVuSans-49"/>
     </g>
    </g>
    <g id="patch_24">
     <path d="M 1091.351562 53.154687 
L 1111.351562 53.154687 
L 1111.351562 46.154687 
L 1091.351562 46.154687 
z
" style="fill:#bcbd22;"/>
    </g>
    <g id="text_19">
     <!-- change-of-dissolved-oxygen - 50%OD-2 -->
     <g transform="translate(1119.351562 53.154687)scale(0.1 -0.1)">
      <use xlink:href="#DejaVuSans-99"/>
      <use x="54.980469" xlink:href="#DejaVuSans-104"/>
      <use x="118.359375" xlink:href="#DejaVuSans-97"/>
      <use x="179.638672" xlink:href="#DejaVuSans-110"/>
      <use x="243.017578" xlink:href="#DejaVuSans-103"/>
      <use x="306.494141" xlink:href="#DejaVuSans-101"/>
      <use x="368.017578" xlink:href="#DejaVuSans-45"/>
      <use x="405.976562" xlink:href="#DejaVuSans-111"/>
      <use x="467.158203" xlink:href="#DejaVuSans-102"/>
      <use x="496.863281" xlink:href="#DejaVuSans-45"/>
      <use x="532.947266" xlink:href="#DejaVuSans-100"/>
      <use x="596.423828" xlink:href="#DejaVuSans-105"/>
      <use x="624.207031" xlink:href="#DejaVuSans-115"/>
      <use x="676.306641" xlink:href="#DejaVuSans-115"/>
      <use x="728.40625" xlink:href="#DejaVuSans-111"/>
      <use x="789.587891" xlink:href="#DejaVuSans-108"/>
      <use x="817.371094" xlink:href="#DejaVuSans-118"/>
      <use x="876.550781" xlink:href="#DejaVuSans-101"/>
      <use x="938.074219" xlink:href="#DejaVuSans-100"/>
      <use x="1001.550781" xlink:href="#DejaVuSans-45"/>
      <use x="1039.509766" xlink:href="#DejaVuSans-111"/>
      <use x="1097.566406" xlink:href="#DejaVuSans-120"/>
      <use x="1156.746094" xlink:href="#DejaVuSans-121"/>
      <use x="1215.925781" xlink:href="#DejaVuSans-103"/>
      <use x="1279.402344" xlink:href="#DejaVuSans-101"/>
      <use x="1340.925781" xlink:href="#DejaVuSans-110"/>
      <use x="1404.304688" xlink:href="#DejaVuSans-32"/>
      <use x="1436.091797" xlink:href="#DejaVuSans-45"/>
      <use x="1472.175781" xlink:href="#DejaVuSans-32"/>
      <use x="1503.962891" xlink:href="#DejaVuSans-53"/>
      <use x="1567.585938" xlink:href="#DejaVuSans-48"/>
      <use x="1631.208984" xlink:href="#DejaVuSans-37"/>
      <use x="1726.228516" xlink:href="#DejaVuSans-79"/>
      <use x="1804.939453" xlink:href="#DejaVuSans-68"/>
      <use x="1881.941406" xlink:href="#DejaVuSans-45"/>
      <use x="1918.025391" xlink:href="#DejaVuSans-50"/>
     </g>
    </g>
    <g id="patch_25">
     <path d="M 1091.351562 67.832812 
L 1111.351562 67.832812 
L 1111.351562 60.832812 
L 1091.351562 60.832812 
z
" style="fill:#17becf;"/>
    </g>
    <g id="text_20">
     <!-- change-of-dissolved-oxygen - 50%OD-3 -->
     <g transform="translate(1119.351562 67.832812)scale(0.1 -0.1)">
      <use xlink:href="#DejaVuSans-99"/>
      <use x="54.980469" xlink:href="#DejaVuSans-104"/>
      <use x="118.359375" xlink:href="#DejaVuSans-97"/>
      <use x="179.638672" xlink:href="#DejaVuSans-110"/>
      <use x="243.017578" xlink:href="#DejaVuSans-103"/>
      <use x="306.494141" xlink:href="#DejaVuSans-101"/>
      <use x="368.017578" xlink:href="#DejaVuSans-45"/>
      <use x="405.976562" xlink:href="#DejaVuSans-111"/>
      <use x="467.158203" xlink:href="#DejaVuSans-102"/>
      <use x="496.863281" xlink:href="#DejaVuSans-45"/>
      <use x="532.947266" xlink:href="#DejaVuSans-100"/>
      <use x="596.423828" xlink:href="#DejaVuSans-105"/>
      <use x="624.207031" xlink:href="#DejaVuSans-115"/>
      <use x="676.306641" xlink:href="#DejaVuSans-115"/>
      <use x="728.40625" xlink:href="#DejaVuSans-111"/>
      <use x="789.587891" xlink:href="#DejaVuSans-108"/>
      <use x="817.371094" xlink:href="#DejaVuSans-118"/>
      <use x="876.550781" xlink:href="#DejaVuSans-101"/>
      <use x="938.074219" xlink:href="#DejaVuSans-100"/>
      <use x="1001.550781" xlink:href="#DejaVuSans-45"/>
      <use x="1039.509766" xlink:href="#DejaVuSans-111"/>
      <use x="1097.566406" xlink:href="#DejaVuSans-120"/>
      <use x="1156.746094" xlink:href="#DejaVuSans-121"/>
      <use x="1215.925781" xlink:href="#DejaVuSans-103"/>
      <use x="1279.402344" xlink:href="#DejaVuSans-101"/>
      <use x="1340.925781" xlink:href="#DejaVuSans-110"/>
      <use x="1404.304688" xlink:href="#DejaVuSans-32"/>
      <use x="1436.091797" xlink:href="#DejaVuSans-45"/>
      <use x="1472.175781" xlink:href="#DejaVuSans-32"/>
      <use x="1503.962891" xlink:href="#DejaVuSans-53"/>
      <use x="1567.585938" xlink:href="#DejaVuSans-48"/>
      <use x="1631.208984" xlink:href="#DejaVuSans-37"/>
      <use x="1726.228516" xlink:href="#DejaVuSans-79"/>
      <use x="1804.939453" xlink:href="#DejaVuSans-68"/>
      <use x="1881.941406" xlink:href="#DejaVuSans-45"/>
      <use x="1918.025391" xlink:href="#DejaVuSans-51"/>
     </g>
    </g>
   </g>
  </g>
 </g>
 <defs>
  <clipPath id="pc6ca451812">
   <rect height="326.16" width="781.2" x="54.982813" y="7.2"/>
  </clipPath>
 </defs>
</svg>
