<?xml version="1.0" encoding="utf-8" standalone="no"?>
<!DOCTYPE svg PUBLIC "-//W3C//DTD SVG 1.1//EN"
  "http://www.w3.org/Graphics/SVG/1.1/DTD/svg11.dtd">
<!-- Created with matplotlib (https://matplotlib.org/) -->
<svg height="273.040228pt" version="1.1" viewBox="0 0 405.036951 273.040228" width="405.036951pt" xmlns="http://www.w3.org/2000/svg" xmlns:xlink="http://www.w3.org/1999/xlink">
 <metadata>
  <rdf:RDF xmlns:cc="http://creativecommons.org/ns#" xmlns:dc="http://purl.org/dc/elements/1.1/" xmlns:rdf="http://www.w3.org/1999/02/22-rdf-syntax-ns#">
   <cc:Work>
    <dc:type rdf:resource="http://purl.org/dc/dcmitype/StillImage"/>
    <dc:date>2023-04-18T13:21:33.792598</dc:date>
    <dc:format>image/svg+xml</dc:format>
    <dc:creator>
     <cc:Agent>
      <dc:title>Matplotlib v3.3.4, https://matplotlib.org/</dc:title>
     </cc:Agent>
    </dc:creator>
   </cc:Work>
  </rdf:RDF>
 </metadata>
 <defs>
  <style type="text/css">*{stroke-linecap:butt;stroke-linejoin:round;}</style>
 </defs>
 <g id="figure_1">
  <g id="patch_1">
   <path d="M 0 273.040228 
L 405.036951 273.040228 
L 405.036951 0 
L 0 0 
z
" style="fill:none;"/>
  </g>
  <g id="axes_1">
   <g id="patch_2">
    <path d="M 56.874844 226.655384 
L 391.674844 226.655384 
L 391.674844 9.215384 
L 56.874844 9.215384 
z
" style="fill:none;"/>
   </g>
   <g id="PathCollection_1">
    <defs>
     <path d="M 0 3 
C 0.795609 3 1.55874 2.683901 2.12132 2.12132 
C 2.683901 1.55874 3 0.795609 3 0 
C 3 -0.795609 2.683901 -1.55874 2.12132 -2.12132 
C 1.55874 -2.683901 0.795609 -3 0 -3 
C -0.795609 -3 -1.55874 -2.683901 -2.12132 -2.12132 
C -2.683901 -1.55874 -3 -0.795609 -3 0 
C -3 0.795609 -2.683901 1.55874 -2.12132 2.12132 
C -1.55874 2.683901 -0.795609 3 0 3 
z
" id="m2608b8ab62" style="stroke:#1f77b4;"/>
    </defs>
    <g clip-path="url(#pcc7866e4de)">
     <use style="fill:#1f77b4;stroke:#1f77b4;" x="112.106316" xlink:href="#m2608b8ab62" y="143.54239"/>
     <use style="fill:#1f77b4;stroke:#1f77b4;" x="115.791215" xlink:href="#m2608b8ab62" y="152.11818"/>
     <use style="fill:#1f77b4;stroke:#1f77b4;" x="115.570504" xlink:href="#m2608b8ab62" y="146.617518"/>
     <use style="fill:#1f77b4;stroke:#1f77b4;" x="101.416915" xlink:href="#m2608b8ab62" y="133.789526"/>
     <use style="fill:#1f77b4;stroke:#1f77b4;" x="113.03111" xlink:href="#m2608b8ab62" y="137.358108"/>
     <use style="fill:#1f77b4;stroke:#1f77b4;" x="353.449505" xlink:href="#m2608b8ab62" y="169.567808"/>
     <use style="fill:#1f77b4;stroke:#1f77b4;" x="346.564314" xlink:href="#m2608b8ab62" y="186.342246"/>
     <use style="fill:#1f77b4;stroke:#1f77b4;" x="333.983869" xlink:href="#m2608b8ab62" y="200.135431"/>
     <use style="fill:#1f77b4;stroke:#1f77b4;" x="287.67725" xlink:href="#m2608b8ab62" y="206.116996"/>
     <use style="fill:#1f77b4;stroke:#1f77b4;" x="101.511263" xlink:href="#m2608b8ab62" y="165.25485"/>
     <use style="fill:#1f77b4;stroke:#1f77b4;" x="103.270744" xlink:href="#m2608b8ab62" y="164.408302"/>
     <use style="fill:#1f77b4;stroke:#1f77b4;" x="111.067114" xlink:href="#m2608b8ab62" y="165.415553"/>
     <use style="fill:#1f77b4;stroke:#1f77b4;" x="113.257743" xlink:href="#m2608b8ab62" y="166.276279"/>
     <use style="fill:#1f77b4;stroke:#1f77b4;" x="96.820865" xlink:href="#m2608b8ab62" y="160.582319"/>
     <use style="fill:#1f77b4;stroke:#1f77b4;" x="87.771134" xlink:href="#m2608b8ab62" y="152.040142"/>
     <use style="fill:#1f77b4;stroke:#1f77b4;" x="84.774844" xlink:href="#m2608b8ab62" y="152.444814"/>
     <use style="fill:#1f77b4;stroke:#1f77b4;" x="93.440688" xlink:href="#m2608b8ab62" y="150.357425"/>
     <use style="fill:#1f77b4;stroke:#1f77b4;" x="92.584723" xlink:href="#m2608b8ab62" y="150.078056"/>
     <use style="fill:#1f77b4;stroke:#1f77b4;" x="102.378177" xlink:href="#m2608b8ab62" y="149.396938"/>
     <use style="fill:#1f77b4;stroke:#1f77b4;" x="99.416094" xlink:href="#m2608b8ab62" y="148.9822"/>
     <use style="fill:#1f77b4;stroke:#1f77b4;" x="213.079662" xlink:href="#m2608b8ab62" y="56.524045"/>
     <use style="fill:#1f77b4;stroke:#1f77b4;" x="210.737796" xlink:href="#m2608b8ab62" y="55.245263"/>
     <use style="fill:#1f77b4;stroke:#1f77b4;" x="142.535127" xlink:href="#m2608b8ab62" y="123.105865"/>
     <use style="fill:#1f77b4;stroke:#1f77b4;" x="141.307864" xlink:href="#m2608b8ab62" y="121.300254"/>
     <use style="fill:#1f77b4;stroke:#1f77b4;" x="135.891071" xlink:href="#m2608b8ab62" y="109.24468"/>
     <use style="fill:#1f77b4;stroke:#1f77b4;" x="134.908738" xlink:href="#m2608b8ab62" y="107.232529"/>
     <use style="fill:#1f77b4;stroke:#1f77b4;" x="286.837817" xlink:href="#m2608b8ab62" y="67.313404"/>
     <use style="fill:#1f77b4;stroke:#1f77b4;" x="288.385545" xlink:href="#m2608b8ab62" y="65.883272"/>
     <use style="fill:#1f77b4;stroke:#1f77b4;" x="235.147849" xlink:href="#m2608b8ab62" y="94.643442"/>
     <use style="fill:#1f77b4;stroke:#1f77b4;" x="236.737176" xlink:href="#m2608b8ab62" y="93.832998"/>
     <use style="fill:#1f77b4;stroke:#1f77b4;" x="179.597802" xlink:href="#m2608b8ab62" y="49.605506"/>
     <use style="fill:#1f77b4;stroke:#1f77b4;" x="180.748694" xlink:href="#m2608b8ab62" y="48.742832"/>
     <use style="fill:#1f77b4;stroke:#1f77b4;" x="107.377934" xlink:href="#m2608b8ab62" y="146.227952"/>
     <use style="fill:#1f77b4;stroke:#1f77b4;" x="109.725166" xlink:href="#m2608b8ab62" y="145.763054"/>
     <use style="fill:#1f77b4;stroke:#1f77b4;" x="130.046558" xlink:href="#m2608b8ab62" y="100.841533"/>
     <use style="fill:#1f77b4;stroke:#1f77b4;" x="133.05918" xlink:href="#m2608b8ab62" y="100.310526"/>
     <use style="fill:#1f77b4;stroke:#1f77b4;" x="181.872795" xlink:href="#m2608b8ab62" y="92.865246"/>
     <use style="fill:#1f77b4;stroke:#1f77b4;" x="181.305896" xlink:href="#m2608b8ab62" y="92.655595"/>
     <use style="fill:#1f77b4;stroke:#1f77b4;" x="229.345783" xlink:href="#m2608b8ab62" y="75.723935"/>
     <use style="fill:#1f77b4;stroke:#1f77b4;" x="231.467643" xlink:href="#m2608b8ab62" y="73.708384"/>
     <use style="fill:#1f77b4;stroke:#1f77b4;" x="129.526563" xlink:href="#m2608b8ab62" y="154.834909"/>
     <use style="fill:#1f77b4;stroke:#1f77b4;" x="129.063683" xlink:href="#m2608b8ab62" y="153.769109"/>
     <use style="fill:#1f77b4;stroke:#1f77b4;" x="135.89955" xlink:href="#m2608b8ab62" y="153.319084"/>
     <use style="fill:#1f77b4;stroke:#1f77b4;" x="133.787033" xlink:href="#m2608b8ab62" y="152.966038"/>
     <use style="fill:#1f77b4;stroke:#1f77b4;" x="242.357868" xlink:href="#m2608b8ab62" y="121.269383"/>
     <use style="fill:#1f77b4;stroke:#1f77b4;" x="242.111802" xlink:href="#m2608b8ab62" y="120.878855"/>
     <use style="fill:#1f77b4;stroke:#1f77b4;" x="125.674634" xlink:href="#m2608b8ab62" y="151.194651"/>
     <use style="fill:#1f77b4;stroke:#1f77b4;" x="129.509058" xlink:href="#m2608b8ab62" y="150.36027"/>
     <use style="fill:#1f77b4;stroke:#1f77b4;" x="143.404894" xlink:href="#m2608b8ab62" y="148.91807"/>
     <use style="fill:#1f77b4;stroke:#1f77b4;" x="141.158631" xlink:href="#m2608b8ab62" y="148.163075"/>
     <use style="fill:#1f77b4;stroke:#1f77b4;" x="253.019664" xlink:href="#m2608b8ab62" y="115.573497"/>
     <use style="fill:#1f77b4;stroke:#1f77b4;" x="256.818926" xlink:href="#m2608b8ab62" y="114.535059"/>
     <use style="fill:#1f77b4;stroke:#1f77b4;" x="116.453002" xlink:href="#m2608b8ab62" y="163.5668"/>
     <use style="fill:#1f77b4;stroke:#1f77b4;" x="102.857294" xlink:href="#m2608b8ab62" y="183.302708"/>
     <use style="fill:#1f77b4;stroke:#1f77b4;" x="344.73194" xlink:href="#m2608b8ab62" y="60.136438"/>
     <use style="fill:#1f77b4;stroke:#1f77b4;" x="356.838394" xlink:href="#m2608b8ab62" y="30.829583"/>
     <use style="fill:#1f77b4;stroke:#1f77b4;" x="110.700577" xlink:href="#m2608b8ab62" y="124.686584"/>
     <use style="fill:#1f77b4;stroke:#1f77b4;" x="108.397857" xlink:href="#m2608b8ab62" y="129.188427"/>
     <use style="fill:#1f77b4;stroke:#1f77b4;" x="97.853427" xlink:href="#m2608b8ab62" y="136.095139"/>
     <use style="fill:#1f77b4;stroke:#1f77b4;" x="349.032564" xlink:href="#m2608b8ab62" y="80.992918"/>
     <use style="fill:#1f77b4;stroke:#1f77b4;" x="363.774844" xlink:href="#m2608b8ab62" y="41.970369"/>
     <use style="fill:#1f77b4;stroke:#1f77b4;" x="108.779036" xlink:href="#m2608b8ab62" y="126.02656"/>
     <use style="fill:#1f77b4;stroke:#1f77b4;" x="310.809497" xlink:href="#m2608b8ab62" y="81.737995"/>
     <use style="fill:#1f77b4;stroke:#1f77b4;" x="110.621052" xlink:href="#m2608b8ab62" y="127.425459"/>
     <use style="fill:#1f77b4;stroke:#1f77b4;" x="362.519628" xlink:href="#m2608b8ab62" y="39.424631"/>
     <use style="fill:#1f77b4;stroke:#1f77b4;" x="109.386264" xlink:href="#m2608b8ab62" y="134.532391"/>
     <use style="fill:#1f77b4;stroke:#1f77b4;" x="113.156249" xlink:href="#m2608b8ab62" y="160.046162"/>
     <use style="fill:#1f77b4;stroke:#1f77b4;" x="105.794986" xlink:href="#m2608b8ab62" y="157.589252"/>
     <use style="fill:#1f77b4;stroke:#1f77b4;" x="116.07601" xlink:href="#m2608b8ab62" y="144.309025"/>
     <use style="fill:#1f77b4;stroke:#1f77b4;" x="310.452969" xlink:href="#m2608b8ab62" y="95.368736"/>
     <use style="fill:#1f77b4;stroke:#1f77b4;" x="357.228964" xlink:href="#m2608b8ab62" y="27.335384"/>
     <use style="fill:#1f77b4;stroke:#1f77b4;" x="111.661419" xlink:href="#m2608b8ab62" y="157.204385"/>
     <use style="fill:#1f77b4;stroke:#1f77b4;" x="124.177533" xlink:href="#m2608b8ab62" y="140.490004"/>
     <use style="fill:#1f77b4;stroke:#1f77b4;" x="310.702866" xlink:href="#m2608b8ab62" y="106.754849"/>
     <use style="fill:#1f77b4;stroke:#1f77b4;" x="354.850079" xlink:href="#m2608b8ab62" y="36.462176"/>
     <use style="fill:#1f77b4;stroke:#1f77b4;" x="100.682555" xlink:href="#m2608b8ab62" y="161.855932"/>
     <use style="fill:#1f77b4;stroke:#1f77b4;" x="106.104254" xlink:href="#m2608b8ab62" y="161.8998"/>
     <use style="fill:#1f77b4;stroke:#1f77b4;" x="110.921556" xlink:href="#m2608b8ab62" y="152.968374"/>
     <use style="fill:#1f77b4;stroke:#1f77b4;" x="304.112266" xlink:href="#m2608b8ab62" y="100.975144"/>
     <use style="fill:#1f77b4;stroke:#1f77b4;" x="290.996784" xlink:href="#m2608b8ab62" y="128.856645"/>
     <use style="fill:#1f77b4;stroke:#1f77b4;" x="356.421469" xlink:href="#m2608b8ab62" y="36.454478"/>
     <use style="fill:#1f77b4;stroke:#1f77b4;" x="118.870303" xlink:href="#m2608b8ab62" y="92.136294"/>
     <use style="fill:#1f77b4;stroke:#1f77b4;" x="122.641007" xlink:href="#m2608b8ab62" y="93.358008"/>
     <use style="fill:#1f77b4;stroke:#1f77b4;" x="106.991369" xlink:href="#m2608b8ab62" y="120.761261"/>
     <use style="fill:#1f77b4;stroke:#1f77b4;" x="363.62694" xlink:href="#m2608b8ab62" y="77.326266"/>
     <use style="fill:#1f77b4;stroke:#1f77b4;" x="122.485253" xlink:href="#m2608b8ab62" y="103.957363"/>
     <use style="fill:#1f77b4;stroke:#1f77b4;" x="117.70707" xlink:href="#m2608b8ab62" y="122.400477"/>
     <use style="fill:#1f77b4;stroke:#1f77b4;" x="163.565344" xlink:href="#m2608b8ab62" y="104.88251"/>
     <use style="fill:#1f77b4;stroke:#1f77b4;" x="113.912598" xlink:href="#m2608b8ab62" y="146.585517"/>
     <use style="fill:#1f77b4;stroke:#1f77b4;" x="361.808881" xlink:href="#m2608b8ab62" y="82.679737"/>
     <use style="fill:#1f77b4;stroke:#1f77b4;" x="123.439384" xlink:href="#m2608b8ab62" y="129.974569"/>
     <use style="fill:#1f77b4;stroke:#1f77b4;" x="357.654854" xlink:href="#m2608b8ab62" y="72.047476"/>
     <use style="fill:#1f77b4;stroke:#1f77b4;" x="135.728865" xlink:href="#m2608b8ab62" y="108.016161"/>
     <use style="fill:#1f77b4;stroke:#1f77b4;" x="119.64988" xlink:href="#m2608b8ab62" y="111.74161"/>
     <use style="fill:#1f77b4;stroke:#1f77b4;" x="113.990381" xlink:href="#m2608b8ab62" y="135.33103"/>
     <use style="fill:#1f77b4;stroke:#1f77b4;" x="89.708244" xlink:href="#m2608b8ab62" y="166.726548"/>
     <use style="fill:#1f77b4;stroke:#1f77b4;" x="96.931451" xlink:href="#m2608b8ab62" y="167.878148"/>
     <use style="fill:#1f77b4;stroke:#1f77b4;" x="98.670917" xlink:href="#m2608b8ab62" y="173.03313"/>
     <use style="fill:#1f77b4;stroke:#1f77b4;" x="99.896803" xlink:href="#m2608b8ab62" y="163.355567"/>
     <use style="fill:#1f77b4;stroke:#1f77b4;" x="94.452862" xlink:href="#m2608b8ab62" y="177.436729"/>
     <use style="fill:#1f77b4;stroke:#1f77b4;" x="95.127612" xlink:href="#m2608b8ab62" y="164.51825"/>
     <use style="fill:#1f77b4;stroke:#1f77b4;" x="95.741418" xlink:href="#m2608b8ab62" y="172.978026"/>
     <use style="fill:#1f77b4;stroke:#1f77b4;" x="98.79194" xlink:href="#m2608b8ab62" y="177.6355"/>
     <use style="fill:#1f77b4;stroke:#1f77b4;" x="94.591553" xlink:href="#m2608b8ab62" y="166.470474"/>
     <use style="fill:#1f77b4;stroke:#1f77b4;" x="96.733949" xlink:href="#m2608b8ab62" y="178.784688"/>
     <use style="fill:#1f77b4;stroke:#1f77b4;" x="184.591128" xlink:href="#m2608b8ab62" y="146.588338"/>
     <use style="fill:#1f77b4;stroke:#1f77b4;" x="274.783122" xlink:href="#m2608b8ab62" y="135.747726"/>
     <use style="fill:#1f77b4;stroke:#1f77b4;" x="300.859984" xlink:href="#m2608b8ab62" y="122.399565"/>
     <use style="fill:#1f77b4;stroke:#1f77b4;" x="126.480452" xlink:href="#m2608b8ab62" y="136.81125"/>
     <use style="fill:#1f77b4;stroke:#1f77b4;" x="237.099213" xlink:href="#m2608b8ab62" y="116.335397"/>
     <use style="fill:#1f77b4;stroke:#1f77b4;" x="275.41217" xlink:href="#m2608b8ab62" y="90.21306"/>
     <use style="fill:#1f77b4;stroke:#1f77b4;" x="123.650458" xlink:href="#m2608b8ab62" y="144.718805"/>
     <use style="fill:#1f77b4;stroke:#1f77b4;" x="240.185399" xlink:href="#m2608b8ab62" y="139.070678"/>
     <use style="fill:#1f77b4;stroke:#1f77b4;" x="281.559677" xlink:href="#m2608b8ab62" y="133.091274"/>
     <use style="fill:#1f77b4;stroke:#1f77b4;" x="139.815725" xlink:href="#m2608b8ab62" y="159.858714"/>
     <use style="fill:#1f77b4;stroke:#1f77b4;" x="130.705685" xlink:href="#m2608b8ab62" y="164.083141"/>
     <use style="fill:#1f77b4;stroke:#1f77b4;" x="125.314652" xlink:href="#m2608b8ab62" y="164.039967"/>
     <use style="fill:#1f77b4;stroke:#1f77b4;" x="152.251089" xlink:href="#m2608b8ab62" y="150.314276"/>
     <use style="fill:#1f77b4;stroke:#1f77b4;" x="149.719127" xlink:href="#m2608b8ab62" y="146.970743"/>
     <use style="fill:#1f77b4;stroke:#1f77b4;" x="153.526153" xlink:href="#m2608b8ab62" y="145.24596"/>
     <use style="fill:#1f77b4;stroke:#1f77b4;" x="160.462264" xlink:href="#m2608b8ab62" y="149.077361"/>
     <use style="fill:#1f77b4;stroke:#1f77b4;" x="139.131189" xlink:href="#m2608b8ab62" y="163.346642"/>
     <use style="fill:#1f77b4;stroke:#1f77b4;" x="176.211519" xlink:href="#m2608b8ab62" y="136.571815"/>
     <use style="fill:#1f77b4;stroke:#1f77b4;" x="164.143512" xlink:href="#m2608b8ab62" y="136.311573"/>
     <use style="fill:#1f77b4;stroke:#1f77b4;" x="166.225637" xlink:href="#m2608b8ab62" y="136.567879"/>
     <use style="fill:#1f77b4;stroke:#1f77b4;" x="170.717098" xlink:href="#m2608b8ab62" y="137.013537"/>
     <use style="fill:#1f77b4;stroke:#1f77b4;" x="125.887699" xlink:href="#m2608b8ab62" y="165.710139"/>
     <use style="fill:#1f77b4;stroke:#1f77b4;" x="126.519419" xlink:href="#m2608b8ab62" y="166.675276"/>
     <use style="fill:#1f77b4;stroke:#1f77b4;" x="130.041788" xlink:href="#m2608b8ab62" y="163.574541"/>
     <use style="fill:#1f77b4;stroke:#1f77b4;" x="179.55155" xlink:href="#m2608b8ab62" y="144.892792"/>
     <use style="fill:#1f77b4;stroke:#1f77b4;" x="172.551191" xlink:href="#m2608b8ab62" y="154.12422"/>
     <use style="fill:#1f77b4;stroke:#1f77b4;" x="174.774871" xlink:href="#m2608b8ab62" y="155.309769"/>
     <use style="fill:#1f77b4;stroke:#1f77b4;" x="95.533571" xlink:href="#m2608b8ab62" y="180.403033"/>
     <use style="fill:#1f77b4;stroke:#1f77b4;" x="103.740346" xlink:href="#m2608b8ab62" y="176.83306"/>
     <use style="fill:#1f77b4;stroke:#1f77b4;" x="102.398512" xlink:href="#m2608b8ab62" y="182.652121"/>
     <use style="fill:#1f77b4;stroke:#1f77b4;" x="111.504704" xlink:href="#m2608b8ab62" y="176.958865"/>
     <use style="fill:#1f77b4;stroke:#1f77b4;" x="96.295152" xlink:href="#m2608b8ab62" y="178.264767"/>
     <use style="fill:#1f77b4;stroke:#1f77b4;" x="99.770976" xlink:href="#m2608b8ab62" y="176.859058"/>
     <use style="fill:#1f77b4;stroke:#1f77b4;" x="271.770292" xlink:href="#m2608b8ab62" y="123.654238"/>
     <use style="fill:#1f77b4;stroke:#1f77b4;" x="231.648085" xlink:href="#m2608b8ab62" y="117.028267"/>
     <use style="fill:#1f77b4;stroke:#1f77b4;" x="306.148745" xlink:href="#m2608b8ab62" y="93.657117"/>
     <use style="fill:#1f77b4;stroke:#1f77b4;" x="144.540107" xlink:href="#m2608b8ab62" y="152.82503"/>
     <use style="fill:#1f77b4;stroke:#1f77b4;" x="161.131339" xlink:href="#m2608b8ab62" y="147.546803"/>
     <use style="fill:#1f77b4;stroke:#1f77b4;" x="268.943464" xlink:href="#m2608b8ab62" y="96.232347"/>
     <use style="fill:#1f77b4;stroke:#1f77b4;" x="258.83273" xlink:href="#m2608b8ab62" y="126.662416"/>
     <use style="fill:#1f77b4;stroke:#1f77b4;" x="289.87526" xlink:href="#m2608b8ab62" y="151.074969"/>
     <use style="fill:#1f77b4;stroke:#1f77b4;" x="217.29333" xlink:href="#m2608b8ab62" y="121.705751"/>
     <use style="fill:#1f77b4;stroke:#1f77b4;" x="266.647521" xlink:href="#m2608b8ab62" y="165.950141"/>
     <use style="fill:#1f77b4;stroke:#1f77b4;" x="206.700772" xlink:href="#m2608b8ab62" y="116.949009"/>
     <use style="fill:#1f77b4;stroke:#1f77b4;" x="264.609101" xlink:href="#m2608b8ab62" y="98.48804"/>
     <use style="fill:#1f77b4;stroke:#1f77b4;" x="148.433352" xlink:href="#m2608b8ab62" y="156.438936"/>
     <use style="fill:#1f77b4;stroke:#1f77b4;" x="142.353926" xlink:href="#m2608b8ab62" y="162.126098"/>
     <use style="fill:#1f77b4;stroke:#1f77b4;" x="180.56485" xlink:href="#m2608b8ab62" y="138.374834"/>
     <use style="fill:#1f77b4;stroke:#1f77b4;" x="190.677743" xlink:href="#m2608b8ab62" y="137.352041"/>
     <use style="fill:#1f77b4;stroke:#1f77b4;" x="161.692357" xlink:href="#m2608b8ab62" y="152.915756"/>
     <use style="fill:#1f77b4;stroke:#1f77b4;" x="155.0665" xlink:href="#m2608b8ab62" y="158.422469"/>
     <use style="fill:#1f77b4;stroke:#1f77b4;" x="189.29899" xlink:href="#m2608b8ab62" y="132.990615"/>
     <use style="fill:#1f77b4;stroke:#1f77b4;" x="199.598191" xlink:href="#m2608b8ab62" y="125.391727"/>
     <use style="fill:#1f77b4;stroke:#1f77b4;" x="164.008411" xlink:href="#m2608b8ab62" y="145.653764"/>
     <use style="fill:#1f77b4;stroke:#1f77b4;" x="154.683514" xlink:href="#m2608b8ab62" y="154.034609"/>
     <use style="fill:#1f77b4;stroke:#1f77b4;" x="191.565902" xlink:href="#m2608b8ab62" y="131.832703"/>
     <use style="fill:#1f77b4;stroke:#1f77b4;" x="185.479054" xlink:href="#m2608b8ab62" y="136.544165"/>
     <use style="fill:#1f77b4;stroke:#1f77b4;" x="130.608539" xlink:href="#m2608b8ab62" y="166.28078"/>
     <use style="fill:#1f77b4;stroke:#1f77b4;" x="128.255581" xlink:href="#m2608b8ab62" y="168.404836"/>
     <use style="fill:#1f77b4;stroke:#1f77b4;" x="125.258627" xlink:href="#m2608b8ab62" y="165.131808"/>
     <use style="fill:#1f77b4;stroke:#1f77b4;" x="122.510971" xlink:href="#m2608b8ab62" y="166.639535"/>
     <use style="fill:#1f77b4;stroke:#1f77b4;" x="124.597059" xlink:href="#m2608b8ab62" y="170.726188"/>
     <use style="fill:#1f77b4;stroke:#1f77b4;" x="148.304508" xlink:href="#m2608b8ab62" y="163.193217"/>
     <use style="fill:#1f77b4;stroke:#1f77b4;" x="157.028266" xlink:href="#m2608b8ab62" y="164.733248"/>
     <use style="fill:#1f77b4;stroke:#1f77b4;" x="178.678218" xlink:href="#m2608b8ab62" y="149.393642"/>
     <use style="fill:#1f77b4;stroke:#1f77b4;" x="169.408901" xlink:href="#m2608b8ab62" y="145.322987"/>
     <use style="fill:#1f77b4;stroke:#1f77b4;" x="143.758812" xlink:href="#m2608b8ab62" y="159.774991"/>
     <use style="fill:#1f77b4;stroke:#1f77b4;" x="165.110456" xlink:href="#m2608b8ab62" y="144.574167"/>
     <use style="fill:#1f77b4;stroke:#1f77b4;" x="192.481968" xlink:href="#m2608b8ab62" y="118.641141"/>
     <use style="fill:#1f77b4;stroke:#1f77b4;" x="182.535727" xlink:href="#m2608b8ab62" y="111.763521"/>
     <use style="fill:#1f77b4;stroke:#1f77b4;" x="201.844405" xlink:href="#m2608b8ab62" y="112.012309"/>
     <use style="fill:#1f77b4;stroke:#1f77b4;" x="197.790416" xlink:href="#m2608b8ab62" y="117.562817"/>
     <use style="fill:#1f77b4;stroke:#1f77b4;" x="179.650603" xlink:href="#m2608b8ab62" y="111.059783"/>
     <use style="fill:#1f77b4;stroke:#1f77b4;" x="110.565546" xlink:href="#m2608b8ab62" y="135.356795"/>
     <use style="fill:#1f77b4;stroke:#1f77b4;" x="98.184149" xlink:href="#m2608b8ab62" y="84.080174"/>
     <use style="fill:#1f77b4;stroke:#1f77b4;" x="115.875207" xlink:href="#m2608b8ab62" y="154.002825"/>
     <use style="fill:#1f77b4;stroke:#1f77b4;" x="110.278329" xlink:href="#m2608b8ab62" y="159.133106"/>
     <use style="fill:#1f77b4;stroke:#1f77b4;" x="116.339715" xlink:href="#m2608b8ab62" y="158.833202"/>
     <use style="fill:#1f77b4;stroke:#1f77b4;" x="113.491598" xlink:href="#m2608b8ab62" y="159.789147"/>
     <use style="fill:#1f77b4;stroke:#1f77b4;" x="116.947002" xlink:href="#m2608b8ab62" y="154.796771"/>
     <use style="fill:#1f77b4;stroke:#1f77b4;" x="118.275453" xlink:href="#m2608b8ab62" y="157.977091"/>
     <use style="fill:#1f77b4;stroke:#1f77b4;" x="117.114664" xlink:href="#m2608b8ab62" y="172.588305"/>
     <use style="fill:#1f77b4;stroke:#1f77b4;" x="117.986065" xlink:href="#m2608b8ab62" y="173.970482"/>
     <use style="fill:#1f77b4;stroke:#1f77b4;" x="102.338013" xlink:href="#m2608b8ab62" y="176.656803"/>
     <use style="fill:#1f77b4;stroke:#1f77b4;" x="132.29105" xlink:href="#m2608b8ab62" y="181.180245"/>
     <use style="fill:#1f77b4;stroke:#1f77b4;" x="125.798088" xlink:href="#m2608b8ab62" y="177.20655"/>
     <use style="fill:#1f77b4;stroke:#1f77b4;" x="103.548023" xlink:href="#m2608b8ab62" y="177.820126"/>
     <use style="fill:#1f77b4;stroke:#1f77b4;" x="310.009428" xlink:href="#m2608b8ab62" y="160.47824"/>
     <use style="fill:#1f77b4;stroke:#1f77b4;" x="333.108919" xlink:href="#m2608b8ab62" y="145.969423"/>
     <use style="fill:#1f77b4;stroke:#1f77b4;" x="241.800368" xlink:href="#m2608b8ab62" y="104.425363"/>
     <use style="fill:#1f77b4;stroke:#1f77b4;" x="311.572106" xlink:href="#m2608b8ab62" y="93.099673"/>
     <use style="fill:#1f77b4;stroke:#1f77b4;" x="246.059875" xlink:href="#m2608b8ab62" y="105.997823"/>
     <use style="fill:#1f77b4;stroke:#1f77b4;" x="174.348661" xlink:href="#m2608b8ab62" y="143.209023"/>
     <use style="fill:#1f77b4;stroke:#1f77b4;" x="196.963301" xlink:href="#m2608b8ab62" y="118.482266"/>
     <use style="fill:#1f77b4;stroke:#1f77b4;" x="272.23563" xlink:href="#m2608b8ab62" y="92.278557"/>
     <use style="fill:#1f77b4;stroke:#1f77b4;" x="175.006032" xlink:href="#m2608b8ab62" y="143.217338"/>
     <use style="fill:#1f77b4;stroke:#1f77b4;" x="346.28685" xlink:href="#m2608b8ab62" y="88.930802"/>
     <use style="fill:#1f77b4;stroke:#1f77b4;" x="297.086754" xlink:href="#m2608b8ab62" y="114.140059"/>
     <use style="fill:#1f77b4;stroke:#1f77b4;" x="277.021992" xlink:href="#m2608b8ab62" y="115.945549"/>
     <use style="fill:#1f77b4;stroke:#1f77b4;" x="170.759479" xlink:href="#m2608b8ab62" y="143.059216"/>
     <use style="fill:#1f77b4;stroke:#1f77b4;" x="184.591092" xlink:href="#m2608b8ab62" y="137.898548"/>
     <use style="fill:#1f77b4;stroke:#1f77b4;" x="194.489098" xlink:href="#m2608b8ab62" y="119.819853"/>
     <use style="fill:#1f77b4;stroke:#1f77b4;" x="184.591129" xlink:href="#m2608b8ab62" y="137.898519"/>
     <use style="fill:#1f77b4;stroke:#1f77b4;" x="110.619737" xlink:href="#m2608b8ab62" y="208.535384"/>
     <use style="fill:#1f77b4;stroke:#1f77b4;" x="104.267704" xlink:href="#m2608b8ab62" y="204.861307"/>
     <use style="fill:#1f77b4;stroke:#1f77b4;" x="151.858772" xlink:href="#m2608b8ab62" y="185.274083"/>
     <use style="fill:#1f77b4;stroke:#1f77b4;" x="152.566512" xlink:href="#m2608b8ab62" y="189.583081"/>
     <use style="fill:#1f77b4;stroke:#1f77b4;" x="134.127554" xlink:href="#m2608b8ab62" y="183.157788"/>
     <use style="fill:#1f77b4;stroke:#1f77b4;" x="133.351749" xlink:href="#m2608b8ab62" y="180.131421"/>
     <use style="fill:#1f77b4;stroke:#1f77b4;" x="100.612034" xlink:href="#m2608b8ab62" y="151.262402"/>
     <use style="fill:#1f77b4;stroke:#1f77b4;" x="108.75215" xlink:href="#m2608b8ab62" y="147.700167"/>
     <use style="fill:#1f77b4;stroke:#1f77b4;" x="117.168538" xlink:href="#m2608b8ab62" y="145.310302"/>
     <use style="fill:#1f77b4;stroke:#1f77b4;" x="116.669687" xlink:href="#m2608b8ab62" y="138.016323"/>
     <use style="fill:#1f77b4;stroke:#1f77b4;" x="122.862112" xlink:href="#m2608b8ab62" y="116.137661"/>
     <use style="fill:#1f77b4;stroke:#1f77b4;" x="116.205832" xlink:href="#m2608b8ab62" y="134.596147"/>
     <use style="fill:#1f77b4;stroke:#1f77b4;" x="125.461011" xlink:href="#m2608b8ab62" y="132.553475"/>
     <use style="fill:#1f77b4;stroke:#1f77b4;" x="145.783957" xlink:href="#m2608b8ab62" y="134.750885"/>
     <use style="fill:#1f77b4;stroke:#1f77b4;" x="136.967213" xlink:href="#m2608b8ab62" y="74.821524"/>
     <use style="fill:#1f77b4;stroke:#1f77b4;" x="140.019545" xlink:href="#m2608b8ab62" y="72.88456"/>
     <use style="fill:#1f77b4;stroke:#1f77b4;" x="212.55277" xlink:href="#m2608b8ab62" y="138.345401"/>
     <use style="fill:#1f77b4;stroke:#1f77b4;" x="210.855238" xlink:href="#m2608b8ab62" y="138.272578"/>
     <use style="fill:#1f77b4;stroke:#1f77b4;" x="212.058667" xlink:href="#m2608b8ab62" y="134.370097"/>
     <use style="fill:#1f77b4;stroke:#1f77b4;" x="208.275841" xlink:href="#m2608b8ab62" y="141.629969"/>
     <use style="fill:#1f77b4;stroke:#1f77b4;" x="209.708734" xlink:href="#m2608b8ab62" y="141.784459"/>
     <use style="fill:#1f77b4;stroke:#1f77b4;" x="213.024448" xlink:href="#m2608b8ab62" y="142.808521"/>
     <use style="fill:#1f77b4;stroke:#1f77b4;" x="212.653647" xlink:href="#m2608b8ab62" y="147.047838"/>
     <use style="fill:#1f77b4;stroke:#1f77b4;" x="222.088704" xlink:href="#m2608b8ab62" y="144.582859"/>
     <use style="fill:#1f77b4;stroke:#1f77b4;" x="217.041101" xlink:href="#m2608b8ab62" y="144.479396"/>
     <use style="fill:#1f77b4;stroke:#1f77b4;" x="198.994221" xlink:href="#m2608b8ab62" y="136.67216"/>
     <use style="fill:#1f77b4;stroke:#1f77b4;" x="201.875038" xlink:href="#m2608b8ab62" y="139.654032"/>
     <use style="fill:#1f77b4;stroke:#1f77b4;" x="205.034136" xlink:href="#m2608b8ab62" y="146.252124"/>
     <use style="fill:#1f77b4;stroke:#1f77b4;" x="196.846031" xlink:href="#m2608b8ab62" y="144.738179"/>
     <use style="fill:#1f77b4;stroke:#1f77b4;" x="198.611345" xlink:href="#m2608b8ab62" y="144.520686"/>
     <use style="fill:#1f77b4;stroke:#1f77b4;" x="151.109294" xlink:href="#m2608b8ab62" y="142.55726"/>
     <use style="fill:#1f77b4;stroke:#1f77b4;" x="128.361621" xlink:href="#m2608b8ab62" y="171.585493"/>
     <use style="fill:#1f77b4;stroke:#1f77b4;" x="150.445316" xlink:href="#m2608b8ab62" y="140.554496"/>
     <use style="fill:#1f77b4;stroke:#1f77b4;" x="128.245446" xlink:href="#m2608b8ab62" y="168.602479"/>
     <use style="fill:#1f77b4;stroke:#1f77b4;" x="159.547919" xlink:href="#m2608b8ab62" y="180.124841"/>
     <use style="fill:#1f77b4;stroke:#1f77b4;" x="120.933239" xlink:href="#m2608b8ab62" y="132.07846"/>
     <use style="fill:#1f77b4;stroke:#1f77b4;" x="90.905239" xlink:href="#m2608b8ab62" y="134.967465"/>
     <use style="fill:#1f77b4;stroke:#1f77b4;" x="116.919026" xlink:href="#m2608b8ab62" y="133.790674"/>
     <use style="fill:#1f77b4;stroke:#1f77b4;" x="102.524214" xlink:href="#m2608b8ab62" y="161.953044"/>
     <use style="fill:#1f77b4;stroke:#1f77b4;" x="105.043543" xlink:href="#m2608b8ab62" y="160.166898"/>
     <use style="fill:#1f77b4;stroke:#1f77b4;" x="100.429796" xlink:href="#m2608b8ab62" y="175.890333"/>
     <use style="fill:#1f77b4;stroke:#1f77b4;" x="90.995478" xlink:href="#m2608b8ab62" y="175.462611"/>
     <use style="fill:#1f77b4;stroke:#1f77b4;" x="90.197091" xlink:href="#m2608b8ab62" y="193.181195"/>
     <use style="fill:#1f77b4;stroke:#1f77b4;" x="93.543028" xlink:href="#m2608b8ab62" y="195.300953"/>
     <use style="fill:#1f77b4;stroke:#1f77b4;" x="131.260344" xlink:href="#m2608b8ab62" y="131.277799"/>
     <use style="fill:#1f77b4;stroke:#1f77b4;" x="118.132132" xlink:href="#m2608b8ab62" y="133.13397"/>
     <use style="fill:#1f77b4;stroke:#1f77b4;" x="121.700723" xlink:href="#m2608b8ab62" y="90.554282"/>
     <use style="fill:#1f77b4;stroke:#1f77b4;" x="121.046824" xlink:href="#m2608b8ab62" y="77.115114"/>
     <use style="fill:#1f77b4;stroke:#1f77b4;" x="111.762683" xlink:href="#m2608b8ab62" y="158.083737"/>
     <use style="fill:#1f77b4;stroke:#1f77b4;" x="112.658127" xlink:href="#m2608b8ab62" y="166.685704"/>
     <use style="fill:#1f77b4;stroke:#1f77b4;" x="113.957242" xlink:href="#m2608b8ab62" y="164.118434"/>
     <use style="fill:#1f77b4;stroke:#1f77b4;" x="103.935754" xlink:href="#m2608b8ab62" y="177.629282"/>
     <use style="fill:#1f77b4;stroke:#1f77b4;" x="118.410566" xlink:href="#m2608b8ab62" y="65.492968"/>
     <use style="fill:#1f77b4;stroke:#1f77b4;" x="122.226302" xlink:href="#m2608b8ab62" y="59.214465"/>
     <use style="fill:#1f77b4;stroke:#1f77b4;" x="141.2327" xlink:href="#m2608b8ab62" y="53.417163"/>
    </g>
   </g>
   <g id="matplotlib.axis_1">
    <g id="xtick_1">
     <g id="line2d_1">
      <defs>
       <path d="M 0 0 
L 0 3.5 
" id="m49344c7972" style="stroke:#000000;stroke-width:0.8;"/>
      </defs>
      <g>
       <use style="stroke:#000000;stroke-width:0.8;" x="100.587543" xlink:href="#m49344c7972" y="226.655384"/>
      </g>
     </g>
     <g id="text_1">
      <!-- −10 -->
      <g transform="translate(88.076293 244.765384)scale(0.16 -0.16)">
       <defs>
        <path d="M 54.4375 31.25 
L 1.8125 31.25 
L 1.8125 35.25 
L 54.4375 35.25 
z
" id="TimesNewRomanPSMT-8722"/>
        <path d="M 11.71875 59.71875 
L 27.828125 67.578125 
L 29.4375 67.578125 
L 29.4375 11.671875 
Q 29.4375 6.109375 29.90625 4.734375 
Q 30.375 3.375 31.828125 2.640625 
Q 33.296875 1.90625 37.796875 1.8125 
L 37.796875 0 
L 12.890625 0 
L 12.890625 1.8125 
Q 17.578125 1.90625 18.9375 2.609375 
Q 20.3125 3.328125 20.84375 4.515625 
Q 21.390625 5.71875 21.390625 11.671875 
L 21.390625 47.40625 
Q 21.390625 54.640625 20.90625 56.6875 
Q 20.5625 58.25 19.65625 58.984375 
Q 18.75 59.71875 17.484375 59.71875 
Q 15.671875 59.71875 12.453125 58.203125 
z
" id="TimesNewRomanPSMT-49"/>
        <path d="M 3.609375 32.71875 
Q 3.609375 44.046875 7.03125 52.21875 
Q 10.453125 60.40625 16.109375 64.40625 
Q 20.515625 67.578125 25.203125 67.578125 
Q 32.8125 67.578125 38.875 59.8125 
Q 46.4375 50.203125 46.4375 33.734375 
Q 46.4375 22.21875 43.109375 14.15625 
Q 39.796875 6.109375 34.640625 2.46875 
Q 29.5 -1.171875 24.703125 -1.171875 
Q 15.234375 -1.171875 8.9375 10.015625 
Q 3.609375 19.4375 3.609375 32.71875 
z
M 13.1875 31.5 
Q 13.1875 17.828125 16.546875 9.1875 
Q 19.34375 1.90625 24.859375 1.90625 
Q 27.484375 1.90625 30.3125 4.265625 
Q 33.15625 6.640625 34.625 12.203125 
Q 36.859375 20.609375 36.859375 35.890625 
Q 36.859375 47.21875 34.515625 54.78125 
Q 32.765625 60.40625 29.984375 62.75 
Q 27.984375 64.359375 25.140625 64.359375 
Q 21.828125 64.359375 19.234375 61.375 
Q 15.71875 57.328125 14.453125 48.625 
Q 13.1875 39.9375 13.1875 31.5 
z
" id="TimesNewRomanPSMT-48"/>
       </defs>
       <use xlink:href="#TimesNewRomanPSMT-8722"/>
       <use x="56.396484" xlink:href="#TimesNewRomanPSMT-49"/>
       <use x="106.396484" xlink:href="#TimesNewRomanPSMT-48"/>
      </g>
     </g>
    </g>
    <g id="xtick_2">
     <g id="line2d_2">
      <g>
       <use style="stroke:#000000;stroke-width:0.8;" x="158.437424" xlink:href="#m49344c7972" y="226.655384"/>
      </g>
     </g>
     <g id="text_2">
      <!-- −5 -->
      <g transform="translate(149.926174 244.765384)scale(0.16 -0.16)">
       <defs>
        <path d="M 43.40625 66.21875 
L 39.59375 57.90625 
L 19.671875 57.90625 
L 15.328125 49.03125 
Q 28.265625 47.125 35.84375 39.40625 
Q 42.328125 32.765625 42.328125 23.78125 
Q 42.328125 18.5625 40.203125 14.109375 
Q 38.09375 9.671875 34.859375 6.546875 
Q 31.640625 3.421875 27.6875 1.515625 
Q 22.078125 -1.171875 16.15625 -1.171875 
Q 10.203125 -1.171875 7.484375 0.84375 
Q 4.78125 2.875 4.78125 5.328125 
Q 4.78125 6.6875 5.90625 7.734375 
Q 7.03125 8.796875 8.734375 8.796875 
Q 10.015625 8.796875 10.96875 8.40625 
Q 11.921875 8.015625 14.203125 6.390625 
Q 17.875 3.859375 21.625 3.859375 
Q 27.34375 3.859375 31.65625 8.171875 
Q 35.984375 12.5 35.984375 18.703125 
Q 35.984375 24.703125 32.125 29.90625 
Q 28.265625 35.109375 21.484375 37.9375 
Q 16.15625 40.140625 6.984375 40.484375 
L 19.671875 66.21875 
z
" id="TimesNewRomanPSMT-53"/>
       </defs>
       <use xlink:href="#TimesNewRomanPSMT-8722"/>
       <use x="56.396484" xlink:href="#TimesNewRomanPSMT-53"/>
      </g>
     </g>
    </g>
    <g id="xtick_3">
     <g id="line2d_3">
      <g>
       <use style="stroke:#000000;stroke-width:0.8;" x="216.287306" xlink:href="#m49344c7972" y="226.655384"/>
      </g>
     </g>
     <g id="text_3">
      <!-- 0 -->
      <g transform="translate(212.287306 244.765384)scale(0.16 -0.16)">
       <use xlink:href="#TimesNewRomanPSMT-48"/>
      </g>
     </g>
    </g>
    <g id="xtick_4">
     <g id="line2d_4">
      <g>
       <use style="stroke:#000000;stroke-width:0.8;" x="274.137188" xlink:href="#m49344c7972" y="226.655384"/>
      </g>
     </g>
     <g id="text_4">
      <!-- 5 -->
      <g transform="translate(270.137188 244.765384)scale(0.16 -0.16)">
       <use xlink:href="#TimesNewRomanPSMT-53"/>
      </g>
     </g>
    </g>
    <g id="xtick_5">
     <g id="line2d_5">
      <g>
       <use style="stroke:#000000;stroke-width:0.8;" x="331.98707" xlink:href="#m49344c7972" y="226.655384"/>
      </g>
     </g>
     <g id="text_5">
      <!-- 10 -->
      <g transform="translate(323.98707 244.765384)scale(0.16 -0.16)">
       <use xlink:href="#TimesNewRomanPSMT-49"/>
       <use x="50" xlink:href="#TimesNewRomanPSMT-48"/>
      </g>
     </g>
    </g>
    <g id="xtick_6">
     <g id="line2d_6">
      <g>
       <use style="stroke:#000000;stroke-width:0.8;" x="389.836951" xlink:href="#m49344c7972" y="226.655384"/>
      </g>
     </g>
     <g id="text_6">
      <!-- 15 -->
      <g transform="translate(381.836951 244.765384)scale(0.16 -0.16)">
       <use xlink:href="#TimesNewRomanPSMT-49"/>
       <use x="50" xlink:href="#TimesNewRomanPSMT-53"/>
      </g>
     </g>
    </g>
    <g id="text_7">
     <!-- Zur iModulon Activity -->
     <g transform="translate(155.942813 262.603509)scale(0.15 -0.15)">
      <defs>
       <path d="M 57.515625 66.21875 
L 14.015625 4 
L 41.15625 4 
Q 47.40625 4 50.75 6.734375 
Q 54.109375 9.46875 56.6875 17.828125 
L 58.296875 17.53125 
L 55.171875 0 
L 1.265625 0 
L 1.265625 1.8125 
L 43.75 62.25 
L 22.5625 62.25 
Q 17.28125 62.25 14.90625 61.109375 
Q 12.546875 59.96875 11.296875 57.78125 
Q 10.0625 55.609375 9.03125 49.65625 
L 7.171875 49.65625 
L 8.546875 66.21875 
z
" id="TimesNewRomanPSMT-90"/>
       <path d="M 42.328125 44.734375 
L 42.328125 17.625 
Q 42.328125 9.859375 42.6875 8.125 
Q 43.0625 6.390625 43.859375 5.703125 
Q 44.671875 5.03125 45.75 5.03125 
Q 47.265625 5.03125 49.171875 5.859375 
L 49.859375 4.15625 
L 36.46875 -1.375 
L 34.28125 -1.375 
L 34.28125 8.109375 
Q 28.515625 1.859375 25.484375 0.234375 
Q 22.46875 -1.375 19.09375 -1.375 
Q 15.328125 -1.375 12.5625 0.796875 
Q 9.8125 2.984375 8.734375 6.390625 
Q 7.671875 9.8125 7.671875 16.0625 
L 7.671875 36.03125 
Q 7.671875 39.203125 6.984375 40.421875 
Q 6.296875 41.65625 4.953125 42.3125 
Q 3.609375 42.96875 0.09375 42.921875 
L 0.09375 44.734375 
L 15.765625 44.734375 
L 15.765625 14.796875 
Q 15.765625 8.546875 17.9375 6.59375 
Q 20.125 4.640625 23.1875 4.640625 
Q 25.296875 4.640625 27.953125 5.953125 
Q 30.609375 7.28125 34.28125 10.984375 
L 34.28125 36.328125 
Q 34.28125 40.140625 32.890625 41.484375 
Q 31.5 42.828125 27.09375 42.921875 
L 27.09375 44.734375 
z
" id="TimesNewRomanPSMT-117"/>
       <path d="M 16.21875 46.046875 
L 16.21875 35.984375 
Q 21.828125 46.046875 27.734375 46.046875 
Q 30.421875 46.046875 32.171875 44.40625 
Q 33.9375 42.78125 33.9375 40.625 
Q 33.9375 38.71875 32.65625 37.390625 
Q 31.390625 36.078125 29.640625 36.078125 
Q 27.9375 36.078125 25.8125 37.765625 
Q 23.6875 39.453125 22.65625 39.453125 
Q 21.78125 39.453125 20.75 38.484375 
Q 18.5625 36.46875 16.21875 31.890625 
L 16.21875 10.453125 
Q 16.21875 6.734375 17.140625 4.828125 
Q 17.78125 3.515625 19.390625 2.640625 
Q 21 1.765625 24.03125 1.765625 
L 24.03125 0 
L 1.125 0 
L 1.125 1.765625 
Q 4.546875 1.765625 6.203125 2.828125 
Q 7.421875 3.609375 7.90625 5.328125 
Q 8.15625 6.15625 8.15625 10.0625 
L 8.15625 27.390625 
Q 8.15625 35.203125 7.828125 36.6875 
Q 7.515625 38.1875 6.65625 38.859375 
Q 5.8125 39.546875 4.546875 39.546875 
Q 3.03125 39.546875 1.125 38.8125 
L 0.640625 40.578125 
L 14.15625 46.046875 
z
" id="TimesNewRomanPSMT-114"/>
       <path id="TimesNewRomanPSMT-32"/>
       <path d="M 14.5 69.4375 
Q 16.546875 69.4375 17.984375 67.984375 
Q 19.4375 66.546875 19.4375 64.5 
Q 19.4375 62.453125 17.984375 60.984375 
Q 16.546875 59.515625 14.5 59.515625 
Q 12.453125 59.515625 10.984375 60.984375 
Q 9.515625 62.453125 9.515625 64.5 
Q 9.515625 66.546875 10.953125 67.984375 
Q 12.40625 69.4375 14.5 69.4375 
z
M 18.5625 46.046875 
L 18.5625 10.109375 
Q 18.5625 5.90625 19.171875 4.515625 
Q 19.78125 3.125 20.96875 2.4375 
Q 22.171875 1.765625 25.34375 1.765625 
L 25.34375 0 
L 3.609375 0 
L 3.609375 1.765625 
Q 6.890625 1.765625 8 2.390625 
Q 9.125 3.03125 9.78125 4.484375 
Q 10.453125 5.953125 10.453125 10.109375 
L 10.453125 27.34375 
Q 10.453125 34.625 10.015625 36.765625 
Q 9.671875 38.328125 8.9375 38.9375 
Q 8.203125 39.546875 6.9375 39.546875 
Q 5.5625 39.546875 3.609375 38.8125 
L 2.9375 40.578125 
L 16.40625 46.046875 
z
" id="TimesNewRomanPSMT-105"/>
       <path d="M 40.921875 0 
L 15.328125 55.71875 
L 15.328125 11.46875 
Q 15.328125 5.375 16.65625 3.859375 
Q 18.453125 1.8125 22.359375 1.8125 
L 24.703125 1.8125 
L 24.703125 0 
L 1.65625 0 
L 1.65625 1.8125 
L 4 1.8125 
Q 8.203125 1.8125 9.96875 4.34375 
Q 11.03125 5.90625 11.03125 11.46875 
L 11.03125 54.734375 
Q 11.03125 59.125 10.0625 61.078125 
Q 9.375 62.5 7.546875 63.453125 
Q 5.71875 64.40625 1.65625 64.40625 
L 1.65625 66.21875 
L 20.40625 66.21875 
L 44.4375 14.40625 
L 68.0625 66.21875 
L 86.8125 66.21875 
L 86.8125 64.40625 
L 84.515625 64.40625 
Q 80.28125 64.40625 78.515625 61.859375 
Q 77.4375 60.296875 77.4375 54.734375 
L 77.4375 11.46875 
Q 77.4375 5.375 78.8125 3.859375 
Q 80.609375 1.8125 84.515625 1.8125 
L 86.8125 1.8125 
L 86.8125 0 
L 58.6875 0 
L 58.6875 1.8125 
L 61.03125 1.8125 
Q 65.28125 1.8125 67 4.34375 
Q 68.0625 5.90625 68.0625 11.46875 
L 68.0625 55.71875 
L 42.53125 0 
z
" id="TimesNewRomanPSMT-77"/>
       <path d="M 25 46.046875 
Q 35.15625 46.046875 41.3125 38.328125 
Q 46.53125 31.734375 46.53125 23.1875 
Q 46.53125 17.1875 43.640625 11.03125 
Q 40.765625 4.890625 35.71875 1.75 
Q 30.671875 -1.375 24.46875 -1.375 
Q 14.359375 -1.375 8.40625 6.6875 
Q 3.375 13.484375 3.375 21.921875 
Q 3.375 28.078125 6.421875 34.15625 
Q 9.46875 40.234375 14.453125 43.140625 
Q 19.4375 46.046875 25 46.046875 
z
M 23.484375 42.875 
Q 20.90625 42.875 18.28125 41.328125 
Q 15.671875 39.796875 14.0625 35.9375 
Q 12.453125 32.078125 12.453125 26.03125 
Q 12.453125 16.265625 16.328125 9.171875 
Q 20.21875 2.09375 26.5625 2.09375 
Q 31.296875 2.09375 34.375 6 
Q 37.453125 9.90625 37.453125 19.4375 
Q 37.453125 31.34375 32.328125 38.1875 
Q 28.859375 42.875 23.484375 42.875 
z
" id="TimesNewRomanPSMT-111"/>
       <path d="M 34.71875 5.03125 
Q 31.453125 1.609375 28.328125 0.109375 
Q 25.203125 -1.375 21.578125 -1.375 
Q 14.265625 -1.375 8.796875 4.75 
Q 3.328125 10.890625 3.328125 20.515625 
Q 3.328125 30.125 9.375 38.109375 
Q 15.4375 46.09375 24.953125 46.09375 
Q 30.859375 46.09375 34.71875 42.328125 
L 34.71875 50.59375 
Q 34.71875 58.25 34.34375 60 
Q 33.984375 61.765625 33.203125 62.390625 
Q 32.421875 63.03125 31.25 63.03125 
Q 29.984375 63.03125 27.875 62.25 
L 27.25 63.96875 
L 40.578125 69.4375 
L 42.78125 69.4375 
L 42.78125 17.71875 
Q 42.78125 9.859375 43.140625 8.125 
Q 43.5 6.390625 44.3125 5.703125 
Q 45.125 5.03125 46.1875 5.03125 
Q 47.515625 5.03125 49.703125 5.859375 
L 50.25 4.15625 
L 36.96875 -1.375 
L 34.71875 -1.375 
z
M 34.71875 8.453125 
L 34.71875 31.5 
Q 34.421875 34.8125 32.953125 37.546875 
Q 31.5 40.28125 29.078125 41.671875 
Q 26.65625 43.0625 24.359375 43.0625 
Q 20.0625 43.0625 16.703125 39.203125 
Q 12.25 34.125 12.25 24.359375 
Q 12.25 14.5 16.546875 9.25 
Q 20.84375 4 26.125 4 
Q 30.5625 4 34.71875 8.453125 
z
" id="TimesNewRomanPSMT-100"/>
       <path d="M 18.5 69.4375 
L 18.5 10.109375 
Q 18.5 5.90625 19.109375 4.53125 
Q 19.734375 3.171875 21 2.46875 
Q 22.265625 1.765625 25.734375 1.765625 
L 25.734375 0 
L 3.8125 0 
L 3.8125 1.765625 
Q 6.890625 1.765625 8 2.390625 
Q 9.125 3.03125 9.765625 4.484375 
Q 10.40625 5.953125 10.40625 10.109375 
L 10.40625 50.734375 
Q 10.40625 58.296875 10.0625 60.03125 
Q 9.71875 61.765625 8.953125 62.390625 
Q 8.203125 63.03125 7.03125 63.03125 
Q 5.765625 63.03125 3.8125 62.25 
L 2.984375 63.96875 
L 16.3125 69.4375 
z
" id="TimesNewRomanPSMT-108"/>
       <path d="M 16.15625 36.578125 
Q 24.03125 46.046875 31.15625 46.046875 
Q 34.8125 46.046875 37.453125 44.21875 
Q 40.09375 42.390625 41.65625 38.1875 
Q 42.71875 35.25 42.71875 29.203125 
L 42.71875 10.109375 
Q 42.71875 5.859375 43.40625 4.34375 
Q 43.953125 3.125 45.140625 2.4375 
Q 46.34375 1.765625 49.5625 1.765625 
L 49.5625 0 
L 27.4375 0 
L 27.4375 1.765625 
L 28.375 1.765625 
Q 31.5 1.765625 32.734375 2.703125 
Q 33.984375 3.65625 34.46875 5.515625 
Q 34.671875 6.25 34.671875 10.109375 
L 34.671875 28.421875 
Q 34.671875 34.515625 33.078125 37.28125 
Q 31.5 40.046875 27.734375 40.046875 
Q 21.921875 40.046875 16.15625 33.6875 
L 16.15625 10.109375 
Q 16.15625 5.5625 16.703125 4.5 
Q 17.390625 3.078125 18.578125 2.421875 
Q 19.78125 1.765625 23.4375 1.765625 
L 23.4375 0 
L 1.3125 0 
L 1.3125 1.765625 
L 2.296875 1.765625 
Q 5.71875 1.765625 6.90625 3.484375 
Q 8.109375 5.21875 8.109375 10.109375 
L 8.109375 26.703125 
Q 8.109375 34.765625 7.734375 36.515625 
Q 7.375 38.28125 6.609375 38.90625 
Q 5.859375 39.546875 4.59375 39.546875 
Q 3.21875 39.546875 1.3125 38.8125 
L 0.59375 40.578125 
L 14.0625 46.046875 
L 16.15625 46.046875 
z
" id="TimesNewRomanPSMT-110"/>
       <path d="M 45.75 22.171875 
L 20.125 22.171875 
L 15.625 11.71875 
Q 13.96875 7.859375 13.96875 5.953125 
Q 13.96875 4.4375 15.40625 3.296875 
Q 16.84375 2.15625 21.625 1.8125 
L 21.625 0 
L 0.78125 0 
L 0.78125 1.8125 
Q 4.9375 2.546875 6.15625 3.71875 
Q 8.640625 6.0625 11.671875 13.234375 
L 34.96875 67.71875 
L 36.671875 67.71875 
L 59.71875 12.640625 
Q 62.5 6 64.765625 4.015625 
Q 67.046875 2.046875 71.09375 1.8125 
L 71.09375 0 
L 44.96875 0 
L 44.96875 1.8125 
Q 48.921875 2 50.3125 3.125 
Q 51.703125 4.25 51.703125 5.859375 
Q 51.703125 8.015625 49.75 12.640625 
z
M 44.390625 25.78125 
L 33.15625 52.546875 
L 21.625 25.78125 
z
" id="TimesNewRomanPSMT-65"/>
       <path d="M 41.109375 17 
Q 39.3125 8.15625 34.03125 3.390625 
Q 28.765625 -1.375 22.359375 -1.375 
Q 14.75 -1.375 9.078125 5.015625 
Q 3.421875 11.421875 3.421875 22.3125 
Q 3.421875 32.859375 9.6875 39.453125 
Q 15.96875 46.046875 24.75 46.046875 
Q 31.34375 46.046875 35.59375 42.546875 
Q 39.84375 39.0625 39.84375 35.296875 
Q 39.84375 33.453125 38.640625 32.296875 
Q 37.453125 31.15625 35.296875 31.15625 
Q 32.421875 31.15625 30.953125 33.015625 
Q 30.125 34.03125 29.859375 36.90625 
Q 29.59375 39.796875 27.875 41.3125 
Q 26.171875 42.78125 23.140625 42.78125 
Q 18.265625 42.78125 15.28125 39.15625 
Q 11.328125 34.375 11.328125 26.515625 
Q 11.328125 18.5 15.25 12.375 
Q 19.1875 6.25 25.875 6.25 
Q 30.671875 6.25 34.46875 9.515625 
Q 37.15625 11.765625 39.703125 17.671875 
z
" id="TimesNewRomanPSMT-99"/>
       <path d="M 16.109375 59.421875 
L 16.109375 44.734375 
L 26.5625 44.734375 
L 26.5625 41.3125 
L 16.109375 41.3125 
L 16.109375 12.3125 
Q 16.109375 7.953125 17.359375 6.4375 
Q 18.609375 4.9375 20.5625 4.9375 
Q 22.171875 4.9375 23.6875 5.9375 
Q 25.203125 6.9375 26.03125 8.890625 
L 27.9375 8.890625 
Q 26.21875 4.109375 23.09375 1.6875 
Q 19.96875 -0.734375 16.65625 -0.734375 
Q 14.40625 -0.734375 12.25 0.515625 
Q 10.109375 1.765625 9.078125 4.078125 
Q 8.0625 6.390625 8.0625 11.234375 
L 8.0625 41.3125 
L 0.984375 41.3125 
L 0.984375 42.921875 
Q 3.65625 44 6.46875 46.5625 
Q 9.28125 49.125 11.46875 52.640625 
Q 12.59375 54.5 14.59375 59.421875 
z
" id="TimesNewRomanPSMT-116"/>
       <path d="M 0.828125 44.734375 
L 21.875 44.734375 
L 21.875 42.921875 
L 20.515625 42.921875 
Q 18.609375 42.921875 17.609375 41.984375 
Q 16.609375 41.0625 16.609375 39.5 
Q 16.609375 37.796875 17.625 35.453125 
L 28.03125 10.75 
L 38.484375 36.375 
Q 39.59375 39.109375 39.59375 40.53125 
Q 39.59375 41.21875 39.203125 41.65625 
Q 38.671875 42.390625 37.84375 42.65625 
Q 37.015625 42.921875 34.46875 42.921875 
L 34.46875 44.734375 
L 49.078125 44.734375 
L 49.078125 42.921875 
Q 46.53125 42.71875 45.5625 41.890625 
Q 43.84375 40.4375 42.484375 37.015625 
L 26.609375 -1.375 
L 24.609375 -1.375 
L 8.640625 36.375 
Q 7.5625 39.015625 6.578125 40.15625 
Q 5.609375 41.3125 4.109375 42.09375 
Q 3.265625 42.53125 0.828125 42.921875 
z
" id="TimesNewRomanPSMT-118"/>
       <path d="M 0.59375 44.734375 
L 21.4375 44.734375 
L 21.4375 42.921875 
L 20.40625 42.921875 
Q 18.21875 42.921875 17.109375 41.96875 
Q 16.015625 41.015625 16.015625 39.59375 
Q 16.015625 37.703125 17.625 34.328125 
L 28.515625 11.765625 
L 38.53125 36.46875 
Q 39.359375 38.484375 39.359375 40.4375 
Q 39.359375 41.3125 39.015625 41.75 
Q 38.625 42.28125 37.796875 42.59375 
Q 36.96875 42.921875 34.859375 42.921875 
L 34.859375 44.734375 
L 49.421875 44.734375 
L 49.421875 42.921875 
Q 47.609375 42.71875 46.625 42.125 
Q 45.65625 41.546875 44.484375 39.9375 
Q 44.046875 39.265625 42.828125 36.1875 
L 24.609375 -8.453125 
Q 21.96875 -14.9375 17.6875 -18.25 
Q 13.421875 -21.578125 9.46875 -21.578125 
Q 6.59375 -21.578125 4.734375 -19.921875 
Q 2.875 -18.265625 2.875 -16.109375 
Q 2.875 -14.0625 4.21875 -12.8125 
Q 5.5625 -11.578125 7.90625 -11.578125 
Q 9.515625 -11.578125 12.3125 -12.640625 
Q 14.265625 -13.375 14.75 -13.375 
Q 16.21875 -13.375 17.9375 -11.859375 
Q 19.671875 -10.359375 21.4375 -6 
L 24.609375 1.765625 
L 8.546875 35.5 
Q 7.8125 37.015625 6.203125 39.265625 
Q 4.984375 40.96875 4.203125 41.546875 
Q 3.078125 42.328125 0.59375 42.921875 
z
" id="TimesNewRomanPSMT-121"/>
      </defs>
      <use xlink:href="#TimesNewRomanPSMT-90"/>
      <use x="61.083984" xlink:href="#TimesNewRomanPSMT-117"/>
      <use x="111.083984" xlink:href="#TimesNewRomanPSMT-114"/>
      <use x="144.384766" xlink:href="#TimesNewRomanPSMT-32"/>
      <use x="169.384766" xlink:href="#TimesNewRomanPSMT-105"/>
      <use x="197.167969" xlink:href="#TimesNewRomanPSMT-77"/>
      <use x="286.083984" xlink:href="#TimesNewRomanPSMT-111"/>
      <use x="336.083984" xlink:href="#TimesNewRomanPSMT-100"/>
      <use x="386.083984" xlink:href="#TimesNewRomanPSMT-117"/>
      <use x="436.083984" xlink:href="#TimesNewRomanPSMT-108"/>
      <use x="463.867188" xlink:href="#TimesNewRomanPSMT-111"/>
      <use x="513.867188" xlink:href="#TimesNewRomanPSMT-110"/>
      <use x="563.867188" xlink:href="#TimesNewRomanPSMT-32"/>
      <use x="583.367188" xlink:href="#TimesNewRomanPSMT-65"/>
      <use x="655.583984" xlink:href="#TimesNewRomanPSMT-99"/>
      <use x="699.96875" xlink:href="#TimesNewRomanPSMT-116"/>
      <use x="727.751953" xlink:href="#TimesNewRomanPSMT-105"/>
      <use x="755.535156" xlink:href="#TimesNewRomanPSMT-118"/>
      <use x="805.535156" xlink:href="#TimesNewRomanPSMT-105"/>
      <use x="833.318359" xlink:href="#TimesNewRomanPSMT-116"/>
      <use x="861.101562" xlink:href="#TimesNewRomanPSMT-121"/>
     </g>
    </g>
   </g>
   <g id="matplotlib.axis_2">
    <g id="ytick_1">
     <g id="line2d_7">
      <defs>
       <path d="M 0 0 
L -3.5 0 
" id="m12a838b89d" style="stroke:#000000;stroke-width:0.8;"/>
      </defs>
      <g>
       <use style="stroke:#000000;stroke-width:0.8;" x="56.874844" xlink:href="#m12a838b89d" y="198.67741"/>
      </g>
     </g>
     <g id="text_8">
      <!-- −20 -->
      <g transform="translate(24.852344 204.23241)scale(0.16 -0.16)">
       <defs>
        <path d="M 45.84375 12.75 
L 41.21875 0 
L 2.15625 0 
L 2.15625 1.8125 
Q 19.390625 17.53125 26.421875 27.484375 
Q 33.453125 37.453125 33.453125 45.703125 
Q 33.453125 52 29.59375 56.046875 
Q 25.734375 60.109375 20.359375 60.109375 
Q 15.484375 60.109375 11.59375 57.25 
Q 7.71875 54.390625 5.859375 48.875 
L 4.046875 48.875 
Q 5.28125 57.90625 10.328125 62.734375 
Q 15.375 67.578125 22.953125 67.578125 
Q 31 67.578125 36.390625 62.40625 
Q 41.796875 57.234375 41.796875 50.203125 
Q 41.796875 45.171875 39.453125 40.140625 
Q 35.84375 32.234375 27.734375 23.390625 
Q 15.578125 10.109375 12.546875 7.375 
L 29.828125 7.375 
Q 35.109375 7.375 37.234375 7.765625 
Q 39.359375 8.15625 41.0625 9.34375 
Q 42.78125 10.546875 44.046875 12.75 
z
" id="TimesNewRomanPSMT-50"/>
       </defs>
       <use xlink:href="#TimesNewRomanPSMT-8722"/>
       <use x="56.396484" xlink:href="#TimesNewRomanPSMT-50"/>
       <use x="106.396484" xlink:href="#TimesNewRomanPSMT-48"/>
      </g>
     </g>
    </g>
    <g id="ytick_2">
     <g id="line2d_8">
      <g>
       <use style="stroke:#000000;stroke-width:0.8;" x="56.874844" xlink:href="#m12a838b89d" y="152.196808"/>
      </g>
     </g>
     <g id="text_9">
      <!-- −10 -->
      <g transform="translate(24.852344 157.751808)scale(0.16 -0.16)">
       <use xlink:href="#TimesNewRomanPSMT-8722"/>
       <use x="56.396484" xlink:href="#TimesNewRomanPSMT-49"/>
       <use x="106.396484" xlink:href="#TimesNewRomanPSMT-48"/>
      </g>
     </g>
    </g>
    <g id="ytick_3">
     <g id="line2d_9">
      <g>
       <use style="stroke:#000000;stroke-width:0.8;" x="56.874844" xlink:href="#m12a838b89d" y="105.716205"/>
      </g>
     </g>
     <g id="text_10">
      <!-- 0 -->
      <g transform="translate(41.874844 111.271205)scale(0.16 -0.16)">
       <use xlink:href="#TimesNewRomanPSMT-48"/>
      </g>
     </g>
    </g>
    <g id="ytick_4">
     <g id="line2d_10">
      <g>
       <use style="stroke:#000000;stroke-width:0.8;" x="56.874844" xlink:href="#m12a838b89d" y="59.235603"/>
      </g>
     </g>
     <g id="text_11">
      <!-- 10 -->
      <g transform="translate(33.874844 64.790603)scale(0.16 -0.16)">
       <use xlink:href="#TimesNewRomanPSMT-49"/>
       <use x="50" xlink:href="#TimesNewRomanPSMT-48"/>
      </g>
     </g>
    </g>
    <g id="ytick_5">
     <g id="line2d_11">
      <g>
       <use style="stroke:#000000;stroke-width:0.8;" x="56.874844" xlink:href="#m12a838b89d" y="12.755"/>
      </g>
     </g>
     <g id="text_12">
      <!-- 20 -->
      <g transform="translate(33.874844 18.31)scale(0.16 -0.16)">
       <use xlink:href="#TimesNewRomanPSMT-50"/>
       <use x="50" xlink:href="#TimesNewRomanPSMT-48"/>
      </g>
     </g>
    </g>
    <g id="text_13">
     <!-- DtxR iModulon Activity -->
     <g transform="translate(17.615625 191.692025)rotate(-90)scale(0.15 -0.15)">
      <defs>
       <path d="M 1.703125 0 
L 1.703125 1.8125 
L 4.203125 1.8125 
Q 8.40625 1.8125 10.15625 4.5 
Q 11.234375 6.109375 11.234375 11.71875 
L 11.234375 54.5 
Q 11.234375 60.6875 9.859375 62.25 
Q 7.953125 64.40625 4.203125 64.40625 
L 1.703125 64.40625 
L 1.703125 66.21875 
L 28.65625 66.21875 
Q 43.5 66.21875 51.234375 62.84375 
Q 58.984375 59.46875 63.6875 51.609375 
Q 68.40625 43.75 68.40625 33.453125 
Q 68.40625 19.625 60.015625 10.359375 
Q 50.59375 0 31.296875 0 
z
M 20.609375 4.78125 
Q 26.8125 3.421875 31 3.421875 
Q 42.328125 3.421875 49.796875 11.375 
Q 57.28125 19.34375 57.28125 32.953125 
Q 57.28125 46.6875 49.796875 54.59375 
Q 42.328125 62.5 30.609375 62.5 
Q 26.21875 62.5 20.609375 61.078125 
z
" id="TimesNewRomanPSMT-68"/>
       <path d="M 1.3125 44.734375 
L 22.359375 44.734375 
L 22.359375 42.921875 
Q 20.359375 42.921875 19.546875 42.234375 
Q 18.75 41.546875 18.75 40.4375 
Q 18.75 39.265625 20.453125 36.8125 
Q 21 36.03125 22.078125 34.375 
L 25.25 29.296875 
L 28.90625 34.375 
Q 32.421875 39.203125 32.421875 40.484375 
Q 32.421875 41.5 31.59375 42.203125 
Q 30.765625 42.921875 28.90625 42.921875 
L 28.90625 44.734375 
L 44.046875 44.734375 
L 44.046875 42.921875 
Q 41.65625 42.78125 39.890625 41.609375 
Q 37.5 39.9375 33.34375 34.375 
L 27.25 26.21875 
L 38.375 10.203125 
Q 42.484375 4.296875 44.234375 3.09375 
Q 46 1.90625 48.78125 1.765625 
L 48.78125 0 
L 27.6875 0 
L 27.6875 1.765625 
Q 29.890625 1.765625 31.109375 2.734375 
Q 32.03125 3.421875 32.03125 4.546875 
Q 32.03125 5.671875 28.90625 10.203125 
L 22.359375 19.78125 
L 15.1875 10.203125 
Q 11.859375 5.765625 11.859375 4.9375 
Q 11.859375 3.765625 12.953125 2.8125 
Q 14.0625 1.859375 16.265625 1.765625 
L 16.265625 0 
L 1.65625 0 
L 1.65625 1.765625 
Q 3.421875 2 4.734375 2.984375 
Q 6.59375 4.390625 10.984375 10.203125 
L 20.359375 22.65625 
L 11.859375 34.96875 
Q 8.25 40.234375 6.265625 41.578125 
Q 4.296875 42.921875 1.3125 42.921875 
z
" id="TimesNewRomanPSMT-120"/>
       <path d="M 67.578125 0 
L 49.90625 0 
L 27.484375 30.953125 
Q 25 30.859375 23.4375 30.859375 
Q 22.796875 30.859375 22.0625 30.875 
Q 21.34375 30.90625 20.5625 30.953125 
L 20.5625 11.71875 
Q 20.5625 5.46875 21.921875 3.953125 
Q 23.78125 1.8125 27.484375 1.8125 
L 30.078125 1.8125 
L 30.078125 0 
L 1.703125 0 
L 1.703125 1.8125 
L 4.203125 1.8125 
Q 8.40625 1.8125 10.203125 4.546875 
Q 11.234375 6.0625 11.234375 11.71875 
L 11.234375 54.5 
Q 11.234375 60.75 9.859375 62.25 
Q 7.953125 64.40625 4.203125 64.40625 
L 1.703125 64.40625 
L 1.703125 66.21875 
L 25.828125 66.21875 
Q 36.375 66.21875 41.375 64.671875 
Q 46.390625 63.140625 49.875 59.015625 
Q 53.375 54.890625 53.375 49.171875 
Q 53.375 43.0625 49.390625 38.5625 
Q 45.40625 34.078125 37.0625 32.234375 
L 50.734375 13.234375 
Q 55.421875 6.6875 58.78125 4.53125 
Q 62.15625 2.390625 67.578125 1.8125 
z
M 20.5625 34.03125 
Q 21.484375 34.03125 22.171875 34 
Q 22.859375 33.984375 23.296875 33.984375 
Q 32.765625 33.984375 37.578125 38.078125 
Q 42.390625 42.1875 42.390625 48.53125 
Q 42.390625 54.734375 38.5 58.609375 
Q 34.625 62.5 28.21875 62.5 
Q 25.390625 62.5 20.5625 61.578125 
z
" id="TimesNewRomanPSMT-82"/>
      </defs>
      <use xlink:href="#TimesNewRomanPSMT-68"/>
      <use x="72.216797" xlink:href="#TimesNewRomanPSMT-116"/>
      <use x="100" xlink:href="#TimesNewRomanPSMT-120"/>
      <use x="150" xlink:href="#TimesNewRomanPSMT-82"/>
      <use x="216.699219" xlink:href="#TimesNewRomanPSMT-32"/>
      <use x="241.699219" xlink:href="#TimesNewRomanPSMT-105"/>
      <use x="269.482422" xlink:href="#TimesNewRomanPSMT-77"/>
      <use x="358.398438" xlink:href="#TimesNewRomanPSMT-111"/>
      <use x="408.398438" xlink:href="#TimesNewRomanPSMT-100"/>
      <use x="458.398438" xlink:href="#TimesNewRomanPSMT-117"/>
      <use x="508.398438" xlink:href="#TimesNewRomanPSMT-108"/>
      <use x="536.181641" xlink:href="#TimesNewRomanPSMT-111"/>
      <use x="586.181641" xlink:href="#TimesNewRomanPSMT-110"/>
      <use x="636.181641" xlink:href="#TimesNewRomanPSMT-32"/>
      <use x="655.681641" xlink:href="#TimesNewRomanPSMT-65"/>
      <use x="727.898438" xlink:href="#TimesNewRomanPSMT-99"/>
      <use x="772.283203" xlink:href="#TimesNewRomanPSMT-116"/>
      <use x="800.066406" xlink:href="#TimesNewRomanPSMT-105"/>
      <use x="827.849609" xlink:href="#TimesNewRomanPSMT-118"/>
      <use x="877.849609" xlink:href="#TimesNewRomanPSMT-105"/>
      <use x="905.632812" xlink:href="#TimesNewRomanPSMT-116"/>
      <use x="933.416016" xlink:href="#TimesNewRomanPSMT-121"/>
     </g>
    </g>
   </g>
   <g id="LineCollection_1">
    <path clip-path="url(#pcc7866e4de)" d="M 56.874844 105.716205 
L 391.674844 105.716205 
" style="fill:none;stroke:#808080;stroke-width:0.5;"/>
   </g>
   <g id="LineCollection_2">
    <path clip-path="url(#pcc7866e4de)" d="M 216.287306 226.655384 
L 216.287306 9.215384 
" style="fill:none;stroke:#808080;stroke-width:0.5;"/>
   </g>
   <g id="patch_3">
    <path d="M 56.874844 226.655384 
L 56.874844 9.215384 
" style="fill:none;stroke:#000000;stroke-linecap:square;stroke-linejoin:miter;stroke-width:0.8;"/>
   </g>
   <g id="patch_4">
    <path d="M 391.674844 226.655384 
L 391.674844 9.215384 
" style="fill:none;stroke:#000000;stroke-linecap:square;stroke-linejoin:miter;stroke-width:0.8;"/>
   </g>
   <g id="patch_5">
    <path d="M 56.874844 226.655384 
L 391.674844 226.655384 
" style="fill:none;stroke:#000000;stroke-linecap:square;stroke-linejoin:miter;stroke-width:0.8;"/>
   </g>
   <g id="patch_6">
    <path d="M 56.874844 9.215384 
L 391.674844 9.215384 
" style="fill:none;stroke:#000000;stroke-linecap:square;stroke-linejoin:miter;stroke-width:0.8;"/>
   </g>
   <g id="line2d_12">
    <path clip-path="url(#pcc7866e4de)" d="M 84.774844 158.205367 
L 363.774844 85.562153 
" style="fill:none;stroke:#000000;stroke-dasharray:3.7,1.6;stroke-dashoffset:0;"/>
   </g>
   <g id="legend_1">
    <g id="patch_7">
     <path d="M 64.574844 45.025197 
L 175.642188 45.025197 
Q 177.842187 45.025197 177.842187 42.825197 
L 177.842187 16.915384 
Q 177.842187 14.715384 175.642188 14.715384 
L 64.574844 14.715384 
Q 62.374844 14.715384 62.374844 16.915384 
L 62.374844 42.825197 
Q 62.374844 45.025197 64.574844 45.025197 
z
" style="fill:#ffffff;opacity:0.8;stroke:#cccccc;stroke-linejoin:miter;"/>
    </g>
    <g id="line2d_13">
     <path d="M 66.774844 29.839353 
L 88.774844 29.839353 
" style="fill:none;stroke:#000000;stroke-dasharray:3.7,1.6;stroke-dashoffset:0;"/>
    </g>
    <g id="line2d_14"/>
    <g id="text_14">
     <!-- Pearson R = 0.54 -->
     <g transform="translate(97.574844 26.753509)scale(0.11 -0.11)">
      <defs>
       <path d="M 20.515625 31 
L 20.515625 11.71875 
Q 20.515625 5.46875 21.875 3.953125 
Q 23.734375 1.8125 27.484375 1.8125 
L 30.03125 1.8125 
L 30.03125 0 
L 1.65625 0 
L 1.65625 1.8125 
L 4.15625 1.8125 
Q 8.34375 1.8125 10.15625 4.546875 
Q 11.140625 6.0625 11.140625 11.71875 
L 11.140625 54.5 
Q 11.140625 60.75 9.8125 62.25 
Q 7.90625 64.40625 4.15625 64.40625 
L 1.65625 64.40625 
L 1.65625 66.21875 
L 25.921875 66.21875 
Q 34.8125 66.21875 39.9375 64.375 
Q 45.0625 62.546875 48.578125 58.203125 
Q 52.09375 53.859375 52.09375 47.90625 
Q 52.09375 39.796875 46.75 34.71875 
Q 41.40625 29.640625 31.640625 29.640625 
Q 29.25 29.640625 26.46875 29.984375 
Q 23.6875 30.328125 20.515625 31 
z
M 20.515625 33.796875 
Q 23.09375 33.296875 25.09375 33.046875 
Q 27.09375 32.8125 28.515625 32.8125 
Q 33.59375 32.8125 37.28125 36.734375 
Q 40.96875 40.671875 40.96875 46.921875 
Q 40.96875 51.21875 39.203125 54.90625 
Q 37.453125 58.59375 34.21875 60.421875 
Q 31 62.25 26.90625 62.25 
Q 24.421875 62.25 20.515625 61.328125 
z
" id="TimesNewRomanPSMT-80"/>
       <path d="M 10.640625 27.875 
Q 10.59375 17.921875 15.484375 12.25 
Q 20.359375 6.59375 26.953125 6.59375 
Q 31.34375 6.59375 34.59375 9 
Q 37.84375 11.421875 40.046875 17.28125 
L 41.546875 16.3125 
Q 40.53125 9.625 35.59375 4.125 
Q 30.671875 -1.375 23.25 -1.375 
Q 15.1875 -1.375 9.453125 4.90625 
Q 3.71875 11.1875 3.71875 21.78125 
Q 3.71875 33.25 9.59375 39.671875 
Q 15.484375 46.09375 24.359375 46.09375 
Q 31.890625 46.09375 36.71875 41.140625 
Q 41.546875 36.1875 41.546875 27.875 
z
M 10.640625 30.71875 
L 31.34375 30.71875 
Q 31.109375 35.015625 30.328125 36.765625 
Q 29.109375 39.5 26.6875 41.0625 
Q 24.265625 42.625 21.625 42.625 
Q 17.578125 42.625 14.375 39.46875 
Q 11.1875 36.328125 10.640625 30.71875 
z
" id="TimesNewRomanPSMT-101"/>
       <path d="M 28.46875 6.453125 
Q 21.578125 1.125 19.828125 0.296875 
Q 17.1875 -0.921875 14.203125 -0.921875 
Q 9.578125 -0.921875 6.5625 2.25 
Q 3.5625 5.421875 3.5625 10.59375 
Q 3.5625 13.875 5.03125 16.265625 
Q 7.03125 19.578125 11.984375 22.5 
Q 16.9375 25.4375 28.46875 29.640625 
L 28.46875 31.390625 
Q 28.46875 38.09375 26.34375 40.578125 
Q 24.21875 43.0625 20.171875 43.0625 
Q 17.09375 43.0625 15.28125 41.40625 
Q 13.421875 39.75 13.421875 37.59375 
L 13.53125 34.765625 
Q 13.53125 32.515625 12.375 31.296875 
Q 11.234375 30.078125 9.375 30.078125 
Q 7.5625 30.078125 6.421875 31.34375 
Q 5.28125 32.625 5.28125 34.8125 
Q 5.28125 39.015625 9.578125 42.53125 
Q 13.875 46.046875 21.625 46.046875 
Q 27.59375 46.046875 31.390625 44.046875 
Q 34.28125 42.53125 35.640625 39.3125 
Q 36.53125 37.203125 36.53125 30.71875 
L 36.53125 15.53125 
Q 36.53125 9.125 36.765625 7.6875 
Q 37.015625 6.25 37.578125 5.765625 
Q 38.140625 5.28125 38.875 5.28125 
Q 39.65625 5.28125 40.234375 5.609375 
Q 41.265625 6.25 44.1875 9.1875 
L 44.1875 6.453125 
Q 38.71875 -0.875 33.734375 -0.875 
Q 31.34375 -0.875 29.921875 0.78125 
Q 28.515625 2.4375 28.46875 6.453125 
z
M 28.46875 9.625 
L 28.46875 26.65625 
Q 21.09375 23.734375 18.953125 22.515625 
Q 15.09375 20.359375 13.421875 18.015625 
Q 11.765625 15.671875 11.765625 12.890625 
Q 11.765625 9.375 13.859375 7.046875 
Q 15.96875 4.734375 18.703125 4.734375 
Q 22.40625 4.734375 28.46875 9.625 
z
" id="TimesNewRomanPSMT-97"/>
       <path d="M 32.03125 46.046875 
L 32.03125 30.8125 
L 30.421875 30.8125 
Q 28.5625 37.984375 25.65625 40.578125 
Q 22.75 43.171875 18.265625 43.171875 
Q 14.84375 43.171875 12.734375 41.359375 
Q 10.640625 39.546875 10.640625 37.359375 
Q 10.640625 34.625 12.203125 32.671875 
Q 13.71875 30.671875 18.359375 28.421875 
L 25.484375 24.953125 
Q 35.40625 20.125 35.40625 12.203125 
Q 35.40625 6.109375 30.78125 2.359375 
Q 26.171875 -1.375 20.453125 -1.375 
Q 16.359375 -1.375 11.078125 0.09375 
Q 9.46875 0.59375 8.453125 0.59375 
Q 7.328125 0.59375 6.6875 -0.6875 
L 5.078125 -0.6875 
L 5.078125 15.28125 
L 6.6875 15.28125 
Q 8.0625 8.453125 11.90625 4.984375 
Q 15.765625 1.515625 20.5625 1.515625 
Q 23.921875 1.515625 26.046875 3.484375 
Q 28.171875 5.46875 28.171875 8.25 
Q 28.171875 11.625 25.796875 13.921875 
Q 23.4375 16.21875 16.359375 19.734375 
Q 9.28125 23.25 7.078125 26.078125 
Q 4.890625 28.859375 4.890625 33.109375 
Q 4.890625 38.625 8.671875 42.328125 
Q 12.453125 46.046875 18.453125 46.046875 
Q 21.09375 46.046875 24.859375 44.921875 
Q 27.34375 44.1875 28.171875 44.1875 
Q 28.953125 44.1875 29.390625 44.53125 
Q 29.828125 44.875 30.421875 46.046875 
z
" id="TimesNewRomanPSMT-115"/>
       <path d="M 1.8125 43.109375 
L 54.5 43.109375 
L 54.5 39.109375 
L 1.8125 39.109375 
z
M 1.8125 27.203125 
L 54.5 27.203125 
L 54.5 23.1875 
L 1.8125 23.1875 
z
" id="TimesNewRomanPSMT-61"/>
       <path d="M 12.5 9.46875 
Q 14.796875 9.46875 16.359375 7.875 
Q 17.921875 6.296875 17.921875 4.046875 
Q 17.921875 1.8125 16.328125 0.21875 
Q 14.75 -1.375 12.5 -1.375 
Q 10.25 -1.375 8.65625 0.21875 
Q 7.078125 1.8125 7.078125 4.046875 
Q 7.078125 6.34375 8.65625 7.90625 
Q 10.25 9.46875 12.5 9.46875 
z
" id="TimesNewRomanPSMT-46"/>
       <path d="M 46.53125 24.421875 
L 46.53125 17.484375 
L 37.640625 17.484375 
L 37.640625 0 
L 29.59375 0 
L 29.59375 17.484375 
L 1.5625 17.484375 
L 1.5625 23.734375 
L 32.28125 67.578125 
L 37.640625 67.578125 
L 37.640625 24.421875 
z
M 29.59375 24.421875 
L 29.59375 57.28125 
L 6.34375 24.421875 
z
" id="TimesNewRomanPSMT-52"/>
      </defs>
      <use xlink:href="#TimesNewRomanPSMT-80"/>
      <use x="55.615234" xlink:href="#TimesNewRomanPSMT-101"/>
      <use x="100" xlink:href="#TimesNewRomanPSMT-97"/>
      <use x="144.384766" xlink:href="#TimesNewRomanPSMT-114"/>
      <use x="177.685547" xlink:href="#TimesNewRomanPSMT-115"/>
      <use x="216.601562" xlink:href="#TimesNewRomanPSMT-111"/>
      <use x="266.601562" xlink:href="#TimesNewRomanPSMT-110"/>
      <use x="316.601562" xlink:href="#TimesNewRomanPSMT-32"/>
      <use x="341.601562" xlink:href="#TimesNewRomanPSMT-82"/>
      <use x="408.300781" xlink:href="#TimesNewRomanPSMT-32"/>
      <use x="433.300781" xlink:href="#TimesNewRomanPSMT-61"/>
      <use x="489.697266" xlink:href="#TimesNewRomanPSMT-32"/>
      <use x="514.697266" xlink:href="#TimesNewRomanPSMT-48"/>
      <use x="564.697266" xlink:href="#TimesNewRomanPSMT-46"/>
      <use x="589.697266" xlink:href="#TimesNewRomanPSMT-53"/>
      <use x="639.697266" xlink:href="#TimesNewRomanPSMT-52"/>
     </g>
     <!-- p-value &lt; 1e-10 -->
     <g transform="translate(97.574844 38.272228)scale(0.11 -0.11)">
      <defs>
       <path d="M -0.09375 40.28125 
L 13.671875 45.84375 
L 15.53125 45.84375 
L 15.53125 35.40625 
Q 19 41.3125 22.484375 43.671875 
Q 25.984375 46.046875 29.828125 46.046875 
Q 36.578125 46.046875 41.0625 40.765625 
Q 46.578125 34.328125 46.578125 23.96875 
Q 46.578125 12.40625 39.9375 4.828125 
Q 34.46875 -1.375 26.171875 -1.375 
Q 22.5625 -1.375 19.921875 -0.34375 
Q 17.96875 0.390625 15.53125 2.59375 
L 15.53125 -11.03125 
Q 15.53125 -15.625 16.09375 -16.859375 
Q 16.65625 -18.109375 18.046875 -18.84375 
Q 19.4375 -19.578125 23.09375 -19.578125 
L 23.09375 -21.390625 
L -0.34375 -21.390625 
L -0.34375 -19.578125 
L 0.875 -19.578125 
Q 3.5625 -19.625 5.46875 -18.5625 
Q 6.390625 -18.015625 6.90625 -16.8125 
Q 7.421875 -15.625 7.421875 -10.75 
L 7.421875 31.546875 
Q 7.421875 35.890625 7.03125 37.0625 
Q 6.640625 38.234375 5.78125 38.8125 
Q 4.9375 39.40625 3.46875 39.40625 
Q 2.296875 39.40625 0.484375 38.71875 
z
M 15.53125 32.515625 
L 15.53125 15.828125 
Q 15.53125 10.40625 15.96875 8.6875 
Q 16.65625 5.859375 19.3125 3.703125 
Q 21.96875 1.5625 26.03125 1.5625 
Q 30.90625 1.5625 33.9375 5.375 
Q 37.890625 10.359375 37.890625 19.390625 
Q 37.890625 29.640625 33.40625 35.15625 
Q 30.28125 38.96875 25.984375 38.96875 
Q 23.640625 38.96875 21.34375 37.796875 
Q 19.578125 36.921875 15.53125 32.515625 
z
" id="TimesNewRomanPSMT-112"/>
       <path d="M 4.046875 26.125 
L 29.296875 26.125 
L 29.296875 18.75 
L 4.046875 18.75 
z
" id="TimesNewRomanPSMT-45"/>
       <path d="M 1.8125 34.46875 
L 54.34375 57.234375 
L 54.34375 52.984375 
L 9.125 33.34375 
L 54.34375 13.53125 
L 54.34375 9.125 
L 1.8125 32.078125 
z
" id="TimesNewRomanPSMT-60"/>
      </defs>
      <use xlink:href="#TimesNewRomanPSMT-112"/>
      <use x="50" xlink:href="#TimesNewRomanPSMT-45"/>
      <use x="83.300781" xlink:href="#TimesNewRomanPSMT-118"/>
      <use x="133.300781" xlink:href="#TimesNewRomanPSMT-97"/>
      <use x="177.685547" xlink:href="#TimesNewRomanPSMT-108"/>
      <use x="205.46875" xlink:href="#TimesNewRomanPSMT-117"/>
      <use x="255.46875" xlink:href="#TimesNewRomanPSMT-101"/>
      <use x="299.853516" xlink:href="#TimesNewRomanPSMT-32"/>
      <use x="324.853516" xlink:href="#TimesNewRomanPSMT-60"/>
      <use x="381.25" xlink:href="#TimesNewRomanPSMT-32"/>
      <use x="406.25" xlink:href="#TimesNewRomanPSMT-49"/>
      <use x="456.25" xlink:href="#TimesNewRomanPSMT-101"/>
      <use x="500.634766" xlink:href="#TimesNewRomanPSMT-45"/>
      <use x="533.935547" xlink:href="#TimesNewRomanPSMT-49"/>
      <use x="583.935547" xlink:href="#TimesNewRomanPSMT-48"/>
     </g>
    </g>
   </g>
  </g>
 </g>
 <defs>
  <clipPath id="pcc7866e4de">
   <rect height="217.44" width="334.8" x="56.874844" y="9.215384"/>
  </clipPath>
 </defs>
</svg>
